<?xml version="1.0" encoding="UTF-8"?>
<svg width="50px" height="37px" viewBox="0 0 50 37" version="1.1" xmlns="http://www.w3.org/2000/svg" xmlns:xlink="http://www.w3.org/1999/xlink">
    <title>quote yellow</title>
    <g id="features" stroke="none" stroke-width="1" fill="none" fill-rule="evenodd">
        <g id="Desktop-HD--Copy-38" transform="translate(-380.000000, -1843.000000)" fill="#2584FF" fill-rule="nonzero">
            <g id="Group-4" transform="translate(380.000000, 1843.000000)">
                <path d="M49.1071429,25.9880952 C49.1071429,32.7053571 44.6428571,37 37.2767857,37 C30.2455357,37 25,32.7053571 25,22.2440476 C25,9.36011905 33.9285714,0.880952381 50,0 L50,11.3422619 C44.1964286,11.672619 39.84375,12.9940476 38.28125,15.4166667 C45.5357143,15.5267857 49.1071429,19.2708333 49.1071429,25.9880952 Z M24.1071429,25.9880952 C24.1071429,32.7053571 19.6428571,37 12.2767857,37 C5.24553571,37 0,32.7053571 0,22.2440476 C0,9.36011905 8.92857143,0.880952381 25,0 L25,11.3422619 C19.1964286,11.672619 14.84375,12.9940476 13.28125,15.4166667 C20.5357143,15.5267857 24.1071429,19.2708333 24.1071429,25.9880952 Z" id="quote-yellow"></path>
            </g>
        </g>
    </g>
</svg>