<?xml version="1.0" encoding="utf-8"?>
<!-- Generator: Adobe Illustrator 16.0.0, SVG Export Plug-In . SVG Version: 6.00 Build 0)  -->
<!DOCTYPE svg PUBLIC "-//W3C//DTD SVG 1.1//EN" "http://www.w3.org/Graphics/SVG/1.1/DTD/svg11.dtd">
<svg version="1.1" id="Layer_1" xmlns="http://www.w3.org/2000/svg" xmlns:xlink="http://www.w3.org/1999/xlink" x="0px" y="0px"
	 width="1125px" height="732px" viewBox="0 0 1125 732" enable-background="new 0 0 1125 732" xml:space="preserve">
<g transform="translate(300,300)" opacity="0.5">
	<path fill="#30C5CC" d="M548.251-228.893C636.5-160.394,693.442-21.599,659.002,81.049
		c-34.438,102.849-160.257,169.552-290.381,237.452S104.068,455.297,3.49,418.952c-100.381-36.545-167.107-178.538-172.194-305.15
		c-5.087-126.614,51.071-238.049,126.016-303.354c75.139-65.502,168.867-84.874,275.705-95.458
		C339.857-295.594,459.805-297.392,548.251-228.893z"/>
</g>
<g>
	<ellipse fill="#AEE4ED" cx="-654.57" cy="942.522" rx="96.315" ry="12.698"/>
	<path fill="#AEE4ED" d="M-122.192,926.646c0,5.259-43.594,9.522-97.375,9.522c-53.774,0-97.372-4.264-97.372-9.522
		c0-5.264,43.598-9.527,97.372-9.527C-165.786,917.119-122.192,921.383-122.192,926.646z"/>
	<polygon fill="#30C5CC" points="-821.975,818.941 -833.44,818.941 -833.44,807.475 -840.596,807.475 -840.596,818.941 
		-852.062,818.941 -852.062,826.099 -840.596,826.099 -840.596,837.562 -833.44,837.562 -833.44,826.099 -821.975,826.099 	"/>
	<path fill="#3D9CFF" d="M-811.536,797.844c0,3.912-3.171,7.086-7.087,7.086c-3.915,0-7.088-3.174-7.088-7.086
		c0-3.917,3.173-7.092,7.088-7.092C-814.708,790.752-811.536,793.927-811.536,797.844z"/>
	<path fill="#30C5CC" d="M-219.675,889.601h-539.501c-21.57,0-39.218-17.646-39.218-39.216V433.486
		c0-21.57,17.647-39.218,39.218-39.218h539.501c21.567,0,39.218,17.647,39.218,39.218v416.898
		C-180.457,871.955-198.107,889.601-219.675,889.601z"/>
	<path fill="#0B9B9B" d="M-754.227,871.964c-14.077,0-25.489-11.414-25.489-25.492V437.398c0-14.078,11.412-25.49,25.489-25.49
		h529.601c14.078,0,25.49,11.412,25.49,25.49v409.073c0,14.078-11.412,25.492-25.49,25.492H-754.227z"/>
	<path fill="#C6F4FF" d="M-230.818,858.66h-517.216c-9.094,0-16.467-7.372-16.467-16.466V441.676
		c0-9.094,7.373-16.465,16.467-16.465h517.216c9.093,0,16.465,7.371,16.465,16.465v400.519
		C-214.354,851.288-221.726,858.66-230.818,858.66z"/>
	<path fill="#0B9B9B" d="M-835.492,857.698c12.4,20.439,34.871,34.17,60.394,34.17h571.342c25.523,0,47.994-13.73,60.395-34.17
		H-835.492z"/>
	<path fill="#30C5CC" d="M-828.105,867.728h677.357c2.74-3.12,5.223-6.465,7.387-10.029h-692.13
		C-833.33,861.263-830.843,864.607-828.105,867.728z"/>
	<rect x="-721.248" y="682.861" fill="#DB5A28" width="153.819" height="86.079"/>
	<g>
		<rect x="-570.79" y="462.502" fill="#30C5CC" width="57.864" height="7.973"/>
		<rect x="-645.612" y="462.502" fill="#30C5CC" width="35.326" height="7.973"/>
		<rect x="-726.271" y="462.502" fill="#30C5CC" width="69.985" height="7.973"/>
		<rect x="-599.228" y="462.502" fill="#30C5CC" width="15.177" height="7.973"/>
		<rect x="-498.202" y="462.502" fill="#30C5CC" width="35.203" height="7.973"/>
	</g>
	<g>
		<rect x="-570.79" y="485.787" fill="#30C5CC" width="21.708" height="7.972"/>
		<rect x="-540.45" y="485.787" fill="#30C5CC" width="21.708" height="7.972"/>
		<rect x="-681.599" y="485.787" fill="#30C5CC" width="35.326" height="7.972"/>
		<rect x="-726.271" y="485.787" fill="#30C5CC" width="34.656" height="7.972"/>
		<rect x="-636.578" y="485.787" fill="#30C5CC" width="58.173" height="7.972"/>
	</g>
	<g>
		<path fill="#2F2F8E" d="M-624.229,927.889c-3.658-11.736-10.759-61.408-12.348-80.858c-0.335-4.123-45.599-21.801-45.599-21.801
			c-26.499-0.673-40.133,9.717-40.133,9.717l63.622,21.492c0,28.694,24.462,71.97,24.462,71.97
			C-634.226,928.411-624.229,927.889-624.229,927.889z"/>
		<path fill="#4C49A2" d="M-678.809,862.138l-18.894,65.802l10.793,2.35c4.704-15.52,31.896-68.717,32.634-75.04
			c0.313-2.693,0.12-4.778-0.887-5.619c-1.014-0.85-31.509-19.072-40.367-21.065c-11.865-2.665-29.483-6.938-29.483-6.938
			s-9.932,10.39-7.998,27.286C-731.075,865.805-678.809,862.138-678.809,862.138z"/>
		<path fill="#FFFFFF" d="M-704.305,746.437c0,0-20.708,1.835-21.648,7.478c-0.94,5.645,9.879,41.371,9.879,41.371l-10.52,28.074
			c0,0,29.865,7.353,44.417,1.87c1.382,0.632,3.734-29.476,3.734-29.476l5.184-14.79l6.575,22.317l15.054,21.168l9.877-7.995
			l-10.969-19.282c0,0-16.979-38.744-21.488-43.258C-682.676,745.45-704.305,746.437-704.305,746.437z"/>
		<path fill="#E67750" d="M-687.894,747.926l-1.603-21.293h-15.525v19.891c-1.964,0.219,2.118,16.093,14.627,16.093
			C-690.395,762.616-684.557,760.5-687.894,747.926z"/>
		<path fill="#EFEFEF" d="M-719.359,783.997c1.809,6.42,3.285,11.288,3.285,11.288l-10.52,28.074c0,0,22.724,5.591,38.187,3.381
			c-1.38-1.016-19.715-13.368-20.611-18.757C-710.9,796.695-719.359,783.997-719.359,783.997z"/>
		<path fill="#FD9E71" d="M-674.071,705.137c-1.313-5.452-9.817-7.031-23.26-5.45c-9.142,1.074-11.197,9.489-11.452,15.743
			c-0.137,0.031-0.273,0.049-0.412,0.09c-3.156,0.968-5.404,4.039-5.23,7.375c0.087,1.708,0.688,3.264,1.813,4.53
			c1.187,1.933,3.212,3.232,5.531,3.527c0.648,0.083,1.286,0.053,1.912-0.036c3.807,7.922,10.79,17.795,20.587,16.617
			C-670.219,737.488-674.071,705.137-674.071,705.137z"/>
		<path fill="#201251" d="M-704.85,719.483c0,0-2.97-7.119,3.728-12.148c6.699-5.028,7.15,2.393,14.213,3.306
			c7.06,0.909,14.028,0.335,13.27,5.002c4.274-10.546-1.907-16.575-8.815-19.881c-6.906-3.302-17.725-4.73-25.241,1.542
			c-7.516,6.271-6.498,21.333-6.498,21.333C-709.238,716.241-707.91,718.181-704.85,719.483z"/>
		<path fill="#201251" d="M-707.695,697.304c0,0-6.239-16.758-18.057-12.609c-11.819,4.148-6.489,27.969-7.794,38.331
			c-1.305,10.362-8.729,10.815-11.395,6.21c-4.94,9.394,14.42,18.938,20.725,9.911c6.303-9.028,2.671-31.906,6.703-34.24
			c4.03-2.331,8.089,0.698,8.089,0.698L-707.695,697.304z"/>
		<path fill="#FFFFFF" d="M-725.483,752.035c-4.974,2.87-14.112,37.134-14.112,42.779c0,5.644,44.065,33.75,44.065,33.75
			s2.033-6.938,6.736-8.347c-0.938-0.474-32.926-31.049-32.926-31.049l8.467-23.966
			C-713.252,765.203-713.252,744.979-725.483,752.035z"/>
		<polygon fill="#30C5CC" points="-698.899,832.882 -653.981,831.508 -624.819,842.327 -674.188,844.946 		"/>
		<polygon fill="#0B9B9B" points="-674.188,844.946 -698.899,835.374 -698.899,832.882 -672.235,842.502 		"/>
		<polygon fill="#0B9B9B" points="-674.188,844.946 -659.342,804.412 -610.235,807.044 -624.819,843.269 		"/>
		
			<ellipse transform="matrix(-0.8944 -0.4472 0.4472 -0.8944 -1581.7506 1274.9391)" fill="#30C5CC" cx="-640.398" cy="824.159" rx="4.059" ry="5.909"/>
		<path fill="#FD9E71" d="M-688.793,820.218c0,0,17.876,14.111,15.995,15.052c-1.882,0.94-9.878,0.94-14.111-1.412
			c-4.236-2.35-8.62-5.293-8.62-5.293S-693.967,820.687-688.793,820.218z"/>
		<g>
			<path fill="#201251" d="M-686.439,926.999c3.173,3.216,13.969,8.089,19.286,9.407c5.702,1.412,4.703,6.199,0.536,6.199
				c-8.181,0-26.376-1.023-35.346-1.023c-1.411-4.234,1.02-9.896,3.875-13.709C-697.221,926.707-686.895,926.539-686.439,926.999z"
				/>
		</g>
		<g>
			<path fill="#201251" d="M-621.994,926.999c3.172,3.216,13.968,8.089,19.285,9.407c5.703,1.412,4.704,6.199,0.537,6.199
				c-8.181,0-26.377-1.023-35.346-1.023c-1.411-4.234,1.019-9.896,3.875-13.709C-632.775,926.707-622.45,926.539-621.994,926.999z"
				/>
		</g>
	</g>
	<g>
		<rect x="-720.417" y="649.398" fill="#31D0A8" width="43.136" height="11.886"/>
		<rect x="-610.564" y="649.398" fill="#31D0A8" width="43.135" height="11.886"/>
		<rect x="-665.49" y="649.398" fill="#31D0A8" width="43.136" height="11.886"/>
	</g>
	<g>
		
			<rect x="-571.274" y="436.157" transform="matrix(0.9712 -0.2381 0.2381 0.9712 -124.5184 -105.9832)" fill="#FEBA40" width="140.732" height="52.428"/>
		
			<rect x="-567.203" y="446.357" transform="matrix(0.9712 -0.2381 0.2381 0.9712 -121.9852 -109.7853)" fill="#FEDB9B" width="103.66" height="7.249"/>
		
			<rect x="-563.891" y="460.899" transform="matrix(0.9712 -0.2381 0.2381 0.9712 -125.5967 -110.6064)" fill="#FEDB9B" width="86.618" height="7.248"/>
		
			<rect x="-559.876" y="480.025" transform="matrix(0.9712 -0.2381 0.2381 0.9712 -130.6948 -114.5229)" fill="#FEDB9B" width="41.097" height="7.248"/>
		
			<rect x="-474.644" y="447.129" transform="matrix(0.9712 -0.2381 0.2381 0.9712 -120.6439 -97.4203)" fill="#FFFFFF" width="22.011" height="7.244"/>
	</g>
	<rect x="-722.044" y="511.031" fill="#FFFFFF" width="153.513" height="125.266"/>
	<g>
		<rect x="-557.037" y="583.279" fill="#4CB0DD" width="301.9" height="56.492"/>
		<rect x="-345.869" y="591.456" fill="#FFFFFF" width="81.698" height="40.141"/>
		<rect x="-545.997" y="593.89" fill="#75D5EF" width="188.837" height="7.743"/>
		<rect x="-545.997" y="607.654" fill="#75D5EF" width="188.837" height="7.742"/>
		<rect x="-545.997" y="621.421" fill="#75D5EF" width="127.133" height="7.741"/>
	</g>
	<g>
		<g>
			<rect x="-556.968" y="680.126" fill="#FFFFFF" width="290.128" height="136.126"/>
			<rect x="-556.968" y="680.126" fill="#FDBE44" width="290.128" height="22.569"/>
			<rect x="-549.932" y="734.788" fill="#98DBE5" width="167.531" height="11.491"/>
			<rect x="-549.932" y="755.215" fill="#98DBE5" width="150.236" height="11.492"/>
			<rect x="-549.932" y="775.643" fill="#98DBE5" width="101.326" height="11.492"/>
			<rect x="-549.932" y="715.97" fill="#98DBE5" width="60.388" height="11.49"/>
		</g>
		<g>
			<rect x="-366.085" y="715.41" fill="#86D2E8" width="87.626" height="87.625"/>
			<path fill="#F6FFFA" d="M-313.314,758.65c1.377-1.856,2.202-4.148,2.202-6.635v-6.693c0-6.164-4.994-11.16-11.161-11.16
				c-6.162,0-11.157,4.996-11.157,11.16v6.693c0,2.616,0.904,5.02,2.413,6.922c-10.237,3.605-17.578,13.357-17.576,24.827h55.186
				C-293.408,783.765-295.543,763.803-313.314,758.65z"/>
		</g>
		<g>
			<circle fill="#DB5A28" cx="-541.977" cy="691.977" r="5.694"/>
			<circle fill="#FFE780" cx="-523.73" cy="691.977" r="5.694"/>
			<circle fill="#1FB288" cx="-502.563" cy="691.977" r="5.694"/>
		</g>
	</g>
	<rect x="-365.626" y="457.067" fill="#DB5A28" width="101.608" height="101.606"/>
	<g>
		<path fill="#9E472D" d="M-223.362,908.438c0,0,0.879,2.672-7.319,6.41c-8.197,3.742-16.85,2.42-18.973,5.562
			c-2.121,3.142-2.618,6.116-2.618,6.116h46.636c0,0-0.354-12.875-5.633-18.591C-210.599,909.161-223.362,908.438-223.362,908.438z"
			/>
		<path fill="#9E472D" d="M-172.57,908.416c0,0,0.846,2.569-7.037,6.167s-16.2,2.324-18.242,5.346
			c-2.039,3.021-2.521,5.884-2.521,5.884h44.842c0,0-0.34-12.382-5.417-17.878C-160.299,909.116-172.57,908.416-172.57,908.416z"/>
		<g>
			<polygon fill="#FFFFFF" points="-232.55,663.209 -266.412,669.162 -290.225,618.184 -253.761,615.209 			"/>
		</g>
		<g>
			<path fill="#262845" d="M-274.83,658.056c0.008-0.004,0.018-0.007,0.029-0.004C-274.916,658.104-274.934,658.107-274.83,658.056z
				"/>
		</g>
		<path fill="#FD9E71" d="M-209.11,567.58c0,0-4.463,8.93-4.463,17.116c0,5.722,0.724,13.989,1.163,18.448
			c0.158,1.621,1.763,2.691,3.32,2.211l6.677-2.055l-0.372,9.676l18.631-0.324l4.065-39.119
			C-180.089,573.533-195.716,556.417-209.11,567.58z"/>
		<path fill="#201251" d="M-207.705,588.119c0,0,1.048-7.747,6.892-6.143c5.844,1.604-0.854,9.417-0.854,9.417l5.582,10.047
			c4.086,1.48,8.603,1.588,13.021-0.372c0,0,6.204-18.854,6.204-24.807s-5.429-9.975-5.429-9.975s-14.542-7.266-22.358-6.893
			c-7.812,0.371-8.559,8.186-8.559,8.186s-2.975,5.953,0,8.558C-210.226,578.742-207.705,588.119-207.705,588.119z"/>
		<path fill="#6AA5CC" d="M-183.313,607.27l-0.841,5.383l-19.25,0.074C-203.404,612.727-199.683,606.773-183.313,607.27z"/>
		<path fill="#FD9E71" d="M-265.667,655.396c0,0,1.348-4.221-4.094-6.699c0.14-0.989-1.091-5.929-2.234-7.07
			c-1.144-1.14-1.86,5.209-1.86,5.209s-5.33-9.488-6.698-7.067c-1.367,2.418,12.031,21.084,12.404,21.829
			S-265.667,655.396-265.667,655.396z"/>
		<path fill="#201251" d="M-215.559,716.666l-12.901,109.146l2.619,84.608l16.233-1.159c0,0,4.592-44.501,4.96-55.666
			c0.373-11.161-2.975-28.281-2.975-28.281l16.373-67.471l2.724,0.496l0.749,66.482l14.912,84.439l13.651,0.654
			c0,0,0.335-43.545-0.78-54.335c-1.119-10.791-6.944-32.371-6.944-32.371l5.951-68.84c0,0,5.953-18.105-4.714-38.448
			C-167.063,716.046-215.559,716.666-215.559,716.666z"/>
		<path fill="#96C4EA" d="M-203.404,612.727c0,0-23.071,7.443-27.289,11.659c-4.215,4.218-16.308,47.685-16.308,47.685
			l-18.227-18.265l-5.648,13.248c0,0,21.329,31.752,28.027,32.745c6.701,0.99,21.831-40.187,21.831-40.187
			s1.372,22.492,3.972,33.735c2.975,12.899,1.487,23.318,1.487,23.318c20.643,3.749,38.201,2.978,49.858-0.744l5.778-43.336
			c0,0,7.865,0.917,10.348-1.812c2.479-2.729-8.931-47.628-11.412-51.101c-2.479-3.473-23.168-7.021-23.168-7.021L-203.404,612.727z
			"/>
		<path fill="#6AA5CC" d="M-180.941,642.523c-0.126-0.881-1.579-0.668-1.547,0.207c0.692,18.651,0.063,36.832-2.867,55.297
			c-0.195,1.239,1.649,1.805,1.923,0.531C-179.476,680.303-178.34,661.052-180.941,642.523z"/>
		<path fill="#6AA5CC" d="M-159.77,656.338c-0.123-0.621-1.069-0.458-1.081,0.147c-0.198,10.898-1.546,21.315-3.614,32.017
			c-1.836,9.507-3.518,19.025-2.9,28.749c0.087,1.358,2.192,1.379,2.134,0c-0.472-11.229,1.812-22.071,3.854-33.047
			C-159.677,675.089-157.929,665.561-159.77,656.338z"/>
		<path fill="#6AA5CC" d="M-218.903,656.007c-6.195,3.937-8.521,11.644-10.896,18.2c-3.207,8.868-6.411,17.583-13.397,24.239
			c-1.041,0.989,0.513,2.521,1.57,1.567c12.896-11.61,12.283-30.59,23.282-43.279C-218.016,656.356-218.435,655.708-218.903,656.007
			z"/>
		<path fill="#9E472D" d="M-165.451,712.698c0,0-31.255,3.968-50.107-1.985c0.492,0,0,5.953,0,5.953s24.032,9.018,51.596,1.984
			C-164.183,718.564-165.451,712.698-165.451,712.698z"/>
	</g>
	<g>
		<path fill="#1A133A" d="M-488.87,839.736c0,0-2.588,5.646-7.056,6.587c-4.47,0.939-16.229,3.531-18.112,5.176
			c-1.882,1.646-1.882,5.88-1.882,5.88h37.33c0,0-0.066-11.301-2.234-17.179C-479.934,840.21-488.87,839.736-488.87,839.736z"/>
		<path fill="#1A133A" d="M-416.9,839.736c0,0-2.588,5.646-7.055,6.587c-4.47,0.939-16.229,3.531-18.111,5.176
			c-1.881,1.646-1.881,5.88-1.881,5.88h37.327c0,0-0.066-11.301-2.233-17.179C-407.963,840.21-416.9,839.736-416.9,839.736z"/>
		<path fill="#E79673" d="M-421.475,472.873c0,0-10.398-2.652-11.025-0.997c-0.628,1.655,16.071,6.595,16.071,6.595l15.038,41.695
			l-5.63,13.342l10.351,11.289c0,0,11.288-15.287,12.229-19.756c0.939-4.47-26.813-49.393-26.813-49.393s-5.508-17.504-6.349-18.346
			c-0.843-0.842-10.786-0.313-13.038-0.275c-2.252,0.04,6.554,8.954,6.554,8.954L-421.475,472.873z"/>
		<path fill="#E79673" d="M-461.924,503.738c0,0-4.955,6.955-6.013,14.363c-1.06,7.409,0.352,14.466,0.352,14.466l9.093-0.302v8.507
			h18.072c0,0,0.355-6.442,1.06-9.97c0.706-3.528,5.644-10.231,5.644-10.231l-8.114-22.932l-11.642-1.058L-461.924,503.738z"/>
		<path fill="#201251" d="M-457.353,514.574c0,0,3.174-7.409,7.055-4.587c3.881,2.823-1.06,8.819-1.06,8.819
			s2.471,10.232,6.704,11.645c4.233,1.41,4.233,1.41,4.233,1.41s10.938-10.23,12.703-13.055c1.763-2.822-2.822-19.051-5.999-22.578
			c-3.175-3.527-16.933-3.176-17.993-4.939c-1.059-1.764-4.587-4.939-8.114-3.528c-3.529,1.412-2.822,13.055-2.822,13.055
			s4.361,3.755,4.649,6.464c0.288,2.708-1.729,6.297-1.729,6.297L-457.353,514.574z"/>
		<path fill="#201251" d="M-474.446,541.315c0,0,18.034-2.634,28.382-2.868c10.348-0.235,26.813,5.174,26.813,5.174l11.983-12.828
			l15.261,14.345c0,0-12.99,19.175-17.179,23.647c-4.185,4.472-7.244,25.404-8.184,31.755c-0.941,6.351-3.293,43.513-3.293,43.513
			s-11.055,13.171-56.449-1.178c-0.47-0.47,1.881-27.283,1.647-33.867c-0.236-6.586-6.117-28.93-7.292-34.34
			c-1.177-5.41-19.93-16.234-19.93-16.234s-2.316-13.18,6.337-19.523C-495.222,539.623-474.446,541.315-474.446,541.315z"/>
		<path fill="#E79673" d="M-516.39,487.408c0,0-6.82,6.351-7.29,8.938c-0.47,2.588,9.385,32.058,9.385,32.058l17.947,10.507
			l-6.337,19.523c0,0-19.584-13.637-22.406-17.635c-2.822-3.998-7.762-43.982-7.762-43.982s-6.351-7.997-6.821-10.113
			c-0.471-2.117-1.951-9.039-0.859-10.4c1.094-1.36,8.372-8.891,9.437-6.654c1.065,2.236,4.981,18.527,4.981,18.527
			S-518.036,484.586-516.39,487.408z"/>
		<path fill="#4C49A2" d="M-477.111,642.875l-10.23,96.433l-5.292,102.312l17.64,0.708c0,0,10.939-67.883,11.113-78.219
			c0.176-10.335-0.177-22.683-0.177-22.683l11.289-51.509h6.351l13.052,67.031l13.406,83.262l14.114,0.705
			c0,0,2.115-51.861,0-62.447c-2.118-10.584-5.292-20.814-5.292-20.814l-6.352-69.499c0,0,5.645-24.698-3.174-44.102
			C-422.426,640.523-477.111,642.875-477.111,642.875z"/>
	</g>
	<polygon fill="#FDBE44" points="-584.893,533.174 -596.358,533.174 -596.358,521.707 -603.513,521.707 -603.513,533.174 
		-614.98,533.174 -614.98,540.328 -603.513,540.328 -603.513,551.795 -596.358,551.795 -596.358,540.328 -584.893,540.328 	"/>
	<path fill="#30C5CC" d="M-691.615,621.655c-9.884,0-17.931-8.042-17.931-17.927s8.047-17.926,17.931-17.926
		c9.886,0,17.927,8.041,17.927,17.926S-681.729,621.655-691.615,621.655z M-691.615,595.158c-4.729,0-8.575,3.844-8.575,8.57
		s3.845,8.572,8.575,8.572c4.722,0,8.572-3.846,8.572-8.572S-686.893,595.158-691.615,595.158z"/>
	<polygon fill="#30C5CC" points="-140.362,456.969 -151.828,456.969 -151.828,445.504 -158.982,445.504 -158.982,456.969 
		-170.449,456.969 -170.449,464.124 -158.982,464.124 -158.982,475.59 -151.828,475.59 -151.828,464.124 -140.362,464.124 	"/>
	<path fill="#3D9CFF" d="M-197.659,378.715c0,3.912-3.176,7.087-7.088,7.087c-3.915,0-7.09-3.175-7.09-7.087
		c0-3.916,3.175-7.092,7.09-7.092C-200.835,371.623-197.659,374.799-197.659,378.715z"/>
	<path fill="#FEBA40" d="M-335.99,503.113c-9.885,0-17.932-8.041-17.932-17.926s8.047-17.926,17.932-17.926
		c9.884,0,17.928,8.041,17.928,17.926S-326.106,503.113-335.99,503.113z M-335.99,476.617c-4.729,0-8.575,3.844-8.575,8.57
		c0,4.726,3.846,8.571,8.575,8.571c4.725,0,8.57-3.846,8.57-8.571C-327.42,480.461-331.266,476.617-335.99,476.617z"/>
	<path fill="#FEBA40" d="M-240.735,384.572c-9.883,0-17.932-8.041-17.932-17.926s8.049-17.926,17.932-17.926
		c9.89,0,17.929,8.042,17.929,17.926S-230.846,384.572-240.735,384.572z M-240.735,358.075c-4.728,0-8.574,3.845-8.574,8.571
		c0,4.726,3.847,8.571,8.574,8.571c4.725,0,8.571-3.846,8.571-8.571C-232.164,361.92-236.011,358.075-240.735,358.075z"/>
</g>
<g>
	<ellipse fill="#CCCCFF" cx="413.395" cy="616.859" rx="373.533" ry="23.634"/>
	<g>
		<path fill="#CCCCFF" d="M733.992,106.074c0,2.021-0.821,3.864-2.163,5.198c-1.325,1.342-3.169,2.166-5.19,2.166h-157.42
			c-4.044,0-7.356-3.313-7.356-7.364c0-2.021,0.825-3.865,2.167-5.198c1.325-1.343,3.168-2.167,5.189-2.167h7.44
			c2.938-6.829,9.726-11.602,17.625-11.602c5.315,0,10.122,2.166,13.606,5.656c4.638-7.865,13.189-13.147,22.982-13.147
			c2.692,0,5.284,0.407,7.729,1.147c5.123-9.632,15.247-16.189,26.918-16.189c14.014,0,25.802,9.462,29.362,22.339
			c2.582-1.292,5.493-2.03,8.587-2.03c8.737,0,16.11,5.835,18.429,13.827h4.741C730.682,98.709,733.992,102.022,733.992,106.074z"/>
		<path fill="#CCCCFF" d="M247.431,102.111c0,2.021-0.825,3.865-2.166,5.198c-1.325,1.342-3.168,2.166-5.19,2.166H82.655
			c-4.042,0-7.355-3.312-7.355-7.364c0-2.022,0.824-3.864,2.167-5.197c1.324-1.343,3.167-2.167,5.189-2.167h7.44
			c2.939-6.829,9.726-11.603,17.625-11.603c5.317,0,10.124,2.167,13.606,5.657c4.638-7.865,13.19-13.147,22.983-13.147
			c2.693,0,5.283,0.407,7.729,1.146c5.122-9.631,15.246-16.188,26.917-16.188c14.015,0,25.803,9.461,29.362,22.338
			c2.582-1.291,5.496-2.03,8.587-2.03c8.74,0,16.112,5.835,18.431,13.828h4.74C244.117,94.747,247.431,98.059,247.431,102.111z"/>
		<path fill="#CCCCFF" d="M435.593,129.36c0,1.766-0.719,3.375-1.891,4.541c-1.157,1.172-2.768,1.892-4.534,1.892H291.671
			c-3.531,0-6.425-2.893-6.425-6.432c0-1.766,0.72-3.376,1.892-4.54c1.157-1.173,2.767-1.893,4.533-1.893h6.499
			c2.567-5.964,8.495-10.133,15.394-10.133c4.645,0,8.844,1.892,11.885,4.941c4.05-6.87,11.521-11.484,20.075-11.484
			c2.352,0,4.614,0.355,6.751,1.001c4.474-8.413,13.316-14.14,23.51-14.14c12.241,0,22.538,8.265,25.646,19.511
			c2.255-1.127,4.8-1.773,7.5-1.773c7.634,0,14.074,5.097,16.099,12.077h4.14C432.7,122.928,435.593,125.821,435.593,129.36z"/>
	</g>
	<g>
		<g>
			<g>
				<path fill="#B6B6EF" d="M682.21,296.142l3.871,0.712l2.058,0.375l5.82,1.068c0,0,73.696-78.515,46.938-115.553
					c-8.236-11.402-27.908-7.915-33.336,34.749C702.525,257.038,682.21,296.142,682.21,296.142z"/>
				<g>
					<path fill="#9B9BDD" d="M686.081,296.854l2.058,0.375c14.245-19.837,24.249-42.338,30.303-58.35
						c7.191-19.012,10.529-33.242,10.559-33.384c0.122-0.508-0.194-1.016-0.706-1.132c-0.508-0.12-1.016,0.197-1.131,0.703
						c-0.033,0.144-3.35,14.272-10.499,33.173C710.574,254.331,700.481,277.014,686.081,296.854z"/>
				</g>
			</g>
			<g>
				<path fill="#CCCCFF" d="M647.558,335.09l4.618,3.344l2.451,1.772l6.942,5.021c0,0,145.219-56.719,133.312-121.793
					c-3.666-20.031-31.549-27.725-65.212,24.651C698.463,296.636,647.558,335.09,647.558,335.09z"/>
				<g>
					<path fill="#B6B6EF" d="M652.176,338.434l2.451,1.772c30.973-17.054,58.061-40.233,75.945-57.389
						c21.238-20.371,34.461-36.891,34.59-37.056c0.475-0.59,0.376-1.451-0.215-1.919c-0.59-0.472-1.45-0.375-1.922,0.214
						c-0.132,0.167-13.262,16.569-34.382,36.816C710.67,298.112,683.348,321.47,652.176,338.434z"/>
				</g>
			</g>
		</g>
		<g>
			<g>
				<path fill="#B6B6EF" d="M154.481,441.324l-3.874,0.712l-2.055,0.378l-5.822,1.068c0,0-73.697-78.515-46.938-115.554
					c8.237-11.402,27.911-7.914,33.338,34.748C134.165,402.223,154.481,441.324,154.481,441.324z"/>
				<g>
					<path fill="#9B9BDD" d="M150.607,442.036l-2.055,0.378c-14.246-19.837-24.248-42.34-30.304-58.35
						c-7.19-19.013-10.528-33.243-10.56-33.385c-0.119-0.508,0.197-1.016,0.706-1.131c0.508-0.12,1.016,0.196,1.134,0.703
						c0.032,0.143,3.347,14.272,10.499,33.173C126.115,399.516,136.21,422.198,150.607,442.036z"/>
				</g>
			</g>
			<g>
				<path fill="#CCCCFF" d="M189.134,480.274l-4.62,3.344l-2.451,1.772l-6.943,5.021c0,0-145.216-56.722-133.31-121.791
					c3.664-20.033,31.549-27.728,65.212,24.649C138.228,441.822,189.134,480.274,189.134,480.274z"/>
				<g>
					<path fill="#B6B6EF" d="M184.514,483.618l-2.451,1.772c-30.972-17.055-58.059-40.234-75.944-57.391
						c-21.237-20.371-34.463-36.888-34.591-37.055c-0.473-0.588-0.376-1.45,0.217-1.917c0.589-0.474,1.451-0.376,1.92,0.213
						c0.132,0.166,13.263,16.569,34.381,36.816C126.021,443.296,153.343,466.654,184.514,483.618z"/>
				</g>
			</g>
		</g>
		<g>
			<g>
				<path fill="#B6B6EF" d="M305.751,256.112c-26.212-20.925-47.311-40.375-62.803-57.912
					c-20.238-22.912-30.889-42.621-31.653-58.582c-0.051-1.058,0.766-1.957,1.824-2.008c1.058-0.05,1.957,0.766,2.008,1.824
					c1.337,27.9,35.825,69.023,99.786,119.025L305.751,256.112z"/>
			</g>
			<path fill="#CCCCFF" d="M226.609,176.272c0,0-10.837,11.816-30.866-8.049C195.744,168.223,217.461,154.841,226.609,176.272z"/>
			<path fill="#CCCCFF" d="M236.406,187.048c0,0-12.4-10.163,6.318-31.266C242.724,155.782,257.293,176.72,236.406,187.048z"/>
			<path fill="#CCCCFF" d="M215.498,151.321c0,0-15.079-5.446-4.466-31.583C211.032,119.738,231.748,134.621,215.498,151.321z"/>
			<path fill="#CCCCFF" d="M255.445,209.333c0,0-6.201,14.784-31.769,2.866C223.676,212.199,239.587,192.26,255.445,209.333z"/>
			<path fill="#CCCCFF" d="M267.087,218.799c0,0-13.971-7.864,0.817-31.887C267.904,186.912,285.875,205.016,267.087,218.799z"/>
			<path fill="#CCCCFF" d="M281.739,233.343c0,0-5.92,14.901-31.708,3.469C250.03,236.812,265.56,216.575,281.739,233.343z"/>
		</g>
	</g>
	<g>
		<g>
			<g>
				<path fill="#161642" d="M710.165,249.266v309.85c0,12.775-10.354,23.129-23.127,23.129H158.98
					c-12.774,0-23.128-10.354-23.128-23.129v-309.85c0-12.774,10.354-23.129,23.128-23.129h528.058
					C699.812,226.137,710.165,236.492,710.165,249.266z"/>
				<path fill="#FFFFFF" d="M684.657,265.018v278.347c0,8.19-6.638,14.832-14.828,14.832H176.196c-3.459,0-6.641-1.186-9.167-3.173
					c-0.667-0.527-1.293-1.114-1.862-1.747c-2.368-2.621-3.802-6.102-3.802-9.912V265.018c0-8.19,6.645-14.832,14.832-14.832
					h493.633c2.74,0,5.299,0.741,7.501,2.038c2.067,1.217,3.818,2.921,5.088,4.954C683.839,259.452,684.657,262.141,684.657,265.018
					z"/>
				<g>
					<g>
						<g>
							<g>
								<rect x="268.627" y="310.454" fill="#E3E3FF" width="316.984" height="179.856"/>
								<rect x="268.627" y="310.454" fill="#2A3554" width="316.984" height="15.442"/>
								<g>
									<circle fill="#5F46F1" cx="552.589" cy="318.174" r="3.203"/>
									<circle fill="#5F46F1" cx="562.971" cy="318.174" r="3.204"/>
									<circle fill="#8380F9" cx="572.851" cy="318.174" r="3.204"/>
								</g>
							</g>
						</g>
					</g>
					<g>
						<g>
							<g>
								<path fill="#2A3554" d="M304.282,479.108c-0.417,0-0.755-0.338-0.755-0.755V336.33c0-0.418,0.338-0.756,0.755-0.756
									c0.418,0,0.756,0.338,0.756,0.756v142.024C305.038,478.771,304.7,479.108,304.282,479.108z"/>
							</g>
						</g>
						<circle fill="#2A3554" cx="304.247" cy="336.673" r="2.292"/>
						<circle fill="#2A3554" cx="304.247" cy="478.352" r="2.292"/>
					</g>
					<g>
						<g>
							<path fill="#2A3554" d="M549.42,479.108c-0.417,0-0.755-0.338-0.755-0.755V336.33c0-0.418,0.338-0.756,0.755-0.756
								c0.419,0,0.755,0.338,0.755,0.756v142.024C550.175,478.771,549.839,479.108,549.42,479.108z"/>
						</g>
						<circle fill="#2A3554" cx="549.386" cy="336.673" r="2.292"/>
						<circle fill="#2A3554" cx="549.386" cy="478.352" r="2.292"/>
					</g>
					<text transform="matrix(1 0 0 1 331.9155 451.502)" fill="#2A3554" font-family="'Montserrat-Black'" font-size="128.3888">Aa</text>
				</g>
				<g>
					<rect x="196.082" y="310.454" fill="#E3E3FF" width="39.485" height="178.89"/>
					<rect x="196.082" y="310.454" fill="#2A3554" width="39.485" height="11.872"/>
				</g>
				<g>
					<rect x="612.469" y="401.336" fill="#E3E3FF" width="39.482" height="88.008"/>
					<rect x="612.469" y="401.336" fill="#2A3554" width="39.482" height="12.627"/>
				</g>
				<g>
					<rect x="613.372" y="311.072" fill="#E3E3FF" width="39.482" height="51.297"/>
					<rect x="613.372" y="311.072" fill="#2A3554" width="39.482" height="12.626"/>
				</g>
			</g>
			<path fill="#2A3554" d="M763.813,569.862v1.981c0,9.855-3.162,18.972-8.527,26.384c-8.184,11.321-21.505,18.688-36.544,18.688
				H127.276c-15.04,0-28.36-7.366-36.544-18.688c-5.366-7.412-8.528-16.528-8.528-26.384v-1.981H763.813z"/>
			<path fill="#445279" d="M346.616,569.862v0.453c0,3.569,2.39,6.463,5.338,6.463h139.147c2.948,0,5.337-2.894,5.337-6.463v-0.453
				H346.616z"/>
			<g>
				<path fill="#E3E3FF" d="M684.653,265.018v16.421H161.365v-16.421c0-3.162,0.983-6.085,2.674-8.487
					c2.675-3.836,7.123-6.344,12.157-6.344h493.632c5.035,0,9.483,2.508,12.15,6.344
					C683.668,258.933,684.653,261.855,684.653,265.018z"/>
				<g>
					<circle fill="#5F46F1" cx="640.05" cy="268.058" r="4.252"/>
					<circle fill="#5F46F1" cx="653.832" cy="268.058" r="4.252"/>
					<circle fill="#8380F9" cx="666.947" cy="268.058" r="4.253"/>
				</g>
				<path fill="#FFFFFF" d="M558.26,270.765H280.691c-0.701,0-1.273-0.574-1.273-1.274v-5.755c0-0.701,0.573-1.273,1.273-1.273
					H558.26c0.701,0,1.274,0.572,1.274,1.273v5.755C559.535,270.191,558.961,270.765,558.26,270.765z"/>
				<path fill="#2A3554" d="M212.528,266.614v3.076c0,0.884-0.956,1.435-1.72,0.993l-2.665-1.538l-2.665-1.538
					c-0.764-0.442-0.764-1.545,0-1.987l2.665-1.538l2.665-1.54c0.764-0.44,1.72,0.112,1.72,0.994V266.614z"/>
				<path fill="#2A3554" d="M226.396,266.614v3.076c0,0.884,0.956,1.435,1.721,0.993l2.665-1.538l2.665-1.538
					c0.764-0.442,0.764-1.545,0-1.987l-2.665-1.538l-2.665-1.54c-0.765-0.44-1.721,0.112-1.721,0.994V266.614z"/>
			</g>
			<path fill="#CCCCFF" d="M681.979,256.53H164.04c2.675-3.836,7.123-6.344,12.157-6.344h493.632
				C674.864,250.186,679.313,252.694,681.979,256.53z"/>
			<path fill="#E3E3FF" d="M577.53,534.422H261.421c-6.181,0-11.191-5.01-11.191-11.191l0,0c0-6.181,5.01-11.191,11.191-11.191
				H577.53c6.181,0,11.19,5.011,11.19,11.191l0,0C588.721,529.412,583.711,534.422,577.53,534.422z"/>
		</g>
	</g>
	<g>
		<ellipse fill="#CCCCFF" cx="645.116" cy="700.696" rx="79.618" ry="10.444"/>
		<g>
			<g>
				<g>
					<g>
						<path fill="#5F46F1" d="M707.884,586.725H587.719c1.985-12.055,11.547-20.813,22.692-20.778l37.391,0.11l37.39-0.11
							C696.336,565.912,705.898,574.67,707.884,586.725z"/>
					</g>
					<g>
						<rect x="597.169" y="585" fill="#5F46F1" width="6.549" height="112.036"/>
						<rect x="691.885" y="585" fill="#5F46F1" width="6.549" height="112.036"/>
						<rect x="603.718" y="616.393" fill="#3C3CC2" width="88.167" height="6.314"/>
					</g>
				</g>
				<g>
					<path fill="#8380F9" d="M618.381,435.905c0,0-20.067,26.765-22.738,50.106c-1.887,16.485,22.738,41.12,22.738,41.12
						l8.482-4.221l-8.456-19.067c-3.009-9.285-6.714-12.955-3.977-22.324l6.125-13.205
						C621.268,458.409,620.256,447.428,618.381,435.905z"/>
					<path fill="#8380F9" d="M681.623,435.503c0,0,19.808,28.538,21.446,51.975c1.415,20.206-22.831,39.654-22.831,39.654
						l-7.003-3.485l9.697-19.264c3.007-9.285,4.438-14.886,0.336-24.989l-5.206-11.079L681.623,435.503z"/>
					<g>
						<path fill="#8380F9" d="M684.373,541.767c-17.607,4.762-75.21-2.582-75.21-2.582l13.304-42.324l-1.688-25.156l-0.22-3.409
							l-2.178-32.382c13.928-5.773,22.539-8.019,36.146-7.04c9.338,0.677,18.472,2.989,27.097,6.637l-6.195,60.168L684.373,541.767z
							"/>
						<g>
							<path fill="#5F46F1" d="M636.867,448.664c12.707-1.488,24.527-10.215,25.065-10.615c0.314-0.236,0.379-0.68,0.145-0.994
								c-0.235-0.313-0.679-0.376-0.994-0.144c-0.138,0.104-14.05,10.365-27.429,10.548c-0.397,0.002-0.706,0.328-0.699,0.719
								c0.005,0.393,0.326,0.706,0.719,0.699C634.74,448.863,635.808,448.789,636.867,448.664z"/>
						</g>
						<g>
							<path fill="#5F46F1" d="M643.677,492.063c12.054-4.285,21.632-15.427,22.066-15.938c0.254-0.299,0.218-0.747-0.082-1.001
								c-0.297-0.254-0.745-0.216-0.999,0.082c-0.112,0.131-11.385,13.237-24.387,16.398c-0.388,0.089-0.615,0.476-0.522,0.855
								c0.092,0.381,0.477,0.615,0.857,0.522C641.647,492.73,642.671,492.42,643.677,492.063z"/>
						</g>
					</g>
					<g>
						<polygon fill="#F8AE81" points="647.104,675.391 648.143,684.733 658.081,684.961 658.914,677.207 						"/>
						<g>
							<path fill="#161642" d="M645.546,527.245c0,0-25.734-1.413-34.45,5.72c-8.717,7.13-6.965,27.596,1.915,33.183
								s24.017,16.567,24.017,16.567l9.629,95.721l12.723,0.434c0,0,11.723-96.154,5.781-114.775
								C659.216,545.472,645.546,527.245,645.546,527.245z"/>
							<path fill="#2A3554" d="M660.553,674.119c0.692,2.236,0.362,4.402-0.328,6.556l-14.639-0.325
								c-0.517-2.132-0.594-4.273-0.285-6.42L660.553,674.119z"/>
						</g>
					</g>
					<g>
						<path fill="#FFFFFF" d="M681.963,526.523h-67.532l-6.24-36.497c-0.541-3.16,1.895-6.048,5.101-6.048h69.813
							c3.205,0,5.643,2.888,5.102,6.048L681.963,526.523z"/>
						<path fill="#CCCCFF" d="M675.916,534.458h-55.372c-3.376,0-6.113-2.736-6.113-6.113v-1.821h67.599v1.821
							C682.029,531.722,679.292,534.458,675.916,534.458z"/>
						<circle fill="#CCCCFF" cx="648.349" cy="506.756" r="5.866"/>
					</g>
					<g>
						<polygon fill="#F8AE81" points="604.895,649.11 602.692,658.358 611.609,660.119 615.243,651.862 						"/>
						<g>
							<path fill="#2A3554" d="M658.62,525.661c0,0-17.233-5.943-27.338,6.537c-10.104,12.48-27.021,117.836-27.021,117.836
								l11.597,4.786l37.283-93.566c0,0,30.361,17.326,34.038-7.305C690.091,534.458,658.62,525.661,658.62,525.661z"/>
							<path fill="#445279" d="M618.486,649.991c-0.043,2.415-1.064,4.435-2.437,6.324l-14.255-5.04
								c0.182-2.259,0.795-4.384,1.792-6.391L618.486,649.991z"/>
						</g>
					</g>
					<g>
						<path fill="#8380F9" d="M609.498,656.836c0,0-5.404-2.743-6.997-3.057c-1.591-0.313-14.731,9.011-18.454,8.92
							c-6.751-0.167-8.912,9.747-5.074,11.096c11.097,3.902,31.638,3.419,31.638,3.419s4.563-12.332,4.647-16.493
							C615.344,656.558,612.43,658.703,609.498,656.836z"/>
						<g>
							<g>
								<path fill="#FFFFFF" d="M597.693,665.646c0.192,0.087,0.422,0.101,0.635,0.02c0.414-0.16,0.615-0.62,0.448-1.027
									c-0.055-0.137-1.385-3.356-3.572-4.852c-2.908-1.993-5.588-0.61-5.7-0.549c-0.391,0.206-0.534,0.688-0.317,1.073
									c0.214,0.386,0.705,0.529,1.096,0.321c0.074-0.036,1.935-0.963,4.007,0.451c1.782,1.221,2.978,4.104,2.988,4.134
									C597.358,665.413,597.51,665.562,597.693,665.646z"/>
							</g>
							<g>
								<path fill="#FFFFFF" d="M600.387,663.775c0.193,0.088,0.423,0.103,0.635,0.021c0.414-0.16,0.615-0.62,0.45-1.027
									c-0.056-0.137-1.386-3.356-3.572-4.854c-2.911-1.993-5.588-0.608-5.701-0.548c-0.391,0.206-0.532,0.688-0.318,1.073
									c0.215,0.386,0.706,0.529,1.099,0.321c0.072-0.037,1.934-0.963,4.004,0.452c1.789,1.225,2.978,4.102,2.989,4.132
									C600.053,663.543,600.204,663.693,600.387,663.775z"/>
							</g>
							<g>
								<path fill="#FFFFFF" d="M594.208,666.978c0.194,0.087,0.422,0.101,0.637,0.02c0.413-0.16,0.614-0.62,0.448-1.028
									c-0.057-0.136-1.385-3.357-3.573-4.853c-2.909-1.995-5.587-0.608-5.699-0.549c-0.391,0.208-0.534,0.689-0.319,1.075
									c0.216,0.384,0.707,0.529,1.098,0.321c0.072-0.038,1.934-0.963,4.006,0.452c1.789,1.223,2.977,4.102,2.988,4.131
									C593.873,666.745,594.026,666.894,594.208,666.978z"/>
							</g>
						</g>
					</g>
					<g>
						<path fill="#8380F9" d="M651.978,684.343c0,0,5.531-1.68,7.078-1.71c1.546-0.029,12.339,10.908,15.851,11.44
							c6.371,0.965,6.754,10.634,2.929,11.264c-11.073,1.824-30.286-2.039-30.286-2.039s-2.236-12.341-1.627-16.265
							C646.532,683.111,648.913,685.609,651.978,684.343z"/>
						<g>
							<g>
								<path fill="#FFFFFF" d="M661.603,694.574c-0.197,0.052-0.414,0.027-0.6-0.085c-0.363-0.22-0.476-0.685-0.251-1.041
									c0.074-0.118,1.858-2.923,4.16-3.963c3.063-1.39,5.349,0.354,5.444,0.431c0.333,0.258,0.389,0.734,0.122,1.062
									c-0.268,0.326-0.752,0.379-1.085,0.118c-0.063-0.046-1.655-1.225-3.835-0.238c-1.876,0.849-3.479,3.359-3.494,3.385
									C661.955,694.413,661.787,694.528,661.603,694.574z"/>
							</g>
							<g>
								<path fill="#FFFFFF" d="M659.382,692.372c-0.196,0.051-0.412,0.026-0.6-0.087c-0.361-0.218-0.476-0.685-0.251-1.039
									c0.074-0.119,1.858-2.923,4.161-3.965c3.064-1.391,5.35,0.355,5.444,0.43c0.334,0.261,0.387,0.735,0.122,1.063
									c-0.267,0.326-0.751,0.381-1.084,0.12c-0.063-0.046-1.659-1.227-3.839-0.241c-1.883,0.854-3.476,3.36-3.492,3.385
									C659.734,692.211,659.568,692.326,659.382,692.372z"/>
							</g>
							<g>
								<path fill="#FFFFFF" d="M664.655,696.404c-0.198,0.052-0.415,0.027-0.601-0.087c-0.362-0.218-0.475-0.685-0.254-1.039
									c0.076-0.118,1.86-2.923,4.162-3.965c3.066-1.39,5.352,0.354,5.447,0.431c0.333,0.26,0.386,0.735,0.118,1.062
									c-0.264,0.326-0.748,0.381-1.081,0.12c-0.063-0.048-1.659-1.227-3.839-0.24c-1.883,0.853-3.479,3.359-3.491,3.385
									C665.008,696.243,664.84,696.357,664.655,696.404z"/>
							</g>
						</g>
					</g>
					<g>
						<path fill="#2A3554" d="M667,375.545c0,0,8.19,12.687,7.293,25.901c-0.896,13.212,1.207,28.466-10.617,27.795
							c-11.821-0.67-32.912,4.74-39.615-5.551S667,375.545,667,375.545z"/>
						<path fill="#161642" d="M670.036,398.871c0,0,2.124,19.154-6.964,24.427c-9.087,5.273-15.665-0.613-15.665-0.613
							S666.564,395.987,670.036,398.871z"/>
						<g>
							<g>
								<path fill="#FA8465" d="M632.284,398.782c0,0-3.263-4.352-5.689-0.752c-2.427,3.597,1.004,14.225,6.946,11.63
									L632.284,398.782z"/>
								<g>
									<path fill="#FA664D" d="M632.243,406.376c-0.22,0-0.422-0.146-0.483-0.366c-0.922-3.281-4.321-4.611-4.354-4.625
										c-0.26-0.099-0.39-0.387-0.292-0.646c0.099-0.259,0.389-0.391,0.647-0.291c0.158,0.059,3.904,1.513,4.965,5.29
										c0.073,0.268-0.081,0.544-0.349,0.62C632.334,406.371,632.287,406.376,632.243,406.376z"/>
								</g>
								<g>
									<path fill="#FA664D" d="M628.813,404.724c-0.095,0-0.188-0.026-0.272-0.081c-0.232-0.149-0.3-0.46-0.15-0.693
										c0.025-0.038,0.627-0.955,1.885-1.519c0.252-0.114,0.549,0,0.663,0.254c0.113,0.252,0,0.549-0.253,0.662
										c-0.974,0.436-1.445,1.14-1.45,1.146C629.139,404.643,628.977,404.724,628.813,404.724z"/>
								</g>
							</g>
							<g>
								<path fill="#FA8465" d="M665.915,398.782c0,0,3.265-4.352,5.691-0.752c2.427,3.597-1.006,14.225-6.944,11.63
									L665.915,398.782z"/>
								<g>
									<path fill="#FA664D" d="M665.958,406.376c0.221,0,0.422-0.146,0.484-0.366c0.92-3.281,4.319-4.611,4.353-4.625
										c0.257-0.099,0.389-0.387,0.29-0.646c-0.099-0.259-0.386-0.391-0.646-0.291c-0.158,0.059-3.903,1.513-4.966,5.29
										c-0.072,0.268,0.083,0.544,0.35,0.62C665.869,406.371,665.911,406.376,665.958,406.376z"/>
								</g>
								<g>
									<path fill="#FA664D" d="M669.391,404.724c0.092,0,0.185-0.026,0.27-0.081c0.234-0.149,0.301-0.46,0.148-0.693
										c-0.022-0.038-0.623-0.955-1.883-1.519c-0.25-0.114-0.55,0-0.662,0.254c-0.112,0.252,0,0.549,0.254,0.662
										c0.973,0.436,1.444,1.14,1.447,1.146C669.063,404.643,669.226,404.724,669.391,404.724z"/>
								</g>
							</g>
							<path fill="#F8AE81" d="M657.133,418.673v10.57c0,0-3.152,5.381-7.414,5.747c-4.257,0.372-8.04-4.633-8.04-4.633v-10.94
								L657.133,418.673z"/>
							<path fill="#FA8465" d="M657.133,418.673v4.69c-2.86,3.174-7.938,4.299-15.453,3.188l-0.001-7.135L657.133,418.673z"/>
							<path fill="#F8AE81" d="M668.275,391.532c-0.194,4.107-0.587,9.243-1.371,13.35c-0.195,1.023-0.416,1.988-0.663,2.853
								c-2.223,7.786-7.786,21.141-23.359,15.578c-6.878-2.455-10.066-10.116-11.488-17.908c-0.964-5.292-1.109-10.639-1.038-14.459
								c0.074-3.9,2.204-7.467,5.597-9.389c9.193-5.212,18.893-3.268,25.279-0.813C665.664,382.445,668.5,386.798,668.275,391.532z"
								/>
							<ellipse fill="#2A3554" cx="640.943" cy="400.414" rx="1.299" ry="2.043"/>
							<ellipse fill="#2A3554" cx="656.98" cy="400.414" rx="1.299" ry="2.043"/>
							<path fill="#2A3554" d="M638.371,393.616c1.078-0.303,3.256-0.824,5.555-0.831c0.604-0.001,1.068,0.536,0.961,1.132
								l-0.002,0.015c-0.086,0.475-0.511,0.811-0.994,0.788c-1.563-0.073-5.668,0.148-7.606,0.933
								c-0.04-0.336,0.159-0.705,0.441-1.033C637.154,394.123,637.739,393.795,638.371,393.616z"/>
							<path fill="#2A3554" d="M659.354,393.659c-1.079-0.305-3.258-0.826-5.556-0.832c-0.604-0.002-1.066,0.535-0.96,1.131
								l0.002,0.015c0.086,0.477,0.512,0.813,0.992,0.79c1.565-0.073,5.669,0.146,7.607,0.931c0.04-0.336-0.16-0.705-0.441-1.031
								C660.57,394.165,659.983,393.837,659.354,393.659z"/>
							<g>
								<path fill="#FA8465" d="M649.273,408.722c-0.384,0-0.77-0.067-1.091-0.261c-0.294-0.175-0.658-0.53-0.729-1.225
									c-0.191-1.845,0.28-7.63,0.3-7.874c0.023-0.277,0.266-0.483,0.542-0.46c0.275,0.022,0.481,0.266,0.459,0.541
									c-0.005,0.059-0.485,5.937-0.304,7.689c0.033,0.305,0.156,0.412,0.247,0.468c0.472,0.282,1.56-0.007,2.015-0.191
									c0.256-0.105,0.549,0.02,0.653,0.275c0.105,0.257-0.019,0.549-0.273,0.654C650.962,408.392,650.121,408.722,649.273,408.722
									z"/>
							</g>
							<path fill="#FFFFFF" d="M642.898,411.892c0.379,1.911,1.643,5.425,5.891,5.425c4.26,0,5.455-3.212,5.866-5.425H642.898z"/>
							<g>
								<path fill="#FA8465" d="M648.729,420.244c-1.226,0-2.309-0.659-2.354-0.688c-0.236-0.146-0.309-0.455-0.163-0.69
									c0.145-0.236,0.453-0.309,0.69-0.165l0,0c0.009,0.007,0.892,0.541,1.827,0.541c1.012,0,1.92-0.538,1.929-0.543
									c0.237-0.142,0.546-0.065,0.689,0.172c0.142,0.237,0.065,0.544-0.17,0.688C651.13,419.587,650.029,420.244,648.729,420.244z
									"/>
							</g>
						</g>
						<path fill="#2A3554" d="M670.297,390.715c-0.161,0.457-0.609,0.75-1.21,0.925c0.046,1.108-0.072,2.44-0.182,3.716
							c-0.62,7.256-2.45,8.53-2.862,6.737c-0.273-1.192-0.257-8.026-0.125-10.255c-1.435-0.095-2.661-0.333-2.661-0.333
							l-1.681-7.045l-0.59,6.957c-2.524,0.879-8.415-0.527-8.415-0.527l-1.976-6.944l-1.222,6.681
							c-3.786,1.845-8.52,0.616-8.52,0.616l-1.087-7.206l-2.511,7.206c0,0-8.079,2.898-8.166,0
							c-0.055-1.687,1.182-6.435,2.224-10.114c1.14-4.013,3.774-7.402,7.339-9.313c10.021-5.38,20.616-2.518,24.252-0.347
							C670.613,376.069,670.297,390.715,670.297,390.715z"/>
						<path fill="#2A3554" d="M633.541,376.083c0,0-6.651,7.908-8.839,22.036c-2.189,14.127-5.218,24.565,3.294,29.229
							c9.215,5.048,8.416-5.306,8.283-8.12c-0.132-2.814-7.97-10.507-2.738-32.171C635.229,380.063,633.541,376.083,633.541,376.083
							z"/>
						<path fill="#161642" d="M631.985,405.276c0,0,0,0.006,0,0.016c0.004,0.104,0.011,0.666,0.05,1.545
							c0.021,0.546,0.055,1.209,0.105,1.962c0.313,4.76,1.238,12.98,3.957,15.831c1.075,1.128,3.144,1.693,5.582,1.922v-3.74
							c-2.568-1.219-4.571-3.22-6.123-5.685c-0.959-2.078-2.611-5.329-3.386-10.441L631.985,405.276z"/>
						<path fill="#FFFFFF" d="M668.395,409.898c0,0.65-0.524,1.176-1.178,1.176c-0.649,0-1.174-0.525-1.174-1.176
							c0-0.649,0.524-1.177,1.174-1.177C667.87,408.722,668.395,409.249,668.395,409.898z"/>
					</g>
				</g>
			</g>
		</g>
		<g>
			<path fill="#5F46F1" d="M623.852,464.529c-0.035,0.067-1.521,2.905-3.073,7.175l-0.22-3.409c1.063-2.583,1.926-4.221,2.026-4.423
				c0.187-0.354,0.625-0.474,0.963-0.304C623.902,463.753,624.02,464.191,623.852,464.529z"/>
		</g>
		<g>
			<path fill="#5F46F1" d="M674.765,464.529c0.033,0.067,1.569,2.986,3.123,7.258l0.326-3.155c-1.065-2.584-2.084-4.558-2.183-4.76
				c-0.188-0.354-0.627-0.474-0.963-0.304C674.712,463.753,674.594,464.191,674.765,464.529z"/>
		</g>
	</g>
	<g>
		<g>
			<path fill="#F8AE81" d="M321.087,482.102c2.301,4.395,4.528,8.188,6.68,11.449c15.994,24.216,27.888,19.026,34.289,11.556
				c2.268-2.647,3.899-5.426,5.065-7.996c1.905-4.209,2.575-7.857,2.792-9.448l-2.97,0.69c-3.519,1.619-9.352,3.842-13.678,3.169
				c-0.552-0.089-1.082-0.223-1.574-0.409c-3.878-1.472-9.158-9.096-12.729-14.9c-2.341-3.802-3.951-6.824-3.951-6.824
				L321.087,482.102z"/>
			<path fill="#FA8465" d="M321.087,482.102c2.301,4.395,4.528,8.188,6.68,11.449c4.543-4.98,8.657-12.316,11.195-17.339
				c-2.341-3.802-3.951-6.824-3.951-6.824L321.087,482.102z"/>
			<path fill="#FA8465" d="M349.811,492.324c0,0,3.227,9.889,17.31,4.786c1.905-4.209,2.575-7.857,2.792-9.448l-2.97,0.69
				c-3.519,1.619-9.352,3.842-13.678,3.169L349.811,492.324z"/>
		</g>
		<g>
			<path fill="#F8AE81" d="M239.118,502.408c0.018,2.746-0.073,5.565-0.316,8.33c-0.004,0.062-0.013,0.127-0.017,0.188
				c-0.052,0.563-0.122,1.124-0.213,1.683c-2.25,13.877-16.369,25.822-19.469,7.912c-0.412-2.375-0.586-4.993-0.569-7.758
				c0-0.613,0.013-1.233,0.03-1.863c0.052-1.68,0.169-3.409,0.334-5.159c0.07-0.746,0.147-1.497,0.239-2.254
				c0.096-0.824,0.199-1.653,0.316-2.482c0.283-2.067,0.622-4.139,0.995-6.18c1.241-6.756,2.874-13.181,4.233-18.036
				c1.48-5.253,2.631-8.671,2.631-8.671l9.903,12.185c0,0,0.8,4.441,1.359,10.775c0.044,0.483,0.083,0.978,0.126,1.49
				c0.195,2.496,0.343,5.236,0.399,8.085c0.005,0.147,0.005,0.296,0.009,0.442C239.114,501.531,239.118,501.97,239.118,502.408z"/>
			<path fill="#FA8465" d="M224.683,476.789c2.938,5.404,7.777,12.569,14.017,15.778c-0.041-0.51-0.08-1.006-0.125-1.491
				c-0.562-6.332-1.356-10.775-1.356-10.775l-9.905-12.181C227.314,468.12,226.16,471.535,224.683,476.789z"/>
			<path fill="#FA8465" d="M239.118,502.408c0.018,2.746-0.073,5.565-0.316,8.33c-6.123,0.582-14.785,0.904-20.238,0.162
				c0.052-1.68,0.169-3.409,0.334-5.159c0.07-0.746,0.147-1.497,0.239-2.254l19.964-2.834c0.005,0.147,0.005,0.296,0.009,0.442
				C239.114,501.531,239.118,501.97,239.118,502.408z"/>
		</g>
		<path fill="#8380F9" d="M323.648,438.71c0,0,14.333,25.313,16.692,33.883c0,0-9.794,16.368-18.681,18.182l-3.292-11.163
			C318.367,479.611,318.019,444.68,323.648,438.71z"/>
		<g>
			<path fill="#8380F9" d="M292.162,425.706l31.486,13.004l-13.93,107.904c0,0-43.342,6.087-65.753,0V438.71l30.611-13.687
				L292.162,425.706z"/>
			<g>
				<g>
					<path fill="#5F46F1" d="M298.588,484.512c-5.282,5.505-12.702,10.685-23.033,13.664c-0.399,0.113-0.807-0.16-0.857-0.57
						c0-0.005,0-0.01-0.001-0.015c-0.04-0.328,0.168-0.634,0.485-0.726c10.069-2.902,17.292-7.95,22.436-13.312
						c0.384-0.4,1.058-0.184,1.146,0.364c0.001,0.007,0.002,0.012,0.003,0.019C298.799,484.146,298.735,484.358,298.588,484.512z"/>
				</g>
				<g>
					<path fill="#5F46F1" d="M298.327,474.245v0.028c0,0.108-0.027,0.216-0.083,0.312c-0.349,0.604-0.746,1.234-1.202,1.883
						c-2.495,3.553-7.207,8.257-15.502,10.499c-0.053,0.016-0.109,0.021-0.161,0.021c-0.273,0-0.523-0.181-0.598-0.456
						c-0.09-0.328,0.105-0.67,0.436-0.759c8.93-2.415,13.609-7.803,15.949-11.844C297.487,473.376,298.329,473.605,298.327,474.245z
						"/>
				</g>
				<g>
					<path fill="#5F46F1" d="M297.197,446.182c0,0.005,0,0.008,0,0.013c-0.024,0.368-0.368,0.64-0.73,0.569
						c-7.508-1.463-13.412-4.808-17.347-7.673c-5.418-3.952-8.29-7.771-8.411-7.931c-0.205-0.272-0.148-0.663,0.127-0.867
						c0.272-0.204,0.662-0.146,0.866,0.127c0.098,0.135,9.157,12.037,24.998,15.125
						C297.004,445.604,297.218,445.873,297.197,446.182z"/>
				</g>
			</g>
		</g>
		<g>
			<g>
				<g>
					<path fill="#F8AE81" d="M345.563,615.276l-3.377-17.374h11.539l2.819,16.404C356.544,614.307,351.921,617.317,345.563,615.276z
						"/>
					<path fill="#8380F9" d="M353.468,615.1c0,0,2.563-3.363,4.567-3.194c2.003,0.168,17.331,12.642,22.618,13.719
						c5.288,1.076,4.215,4.966,3.221,6.948c-0.994,1.984-42.266-1.234-42.266-1.234s-0.993-12.308,0.399-16.052
						C343.399,611.542,349.313,615.942,353.468,615.1z"/>
					<g>
						<g>
							<g>
								<g>
									<path fill="#FFFFFF" d="M361.919,623.778c-0.188,0.055-0.397,0.035-0.58-0.072c-0.354-0.208-0.472-0.661-0.266-1.016
										c0.069-0.117,1.72-2.91,3.911-3.983c2.914-1.429,5.156,0.234,5.25,0.306c0.327,0.247,0.39,0.714,0.142,1.04
										s-0.714,0.391-1.041,0.142c-0.061-0.046-1.623-1.169-3.699-0.153c-1.785,0.874-3.267,3.375-3.282,3.399
										C362.254,623.612,362.096,623.728,361.919,623.778z"/>
								</g>
							</g>
						</g>
						<g>
							<g>
								<g>
									<path fill="#FFFFFF" d="M359.73,621.663c-0.188,0.055-0.396,0.035-0.58-0.072c-0.354-0.208-0.473-0.661-0.267-1.016
										c0.069-0.118,1.72-2.911,3.911-3.983c2.917-1.433,5.156,0.232,5.25,0.306c0.327,0.247,0.389,0.714,0.141,1.04
										c-0.248,0.324-0.713,0.389-1.041,0.141c-0.061-0.045-1.622-1.168-3.698-0.154c-1.792,0.879-3.267,3.375-3.281,3.401
										C360.066,621.497,359.907,621.612,359.73,621.663z"/>
								</g>
							</g>
						</g>
						<g>
							<path fill="#FFFFFF" d="M364.899,625.51c-0.188,0.055-0.397,0.035-0.58-0.072c-0.354-0.208-0.473-0.661-0.266-1.016
								c0.069-0.119,1.719-2.912,3.912-3.983c2.916-1.433,5.155,0.232,5.249,0.305c0.327,0.248,0.39,0.713,0.142,1.039
								c-0.249,0.326-0.715,0.391-1.042,0.142c-0.061-0.044-1.623-1.167-3.698-0.153c-1.793,0.879-3.267,3.375-3.282,3.401
								C365.235,625.344,365.076,625.459,364.899,625.51z"/>
						</g>
					</g>
				</g>
			</g>
			<g>
				<g>
					<path fill="#161642" d="M293.205,535.794c0,0,19.749-49.035,32.024-47.102c19.003,2.994,31.717,61.362,30.16,115.81
						l-13.041,0.744c0,0-14.597-51.291-17.213-64.734c0,0-10.06,34.909-32.715,30.049
						C275.647,566.964,286.581,549.798,293.205,535.794z"/>
				</g>
			</g>
			<g>
				<path fill="#2A3554" d="M343.895,602.999l1.606-0.29c-0.035-0.191-3.507-19.28-7.711-38.568
					c-8.578-39.346-11.801-41.187-12.86-41.794c-0.882-0.503-1.609-0.372-2.064-0.175c-2.15,0.937-3.229,5.528-4.862,12.478
					c-2.639,11.234-6.252,26.618-16.229,33.062l0.885,1.369c10.529-6.799,14.229-22.554,16.932-34.057
					c1.298-5.526,2.524-10.746,3.925-11.354c0.081-0.036,0.247-0.108,0.604,0.096C328.534,526.287,338.364,572.533,343.895,602.999z
					"/>
			</g>
			<polygon fill="#2A3554" points="356.681,600.508 340.694,601.847 340.388,601.873 341.265,607.168 356.976,606.065 			"/>
		</g>
		<g>
			<g>
				<path fill="#2A3554" d="M298.259,570.809c0,0-22.96,4.41-53.402-1.068c2.506-12.581,8.197-22.457,17.478-31.232l41.056,2.966
					C305.976,551.162,304.099,560.946,298.259,570.809z"/>
				<g>
					<g>
						<path fill="#8380F9" d="M304.809,611.391c0,0,5.438-1.193,6.923-1.1c1.485,0.098,10.944,11.673,14.267,12.477
							c6.026,1.461,5.611,10.953,1.891,11.26c-10.76,0.887-28.862-4.45-28.862-4.45s-1.144-12.255-0.241-16.043
							C299.688,609.745,301.77,612.382,304.809,611.391z"/>
						<path fill="#F8AE81" d="M301.611,612.217l-4-15.61h11.531l2.588,15.062C311.73,611.668,307.965,614.256,301.611,612.217z"/>
						<g>
							<g>
								<g>
									<g>
										<path fill="#FFFFFF" d="M313.205,622.183c-0.193,0.033-0.399-0.01-0.568-0.135c-0.33-0.242-0.4-0.708-0.157-1.037
											c0.082-0.11,2.019-2.709,4.311-3.542c3.047-1.11,5.098,0.782,5.183,0.863c0.298,0.281,0.311,0.751,0.03,1.048
											c-0.28,0.299-0.751,0.312-1.048,0.03c-0.056-0.052-1.487-1.334-3.659-0.546c-1.867,0.679-3.605,3.005-3.623,3.028
											C313.556,622.053,313.385,622.15,313.205,622.183z"/>
									</g>
								</g>
							</g>
							<g>
								<path fill="#FFFFFF" d="M311.255,619.847c-0.192,0.034-0.398-0.009-0.568-0.134c-0.33-0.244-0.4-0.707-0.157-1.037
									c0.082-0.11,2.019-2.709,4.311-3.541c3.051-1.113,5.098,0.779,5.184,0.862c0.297,0.28,0.312,0.75,0.029,1.049
									c-0.281,0.296-0.751,0.312-1.048,0.027c-0.056-0.051-1.488-1.333-3.658-0.546c-1.875,0.684-3.605,3.006-3.623,3.029
									C311.606,619.717,311.437,619.815,311.255,619.847z"/>
							</g>
							<g>
								<path fill="#FFFFFF" d="M315.981,624.219c-0.193,0.035-0.398-0.008-0.568-0.133c-0.33-0.244-0.4-0.708-0.157-1.037
									c0.082-0.111,2.019-2.709,4.31-3.542c3.051-1.112,5.099,0.78,5.185,0.862c0.298,0.28,0.311,0.75,0.029,1.049
									c-0.28,0.297-0.751,0.31-1.048,0.027c-0.056-0.051-1.489-1.332-3.659-0.545c-1.875,0.683-3.605,3.005-3.623,3.028
									C316.332,624.089,316.162,624.188,315.981,624.219z"/>
							</g>
						</g>
					</g>
				</g>
				<path fill="#161642" d="M247.661,570.56c2.917,0.626,5.621,0.593,8.123,0.06c0.822-0.174,1.622-0.402,2.394-0.68
					c15.283-5.424,22.198-29.429,22.198-29.429c2.617,13.443,17.754,64.7,17.754,64.7l2.361-0.31l1.626-0.218l8.934-1.176
					c1.757-52.709-11.578-111.823-30.577-114.815c-12.273-1.938-32.024,47.102-32.024,47.102
					C241.823,549.798,230.894,566.964,247.661,570.56z"/>
				<g>
					<path fill="#2A3554" d="M255.784,570.619c0.822-0.174,1.622-0.402,2.394-0.68c5.593-9.005,8.51-21.6,10.86-31.742
						c1.866-8.068,3.629-15.686,5.947-16.991c0.354-0.196,0.702-0.228,1.104-0.093c1.969,0.644,6.61,7.172,15.533,43.63
						c4.254,17.378,7.78,34.696,8.868,40.158c0.223,1.109,0.349,1.736,0.354,1.768l1.6-0.311c-0.006-0.031-0.12-0.619-0.327-1.675
						c-1.071-5.364-4.613-22.813-8.906-40.326c-10.479-42.787-15.093-44.299-16.61-44.8c-0.849-0.272-1.659-0.194-2.416,0.229
						c-2.943,1.658-4.538,8.529-6.736,18.041C264.985,548.454,261.889,561.826,255.784,570.619z"/>
				</g>
				<polygon fill="#2A3554" points="312.114,599.792 296.332,602.674 296.029,602.729 297.416,607.915 312.946,605.295 				"/>
			</g>
		</g>
		<path fill="#8380F9" d="M243.965,438.71l-20.419,29.577c0,0,9.068,17.093,17.955,18.884c0,0,9.25-16.164,10.338-24.415
			C252.925,454.504,247.155,439.42,243.965,438.71z"/>
		<g>
			<g>
				<g>
					<g>
						
							<rect x="171.349" y="468.331" transform="matrix(0.9947 -0.1029 0.1029 0.9947 -48.1561 32.227)" fill="#5F46F1" width="233.926" height="29.16"/>
						<g>
							
								<rect x="170.466" y="473.398" transform="matrix(0.9947 -0.1029 0.1029 0.9947 -47.2802 32.0894)" fill="#3C3CC2" width="233.925" height="1.942"/>
							
								<rect x="171.349" y="481.939" transform="matrix(0.9947 -0.1029 0.1029 0.9947 -48.1581 32.2285)" fill="#3C3CC2" width="233.925" height="1.944"/>
							
								<rect x="172.233" y="490.478" transform="matrix(0.9947 -0.1029 0.1029 0.9947 -49.0282 32.3619)" fill="#3C3CC2" width="233.924" height="1.944"/>
						</g>
					</g>
					<g>
						
							<rect x="171.938" y="479.736" transform="matrix(0.9947 -0.1029 0.1029 0.9947 -49.9208 20.9462)" fill="#2A3554" width="12.233" height="29.16"/>
					</g>
					<path fill="#8380F9" d="M170.47,480.442l-3.463,0.357c-8.01,0.828-13.831,7.993-13.002,16.003l0,0
						c0.828,8.011,7.993,13.83,16.003,13.003l3.462-0.358L170.47,480.442z"/>
					<g>
						<polygon fill="#F8AE81" points="406.154,485.379 403.153,456.375 423.519,462.975 427.756,464.347 439.724,468.228 
							428.273,474.077 423.813,476.355 						"/>
						<path fill="#2A3554" d="M428.273,474.077c-0.534-1.22-0.961-2.721-1.149-4.547c-0.226-2.18,0.089-3.88,0.632-5.184
							l11.968,3.881L428.273,474.077z"/>
					</g>
				</g>
			</g>
		</g>
		<g>
			<g>
				<path fill="#F8AE81" d="M370.593,490.285c0,0-0.678-3.274-2.44-7.859c-0.895-2.328-3.763-3.975-4.614-1.584
					c-0.672,1.888,0.413,3.646,0.297,5.601c0,0-0.455-1.221-1.387-4.341c-0.843-2.821-2.762-3.024-3.442-1.163
					c-0.643,1.758-0.097,1.796,0.066,3.263c0.218,1.949,0.59,4.404,0.59,4.404s-0.102-2.778-1.709-6.278
					c-0.735-1.601-1.434-3.354-3.401-1.521c-0.987,0.92-0.594,4.067-0.435,7.378c0,0-0.758-4.55-2.636-6.072
					c-1.486-1.201-2.496-0.628-2.333,1.827c0.208,3.167,0.565,4.099,0.828,6.003c0.263,1.904,2.055,4.921,4.018,4.72
					c1.962-0.202,2.63-1.406,3.904-1.234c1.274,0.171,3.261,0.705,4.276,0.107c1.015-0.598,1.938-0.587,3.403-0.334
					C367.016,493.45,370.278,492.204,370.593,490.285z"/>
			</g>
		</g>
		<g>
			<path fill="#F8AE81" d="M239.431,506.071c0,0-0.134-3.342-1.122-8.152c-0.502-2.443-2.657-4.594-3.888-2.373
				c-0.972,1.753-0.594,3.72-1.027,5.629c0,0-0.25-1.279-0.66-4.509c-0.37-2.922-2.23-3.435-3.206-1.71
				c-0.922,1.629-0.389,1.754-0.468,3.228c-0.105,1.961-0.138,4.442-0.138,4.442s0.354-2.757-0.66-6.474
				c-0.463-1.699-0.867-3.543-3.107-2.056c-1.124,0.747-1.251,3.916-1.635,7.208c0,0,0.463-3.934-1.141-5.742
				c-1.27-1.43-2.827-1.708-3.068,0.74c-0.312,3.159-0.112,4.137-0.164,6.058c-0.052,1.922,1.223,5.191,3.192,5.313
				c1.97,0.122,2.824-0.956,4.054-0.579c1.229,0.378,3.102,1.229,4.2,0.807c1.099-0.424,2.009-0.264,3.413,0.228
				C235.384,508.608,238.805,507.913,239.431,506.071z"/>
		</g>
		<g>
			<path fill="#2A3554" d="M301.669,390.749c0,0.878-0.046,1.741-0.14,2.582c-0.035,0.34-0.077,0.675-0.129,1.008
				c-1.488,9.712-9.028,16.558-19.366,16.558c-10.639,0-17.519-6.74-18.557-16.82c-0.035-0.318-0.063-0.636-0.083-0.961
				c-0.039-0.58-0.056-1.167-0.056-1.764c0-11.572,6.03-20.94,19.908-20.94C294.817,370.411,301.669,379.181,301.669,390.749z"/>
			<g>
				<path fill="#FA8465" d="M265.938,396.332c0,0-3.215-4.285-5.605-0.742c-2.39,3.545,0.989,14.014,6.842,11.458L265.938,396.332z"
					/>
				<g>
					<path fill="#FA664D" d="M265.896,403.813c-0.216,0-0.415-0.144-0.476-0.361c-0.908-3.231-4.256-4.542-4.29-4.555
						c-0.255-0.098-0.382-0.383-0.286-0.639c0.097-0.255,0.382-0.384,0.637-0.286c0.156,0.059,3.847,1.49,4.892,5.213
						c0.074,0.262-0.079,0.536-0.343,0.609C265.985,403.807,265.941,403.813,265.896,403.813z"/>
				</g>
				<g>
					<path fill="#FA664D" d="M262.517,402.185c-0.091,0-0.185-0.024-0.268-0.077c-0.229-0.148-0.295-0.455-0.148-0.685
						c0.025-0.038,0.617-0.941,1.856-1.497c0.248-0.112,0.542,0,0.653,0.251c0.112,0.249,0,0.541-0.249,0.652
						c-0.958,0.429-1.424,1.123-1.428,1.13C262.838,402.105,262.679,402.185,262.517,402.185z"/>
				</g>
			</g>
			<g>
				<path fill="#FA8465" d="M299.069,396.332c0,0,3.215-4.285,5.605-0.742c2.391,3.545-0.989,14.014-6.842,11.458L299.069,396.332z"
					/>
				<g>
					<g>
						<path fill="#FA664D" d="M299.111,403.813c0.216,0,0.415-0.144,0.476-0.361c0.908-3.231,4.256-4.542,4.29-4.555
							c0.254-0.098,0.383-0.383,0.286-0.639c-0.096-0.255-0.381-0.384-0.636-0.286c-0.157,0.059-3.847,1.49-4.892,5.213
							c-0.073,0.262,0.08,0.536,0.342,0.609C299.021,403.807,299.066,403.813,299.111,403.813z"/>
					</g>
				</g>
				<g>
					<g>
						<path fill="#FA664D" d="M302.491,402.185c0.091,0,0.185-0.024,0.268-0.077c0.229-0.148,0.296-0.455,0.148-0.685
							c-0.025-0.038-0.617-0.941-1.856-1.497c-0.248-0.112-0.542,0-0.653,0.251c-0.112,0.249,0,0.541,0.249,0.652
							c0.959,0.429,1.425,1.123,1.429,1.13C302.169,402.105,302.328,402.185,302.491,402.185z"/>
					</g>
				</g>
			</g>
			<path fill="#F8AE81" d="M290.417,415.928v10.412c0,0-3.104,5.302-7.304,5.663c-4.194,0.366-7.922-4.565-7.922-4.565V416.66
				L290.417,415.928z"/>
			<path fill="#FA8465" d="M290.417,415.928v4.62c-2.818,3.126-7.822,3.907-15.226,2.814v-6.702L290.417,415.928z"/>
			<path fill="#F8AE81" d="M301.394,389.189c-0.193,4.046-0.579,9.106-1.351,13.151c-0.192,1.01-0.41,1.959-0.652,2.81
				c-2.191,7.672-7.671,20.828-23.014,15.348c-6.776-2.419-9.916-9.966-11.315-17.643c-0.95-5.213-1.094-10.479-1.025-14.243
				c0.075-3.843,2.172-7.354,5.515-9.249c9.056-5.134,18.612-3.22,24.903-0.801C298.822,380.239,301.617,384.527,301.394,389.189z"
				/>
			<ellipse fill="#2A3554" cx="276.075" cy="396.996" rx="1.28" ry="2.012"/>
			<ellipse fill="#2A3554" cx="290.917" cy="396.996" rx="1.279" ry="2.012"/>
			<path fill="#2A3554" d="M295.035,390.039c0,0-4.037-1.596-7.145-0.254l0.311,1.729c0,0,4.562-0.386,6.86,0.546
				C295.268,391.394,295.297,390.722,295.035,390.039z"/>
			<path fill="#2A3554" d="M271.517,390.039c0,0,4.037-1.596,7.145-0.254l-0.311,1.729c0,0-4.562-0.386-6.86,0.546
				C271.284,391.394,271.255,390.722,271.517,390.039z"/>
			<g>
				<path fill="#FA8465" d="M283.006,405.668c-0.829,0.103-1.689-0.12-1.823-0.156c-0.264-0.072-0.419-0.343-0.347-0.606
					s0.344-0.419,0.607-0.349c0.465,0.126,1.564,0.279,1.992-0.054c0.083-0.064,0.19-0.185,0.186-0.486
					c-0.032-1.736-1.205-7.426-1.216-7.483c-0.056-0.268,0.116-0.529,0.384-0.584c0.268-0.056,0.529,0.117,0.584,0.384
					c0.049,0.238,1.202,5.837,1.237,7.665c0.012,0.688-0.302,1.078-0.568,1.286C283.751,405.51,283.381,405.622,283.006,405.668z"/>
			</g>
			<path fill="#FFFFFF" d="M276.244,408.636c0.404,2.033,1.748,5.775,6.273,5.775c4.537,0,5.81-3.419,6.247-5.775H276.244z"/>
			<g>
				<path fill="#FA8465" d="M282.138,417.477c1.28,0,2.366-0.648,2.411-0.677c0.233-0.142,0.308-0.444,0.167-0.679
					c-0.141-0.234-0.445-0.309-0.679-0.167c-0.007,0.005-0.901,0.533-1.898,0.533c-0.915,0-1.792-0.524-1.8-0.531
					c-0.232-0.142-0.537-0.071-0.68,0.161c-0.144,0.233-0.072,0.538,0.161,0.682C279.862,416.826,280.93,417.477,282.138,417.477z"
					/>
			</g>
			<path fill="#2A3554" d="M300.871,396.421h-2.241c0.247-2.25-0.57-4.971-1.246-6.782c-1.532-4.109,1.729-5.921-0.908-7.979
				c-2.636-2.063-9.199-1.179-13.761-1.327c-4.592-0.148-11.971-0.084-13.762,0.331c-1.794,0.411-0.811,3.392-0.153,5.701
				c0.663,2.306-2.201,4.859-2.681,7.246c-0.137,0.686-0.109,1.705,0.001,2.81h-1.869c-0.222-2.908-0.255-5.614-0.215-7.809
				c0.075-3.843,2.172-7.354,5.515-9.249c9.056-5.134,18.612-3.22,24.903-0.801c4.367,1.677,7.162,5.965,6.939,10.627
				C301.288,391.407,301.124,393.928,300.871,396.421z"/>
			<g>
				<g>
					<path fill="#FFFFFF" d="M286.05,398.376c0-3.39,2.757-6.146,6.146-6.146s6.147,2.757,6.147,6.146s-2.757,6.148-6.147,6.148
						S286.05,401.766,286.05,398.376z M287.008,398.376c0,2.862,2.328,5.19,5.188,5.19c2.861,0,5.189-2.328,5.189-5.19
						c0-2.86-2.328-5.188-5.189-5.188C289.336,393.188,287.008,395.516,287.008,398.376z"/>
				</g>
				<g>
					<path fill="#FFFFFF" d="M269.248,398.376c0-3.39,2.758-6.146,6.147-6.146c3.389,0,6.146,2.757,6.146,6.146
						s-2.757,6.148-6.146,6.148C272.006,404.524,269.248,401.766,269.248,398.376z M270.206,398.376c0,2.862,2.328,5.19,5.189,5.19
						s5.188-2.328,5.188-5.19c0-2.86-2.327-5.188-5.188-5.188S270.206,395.516,270.206,398.376z"/>
				</g>
				<g>
					<path fill="#FFFFFF" d="M301.529,393.331c0.265,0.242,0.14,0.855-0.129,1.008c-2.24,0.443-3.738,1.9-3.759,1.921
						c-0.092,0.09-0.213,0.137-0.335,0.137c-0.123,0-0.248-0.047-0.339-0.141c-0.189-0.188-0.189-0.493,0-0.678
						C297.064,395.481,298.846,393.74,301.529,393.331z"/>
				</g>
				<g>
					<path fill="#FFFFFF" d="M270.577,396.18c-0.095,0.139-0.248,0.217-0.402,0.217c-0.091,0-0.181-0.025-0.262-0.078
						c-0.038-0.024-3.357-2.163-6.436-2.242c-0.346-0.3-0.316-0.621-0.083-0.961c3.386,0.038,6.876,2.292,7.043,2.4
						C270.657,395.662,270.72,395.959,270.577,396.18z"/>
				</g>
				<g>
					<path fill="#FFFFFF" d="M281.205,396.996c0.011-0.015,1.148-1.555,2.645-1.555c1.482,0,2.511,1.537,2.522,1.552l0.802-0.522
						c-0.053-0.083-1.317-1.987-3.324-1.987c-1.991,0-3.365,1.871-3.422,1.952L281.205,396.996z"/>
				</g>
			</g>
		</g>
	</g>
	<g>
		<g>
			<g>
				<g>
					<path fill="#8380F9" d="M506.604,127.749c0,14.095-3.76,27.308-10.334,38.693c-11.69,20.249-22.855,40.796-33.01,61.857
						l-5.724,11.874h-56.86l-8.366-17.288c-9.253-19.117-19.445-37.756-30.164-56.093c-6.701-11.461-10.539-24.804-10.539-39.042
						c0-42.071,33.806-76.461,75.604-77.476c0.744-0.019,1.489-0.026,2.239-0.024C472.09,50.433,506.604,85.061,506.604,127.749z"/>
					<g opacity="0.5">
						<path fill="#8380F9" d="M367.045,133.945c-3.06,0-5.646-2.349-5.882-5.448c-0.069-0.91-1.519-22.536,14.19-44.759
							c16.088-22.758,43.157-24.975,44.301-25.058c3.265-0.249,6.084,2.21,6.323,5.464c0.236,3.254-2.211,6.085-5.465,6.322
							c-0.208,0.017-22.71,1.989-35.508,20.093c-13.145,18.597-12.067,36.879-12.055,37.063c0.221,3.246-2.223,6.073-5.469,6.307
							C367.334,133.939,367.189,133.945,367.045,133.945z"/>
					</g>
					<g>
						<g>
							<g opacity="0.4">
								<path fill="#8380F9" d="M455.353,163.185c-0.447,0-0.857-0.249-1.065-0.646l-2.549-4.894l-2.547,4.894
									c-0.206,0.396-0.617,0.646-1.065,0.646c-0.447,0-0.857-0.249-1.065-0.646l-2.549-4.893l-2.545,4.892
									c-0.208,0.397-0.618,0.646-1.065,0.646l0,0c-0.449,0-0.859-0.249-1.067-0.646l-2.545-4.892l-2.547,4.893
									c-0.206,0.396-0.617,0.646-1.065,0.646l0,0c-0.447,0-0.859-0.249-1.065-0.646l-2.546-4.892l-2.547,4.892
									c-0.208,0.397-0.619,0.646-1.065,0.646c-0.448,0-0.859-0.249-1.066-0.646l-2.546-4.893l-2.546,4.892
									c-0.207,0.397-0.618,0.646-1.066,0.646l0,0c-0.448,0-0.858-0.249-1.065-0.646l-2.546-4.892l-2.546,4.892
									c-0.207,0.397-0.617,0.646-1.065,0.646c-0.447,0-0.858-0.249-1.065-0.646l-2.546-4.892l-2.545,4.892
									c-0.207,0.397-0.618,0.646-1.066,0.646l0,0c-0.448,0-0.858-0.249-1.065-0.646l-3.611-6.939
									c-0.306-0.589-0.077-1.313,0.511-1.62c0.588-0.306,1.313-0.077,1.62,0.512l2.545,4.891l2.545-4.892
									c0.207-0.397,0.618-0.646,1.065-0.646c0.448,0,0.859,0.249,1.065,0.646l2.547,4.893l2.546-4.893
									c0.207-0.397,0.618-0.646,1.065-0.646c0.448,0,0.859,0.249,1.065,0.646l2.546,4.893l2.547-4.893
									c0.207-0.397,0.617-0.646,1.065-0.646c0.448,0,0.859,0.249,1.065,0.646l2.548,4.893l2.547-4.893
									c0.206-0.397,0.617-0.646,1.065-0.646c0.447,0,0.857,0.249,1.065,0.646l2.546,4.893l2.547-4.893
									c0.208-0.397,0.619-0.646,1.065-0.646l0,0c0.448,0,0.859,0.249,1.066,0.647l2.546,4.892l2.545-4.893
									c0.208-0.397,0.618-0.646,1.065-0.646c0.449,0,0.859,0.249,1.067,0.646l2.547,4.893l2.547-4.893
									c0.206-0.397,0.617-0.646,1.065-0.646c0.449,0,0.859,0.249,1.065,0.646l2.549,4.894l2.55-4.894
									c0.307-0.588,1.032-0.817,1.619-0.51c0.588,0.307,0.817,1.031,0.511,1.62l-3.614,6.939
									C456.212,162.936,455.801,163.185,455.353,163.185z"/>
							</g>
							<g>
								<g>
									<g>
										<polygon fill="#2A3554" points="413.762,240.143 397.616,157.945 399.973,157.482 416.215,240.172 										"/>
									</g>
								</g>
								<g>
									<g>
										<circle fill="#2A3554" cx="398.794" cy="157.714" r="5.249"/>
									</g>
								</g>
							</g>
							<g>
								<g>
									<g>
										<polygon fill="#2A3554" points="446.992,240.143 463.138,157.945 460.78,157.482 444.544,240.143 										"/>
									</g>
								</g>
								<g>
									<g>
										<circle fill="#2A3554" cx="461.958" cy="157.714" r="5.249"/>
									</g>
								</g>
							</g>
						</g>
					</g>
					<path opacity="0.4" fill="#8380F9" d="M506.604,127.749c0,14.095-3.76,27.308-10.334,38.693
						c-11.69,20.249-22.855,40.796-33.01,61.857l-5.724,11.874h-51.25c33.019-3.317,70.142-63.371,64.845-120.502
						c-5.446-58.718-41.408-68.842-43.921-69.397c0.744-0.019,1.489-0.026,2.239-0.024
						C472.09,50.433,506.604,85.061,506.604,127.749z"/>
				</g>
				<g>
					<g>
						<path fill="#2A3554" d="M460.268,244.076v8.372c0,2.156-1.751,3.907-3.907,3.907h-55.558c-2.156,0-3.907-1.751-3.907-3.907
							v-8.372c0-2.156,1.751-3.904,3.907-3.904h55.558C458.517,240.172,460.268,241.92,460.268,244.076z"/>
						<path fill="#161642" d="M460.268,247.502v4.946c0,2.156-1.751,3.907-3.907,3.907h-55.558c-2.156,0-3.907-1.751-3.907-3.907
							v-4.946H460.268z"/>
					</g>
					<g>
						<path fill="#2A3554" d="M460.268,260.26v8.372c0,1.936-1.406,3.541-3.253,3.851c-0.214,0.036-0.434,0.056-0.654,0.056h-55.558
							c-0.222,0-0.44-0.02-0.653-0.056c-1.848-0.31-3.254-1.916-3.254-3.851v-8.372c0-2.157,1.751-3.904,3.907-3.904h55.558
							C458.517,256.355,460.268,258.103,460.268,260.26z"/>
						<path fill="#161642" d="M460.268,263.633v4.999c0,1.936-1.406,3.541-3.253,3.851h-56.865c-1.848-0.31-3.254-1.916-3.254-3.851
							v-4.999H460.268z"/>
					</g>
					<g>
						<path fill="#2A3554" d="M460.268,276.443v8.372c0,1.939-1.415,3.548-3.268,3.852c-0.208,0.036-0.42,0.053-0.64,0.053h-55.558
							c-0.219,0-0.432-0.017-0.641-0.053c-1.852-0.303-3.266-1.913-3.266-3.852v-8.372c0-2.157,1.751-3.904,3.907-3.904h55.558
							C458.517,272.539,460.268,274.287,460.268,276.443z"/>
						<path fill="#161642" d="M460.268,279.816v4.999c0,1.939-1.415,3.548-3.268,3.852h-56.838
							c-1.852-0.303-3.266-1.913-3.266-3.852v-4.999H460.268z"/>
					</g>
					<path fill="#161642" d="M413.439,288.719c0.063,8.54,7.002,15.441,15.556,15.441c8.553,0,15.493-6.901,15.555-15.441H413.439z"
						/>
				</g>
			</g>
		</g>
	</g>
	<g>
		<g>
			<g>
				<g>
					<path fill="#8380F9" d="M746.459,509.701c0,4.851-3.946,8.798-8.8,8.798c-4.851,0-8.798-3.947-8.798-8.798
						c0-4.852,3.947-8.799,8.798-8.799C742.513,500.902,746.459,504.85,746.459,509.701z M731.621,509.701
						c0,3.329,2.711,6.038,6.038,6.038c3.33,0,6.04-2.709,6.04-6.038c0-3.33-2.71-6.039-6.04-6.039
						C734.332,503.662,731.621,506.371,731.621,509.701z"/>
				</g>
				<g>
					<path fill="#5F46F1" d="M755.408,464.982c0,4.851-3.946,8.8-8.797,8.8s-8.798-3.949-8.798-8.8c0-4.852,3.947-8.799,8.798-8.799
						S755.408,460.131,755.408,464.982z M740.573,464.982c0,3.329,2.707,6.038,6.038,6.038c3.33,0,6.037-2.709,6.037-6.038
						c0-3.33-2.707-6.039-6.037-6.039C743.28,458.943,740.573,461.652,740.573,464.982z"/>
				</g>
				<g>
					<g>
						<g>
							<path fill="#5F46F1" d="M773.376,443.794c0,0.762-0.62,1.38-1.382,1.38h-6.087c-0.762,0-1.378-0.618-1.378-1.38
								c0-0.764,0.616-1.38,1.378-1.38h6.087C772.756,442.414,773.376,443.03,773.376,443.794z"/>
						</g>
						<g>
							<path fill="#5F46F1" d="M784.026,443.794c0,0.762-0.617,1.38-1.382,1.38h-6.084c-0.765,0-1.381-0.618-1.381-1.38
								c0-0.764,0.616-1.38,1.381-1.38h6.084C783.409,442.414,784.026,443.03,784.026,443.794z"/>
						</g>
					</g>
					<g>
						<g>
							<path fill="#5F46F1" d="M775.657,435.251v5.467c0,0.762-0.619,1.38-1.381,1.38s-1.379-0.618-1.379-1.38v-5.467
								c0-0.762,0.617-1.38,1.379-1.38S775.657,434.489,775.657,435.251z"/>
						</g>
						<g>
							<path fill="#5F46F1" d="M775.657,446.869v5.469c0,0.762-0.619,1.38-1.381,1.38s-1.379-0.618-1.379-1.38v-5.469
								c0-0.762,0.617-1.38,1.379-1.38S775.657,446.107,775.657,446.869z"/>
						</g>
					</g>
				</g>
				<g>
					<g>
						<g>
							<g>
								<path fill="#3C3CC2" d="M763.451,490.788c0,0.762-0.62,1.38-1.382,1.38h-6.087c-0.762,0-1.379-0.618-1.379-1.38
									c0-0.764,0.617-1.382,1.379-1.382h6.087C762.831,489.406,763.451,490.024,763.451,490.788z"/>
							</g>
							<g>
								<path fill="#3C3CC2" d="M774.102,490.788c0,0.762-0.62,1.38-1.382,1.38h-6.084c-0.765,0-1.382-0.618-1.382-1.38
									c0-0.764,0.617-1.382,1.382-1.382h6.084C773.481,489.406,774.102,490.024,774.102,490.788z"/>
							</g>
						</g>
						<g>
							<g>
								<path fill="#3C3CC2" d="M765.732,482.244v5.468c0,0.762-0.62,1.38-1.382,1.38s-1.378-0.618-1.378-1.38v-5.468
									c0-0.763,0.616-1.38,1.378-1.38S765.732,481.481,765.732,482.244z"/>
							</g>
							<g>
								<path fill="#3C3CC2" d="M765.732,493.862v5.469c0,0.762-0.62,1.379-1.382,1.379s-1.378-0.617-1.378-1.379v-5.469
									c0-0.761,0.616-1.38,1.378-1.38S765.732,493.102,765.732,493.862z"/>
							</g>
						</g>
					</g>
				</g>
			</g>
		</g>
		<g>
			<g>
				<g>
					<path fill="#5F46F1" d="M93.825,216.206c0,4.852-3.947,8.798-8.798,8.798s-8.799-3.947-8.799-8.798
						c0-4.851,3.948-8.798,8.799-8.798S93.825,211.355,93.825,216.206z M91.064,216.206c0-3.33-2.708-6.037-6.038-6.037
						s-6.038,2.708-6.038,6.037c0,3.331,2.708,6.039,6.038,6.039S91.064,219.537,91.064,216.206z"/>
				</g>
				<g>
					<g>
						<path fill="#8380F9" d="M129.741,204.336c0,4.852-3.947,8.799-8.798,8.799c-4.852,0-8.799-3.947-8.799-8.799
							c0-4.851,3.947-8.798,8.799-8.798C125.794,195.538,129.741,199.485,129.741,204.336z M126.981,204.336
							c0-3.33-2.709-6.038-6.039-6.038s-6.038,2.708-6.038,6.038c0,3.331,2.708,6.039,6.038,6.039S126.981,207.667,126.981,204.336z
							"/>
					</g>
				</g>
				<g>
					<g>
						<g>
							<path fill="#3C3CC2" d="M130.866,166.563c-0.762,0-1.381,0.618-1.381,1.38v6.086c0,0.762,0.619,1.38,1.381,1.38
								c0.762,0,1.38-0.618,1.38-1.38v-6.086C132.246,167.181,131.628,166.563,130.866,166.563z"/>
						</g>
						<g>
							<path fill="#3C3CC2" d="M130.866,155.912c-0.762,0-1.381,0.618-1.381,1.38v6.086c0,0.762,0.619,1.38,1.381,1.38
								c0.762,0,1.38-0.618,1.38-1.38v-6.086C132.246,156.53,131.628,155.912,130.866,155.912z"/>
						</g>
					</g>
					<g>
						<g>
							<path fill="#3C3CC2" d="M139.409,164.281h-5.467c-0.763,0-1.381,0.618-1.381,1.38c0,0.762,0.618,1.38,1.381,1.38h5.467
								c0.762,0,1.38-0.618,1.38-1.38C140.79,164.898,140.171,164.281,139.409,164.281z"/>
						</g>
						<g>
							<path fill="#3C3CC2" d="M127.79,164.281h-5.467c-0.762,0-1.38,0.618-1.38,1.38c0,0.762,0.618,1.38,1.38,1.38h5.467
								c0.762,0,1.381-0.618,1.381-1.38C129.171,164.898,128.552,164.281,127.79,164.281z"/>
						</g>
					</g>
				</g>
				<g>
					<g>
						<g>
							<g>
								<path fill="#5F46F1" d="M93.57,176.312c-0.762,0-1.381,0.619-1.381,1.38v6.087c0,0.762,0.619,1.38,1.381,1.38
									c0.762,0,1.38-0.618,1.38-1.38v-6.087C94.95,176.931,94.332,176.312,93.57,176.312z"/>
							</g>
							<g>
								<path fill="#5F46F1" d="M93.57,165.661c-0.762,0-1.381,0.618-1.381,1.38v6.086c0,0.762,0.619,1.38,1.381,1.38
									c0.762,0,1.38-0.618,1.38-1.38v-6.086C94.95,166.279,94.332,165.661,93.57,165.661z"/>
							</g>
						</g>
						<g>
							<g>
								<path fill="#5F46F1" d="M102.112,174.03h-5.467c-0.763,0-1.38,0.618-1.38,1.38c0,0.762,0.617,1.38,1.38,1.38h5.467
									c0.763,0,1.381-0.619,1.381-1.38C103.493,174.648,102.875,174.03,102.112,174.03z"/>
							</g>
							<g>
								<path fill="#5F46F1" d="M90.494,174.03h-5.468c-0.763,0-1.38,0.618-1.38,1.38c0,0.762,0.617,1.38,1.38,1.38h5.468
									c0.762,0,1.38-0.619,1.38-1.38C91.874,174.648,91.256,174.03,90.494,174.03z"/>
							</g>
						</g>
					</g>
				</g>
			</g>
		</g>
		<g>
			<g>
				<g>
					<path fill="#CCCCFF" d="M557.83,154.677c0.165,0.018,0.338-0.005,0.502-0.075c1.743-0.736,2.763-1.079,2.775-1.083
						c0.534-0.178,0.823-0.756,0.645-1.29c-0.18-0.534-0.757-0.822-1.291-0.645c-0.044,0.015-1.096,0.368-2.923,1.138
						c-0.518,0.219-0.762,0.817-0.542,1.336C557.146,154.414,557.472,154.64,557.83,154.677z"/>
				</g>
				<g>
					<path fill="#CCCCFF" d="M505.854,209.378c-0.692,1.851-1.342,3.759-1.931,5.672c-0.145,0.473-0.605,0.765-1.082,0.715
						c-0.064-0.006-0.128-0.02-0.193-0.04c-0.537-0.166-0.841-0.736-0.674-1.274c0.599-1.953,1.263-3.9,1.97-5.789
						c0.198-0.527,0.783-0.794,1.313-0.597C505.784,208.263,506.051,208.851,505.854,209.378z"/>
					<path fill="#CCCCFF" d="M502.333,220.828c-0.466,1.917-0.889,3.889-1.254,5.864c-0.098,0.526-0.585,0.884-1.11,0.828
						c-0.026-0.003-0.053-0.006-0.079-0.011c-0.554-0.104-0.92-0.635-0.817-1.189c0.373-2.011,0.804-4.022,1.279-5.975
						c0.133-0.547,0.688-0.882,1.233-0.749C502.132,219.729,502.467,220.281,502.333,220.828z"/>
					<path fill="#CCCCFF" d="M498.032,251.627c-0.506-0.055-0.903-0.479-0.912-1c-0.031-2.046-0.017-4.099,0.044-6.103
						c0.017-0.563,0.488-1.006,1.05-0.988c0.57,0.02,1.005,0.486,0.989,1.05c-0.061,1.972-0.074,3.993-0.044,6.009
						c0.01,0.563-0.44,1.027-1.004,1.036C498.115,251.634,498.073,251.63,498.032,251.627z"/>
					<path fill="#CCCCFF" d="M499.269,231.474c0.558,0.073,0.952,0.584,0.879,1.143c-0.12,0.922-0.229,1.853-0.325,2.768
						c-0.112,1.057-0.211,2.133-0.295,3.204c-0.044,0.562-0.534,0.981-1.096,0.938c-0.01-0.001-0.018-0.003-0.028-0.003
						c-0.547-0.058-0.951-0.541-0.909-1.095c0.086-1.086,0.187-2.183,0.298-3.258c0.099-0.93,0.209-1.879,0.333-2.816
						c0.071-0.55,0.569-0.941,1.116-0.883C499.252,231.471,499.261,231.472,499.269,231.474z"/>
					<path fill="#CCCCFF" d="M508.13,203.837c-0.186,0.413-0.612,0.643-1.039,0.598c-0.104-0.011-0.208-0.038-0.31-0.083
						c-0.514-0.23-0.744-0.833-0.514-1.347c0.831-1.857,1.731-3.709,2.674-5.503c0.262-0.499,0.879-0.69,1.378-0.428
						c0.498,0.262,0.689,0.879,0.427,1.376C509.824,200.207,508.943,202.019,508.13,203.837z"/>
					<path fill="#CCCCFF" d="M552.915,157.136c-1.752,0.896-3.518,1.87-5.252,2.897c-0.198,0.115-0.416,0.158-0.626,0.136
						c-0.31-0.032-0.601-0.206-0.772-0.494c-0.287-0.485-0.127-1.111,0.358-1.397c1.771-1.049,3.576-2.043,5.365-2.957
						c0.501-0.255,1.116-0.057,1.372,0.444C553.616,156.266,553.417,156.88,552.915,157.136z"/>
					<path fill="#CCCCFF" d="M537.716,166.74c-0.214,0.164-0.475,0.229-0.725,0.203c-0.269-0.029-0.526-0.163-0.704-0.396
						c-0.341-0.448-0.255-1.087,0.193-1.429c1.614-1.232,3.286-2.434,4.969-3.569c0.468-0.314,1.101-0.192,1.416,0.275
						c0.315,0.467,0.191,1.101-0.275,1.416C540.939,164.354,539.3,165.532,537.716,166.74z"/>
					<path fill="#CCCCFF" d="M520.58,183.437c-0.226,0.282-0.569,0.412-0.903,0.376c-0.188-0.02-0.371-0.091-0.529-0.217
						c-0.44-0.352-0.511-0.994-0.158-1.434c1.266-1.583,2.603-3.149,3.972-4.655c0.379-0.417,1.023-0.448,1.441-0.069
						c0.417,0.378,0.447,1.023,0.069,1.441C523.13,180.354,521.821,181.888,520.58,183.437z"/>
					<path fill="#CCCCFF" d="M528.637,174.569c-0.226,0.22-0.528,0.314-0.819,0.284c-0.229-0.024-0.45-0.125-0.623-0.303
						c-0.393-0.403-0.384-1.049,0.02-1.442c1.451-1.411,2.969-2.802,4.514-4.133c0.425-0.368,1.07-0.32,1.438,0.106
						c0.368,0.427,0.32,1.071-0.107,1.438C531.545,171.825,530.058,173.187,528.637,174.569z"/>
					<path fill="#CCCCFF" d="M513.701,193.241c-0.211,0.347-0.599,0.523-0.978,0.483c-0.145-0.016-0.29-0.063-0.424-0.145
						c-0.481-0.293-0.631-0.921-0.338-1.402c1.059-1.733,2.186-3.456,3.352-5.119c0.325-0.46,0.96-0.573,1.421-0.249
						c0.461,0.323,0.574,0.959,0.249,1.42C515.843,189.858,514.738,191.543,513.701,193.241z"/>
				</g>
			</g>
			<g>
				<g>
					<polygon fill="#8380F9" points="557.85,147.699 553.387,131.17 608.073,131.64 					"/>
					<polygon fill="#5F46F1" points="608.073,131.638 560.504,151.69 560.377,151.745 558.331,155.134 557.85,147.699 					"/>
					<polygon fill="#3C3CC2" points="558.331,155.134 562.764,154.435 560.377,151.745 					"/>
					<polygon fill="#8380F9" points="566.363,149.22 560.375,151.744 572.704,165.635 608.073,131.64 					"/>
				</g>
			</g>
		</g>
		<g>
			<g>
				<rect x="719.425" y="350.673" fill="#8380F9" width="71.101" height="50.885"/>
				<polygon fill="#161642" points="790.522,388.094 787.066,382.271 775.614,362.987 752.715,401.559 790.522,401.559 				"/>
				<polygon fill="#2A3554" points="747.973,401.559 719.425,401.559 733.698,378.556 747.973,355.552 762.25,378.556 
					776.524,401.559 				"/>
				<polygon fill="#FFFFFF" points="738.721,370.466 747.973,377.394 757.229,370.466 747.973,355.552 				"/>
				<polygon fill="#FFFFFF" points="767.823,376.115 775.614,382.271 783.409,376.115 775.614,362.987 				"/>
			</g>
		</g>
		<g>
			<g>
				<path fill="#8380F9" d="M114.517,262.423v34.276c0,2.196-1.775,3.957-3.956,3.957H76.271c-1.504,0-2.805-0.826-3.481-2.059
					c-0.067-0.135-0.136-0.272-0.176-0.407c-0.068-0.203-0.135-0.406-0.203-0.624c0-0.026-0.014-0.04-0.014-0.066
					c0-0.028-0.013-0.069-0.013-0.096c-0.042-0.23-0.068-0.461-0.068-0.706v-34.276c0-2.059,1.559-3.726,3.536-3.944
					c0.135,0,0.285-0.013,0.42-0.013h34.291c0.407,0,0.8,0.056,1.165,0.178c0,0,0,0,0.014,0
					C113.353,259.145,114.517,260.636,114.517,262.423z"/>
			</g>
			<g>
				<path fill="#FFFFFF" d="M103.205,281.191c-3.104-5.81-6.453-11.099-9.164-17.604v9.417c0.885,0.269,1.529,1.091,1.529,2.063
					c0,1.192-0.963,2.157-2.156,2.157c-1.188,0-2.156-0.965-2.156-2.157c0-0.971,0.645-1.793,1.529-2.063v-9.417
					c-2.707,6.505-5.048,9.084-9.161,17.604l6.537,6.606h3.252h3.163L103.205,281.191z"/>
				<rect x="90.14" y="289.887" fill="#FFFFFF" width="6.424" height="3.521"/>
			</g>
		</g>
		<g>
			<g>
				<path fill="#5F46F1" d="M670.313,161.877v32.303c0,2.069-1.672,3.729-3.729,3.729H634.27c-1.418,0-2.644-0.779-3.283-1.94
					c-0.063-0.128-0.127-0.255-0.164-0.383c-0.064-0.191-0.129-0.382-0.191-0.587c0-0.025-0.014-0.039-0.014-0.064
					c0-0.025-0.013-0.063-0.013-0.089c-0.038-0.217-0.064-0.435-0.064-0.665v-32.303c0-1.941,1.469-3.511,3.333-3.715
					c0.127,0,0.268-0.013,0.396-0.013h32.314c0.383,0,0.755,0.051,1.099,0.166c0,0,0,0,0.013,0
					C669.216,158.787,670.313,160.191,670.313,161.877z"/>
			</g>
			<g>
				<g>
					<path fill="#FFFFFF" d="M650.463,163.644c-0.079,0-0.158,0-0.237,0.003c-4.432,0.107-8.015,3.753-8.015,8.213
						c0,1.509,0.405,2.924,1.116,4.139c1.138,1.944,2.218,3.92,3.198,5.948l0.887,1.833h0.596h5.433l0.608-1.259
						c1.076-2.233,2.258-4.411,3.498-6.558c0.697-1.208,1.097-2.608,1.097-4.103C658.644,167.334,654.984,163.663,650.463,163.644z"
						/>
					<path fill="#FFFFFF" d="M653.46,186.069h-6.056v2.025c0,1.671,1.355,3.027,3.027,3.027l0,0c1.672,0,3.028-1.355,3.028-3.027
						V186.069z"/>
				</g>
			</g>
		</g>
	</g>
	<g>
		<path fill="#8380F9" d="M520.571,629.848h-36.327c-4.939,0-9.318-3.182-10.845-7.881l-15.405-47.418
			c-0.63-1.94,0.722-3.955,2.756-4.113c28.049-2.175,55.823-2.176,83.321-0.007c2.033,0.162,3.381,2.177,2.751,4.114l-15.407,47.424
			C529.89,626.666,525.511,629.848,520.571,629.848z"/>
		<ellipse fill="#161642" cx="502.656" cy="573.878" rx="40.941" ry="2.284"/>
		<g>
			<g>
				<path fill="#3C3CC2" d="M504.126,540.194c0,0-0.401-26.483-33.742-30.595C470.384,509.6,471.558,547.14,504.126,540.194z"/>
			</g>
			<g>
				<path fill="#3C3CC2" d="M500.489,508.778c0,0,3.324-26.276,36.914-26.679C537.403,482.1,532.089,519.279,500.489,508.778z"/>
			</g>
			<g>
				<path fill="#5F46F1" d="M500.489,487.456v86.146c1.388,0.388,2.688,0.386,3.838,0v-86.146c0-1.061-0.859-1.919-1.919-1.919l0,0
					C501.348,485.537,500.489,486.396,500.489,487.456z"/>
			</g>
			<g>
				<path fill="#5F46F1" d="M501.9,510.419c0,0,19.596,18.563,42.01-17.597C543.91,492.822,505.092,485.049,501.9,510.419z"/>
			</g>
			<g>
				<path fill="#5F46F1" d="M503.253,539.718c0,0,21.885,15.799,39.305-23.016C542.558,516.702,503.051,514.148,503.253,539.718z"/>
			</g>
			<g>
				<path fill="#5F46F1" d="M502.408,543.072c0,0-0.771-26.98-42.175-17.197C460.233,525.875,482.236,558.788,502.408,543.072z"/>
			</g>
			<g>
				<path fill="#5F46F1" d="M504.399,509.056c0,0-0.11-26.992-41.741-18.227C462.658,490.829,483.847,524.271,504.399,509.056z"/>
			</g>
		</g>
	</g>
	<g>
		<g>
			<path fill="#5F46F1" d="M62.562,614.725l-5.82-1.396c-4.738-1.136-7.658-5.897-6.522-10.634L89.7,438.076l22.973,5.51
				L73.194,608.203C72.058,612.94,67.298,615.858,62.562,614.725z"/>
			
				<rect x="93.486" y="406.053" transform="matrix(0.9724 0.2332 -0.2332 0.9724 101.7182 -12.8741)" fill="#8380F9" width="23.624" height="35.264"/>
			<path fill="#FFFFFF" d="M136.122,381.395c-1.474,9.553-5.84,19.328-15.224,27.896l-22.976-5.505c0,0-5.798-15.248,0.035-27.213
				c1.299-2.654,2.617-4.77,3.945-6.479c0,0,0,0,0.008-0.006c10.763-13.892,21.99-1.27,24.337-33.742
				C126.246,336.345,139.708,358.201,136.122,381.395z"/>
			<path fill="#5F46F1" d="M136.122,381.395c-6.741,6.058-18.105-4.061-21.733-9.077c-4.337-6.005-12.165-2.378-12.48-2.23
				c10.763-13.892,21.99-1.27,24.337-33.742C126.246,336.345,139.708,358.201,136.122,381.395z"/>
		</g>
	</g>
</g>
</svg>
