<svg width="740" height="362" xmlns="http://www.w3.org/2000/svg" xmlns:xlink="http://www.w3.org/1999/xlink"><defs><linearGradient x1="130.508%" y1="50%" x2="4.168%" y2="50%" id="a"><stop stop-color="#0028F8" offset="0%"/><stop stop-color="#0092FF" stop-opacity="0" offset="100%"/></linearGradient><linearGradient x1="4.168%" y1="50%" x2="130.508%" y2="50%" id="b"><stop stop-color="#0028F8" offset="0%"/><stop stop-color="#0092FF" stop-opacity="0" offset="100%"/></linearGradient><linearGradient x1="4.168%" y1="50%" x2="95.333%" y2="50%" id="c"><stop stop-color="#0028F8" offset="0%"/><stop stop-color="#0092FF" stop-opacity="0" offset="100%"/></linearGradient><linearGradient x1="48.821%" y1="93.936%" x2="51.44%" y2="-7.795%" id="d"><stop stop-color="#0060F3" offset="0%"/><stop stop-color="#0092FF" stop-opacity="0" offset="100%"/></linearGradient><linearGradient x1="50%" y1="71.332%" x2="50%" y2="0%" id="i"><stop stop-color="#0076F4" offset="0%"/><stop stop-color="#40C7FF" offset="100%"/></linearGradient><linearGradient x1="50%" y1="0%" x2="50%" y2="100%" id="k"><stop stop-color="#E579F6" offset="0%"/><stop stop-color="#9177FD" stop-opacity="0" offset="100%"/></linearGradient><linearGradient x1="50%" y1="0%" x2="50%" y2="100%" id="o"><stop stop-color="#72D0FF" offset="0%"/><stop stop-color="#349EFA" offset="100%"/></linearGradient><linearGradient x1="50%" y1="100%" x2="50%" y2="0%" id="p"><stop stop-color="#133EA8" offset="0%"/><stop stop-color="#3E55E6" offset="100%"/></linearGradient><linearGradient x1="50%" y1="0%" x2="50%" y2="100%" id="q"><stop stop-color="#497AFF" offset="0%"/><stop stop-color="#574EFF" offset="100%"/></linearGradient><linearGradient x1="50%" y1="0%" x2="50%" y2="100%" id="r"><stop stop-color="#497AFF" offset="0%"/><stop stop-color="#574EFF" offset="100%"/></linearGradient><linearGradient x1="50%" y1="11.038%" x2="50%" y2="100%" id="s"><stop stop-color="#F88783" offset="0%"/><stop stop-color="#FBBBB7" offset="100%"/></linearGradient><linearGradient x1="50%" y1="83.834%" x2="26.723%" y2="30.747%" id="u"><stop stop-color="#FCBC1C" offset="0%"/><stop stop-color="#F9D618" offset="100%"/></linearGradient><linearGradient x1="50%" y1="0%" x2="36.984%" y2="98.596%" id="v"><stop stop-color="#0BCBFF" offset="0%"/><stop stop-color="#005BEA" offset="100%"/></linearGradient><linearGradient x1="14.278%" y1="0%" x2="50%" y2="100%" id="w"><stop stop-color="#FFD3A5" offset="0%"/><stop stop-color="#FD6585" offset="100%"/></linearGradient><linearGradient x1="50%" y1="0%" x2="50%" y2="100%" id="z"><stop stop-color="#C27EFD" offset="0%"/><stop stop-color="#3478EB" offset="100%"/></linearGradient><linearGradient x1="50%" y1="98.057%" x2="50%" y2="0%" id="A"><stop stop-color="#EEE" stop-opacity=".365" offset="0%"/><stop stop-color="#FFF" offset="100%"/></linearGradient><linearGradient x1="50%" y1="0%" x2="50%" y2="100%" id="D"><stop stop-color="#DA488F" offset="0%"/><stop stop-color="#6F42C9" offset="100%"/></linearGradient><linearGradient x1="50%" y1="98.057%" x2="50%" y2="0%" id="E"><stop stop-color="#EEE" stop-opacity=".365" offset="0%"/><stop stop-color="#FFF" offset="100%"/></linearGradient><linearGradient x1="0%" y1="0%" x2="49.851%" y2="99.702%" id="F"><stop stop-color="#00EAEF" offset="0%"/><stop stop-color="#0093FF" offset="100%"/></linearGradient><linearGradient x1="50%" y1="0%" x2="50%" y2="100%" id="I"><stop stop-color="#FEBADB" offset="0%"/><stop stop-color="#FF5DE1" offset="100%"/></linearGradient><linearGradient x1="22.326%" y1="14.718%" x2="100%" y2="180.067%" id="J"><stop stop-color="#6B73FF" offset="0%"/><stop stop-color="#000DFF" stop-opacity=".569" offset="100%"/></linearGradient><linearGradient x1="50%" y1="98.057%" x2="50%" y2="0%" id="K"><stop stop-color="#EEE" stop-opacity=".365" offset="0%"/><stop stop-color="#FFF" offset="100%"/></linearGradient><linearGradient x1="50%" y1="100%" x2="50%" y2="19.921%" id="L"><stop stop-color="#EEE" stop-opacity="0" offset="0%"/><stop stop-color="#FFF" offset="100%"/></linearGradient><linearGradient x1="50%" y1="98.057%" x2="50%" y2="0%" id="M"><stop stop-color="#EEE" stop-opacity=".365" offset="0%"/><stop stop-color="#FFF" offset="100%"/></linearGradient><linearGradient x1="50%" y1="98.057%" x2="50%" y2="0%" id="N"><stop stop-color="#EEE" stop-opacity=".365" offset="0%"/><stop stop-color="#FFF" offset="100%"/></linearGradient><linearGradient x1="50%" y1="0%" x2="50%" y2="100%" id="O"><stop stop-color="#133EA8" offset="0%"/><stop stop-color="#3E55E6" offset="100%"/></linearGradient><linearGradient x1="50%" y1="0%" x2="50%" y2="100%" id="P"><stop stop-color="#133EA8" offset="0%"/><stop stop-color="#3E55E6" offset="100%"/></linearGradient><linearGradient x1="18.781%" y1="184.365%" x2="50%" y2="-41.449%" id="Q"><stop stop-color="#F5DBFC" offset="0%"/><stop stop-color="#8C5BF9" offset="100%"/></linearGradient><linearGradient x1="46.788%" y1="184.365%" x2="50%" y2="0%" id="R"><stop stop-color="#F5DBFC" offset="0%"/><stop stop-color="#8C5BF9" offset="100%"/></linearGradient><linearGradient x1="50%" y1="11.038%" x2="50%" y2="100%" id="X"><stop stop-color="#F88783" offset="0%"/><stop stop-color="#FBBBB7" offset="100%"/></linearGradient><linearGradient x1="50%" y1="0%" x2="50%" y2="100%" id="Y"><stop stop-color="#66006B" offset="0%"/><stop stop-color="#420060" offset="100%"/></linearGradient><linearGradient x1="50%" y1="0%" x2="50%" y2="100%" id="Z"><stop stop-color="#FAAA70" offset="0%"/><stop stop-color="#F4713D" offset="100%"/></linearGradient><linearGradient x1="50%" y1="1.39%" x2="43.362%" y2="111.001%" id="ab"><stop stop-color="#3946A3" offset="0%"/><stop stop-color="#067AFC" offset="100%"/></linearGradient><linearGradient x1="50%" y1="-21.921%" x2="38.619%" y2="100%" id="ac"><stop stop-color="#00E31D" offset="0%"/><stop stop-color="#23B89A" offset="100%"/></linearGradient><linearGradient x1="50%" y1="98.057%" x2="50%" y2="0%" id="ad"><stop stop-color="#EEE" stop-opacity=".365" offset="0%"/><stop stop-color="#FFF" offset="100%"/></linearGradient><path id="e" d="M.451.303H14.77v180.072H.451z"/><path id="j" d="M0 .244h59.793v145.45H0z"/><path id="m" d="M.35.24h11.087v142.236H.35z"/><path d="M6.532 64.084h32.135l-3 20.346c0 4.733-6.869 8.57-11.64 8.57h-5.872c-4.772 0-11.64-3.837-11.64-8.57l-3-20.346h3.017z" id="t"/><path id="S" d="M.643.298h14.103V20.64H.643z"/><path id="U" d="M0 .807h58.182V3.75H0z"/><path id="V" d="M.156.562h9.507v10.385H.156z"/><path d="M59.31 40.048s3.752-.885 6.787 4.939c3.036 5.823-2.327 7.312-5.156 8.804-1.362.718-3.132 1.504-4.542 2.101.508 2.93.69 6.052.725 8.988.201 16.866 1.83 44.92 1.83 44.92-16.028 1.534-31.064 2.486-35.329-2.88-.35-15.22 1.337-22.86-.262-36.488l-4.597-.264c-1.788-.102-3.574-.205-5.362-.306-.266-.015-.563.006-.826-.047-.844-.17-.44-.946-.27-1.62.447-1.76 3.974-12.194 4.696-13.848 1.344-3.085 3.213-6.001 5.835-7.956.481-.359 1.102-.691 1.806-.987 1.829-1.213 4.023-1.912 6.266-1.912h11.245c2.677-1.611 17.154-3.444 17.154-3.444z" id="aa"/><filter x="-25.8%" y="-30.5%" width="151.6%" height="189.1%" filterUnits="objectBoundingBox" id="g"><feOffset dy="31" in="SourceAlpha" result="shadowOffsetOuter1"/><feGaussianBlur stdDeviation="27.5" in="shadowOffsetOuter1" result="shadowBlurOuter1"/><feColorMatrix values="0 0 0 0 0 0 0 0 0 0 0 0 0 0 0 0 0 0 0.15 0" in="shadowBlurOuter1"/></filter><filter x="-150.8%" y="-103.1%" width="401.5%" height="401.5%" filterUnits="objectBoundingBox" id="x"><feOffset dy="31" in="SourceAlpha" result="shadowOffsetOuter1"/><feGaussianBlur stdDeviation="27.5" in="shadowOffsetOuter1" result="shadowBlurOuter1"/><feColorMatrix values="0 0 0 0 0 0 0 0 0 0 0 0 0 0 0 0 0 0 0.26 0" in="shadowBlurOuter1"/></filter><filter x="-105.4%" y="-83.8%" width="310.8%" height="310.8%" filterUnits="objectBoundingBox" id="B"><feOffset dy="14" in="SourceAlpha" result="shadowOffsetOuter1"/><feGaussianBlur stdDeviation="20.5" in="shadowOffsetOuter1" result="shadowBlurOuter1"/><feColorMatrix values="0 0 0 0 0.229355257 0 0 0 0 0.0671040332 0 0 0 0 0.385336947 0 0 0 0.13 0" in="shadowBlurOuter1"/></filter><filter x="-156%" y="-89.3%" width="361.3%" height="361.3%" filterUnits="objectBoundingBox" id="G"><feOffset dx="-19" dy="31" in="SourceAlpha" result="shadowOffsetOuter1"/><feGaussianBlur stdDeviation="27.5" in="shadowOffsetOuter1" result="shadowBlurOuter1"/><feColorMatrix values="0 0 0 0 0 0 0 0 0 0 0 0 0 0 0 0 0 0 0.26 0" in="shadowBlurOuter1"/></filter><rect id="h" x="187" y="42.458" width="380" height="220" rx="10"/><rect id="y" x="292" y="20.458" width="65" height="65" rx="10"/><rect id="C" x="305" y="157" width="65" height="65" rx="10"/><rect id="H" x="520" y="48.458" width="75" height="75" rx="10"/></defs><g transform="translate(-6 2.542)" fill="none" fill-rule="evenodd"><path fill="url(#a)" opacity=".555" d="M0 350.458h132.42l4.713 4.84 6.867 4.16H0z"/><path d="M500.5 345.458h135.324a7 7 0 014.615 1.737l4.292 3.763a3.14 3.14 0 01-2.07 5.5H500.5a5.5 5.5 0 010-11z" fill="url(#b)" transform="matrix(-1 0 0 1 1142 0)"/><path d="M600 349.458h114.939a7 7 0 014.772 1.88l3.348 3.12a2.888 2.888 0 01-1.968 5H600a5 5 0 010-10z" fill="url(#c)" transform="matrix(-1 0 0 1 1320 0)"/><g opacity=".379"><path d="M38.133 186c-1.05.187-28.122.113-32.248-24.127-4.125-24.24 12.165-32.238 4.448-58.864-7.723-26.626-20.397-33.073 3.559-55.916 0 0 10.785-9.328 9.994-20.58-.945-13.468 20.74-31.726 37.597-24.61 16.859 7.113 14.797 21.349 3.944 45.242C54.573 71.04 68.068 73.44 71.53 80.36c3.462 6.924 10.393 13.805-1.346 32.656-11.74 18.849 7.218 38.03-2.554 55.907 0 0-8.85 13.423-29.497 17.079" fill="url(#d)" transform="rotate(-26 111.494 -144.889)"/><g transform="rotate(-26 189.655 -237.394)"><mask id="f" fill="#fff"><use xlink:href="#e"/></mask><path d="M14.049 180.301c.55-.208.846-.804.668-1.364C-8.233 106.709 8.67 2.633 8.844 1.588A1.105 1.105 0 007.92.318a1.115 1.115 0 00-1.287.912c-.176 1.047-17.162 105.647 5.944 178.369.185.584.815.907 1.407.726l.065-.024" fill="#FFF" mask="url(#f)"/></g><path d="M145.084 94.124a1.14 1.14 0 00-.2-1.755c-.128-.084-12.77-8.246-21.25-16.701a1.178 1.178 0 00-1.651.006 1.14 1.14 0 00-.02 1.634c8.652 8.63 21.498 16.92 21.625 17.004a1.19 1.19 0 001.496-.188M153.687 116.06c.11-.122.196-.273.246-.443 2.142-7.315 9.221-23.058 9.293-23.218a1.231 1.231 0 00-.568-1.588c-.578-.294-1.261-.066-1.524.526-.294.651-7.215 16.05-9.405 23.516-.18.622.166 1.294.773 1.502a1.1 1.1 0 001.185-.295" fill="#FFF"/><path d="M161.653 135.516c.048-.058.093-.12.13-.191.276-.511.088-1.193-.42-1.517l-14.312-9.2c-.506-.324-1.14-.175-1.414.34s-.085 1.194.422 1.52l14.31 9.197c.439.282.971.206 1.284-.15" fill="#4D8CD7"/></g><use fill="#000" filter="url(#g)" xlink:href="#h"/><use fill="url(#i)" xlink:href="#h"/><use fill="#FFF" xlink:href="#h"/><g opacity=".379"><g transform="rotate(-36 155.83 14.898)"><mask id="l" fill="#fff"><use xlink:href="#j"/></mask><path d="M29.714 145.672c-.818.146-21.913.088-25.129-18.896-3.213-18.984 9.48-25.248 3.466-46.101C2.034 59.82-7.842 54.773 10.825 36.882c0 0 8.404-7.305 7.787-16.117C17.876 10.216 34.773-4.083 47.91 1.49c13.137 5.571 11.53 16.72 3.073 35.433-8.457 18.713 2.058 20.593 4.756 26.012 2.697 5.423 8.098 10.813-1.05 25.576-9.147 14.762 5.625 29.784-1.99 43.785 0 0-6.895 10.513-22.984 13.376" fill="url(#k)" mask="url(#l)"/></g><g transform="rotate(-36 194.502 -41.618)"><mask id="n" fill="#fff"><use xlink:href="#m"/></mask><path d="M10.88 142.418a.876.876 0 00.517-1.077C-6.375 84.288 6.714 2.079 6.85 1.255A.87.87 0 006.133.252a.865.865 0 00-.996.72C5 1.797-8.154 84.421 9.74 141.863a.87.87 0 001.09.573c.016-.005.033-.013.05-.019" fill="#FFF" mask="url(#n)"/></g><path d="M83.513 131.831c.026-.042.053-.086.073-.133a.847.847 0 00-.444-1.14c-.106-.044-10.573-4.366-17.967-9.474a.9.9 0 00-1.233.23.851.851 0 00.19 1.214c7.547 5.213 18.181 9.603 18.287 9.647a.913.913 0 001.094-.344M93.246 146.512a.874.874 0 00.128-.357c.696-5.65 4.022-18.148 4.055-18.275a.894.894 0 00-.614-1.084.843.843 0 00-1.064.596c-.138.517-3.39 12.74-4.102 18.508-.058.48.28.923.755.992a.847.847 0 00.842-.38M102.725 162.41a.798.798 0 00.067-.168c.124-.445-.143-.982-.594-1.193l-12.73-6.015c-.45-.212-.915-.025-1.037.423-.121.449.146.982.596 1.196l12.729 6.012c.39.185.79.068.97-.254" fill="#FFF"/></g><path d="M19.121 71.118A74.02 74.02 0 0126.26 46.9a46.485 46.485 0 015.034-8.46C36.57 31.756 44.411 27.468 53 26.57a66.407 66.407 0 01-15.84 21.237c-2.096 1.897-4.295 3.676-6.348 5.649-5.171 5.011-9.62 10.845-11.69 17.66z" fill="url(#o)" fill-rule="nonzero" transform="translate(693 266.458)"/><path d="M32.677 0C24.5 5.89 18.29 14.042 14.837 23.417c.472.719.945 1.43 1.435 2.132a20.086 20.086 0 00-2.158-.135 54.51 54.51 0 00-2.382 10.29 57.823 57.823 0 00-.49 7.414c.912.531 1.775 1.14 2.58 1.82-.859.407-1.684.88-2.468 1.413a70.54 70.54 0 008.882 30.237c-.68-5.416 1.72-10.612 4.066-15.554 2.348-4.943 5.451-9.513 7.876-14.387C39.34 32.066 40.415 14.285 32.677 0z" fill="url(#p)" transform="translate(693 266.458)"/><path d="M23 77c-.593-8.931-1.414-18.046-4.81-26.23C14.795 42.587 8.37 35.177 0 33c1.578 8.734 5.214 17.128 8.836 25.154a58.992 58.992 0 004.179 7.948A60.877 60.877 0 0023 77z" fill="url(#q)" fill-rule="nonzero" transform="translate(693 266.458)"/><path d="M17 70.336a62.315 62.315 0 016.048-10.684c6.22-8.29 15.666-13.5 25.952-14.316a79.17 79.17 0 01-23.671 23.419c-2.589 1.613-5.316 1.154-8.329 1.581z" fill="url(#r)" fill-rule="nonzero" transform="translate(693 266.458)"/><g transform="translate(693 266.458)"><use fill="url(#s)" xlink:href="#t"/><use fill="url(#u)" xlink:href="#t"/></g><path d="M697.081 330.458h33.838a2.5 2.5 0 012.446 1.985l.109.515a2.073 2.073 0 01-2.029 2.5h-34.89a2.073 2.073 0 01-2.029-2.5l.109-.515a2.5 2.5 0 012.446-1.985z" fill="#FFF"/><rect fill="url(#v)" x="139" y="139.458" width="65" height="65" rx="10"/><rect fill="url(#w)" x="217" y="72.458" width="65" height="65" rx="10"/><rect fill="#F2F2F2" x="307" y="77.458" width="55" height="55" rx="8.462"/><rect fill="#F2F2F2" x="222" y="162.458" width="55" height="55" rx="8.462"/><use fill="#000" filter="url(#x)" xlink:href="#y"/><use fill="url(#z)" xlink:href="#y"/><path d="M329.75 41.842c1.275.474 2.45 1.15 3.493 1.99A12.686 12.686 0 01338 53.752c0 3.87-1.725 7.333-4.445 9.662a1.936 1.936 0 01-2.699-.172c-.738-.818-.64-2.078.195-2.796a8.802 8.802 0 003.074-6.694c0-2.71-1.22-5.136-3.138-6.75l-3.147 4.42-.505.71v12.314c0 1.1-.882 2.01-1.978 2.01h-.04c-1.096 0-1.977-.91-1.977-2.01V54.135l-.02-2.166-.01-.014v-1.064l6.44-9.05zm-8.424-.384l2.38 3.344 1.233 1.814-2.525 3.348-2.34-3.368a8.8 8.8 0 00-3.198 6.803 8.805 8.805 0 003.094 6.712c.797.681.927 1.855.304 2.674l-.105.126a1.937 1.937 0 01-2.695.174A12.682 12.682 0 01313 53.4c0-4.044 1.885-7.647 4.82-9.973a12.606 12.606 0 013.506-1.968z" fill="url(#A)"/><use fill="#000" filter="url(#B)" xlink:href="#C"/><use fill="url(#D)" xlink:href="#C"/><path d="M337.555 177.809a1.35 1.35 0 011.318.88c1.15 2.95 3.718 5.322 7.063 6 .79.157 1.596.213 2.4.17.582-.03 1.12.307 1.351.844a12.513 12.513 0 01.674 7.487c-1.52 7.422-9.158 12.032-16.558 9.626-5.71-1.862-9.426-7.657-8.716-13.656.724-6.387 6.06-11.245 12.468-11.351zm-6.387 13.012a1.257 1.257 0 00-1.056.323c-.284.265-.43.646-.397 1.033a8.142 8.142 0 005.509 6.982c3.986 1.322 8.314-.658 9.932-4.543a1.272 1.272 0 00-.945-1.727zm3.368 5.908c.88-1.042 2.498-1.593 4.15-1.287.986.186 1.83.614 2.391 1.226.211.215.141.582-.14.705a7.354 7.354 0 01-4.503.551 9.597 9.597 0 01-1.687-.52c-.281-.123-.387-.46-.211-.675zm6.227-10.62a.715.715 0 00-.878.577c-.065.406.205.813.574.88l3.176.645c.405.102.777-.17.879-.577a.72.72 0 00-.575-.88zm-5.745-1.796a1.796 1.796 0 00-2.129 1.39c-.2.949.41 1.898 1.385 2.135a1.801 1.801 0 00.744-3.525zm6.686-7.813a.719.719 0 01.558.03.699.699 0 01.36.42c.918 2.708 3.64 4.416 6.526 4.095a.734.734 0 01.674.27c.16.202.197.473.099.71a.726.726 0 01-.575.438c-.217.038-.437.06-.657.065-3.37.121-6.41-1.972-7.447-5.126a.685.685 0 01.034-.549.705.705 0 01.428-.353z" fill="url(#E)"/><rect fill="url(#F)" x="395" y="162.458" width="55" height="55" rx="8.462"/><rect fill="#F2F2F2" x="477" y="77.458" width="55" height="55" rx="8.462"/><use fill="#000" filter="url(#G)" xlink:href="#H"/><use fill="url(#I)" xlink:href="#H"/><path d="M557.5 71.458c7.995 0 14.5 6.5 14.5 14.491 0 7.923-6.396 14.377-14.298 14.486a.957.957 0 01-.404 0C549.395 100.326 543 93.872 543 85.95c0-7.99 6.504-14.491 14.5-14.491zm-.962 17.586a34.61 34.61 0 00-3.01.766v7.777c.956.327 1.964.539 3.01.62zm4.934-.644a33.17 33.17 0 00-3.01.304v9.503a12.222 12.222 0 003.01-.62zm-8.539 1.596l-.392.127c.045.14.07.291.07.447a1.497 1.497 0 01-2.859.618l-.376.164c-.266.118-.527.237-.784.358v2.712c.875.919 1.89 1.704 3.01 2.319v-4.33a1.909 1.909 0 001.331-2.415zm10.464-1.645v8.39a12.366 12.366 0 003.01-2.32v-5.925a33.653 33.653 0 00-3.01-.145zm-16.73-1.38a27.18 27.18 0 00-1.32.905c.219 1.392.672 2.707 1.32 3.903zm21.666 1.76v3.048a12.17 12.17 0 001.108-2.863c-.372-.068-.741-.13-1.108-.184zm-16.73-4.25c-1.09.407-2.099.875-3.01 1.361v5.566c.225-.106.455-.21.688-.313.127-.056.252-.113.38-.168a1.498 1.498 0 011.94-1.77c.36.125.658.381.834.712l.394-.128a1.912 1.912 0 00-1.227-1.012zm4.935-1.219a20.5 20.5 0 00-3.01.593v5.669a34.913 34.913 0 013.01-.76zm11.795 2.474v2.719c.387.057.777.122 1.17.194.147-.655.246-1.328.283-2.017-.486-.325-.97-.622-1.453-.896zm-9.36-2.608l-.51.002v5.296a33.439 33.439 0 013.01-.3v-3.129a1.899 1.899 0 001.924 0v3.08c.982.003 1.984.049 3.01.144v-3.457a19.937 19.937 0 00-2.558-.927 1.493 1.493 0 01-2.377.66 1.496 1.496 0 01-.529-1.245c-.137-.016-.273-.029-.409-.042a18.424 18.424 0 00-2.072-.08zM557.5 73.65c-6.785 0-12.306 5.517-12.306 12.3 0 .55.04 1.091.11 1.624.4-.286.858-.595 1.363-.913v-.895a.962.962 0 011.904-.2c.917-.48 1.932-.945 3.031-1.35v-1.704a.962.962 0 011.925 0v1.092c.189-.05.376-.104.568-.15a21.03 21.03 0 012.443-.443v-5.397a.962.962 0 111.924 0v5.262c.708-.014 1.41.01 2.109.074.138.013.276.026.413.042a1.497 1.497 0 011.45-1.134c.367 0 .703.133.963.352a1.49 1.49 0 01.516 1.364c.133.038.266.075.398.115.705.216 1.404.475 2.097.776v-.503a.962.962 0 111.925 0v1.46c.49.274.98.57 1.464.888.004-.12.01-.24.01-.36 0-6.783-5.522-12.3-12.307-12.3zm4.935 4.646c.532 0 .962.43.962.961v2.453a1.892 1.892 0 00-1.925 0v-2.453c0-.53.432-.961.963-.961z" fill="url(#A)"/><rect fill="url(#J)" x="475" y="157.458" width="65" height="65" rx="10"/><path d="M261 104.945c0 17.624-13.92 14.255-13.92 14.255 3.345-.815 7.163-3.31 7.163-15.84 0-12.531-14.444-11.462-14.444-11.462C243.245 89.86 261 87.32 261 104.945zm-8.997 6.674l-.458 1.59-.009.027c-.12.396-1.571 4.865-5.6 5.455-4.214.617-4.998-1.682-7.93-1.525 0 0-.239-2.284 2.134-2.605 2.371-.323 6.818.306 9.772-1.574 0 0 1.75-.92 2.091-1.368zm-1.052-15.268c-.997-.487-2.117-.65-3.23-.213-1.267.496-2.327 1.775-2.414 3.152-.149 2.348 0 4.754 0 7.106v7.082c-.952.089-1.905.108-2.774.124-.92.016-1.79.033-2.505.13a4.111 4.111 0 00-.447.087V92.773c1.25-.038 6.602.03 11.37 3.578z" fill="url(#K)"/><path d="M172.106 158.458c2.248 0 4.374.523 6.26 1.453-7.385 1.319-11.198 4.078-13.431 6.054l-.019.018c-.078.083-.162.167-.248.255-.72.729-1.707 1.726-1.077 3.33.337.857 1.227 1.515 2.216 1.637.099.012.195.017.29.017.781 0 1.403-.394 1.959-.747a42.7 42.7 0 012.262-1.348c3.694-2.04 10.243-4.54 12.393-5.094 1.181.516 3.426 3.129 3.282 5.36-1.302.375-3.15.915-4.3 1.326-1.049.374-10.287 3.74-11.617 6.477a2.79 2.79 0 00-.035 2.337c.341.76 1.083 1.586 2.695 1.586.286 0 .599-.026.941-.083a17.423 17.423 0 002.71-.659c.797-.27 1.584-.596 2.345-.913.213-.09.427-.178.64-.266 1.857-.76 4.222-2.075 6.475-3.588-1.44 6.213-7.044 10.848-13.741 10.848-7.79 0-14.106-6.268-14.106-14s6.315-14 14.106-14zm12.393 13.148c.004.125.009.249.009.374 0 .786-.079 1.553-.225 2.296-.859.678-2.805 1.922-5.458 3.295-1.718.89-3.331 1.96-5.304 2.4-.951.21-2.576-.362-2.509-1.521.049-.84 1.546-1.811 2.164-2.24 1.132-.784 2.373-1.412 3.631-1.972 2.818-1.255 5.904-2.178 7.692-2.632zm-6.677-10.032c.504 0 .942.053 1.31.152.61.425 1.181.903 1.702 1.43-3.066 1.052-7.82 3.026-10.566 4.543-.722.398-1.472.845-2.293 1.367-.593.375-1.152.732-1.864.643-.775-.097-1.87-.75-1.792-1.648.107-1.225 2.115-2.25 3.031-2.84 1.404-.906 2.944-1.65 4.479-2.25 1.882-.738 3.948-1.397 5.993-1.397z" fill="url(#L)"/><path d="M432.888 184.772v9.399c0 1.812-1.596 3.287-3.558 3.287h-12.017c-1.962 0-3.558-1.475-3.558-3.287v-6.386c0-.562.329-1.04.879-1.28a1.596 1.596 0 011.627.191l1.262.965 5.194 3.946a.99.99 0 001.183 0l7.526-5.723 1.462-1.112zm.112-2.314l-9.691 7.37-5.86-4.458a3.588 3.588 0 00-4.449.095c.537-1.735 2.263-3.007 4.313-3.007H433z" fill="url(#M)"/><path d="M507.684 192.195c3.647-1.339 7.684.545 9.017 4.206.068.186.128.376.18.57.06.21.09.428.091.646 0 1.161-.69 2.204-1.752 2.65a2.555 2.555 0 01-.986.19h-.232a2.529 2.529 0 01-.98-.188 2.867 2.867 0 01-1.67-1.943 2.224 2.224 0 00-.042-.153 5.273 5.273 0 00-6.976-3.39 7.035 7.035 0 013.35-2.588zm.384-5.19c5.853 0 11.054 3.745 12.932 9.31a11.406 11.406 0 00-6.112-5.378c-5.899-2.195-12.453.827-14.64 6.75a2.655 2.655 0 01-2.59 2.085 2.662 2.662 0 01-2.597-3.235c.043-.202.109-.398.197-.585 1.985-5.38 7.096-8.95 12.81-8.948zm4.407-.65a14.178 14.178 0 00-14.757 3.791c1.907-3.584 4.722-8.154 7.595-10.273 2.829-2.088 6.127 4.27 7.162 6.483z" fill="url(#N)"/><g><path fill="#393762" d="M577 342.465l-2.39 9.993L563 348.72l8.137-1.785 1.11-5.477zM656 327.62l-9.575 8.838 2.68-8.793L645 323.91l3.726-3.451z"/><path d="M596.885 155.219c0-.31-1.573-5.784-.966-9.128.607-3.346 2.688-9.364 1.908-13.88-.78-4.516-6.676-8.278-12.919-7.693-6.242.587-8.063 6.355-9.102 9.7-1.042 3.343-.867 8.445-.607 11.205.26 2.759 1.819 4.932 2.86 5.516 1.04.587 4.955-.186 5.642.536.688.719 1.207 4.983 1.207 4.983 7.985-.62 11.977-1.033 11.977-1.24z" fill="#FFCCB0"/><path d="M595.754 149.139s-8.576.718-10.205 0c-1.63-.719-3.987-2.279-4.202-5.148-.214-2.87.386-3.756-.729-5.36-1.116-1.603-2.1-1.055-2.273.465-.171 1.52-.239 4.263-.644 4.463-.546.273-1.194-1.66-.985-4.59.182-2.543.471-4.515 1.244-6.205.771-1.686 1.19-1.59 1.886-1.898-.75-.357-1.561-.4-3.044-2.678-1.718-2.638-.773-6.748 3.773-6.73 7.94.027 16.38 1.56 16.552 7.34 0 0 2.787-.421 2.871 4.853.087 5.276-3.343 11.649-3.6 13.294-.257 1.645.214 1.813-.644 2.194" fill="#8C4A37"/><path d="M55.568 120.77s-7.123 50.496-7.798 51.175c-2.395 2.409-39.731 35.199-39.731 35.199l-7.96-6.162 31.902-39.655-4.247-46.545 27.834 5.988z" fill="url(#O)" transform="matrix(-1 0 0 1 652 118.458)"/><path d="M72.73 94.724l-1.06 12.609s5.907 49.178 6.438 52.096c.53 2.922 4.214 65.33 4.214 65.33l-9.133 1.564-12.728-57.679s-14.572-49.223-13.112-61.035c1.46-11.813-2.35-17.795-2.35-17.795l27.732 4.91z" fill="url(#P)" transform="matrix(-1 0 0 1 652 118.458)"/><path d="M113.559 36.94l-8.342-8.606S86.188 41.372 84.104 41.912c-2.086.542-13.556 0-13.556 0l-1.042-2.75c-4.692-4.295-15.9-4.897-15.9-4.897l-2.086 4.14s-17.205 7.138-20.594 8.2C27.538 47.67 19.784 78.103 19.523 80.38c-.056.491-.017 1.368.082 2.447.38 4.203 8.08 10.42 12.494 12.134l-6.907 22.56 52.133 7.547-.782-56.84s26.067-18.252 27.37-19.555c1.304-1.303 9.646-11.733 9.646-11.733" fill="url(#Q)" transform="matrix(-1 0 0 1 652 118.458)"/><path d="M30.98 98.616l.039-.127-.019.123-.02.004zm-11.375-15.79c-.099-1.079-.138-1.956-.082-2.447.261-2.277 8.015-32.71 11.403-33.773.706-.222 2.013-.707 3.638-1.337l1.573 19.385-4.038 30.306c-4.991-2.035-12.128-8.09-12.494-12.134z" fill="url(#R)" transform="matrix(-1 0 0 1 652 118.458)"/><g transform="matrix(-1 0 0 1 531.33 118.458)"><mask id="T" fill="#fff"><use xlink:href="#S"/></mask><path d="M2.032 8.248c-.68.933-.612 3.99-.612 3.99l-.777 2.386 3.136 6.015s5.903-6.032 6.684-6.814c1.633-1.637 4.16-7.762 4.273-8.229.113-.469-.69-.858-.69-.858L12.91 7.029s1.26-3.576 1.242-3.742c-.017-.165-.735-.5-.735-.5s.167-.655.078-.8c-.09-.145-.911-.248-.911-.248l-1.968 2.958S12.326.86 12.21.786c-.115-.076-.997-.488-.997-.488l-4.2 5.316S5.431 6.979 5.141 7.17c.358-1.185.735-2.675.445-2.933-.49-.435-2.874 3.079-3.554 4.011" fill="#FFCCB0" mask="url(#T)"/></g><path fill="#FFCCB0" d="M530.687 133.08l14.814 12.145-6.147 9.856-11.803-15.983v-5.268z"/><path fill="#ECE0D3" d="M550.076 149.032l-10.956 11.594-3.91-5.893 10.291-9.508z"/></g><g><path d="M115.415 152.724c1.617 1.99 2.072 4.38 1.014 5.338-1.057.957-3.226.12-4.844-1.87-1.617-1.99-2.072-4.381-1.014-5.338 1.057-.957 3.226-.12 4.844 1.87" fill="#FFCCB0"/><path d="M133.435 352.458c-.426 0-.797.297-.907.736-.405 1.604-1.48 3.694-1.528 4.69-.055 1.16 8.226 1.91 12.54 1.423 2.33-.263-4.882-2.273-6.27-3.348-.976-.76-2.19-2.184-2.57-2.963a.931.931 0 00-.837-.538h-.428zM93.921 346.458c-.6 1.398-2.524 3.332-2.9 4.341-.375 1.009 4.346 4.164 9.514 4.651 2 .19-3.05-3.314-3.87-4.644-.82-1.329-.941-3.743-.941-3.743l-1.803-.605z" fill="#101828"/><path d="M135.09 143.775c-3.443-8.054-10.165-12.479-16.409-9.259-6.245 3.221-8.517 12.361-5.075 20.414 1.181 2.766 2.89 5.028 4.868 6.697-.435 2.65-.787 7.322 1.06 15.242.976 4.186 5.897 5.915 9.618 3.46 2.339-1.543 3.55-4.351 2.936-6.984-1.174-5.028-1.344-6.231-.869-9.707 6.177-3.252 7.298-11.842 3.87-19.863" fill="#FFCCB0"/><path d="M125.8 192.494c-.58-2.533-1.652-2.99-2.816-3.254-1.376-.31-3.563-.696-5.253.374-1.888 1.195-3.4 4.106-1.576 4.587.646.17 1.523.494 2.492.855-3.255 1.935-7.467 4.073-11.14 5.72.152-.478.3-.946.443-1.38 2.872-8.69 4.551-14.282 5.66-17.397 1.037-2.912 5.854-13.541 3.73-13.541-5.404 0-8.542 1.582-10.586 6.102-4.288 9.483-6.305 17.515-7.66 22.463-1.399 5.107-3.458 12.188-.822 14.405.011.017.017.034.028.05 1.642 2.826 11.41-.913 16.825-5.474 2.57-2.165 10.163-9.844 10.163-9.844l.001-.011c.81-.721.847-2.186.511-3.655" fill="#FFCCB0"/><g transform="translate(161 140.458)"><mask id="W" fill="#fff"><use xlink:href="#V"/></mask><path d="M5.709 10.862c-2.487-.425-3.25-.538-4.525-1.446-1.72-1.226-1.101-3.348.52-5.787C3.444 1.006 3.382.405 4.857.594c1.247.16 4.176 2.896 4.692 5.782.472 2.646-.458 5.062-3.84 4.486" fill="#FFCCB0" mask="url(#W)"/></g><path d="M57.988 115.48a35.914 35.914 0 00-.117-1.958c.074-1.708.122-3.581.117-5.522l-34.678.102c-.172 2.065-.22 3.943-.14 5.657-.368 2.238-.542 4.48-.697 6.07-.382 3.929-4.02 42.162-4.755 49.538-.1.993-.15 1.91-.16 2.762-2.035 5.373-4.272 9.365-6.13 15.186-3.72 11.66-8.6 36.125-5.378 38.7 1.226.978 17.59-38.1 21.844-46.892.334-.452.583-.935.706-1.432 2.395-9.637 8.48-28.096 10.726-38.745.537 12.39 1.262 28.621 1.21 33.283-.01 1.048.022 2.01.094 2.895-.364 5.925-1.371 10.983-1.387 17.079-.041 15.366 2.72 38.802 6.794 38.797 1.567-.001 5.339-46.884 6.69-55.711.054-.346.079-.666.091-.974 2.048-16.156 5.404-51.566 5.17-58.835" fill="url(#X)" transform="translate(88 123.458)"/><path d="M28.465 1.648C29.058.231 30.217-.44 31.953.311c4.284 1.854 10.913 5.426 11.918 7.91 2.559.96 4.697 4.97 5.094 10.436.519 7.137-4.788 17.55-12.133 18.283-5.467.546-9.323-2.663-13.055-8.232-2.479-3.698-3.13-6.68-2.611-9.1-5.62-5.732-7.611-13.89-1.069-14.365A87.04 87.04 0 0122 5.125c.012-2.798 1.305-4.693 4.15-3.97.71.18 1.472.388 2.265.618z" fill="url(#Y)" transform="translate(88 123.458)"/><path d="M135.06 149.296c-.298 2.76.552 5.07 1.9 5.16 1.35.088 2.683-2.077 2.98-4.838.298-2.76-.553-5.07-1.9-5.158-1.35-.09-2.683 2.076-2.98 4.836M168.206 148.083l-.019.001c-.08-1.273-.9-3.382-2.404-4.46-1.672-1.199-.346 4.434.92 5.42-.445.65-.82 1.486-1.237 2.044-3.425 4.588-5.475 7.506-9.397 10.724-.525.43-1.002.87-1.43 1.315-1.59.285-3.299.795-4.984 1.26-8.372 2.306-12.962 3.252-16.655 3.252l5.424 9.819c6.946-1.328 10.37-1.904 14.922-3.636 1.468-.557 2.915-1.103 4.193-1.698.778-.233 1.617-.722 2.491-1.431.328-.245.625-.5.874-.772 1.934-1.826 3.954-4.54 5.697-7.562 1.71-2.963 3.396-12.095 3.396-12.095s.163-1.938-1.791-2.181" fill="#FFCCB0"/><g transform="translate(88 123.458)"><use fill="url(#Z)" xlink:href="#aa"/><use fill="url(#ab)" xlink:href="#aa"/></g></g><rect fill="url(#ac)" x="390" y="72.458" width="65" height="65" rx="10"/><path d="M418.259 105.686v3.379c0 1.94 1.634 3.518 3.643 3.518 2.01 0 3.644-1.578 3.644-3.518v-3.379h4.01v3.379c0 4.076-3.433 7.393-7.654 7.393s-7.655-3.317-7.655-7.393v-3.379h4.012zm.002-5.423v3.874h-7.05l-1.204-3.874h8.254zm13.727-5.805c2.764 0 5.012 2.172 5.012 4.84 0 2.668-2.248 4.84-5.012 4.84h-6.442v-3.875h6.442c.552 0 1-.433 1-.965 0-.533-.448-.966-1-.966h-6.442v-3.874h6.442zm-13.727 0v3.874h-9.057L408 94.458h10.26z" fill="url(#ad)"/></g></svg>