<?xml version="1.0" encoding="UTF-8"?> <svg xmlns="http://www.w3.org/2000/svg" xmlns:xlink="http://www.w3.org/1999/xlink" viewBox="0 0 671.43 284.38"><style><![CDATA[.O,.Q,.I,.S,.K,.M{mix-blend-mode:multiply}.AG{fill:#9faffc}.AH{fill:#ffaed1}.AI{color-interpolation-filters:sRGB}.AJ{flood-color:#fff}.AK{opacity:.6}.AL{opacity:.2}.AM{fill:#fc4452}.AN{opacity:.8}.AO{fill:#2b43bf}.AP{fill:#173277}.AQ{fill:#2234a4}.AR{fill:#e6f6ff}]]></style><defs><filter x="541.86" y="-9792.25" width="4.23" height="32766" class="AI"><feFlood class="AJ"></feFlood><feBlend in="SourceGraphic"></feBlend></filter><linearGradient id="B" x1="543.98" y1="65.46" x2="543.98" y2="20.41" xlink:href="#s"><stop offset="0" stop-color="#b3b3b3"></stop><stop offset="1" stop-color="#fff"></stop></linearGradient><filter x="320.83" y="-9792.25" width="149.94" height="32766" class="AI"><feFlood class="AJ"></feFlood><feBlend in="SourceGraphic"></feBlend></filter><linearGradient id="D" x1="319.36" y1="45.35" x2="470.77" y2="45.35" xlink:href="#s"><stop offset="0" stop-color="gray"></stop><stop offset="1" stop-color="#fff"></stop></linearGradient><filter x="593.52" y="-9792.25" width="4.23" height="32766" class="AI"><feFlood class="AJ"></feFlood><feBlend in="SourceGraphic"></feBlend></filter><linearGradient id="F" x1="595.63" y1="65.75" x2="595.63" y2="27.99" xlink:href="#B"></linearGradient><filter x="569.75" y="-9792.25" width="4.23" height="32766" class="AI"><feFlood class="AJ"></feFlood><feBlend in="SourceGraphic"></feBlend></filter><linearGradient id="H" x1="571.86" x2="571.86" y2="36.46" xlink:href="#B"></linearGradient><filter x="528.22" y="-9792.25" width="4.23" height="32766" class="AI"><feFlood class="AJ"></feFlood><feBlend in="SourceGraphic"></feBlend></filter><linearGradient id="J" x1="530.33" y1="62.05" x2="530.33" y2="55.92" xlink:href="#B"></linearGradient><filter x="556.18" y="-9792.25" width="4.23" height="32766" class="AI"><feFlood class="AJ"></feFlood><feBlend in="SourceGraphic"></feBlend></filter><linearGradient id="L" x1="558.3" y1="59.86" x2="558.3" y2="42.01" xlink:href="#B"></linearGradient><clipPath id="M"><path transform="matrix(0 1 -1 0 124.45 1205.33)" d="M-838.08 243.94h595.28v841.9h-595.28z" fill="none"></path></clipPath><clipPath id="N"><path d="M-975.1 338.9h869.3v651.97h-869.3z" fill="none"></path></clipPath><linearGradient id="O" x1="-63.02" y1="157.58" x2="-499.94" y2="731.45" xlink:href="#s"><stop offset="0" stop-color="#0076d9"></stop><stop offset=".16" stop-color="#1a5fcd"></stop><stop offset=".56" stop-color="#552cb4"></stop><stop offset=".85" stop-color="#790ca4"></stop><stop offset="1" stop-color="#87009e"></stop></linearGradient><linearGradient id="P" x1="33.64" y1="244.31" x2="33.64" y2="138.53" xlink:href="#s"><stop offset=".01" stop-color="#332f6c"></stop><stop offset="1" stop-color="#fc4452"></stop></linearGradient><filter id="Q" x="541.86" y="20.41" width="4.23" height="45.05" class="AI"><feFlood class="AJ"></feFlood><feBlend in="SourceGraphic"></feBlend></filter><mask id="R" x="541.86" y="20.41" width="4.23" height="45.05" maskUnits="userSpaceOnUse"><g mask="url(#C)" filter="url(#Q)"><rect class="I" x="541.86" y="20.41" width="4.23" height="45.05" rx="1.23" fill="url(#B)"></rect></g></mask><linearGradient id="S" x1="543.98" y1="65.46" x2="543.98" y2="20.41" xlink:href="#s"><stop offset="0" stop-color="#2234a4"></stop><stop offset="1" stop-color="#fc4452"></stop></linearGradient><filter id="T" x="593.52" y="27.99" width="4.23" height="37.75" class="AI"><feFlood class="AJ"></feFlood><feBlend in="SourceGraphic"></feBlend></filter><mask id="U" x="593.52" y="27.99" width="4.23" height="37.75" maskUnits="userSpaceOnUse"><g mask="url(#I)" filter="url(#T)"><rect class="K" x="593.52" y="27.99" width="4.23" height="37.75" rx="1.23" fill="url(#F)"></rect></g></mask><linearGradient id="V" x1="595.63" y1="65.75" x2="595.63" y2="27.99" xlink:href="#S"></linearGradient><filter id="W" x="569.75" y="36.46" width="4.23" height="29" class="AI"><feFlood class="AJ"></feFlood><feBlend in="SourceGraphic"></feBlend></filter><mask id="X" x="569.75" y="36.46" width="4.23" height="29" maskUnits="userSpaceOnUse"><g mask="url(#L)" filter="url(#W)"><rect class="M" x="569.75" y="36.46" width="4.23" height="29" rx="1.23" fill="url(#H)"></rect></g></mask><linearGradient id="Y" x1="571.86" x2="571.86" y2="36.46" xlink:href="#S"></linearGradient><filter id="Z" x="528.22" y="55.92" width="4.23" height="6.13" class="AI"><feFlood class="AJ"></feFlood><feBlend in="SourceGraphic"></feBlend></filter><mask id="a" x="528.22" y="55.92" width="4.23" height="6.13" maskUnits="userSpaceOnUse"><g mask="url(#O)" filter="url(#Z)"><rect class="O" x="528.22" y="55.92" width="4.23" height="6.13" rx="1.23" fill="url(#J)"></rect></g></mask><linearGradient id="b" x1="530.33" y1="62.05" x2="530.33" y2="55.92" xlink:href="#S"></linearGradient><filter id="c" x="556.18" y="42.01" width="4.23" height="17.85" class="AI"><feFlood class="AJ"></feFlood><feBlend in="SourceGraphic"></feBlend></filter><mask id="d" x="556.18" y="42.01" width="4.23" height="17.85" maskUnits="userSpaceOnUse"><g mask="url(#R)" filter="url(#c)"><rect class="Q" x="556.18" y="42.01" width="4.23" height="17.85" rx="1.23" fill="url(#L)"></rect></g></mask><linearGradient id="e" x1="558.3" y1="59.86" x2="558.3" y2="42.01" xlink:href="#S"></linearGradient><linearGradient id="f" x1="459.25" y1="106.41" x2="459.25" y2="183.86" xlink:href="#s"><stop offset=".01" stop-color="#9faffc"></stop><stop offset="1" stop-color="#e6f6ff"></stop></linearGradient><linearGradient id="g" x1="491.07" y1="158.92" x2="462.31" y2="115.41" xlink:href="#P"></linearGradient><filter id="h" x="320.83" y="24.52" width="149.94" height="41.66" class="AI"><feFlood class="AJ"></feFlood><feBlend in="SourceGraphic"></feBlend></filter><mask id="i" x="320.83" y="24.52" width="149.94" height="41.66" maskUnits="userSpaceOnUse"><g mask="url(#F)" filter="url(#h)"><path class="S" d="M470.6 35l-5.7 11-2.85 5.54-1.43 2.76a8.59 8.59 0 0 1-2.08 2.93A6.84 6.84 0 0 1 448.48 56l-13.66-18.92a6 6 0 0 0-.9-1 6.14 6.14 0 0 0-2.32-1.28 6.23 6.23 0 0 0-2.6-.2 10.65 10.65 0 0 0-2.69.93l-8.63 3.7a15.42 15.42 0 0 1-3.09 1.08 12.35 12.35 0 0 1-9.59-1.89 31.17 31.17 0 0 1-2.47-2l-4.7-4.08-4.7-4.08a24.74 24.74 0 0 0-2.3-1.89 4 4 0 0 0-4.91.76c-.57.67-1.2 1.63-1.8 2.44l-10.9 15.17-3.63 5a16.82 16.82 0 0 1-2 2.5 7.27 7.27 0 0 1-6.06 1.85c-1.1-.2-2-.55-3.05-.82l-6-1.76-3-.87a13.48 13.48 0 0 0-3-.62 11.78 11.78 0 0 0-6 1.08 30.23 30.23 0 0 0-5 3.55l-14.72 11.5 14.55-11.73a30.18 30.18 0 0 1 5.05-3.67 12.21 12.21 0 0 1 6.15-1.2 14 14 0 0 1 3.1.59l3 .83 6 1.67 3 .76a6.58 6.58 0 0 0 2.92-.25 6.44 6.44 0 0 0 2.5-1.49 15.91 15.91 0 0 0 1.84-2.41l3.56-5.1L379.6 34l3.56-5.1 1.86-2.6a5.24 5.24 0 0 1 3-1.67 5.34 5.34 0 0 1 3.44.58 23.64 23.64 0 0 1 2.55 2l4.76 4 4.77 4a28.85 28.85 0 0 0 2.35 1.88 10.62 10.62 0 0 0 8.28 1.51 13.21 13.21 0 0 0 2.76-1l8.52-3.82 1.47-.64a8.26 8.26 0 0 1 1.7-.48 8.49 8.49 0 0 1 3.51.2 8.26 8.26 0 0 1 3.12 1.66 8.75 8.75 0 0 1 1.22 1.29l.94 1.26 3.72 5 9.3 12.5a4.45 4.45 0 0 0 1.93 1.43 4.4 4.4 0 0 0 4.51-.75 6.1 6.1 0 0 0 1.43-2.16l1.38-2.8 2.77-5.58L468 33.6a1.48 1.48 0 0 1 2.64 1.32z" fill="url(#D)"></path></g></mask><linearGradient id="j" x1="319.36" y1="45.35" x2="470.77" y2="45.35" xlink:href="#S"></linearGradient><linearGradient id="k" x1="106.63" y1="94.04" x2="120.27" y2="89.25" xlink:href="#s"><stop offset=".01" stop-color="#2e2834"></stop><stop offset="1" stop-color="#fc4452"></stop></linearGradient><linearGradient id="l" x1="380.171" y1="132.944" x2="369.427" y2="136.716" xlink:href="#f"></linearGradient><path id="m" d="M277.45 16.46a.47.47 0 1 1 .47-.47.47.47 0 0 1-.47.47z"></path><path id="n" d="M320.55 12.15h1v55.03h-1z"></path><path id="o" d="M221.21 165.282l.1-7.42 7.42.1-.1 7.42z"></path><path id="p" d="M293.93 89.32a.36.36 0 1 1 .36-.36.36.36 0 0 1-.36.36z"></path><path id="q" d="M293.8 102.38a.36.36 0 0 1-.35-.36.36.36 0 0 1 .71 0 .36.36 0 0 1-.36.36z"></path><path id="r" d="M297.33 82.28l.008-.9 6.96.062-.008.9z"></path><linearGradient id="s" gradientUnits="userSpaceOnUse"></linearGradient></defs><g clip-path="url(#M)"><g clip-path="url(#N)"><path transform="matrix(.620327 -.784343 .784343 .620327 -420.3 -44.81)" d="M-489.9 178.27h466.92V645.2H-489.9z" fill="url(#O)"></path></g></g><path d="M19.57 151.27c.78 4.63 3.55 9.15 2.62 13.76-1.2 6.1-8.2 9.97-13.3 14.5-7 6.26-10.56 16.16-5.07 23.36 2.78 3.65 7.47 6.1 10.16 9.8 6.73 9.25-1.5 21.6 2.74 31.8 3 7.14 11.68 11.8 20.6 13.4 4.26.77 8.9.93 12.8-.7a17.1 17.1 0 0 0 6.13-4.64c3.72-4.23 5.8-9.3 7.38-14.35 3.13-10.07 4.28-21.38-2.14-30.33-3.22-4.5-8.24-8.22-9.9-13.26-3.3-10 7.8-21 2.42-30.36-1.7-3-4.84-5.17-7-7.9-5.27-6.72-4-15.4-3.74-23.4.08-2.38-.1-5.07-2.27-6.65-4.65-3.38-11.9.9-14.64 4.13-4.75 5.6-7.96 14.02-6.8 20.86z" fill="url(#P)"></path><g fill="#e2e7fe"><path d="M35.76 245l-.7-.2c4.56-16.84 2.24-34 0-50.6s-4.6-33.9 0-50.9l.7.2c-4.57 16.84-2.24 34 0 50.6s4.6 33.9 0 50.9z"></path><path d="M32.74 165.2l-.26-.27c-3-3-5.87-6-8.4-8.8l.54-.5c2.45 2.72 5.18 5.58 8.12 8.53 3.07-3.05 6.2-6 9.28-8.84l.5.55a275.85 275.85 0 0 0-9.52 9.07zm.62 12.14l-.27-.25a409.24 409.24 0 0 1-9.34-8.81l.52-.52c2.74 2.67 5.7 5.47 9.05 8.54l8.3-8.82.53.5c-2.77 2.83-5.56 5.8-8.55 9.08zm1.42 12.16l-.27-.24-9.87-8.8.5-.55 9.58 8.56 7.76-8.8.55.5-8 9.08zm1.66 12.14l-.28-.25q-3.82-3.4-7.7-6.78l-2.3-2 .5-.55 2.3 2 7.4 6.53q2.9-3.33 5.8-6.68l1.84-2.1.56.48-1.84 2.12-6 7zm1.3 12.16l-.27-.25-9.68-8.8.5-.55 9.42 8.55 7.92-8.8.55.48-8.18 9.1zm.42 12.14l-.26-.27c-2.74-2.8-5.67-5.66-9-8.8l.5-.54c3.2 3 6.07 5.84 8.74 8.55 2.85-2.8 5.67-5.7 8.6-8.82l.54.5c-3 3.23-5.95 6.2-8.9 9.1zm-1.05 12.16l-.24-.3c-2.36-2.8-5-5.8-7.88-8.8l.53-.5c2.78 2.93 5.35 5.8 7.65 8.53 3.26-2.82 6.54-5.8 9.74-8.83l.5.53a308.25 308.25 0 0 1-10 9.1z"></path></g><rect x=".39" y="240.46" width="73.52" height="42.44" rx="2.92" transform="matrix(-1 0 0 -1 74.3 523.36)" fill="#dce3f9"></rect><path d="M611.53 199.87h-457V0h457zm-456.3-.73H610.8V.74H155.24z" class="AG"></path><path d="M529.8 51.6h.58v18.32h-.58zm13.73-38.74h.58v57.07h-.58zm14.32 20.36h.58v36.7h-.58zm13.8-20.36h.58v57.07h-.58zM583.4 59.2h.58v10.73h-.58zm11.85-46.34h.58v57.07h-.58z" fill="#cad2fc"></path><g mask="url(#R)"><rect x="541.86" y="20.41" width="4.23" height="45.05" rx="1.23" fill="url(#S)"></rect></g><g mask="url(#U)"><rect x="593.52" y="27.99" width="4.23" height="37.75" rx="1.23" fill="url(#V)"></rect></g><g mask="url(#X)"><rect x="569.75" y="36.46" width="4.23" height="29" rx="1.23" fill="url(#Y)"></rect></g><g mask="url(#a)"><rect x="528.22" y="55.92" width="4.23" height="6.13" rx="1.23" fill="url(#b)"></rect></g><g mask="url(#d)"><rect x="556.18" y="42.01" width="4.23" height="17.85" rx="1.23" fill="url(#e)"></rect></g><g class="AG AK"><path d="M277.45 14a.47.47 0 1 1 .47-.46.45.45 0 0 1-.47.46z"></path><use xlink:href="#m"></use><path d="M277.44,18.9a.46.46,0,0,1-.46-.47.47.47,0,1,1,.46.47Z"></path><use xlink:href="#m" x="-0.01" y="4.87"></use><path d="M277.44 23.77a.47.47 0 1 1 .47-.47.48.48 0 0 1-.47.47zm-.01 2.43a.47.47 0 0 1 0-.94.48.48 0 0 1 .47.47.47.47 0 0 1-.47.47z"></path><use xlink:href="#m" x="-0.02" y="12.18"></use><path d="M277.42 31.07a.47.47 0 1 1 .47-.46.47.47 0 0 1-.47.46z"></path><use xlink:href="#m" x="-0.03" y="17.04"></use><path d="M277.4 36a.48.48 0 0 1-.46-.47.47.47 0 1 1 .94 0 .48.48 0 0 1-.48.47zm4.42-21.513v-1.17l9.14.016v1.17zm0 2.293V15.6l9.14.016v1.17zm-.01 2.295v-1.17l9.14.016v1.17zm.005 2.297l.002-1.17 16.57.03-.002 1.17zm4.13 4.234l.002-1.17 9.14.016-.002 1.17zm-.506 2.254V26.7h9.14v1.17zm.496 2.334l.002-1.17 9.14.016-.002 1.17zm6.21-15.686l.002-1.17 18.67.033-.002 1.17zm-.01 2.296l.002-1.17 17.32.03-.002 1.17zm.001 2.292l.002-1.17 18.7.033-.002 1.17zm9.338 2.304l.002-1.17 9.36.016-.002 1.17zm-5.203 4.22v-1.17l14.58.025v1.17zm-.01 2.295v-1.17l14.6.025v1.17zm0 2.295v-1.17l14.6.025v1.17zm-5.8 2.73v-1.17h9.14v1.17zm10.863.05l.002-1.17 9.56.017-.002 1.17zm-10.36 2.294l.002-1.17 19.9.035-.002 1.17zm0 2.294l.002-1.17 19.92.035-.002 1.17zm-24.904-23.1l.002-1.17 7.47.013-.002 1.17zm0 2.294l.002-1.17 7.47.013-.002 1.17zm-3.834 4.585l.002-1.17 11.3.02-.002 1.17zm-.466 4.193V24.4h8.84v1.17zm.46-11.078v-1.17l2.66.005v1.17zm-.01 2.294v-1.17l2.66.005v1.17zm-.036 16.192l.002-1.17 3.8.006-.002 1.17zm.006 2.3l.002-1.17 3.8.007-.002 1.17z"></path></g><path d="M551.38 128.24a.47.47 0 1 0 0-.94.47.47 0 0 0 0 .94zm.02 2.43a.47.47 0 0 0 0-.94.48.48 0 0 0-.47.47.47.47 0 0 0 .47.47zm0 2.43a.47.47 0 1 0-.47-.47.47.47 0 0 0 .47.47zm0 2.44a.47.47 0 0 0 0-.94.48.48 0 0 0-.47.48.47.47 0 0 0 .47.46zm.03 2.46a.47.47 0 1 0-.48-.47.48.48 0 0 0 .48.47zm.01 2.4a.46.46 0 0 0 .46-.47.47.47 0 1 0-.46.47zm.01 2.45a.47.47 0 0 0 .47-.47.48.48 0 0 0-.48-.47.46.46 0 0 0-.46.47.47.47 0 0 0 .47.47zm.01 2.45a.48.48 0 0 0 .47-.48.47.47 0 1 0-.47.48zm.01 2.42a.47.47 0 1 0-.47-.47.47.47 0 0 0 .47.47zm.01 2.44a.48.48 0 0 0 .47-.47.47.47 0 1 0-.47.47zm3.845-22.648l7.47-.035.006 1.17-7.47.035zm.01 2.3l7.47-.035.006 1.17-7.47.035zm.02 4.578l11.3-.053.006 1.17-11.3.053zm2.48 4.2l8.84-.042.006 1.17-8.84.042zm6.127-11.13l2.66-.013.006 1.17-2.66.013zm.01 2.3l2.66-.013.006 1.17-2.66.013zm-1.063 16.196l3.8-.018.006 1.17-3.8.018zm-.01 2.37l3.8-.018.006 1.17-3.8.018z" class="AG AK"></path><path d="M192.926 36.754l.006-1.17 46.58.22-.006 1.17zm-.01 2.3l.006-1.17 46.58.22-.006 1.17zM169 43.53l.006-1.17 70.5.332-.006 1.17zm-.027 4.225l.006-1.17 55.13.26-.006 1.17zm.06-11.112l.006-1.17 16.58.078-.006 1.17zm-.02 2.3l.006-1.17 16.58.078-.006 1.17zm-.072 16.19l.006-1.17 23.73.112-.006 1.17zm-.03 2.28l.006-1.17 23.73.112-.006 1.17z" class="AG AK"></path><g class="AH"><path d="M457.06 121.48a22.51 22.51 0 0 0-3.92 1.46l-4.3 2.18c-2.9 1.6-5.77 3.4-8.63 5.27q-2.14 1.4-4.27 2.88l-1.06.74-.53.36-.42.3a15.35 15.35 0 0 0-1.6 1.32 16.09 16.09 0 0 0-4.43 7.22 16.86 16.86 0 0 0-.72 4.38 18.74 18.74 0 0 0 .48 4.61c.7 3.37 1.52 6.73 2.5 10a76.28 76.28 0 0 0 3.54 9.72 36.72 36.72 0 0 0 5.37 8.88 37.63 37.63 0 0 1-6.83-8.08 78.37 78.37 0 0 1-5.17-9.32c-1.54-3.2-2.92-6.5-4.2-9.82a24.87 24.87 0 0 1-1.5-5.66 23.49 23.49 0 0 1 0-6 23.73 23.73 0 0 1 4.68-11.38 26.29 26.29 0 0 1 2.09-2.39l.56-.56.48-.46 1-.93 3.92-3.66c2.66-2.42 5.37-4.8 8.3-7.08 1.46-1.15 3-2.26 4.6-3.35a36 36 0 0 1 5.5-3.09l.37-.17a6.69 6.69 0 1 1 5.38 12.24 6.62 6.62 0 0 1-1.21.38z"></path><path d="M434.52 175.15c-.88.82 0 3.3 1.87 5.5s4.17 3.34 5 2.52.05-3.3-1.86-5.5-4.13-3.34-5-2.5z"></path></g><g fill="#cad2fc"><path d="M320.47 49.52h1v17.66h-1z"></path><path d="M320.48 44.85h1v22.33h-1z"></path><path d="M320.5 40.18h1v27h-1z"></path><path d="M320.5 35.5h1V67.2h-1z"></path><path d="M320.5 30.84h1V67.2h-1z"></path><path d="M320.52 26.17h1V67.2h-1z"></path><path d="M320.53 21.5h1v45.7h-1z"></path><path d="M320.54 16.82h1v50.36h-1z"></path><use xlink:href="#n"></use><use xlink:href="#n" x="22.28"></use><use xlink:href="#n" x="44.55"></use><use xlink:href="#n" x="66.83"></use><use xlink:href="#n" x="89.11"></use><use xlink:href="#n" x="111.39"></use><use xlink:href="#n" x="133.67"></use><use xlink:href="#n" x="155.95"></use><use xlink:href="#n" x="178.22"></use></g><g fill="#ffadea"><path d="M455.37 107.64l2.95.1c.4 0 .8-.43.87-1l1.36-10.44c.07-.56-.2-1-.6-1l-2.94-.1c-.4 0-.8.43-.87 1l-1.36 10.44c-.07.54.23 1 .6 1.02z"></path><path d="M459 87.44a5.91 5.91 0 0 1 1.67 4.33l-.1 4.43c-.07 3-2.2 5.45-4.74 5.4a4.52 4.52 0 0 1-4.16-3.47c-1.23-4.84.52-7.6.68-8.6l.1-.18z"></path></g><path d="M453.35 92.4l-.43 1.5c.22 2.32 2.62 5 4.54 5.4 2.55.47 3.4-1.08 5.66-5.92z" class="AG"></path><path d="M452.93 93c-.78-.06-1.1.62-1.17 1.56s.12 1.76.9 1.82a1.72 1.72 0 0 0 .27-3.38z" fill="#ffadea"></path><path d="M453.16 93.07s-4.15-5.85 4.22-8.3a7.94 7.94 0 0 1 6.2 5.68 6.28 6.28 0 0 1-.46 2.94z" fill="#fd5d61"></path><path d="M449.16 224h-11.7a203.65 203.65 0 0 0 13.14 50.92.67.67 0 0 0 1.27-.41c-2.95-14.1-3.04-44.23-2.7-50.5z" class="AH"></path><path d="M465.1 162.42a12.58 12.58 0 0 0-1.24 1.89c-1.53-3.7-6.54-5.7-12.1-5.4-9.6.48-12.9 7.63-14.1 15.42a174.88 174.88 0 0 0-1.47 39.46 171.62 171.62 0 0 0 .65 6.76l.5 4.05h22.53c0 .07 14.4.14 14.4.14l.15-.78.67-3.54q.68-3.52 1.3-7c2.3-12.66 4-24.8 3.9-38.17-.05-8.1-6.84-23.16-15.2-12.82z" class="AP"></path><path d="M467.8 247.77c.65-6.85 1-16.07 2-23l-10.94-.07c.2 6.72.6 13.42 1.3 20.14A281.56 281.56 0 0 0 466 280c.44 1.9 2.77 1.32 2.55-.62a151.85 151.85 0 0 1-.76-31.61z" class="AH"></path><path d="M439.84 164.86c-1.22 4-2.53 8.45-.2 12.14 2.62 4.12 8.84 5.78 14.54 6.46 7.43.9 15.8.56 21.32-3.53 5.84-4.32 4.68-11 4.26-17.36-.53-7.9-10.06-61-26.3-55.8-6.7 2.15-6 16.2-6.5 20.64a196.36 196.36 0 0 1-7.12 37.45z" fill="url(#f)"></path><path d="M450.93 282.66H447a14.85 14.85 0 0 1 .55-3.66c.9-3.33 2.58-5.77 3.75-5.44s1.4 3.3.5 6.64a16 16 0 0 1-.86 2.46zm25.33-2.18c0 1.16-2.74 2-6.06 2s-6-1.06-6-2.2 2.73-2.05 6.05-2 6.03 1.06 6 2.2z" class="AO"></path><path d="M458.74 108.14c.4-.23 1.15-.75 1.74-1.17l1.86-1.43 3.6-3.13a57.94 57.94 0 0 0 6.4-7.15A44.63 44.63 0 0 0 480.45 78a41.41 41.41 0 0 0-.68-19.63 64.35 64.35 0 0 0-8.77-18.7 66.48 66.48 0 0 1 11.9 17.56 46.62 46.62 0 0 1 4.1 21.59 52.92 52.92 0 0 1-6.27 21.72 68.56 68.56 0 0 1-6.16 9.59l-3.67 4.4-2 2.1-2.3 2.16-.37.3a6.69 6.69 0 0 1-8.65-10.21 7 7 0 0 1 1.16-.77z" class="AH"></path><path d="M452.36 93.12a13.86 13.86 0 0 1-.54 4 13.73 13.73 0 0 1-2 3.23 19.25 19.25 0 0 0-3.67 8.56 12.16 12.16 0 0 0 2.14 9c1.37 1.78 3.35 3.16 4.13 5.25 1.1 3-.53 6.1-1.23 9.14a15.69 15.69 0 0 0 1.44 10.7c3.2 6 10.2 9.32 16.94 9.3s13.17-3 18.5-7.08c2.5-1.92 4.2-5.26 5.36-8.2 1.52-3.9 1.34-7.23.4-11.33-1-4.4-2.15-9-5.08-12.44-3.6-4.25-9.27-6.07-14.72-7.2a27.33 27.33 0 0 1-6.47-1.83 7.92 7.92 0 0 1-4.41-4.84c-1.1-4.27 2.5-9.9-1.48-13.53-4.98-4.52-9.08 3.17-9.33 7.3z" fill="url(#g)"></path><g mask="url(#i)"><path d="M470.6 35l-5.7 11-2.85 5.54-1.43 2.76a8.59 8.59 0 0 1-2.08 2.93A6.84 6.84 0 0 1 448.48 56l-13.66-18.92a6 6 0 0 0-.9-1 6.14 6.14 0 0 0-2.32-1.28 6.23 6.23 0 0 0-2.6-.2 10.65 10.65 0 0 0-2.69.93l-8.63 3.7a15.42 15.42 0 0 1-3.09 1.08 12.35 12.35 0 0 1-9.59-1.89 31.17 31.17 0 0 1-2.47-2l-4.7-4.08-4.7-4.08a24.74 24.74 0 0 0-2.3-1.89 4 4 0 0 0-4.91.76c-.57.67-1.2 1.63-1.8 2.44l-10.9 15.17-3.63 5a16.82 16.82 0 0 1-2 2.5 7.27 7.27 0 0 1-6.06 1.85c-1.1-.2-2-.55-3.05-.82l-6-1.76-3-.87a13.48 13.48 0 0 0-3-.62 11.78 11.78 0 0 0-6 1.08 30.23 30.23 0 0 0-5 3.55l-14.72 11.5 14.55-11.73a30.18 30.18 0 0 1 5.05-3.67 12.21 12.21 0 0 1 6.15-1.2 14 14 0 0 1 3.1.59l3 .83 6 1.67 3 .76a6.58 6.58 0 0 0 2.92-.25 6.44 6.44 0 0 0 2.5-1.49 15.91 15.91 0 0 0 1.84-2.41l3.56-5.1L379.6 34l3.56-5.1 1.86-2.6a5.24 5.24 0 0 1 3-1.67 5.34 5.34 0 0 1 3.44.58 23.64 23.64 0 0 1 2.55 2l4.76 4 4.77 4a28.85 28.85 0 0 0 2.35 1.88 10.62 10.62 0 0 0 8.28 1.51 13.21 13.21 0 0 0 2.76-1l8.52-3.82 1.47-.64a8.26 8.26 0 0 1 1.7-.48 8.49 8.49 0 0 1 3.51.2 8.26 8.26 0 0 1 3.12 1.66 8.75 8.75 0 0 1 1.22 1.29l.94 1.26 3.72 5 9.3 12.5a4.45 4.45 0 0 0 1.93 1.43 4.4 4.4 0 0 0 4.51-.75 6.1 6.1 0 0 0 1.43-2.16l1.38-2.8 2.77-5.58L468 33.6a1.48 1.48 0 0 1 2.64 1.32z" fill="url(#j)"></path></g><path d="M481.4 42.1a1 1 0 0 1-1.39.35l-11.24-6.7a1 1 0 1 1 1-1.74l11.25 6.7a1 1 0 0 1 .38 1.39z" class="AQ"></path><path d="M474.57 45.57c1.2-.2 1.86-2.72 1.5-5.62s-1.62-5.1-2.8-4.9-1.86 2.72-1.5 5.62 1.62 5.1 2.8 4.9z" class="AH"></path><path d="M559.33 179.6a39 39 0 0 0 0-77.95h-.46V83h.46a57.61 57.61 0 0 1 0 115.21h-.46v-18.64z" class="AG"></path><path d="M559.67 83v18.63a39 39 0 0 0-38.5 38.59l-18.64.2A57.64 57.64 0 0 1 559.67 83z" class="AM"></path><path d="M521.1 140.25v.37a39 39 0 0 0 38.52 38.95v18.64a57.67 57.67 0 0 1-57.15-57.59v-.16z" class="AQ"></path><path d="M82.55 280.9c0 1.16-2.73 2.05-6 2s-6-1.06-6-2.2 2.73-2.05 6-2 6.02 1.06 6 2.2z" class="AO"></path><path d="M174.9 69.24a86.61 86.61 0 0 1-5.79 8.55 78.87 78.87 0 0 1-17.29 16.37l4.95 4.4a83.83 83.83 0 0 0 15.09-18.9 90.27 90.27 0 0 0 4.75-9.55 1 1 0 0 0-1.71-.86z" class="AH"></path><path d="M151.67 94.26a81.8 81.8 0 0 1-21.16 10.35 84.59 84.59 0 0 1-11.34 2.81l-5.7.8-2.83.23-1.37.06h-1.2a7.12 7.12 0 0 0-1.22 0 6.69 6.69 0 0 0-5.84 8 6.89 6.89 0 0 0 7.53 5.27h.2l1.9-.27 1.7-.3q1.68-.33 3.3-.72l6.4-1.8a94.31 94.31 0 0 0 12.21-4.85 89.42 89.42 0 0 0 21.58-14.39l1-.9-4.95-4.4z" class="AR"></path><path d="M310.36 71c-.82-1-1.58-2.15-2.35-3.25h-3.1l2.7 5.1a84.33 84.33 0 0 0 15.09 18.9l4.95-4.4A78.6 78.6 0 0 1 310.36 71z" class="AH"></path><path d="M327.78 87.44A81.86 81.86 0 0 0 349 97.79a84.45 84.45 0 0 0 11.33 2.81l5.7.8 2.83.23 1.38.06h1.2a7.11 7.11 0 0 1 1.22 0 6.69 6.69 0 0 1 5.84 8 6.88 6.88 0 0 1-7.53 5.27h-.2l-1.9-.26-1.7-.3-3.3-.72-6.4-1.8a94.88 94.88 0 0 1-12.26-4.88 89.81 89.81 0 0 1-21.58-14.39l-1-.9 4.95-4.4z" class="AG"></path><path d="M323.62 281.26c0 1.15 2.73 2 6.05 2s6-1.06 6-2.2-2.73-2-6.05-2-6.02 1.05-6 2.2z" class="AO"></path><path d="M368.53 165.63l-.55.6-.43.5-.8.94-1.5 1.85q-1.44 1.84-2.77 3.7l-5.07 7.48a162.51 162.51 0 0 0-8.75 15.5 167 167 0 0 0-12.28 32.87 153.42 153.42 0 0 0-4.79 34.16 148.6 148.6 0 0 0 .58 16.91 1.67 1.67 0 0 0 3.33 0 148.48 148.48 0 0 1 2.67-16.1 153 153 0 0 1 4.51-15.57A145.83 145.83 0 0 1 365.52 207a144.12 144.12 0 0 1 10.14-11.68l5.44-5.3 2.78-2.44 1.37-1.13.66-.52.3-.22c.1-.07 9.26-4.54 9.25-4.5z" class="AP"></path><path d="M109 88.52l1.28-1.94a2.87 2.87 0 0 1 2.42-1.31h6.8a2.9 2.9 0 0 1 2.42 4.49l-4.4 6.67a2.89 2.89 0 0 1-2.42 1.3h-5.8l-1.1-3.85a6.46 6.46 0 0 1 .8-5.36z" fill="url(#k)"></path><path d="M135.5 281.08c0 1.16-2.74 2.05-6.06 2s-6-1.05-6-2.2 2.73-2 6-2 6.08 1.06 6.06 2.2zm272.72 1.37c.26 1.13 3.1 1.46 6.33.73s5.66-2.23 5.4-3.36-3.08-1.45-6.32-.73-5.63 2.23-5.4 3.36z" class="AO"></path><g class="AP"><path d="M121.4 169.44l11.94 28.9 6 14.4a32.4 32.4 0 0 1 1.61 19.88L127 280.57a1.38 1.38 0 0 1-2.7-.47l3.1-49.47a17.12 17.12 0 0 0-3.3-10.16L98 182zM382 171c1.75 49.42 1.9 66.07 14 82.57l19.8 26.92a1.81 1.81 0 0 0 3-1.95c-23.6-46.3-22.24-32.54-8.8-106.1z"></path><path d="M106.73 168.88l.25 2.52.14 2.24.15 4.37-.07 8.58q-.28 8.52-1.36 16.87A172.77 172.77 0 0 1 98.46 236a157.7 157.7 0 0 1-6.08 15.39 141.83 141.83 0 0 1-7.71 14.47 128 128 0 0 1-10.52 14.83 1.47 1.47 0 0 1-2.42-1.64 122.5 122.5 0 0 0 7-16 136.09 136.09 0 0 0 6.83-29.93 156.66 156.66 0 0 0 .43-30.22c-.4-5-1-9.94-1.92-14.8-.42-2.43-.93-4.84-1.47-7.2l-.88-3.48-.47-1.67a14.11 14.11 0 0 0-.45-1.38 13.64 13.64 0 0 1 6.13-18.58 13.66 13.66 0 0 1 19.48 10.37z"></path></g><g class="AG"><path d="M403.5 147.48c1.58 7.12 10.52 21.6 7 28.1-4.54 8.5-18.62 6.67-28.53 4.25s-14.6-5.2-14-14.65c.35-5.42 3-10.48 4.2-15.8a31.6 31.6 0 0 0-1-17.7c-1.64-4.62-3.8-13.3-5.36-17.93-1.6-4.8-1.1-13.7 8.1-12.26 2.74.42 4.17 3.53 6.13 5.16 3.12 2.6 6.36 5 9.26 7.8 11.36 11 10.9 18.15 14.2 33.03zm-280.84 24.27c-1.08-3-3.07-5.66-4.7-8.46a39.5 39.5 0 0 1-5.23-25.06c.83-6.37 10.93-35.7-6.67-32.37 10.56 2.9 2.5 26.7 1.75 32.37a39.57 39.57 0 0 0 5.2 25.06c1.64 2.8 3.63 5.48 4.72 8.46s1.13 6.44-1 9c-2.3 2.85-6.38 3.84-10.6 4.07 5.67.26 12.3-.1 15.5-4.07 2.17-2.56 2.12-6 1.03-9z"></path><path d="M116.8 180.77c2.08-2.58 2-6 1-9s-3.08-5.66-4.72-8.46a39.57 39.57 0 0 1-5.23-25.06c.74-5.66 8.8-29.48-1.75-32.37-.27.06-.54.1-.82.16-13.28 3.1-20.5 24.3-23.45 34.06a76.84 76.84 0 0 0-3.35 23.46c.07 4.5.64 9.24 3.6 13 5 6.32 15.08 7.87 24.06 8.3 4.27-.24 8.34-1.23 10.65-4.08z"></path></g><g class="AH"><path d="M112.52 110.94c-.9 1-3 .7-4.65-.75s-2.28-3.47-1.4-4.5 3-.7 4.65.75 2.3 3.46 1.4 4.5z"></path><path d="M117.7 100.22l1.24-3.12a9.44 9.44 0 0 0-.32-5.56c-1.84 1.9-4.13 1.47-6.7 2.25a2.24 2.24 0 0 1-.57 2.63c.1-.87-.22-1.64-.83-1.78s-1.38.5-1.6 1.47a2.62 2.62 0 0 0-.06.78l-.42 1.6-2.2 9.27 4 .3 2.47-4.56c1.83.1 3.72-1.18 5-3.28z"></path></g><path d="M113.44 122.16c.37 6.07-1.66 12-3.1 17.9a96.81 96.81 0 0 0-2.43 31.18 2.74 2.74 0 0 1-.51 2.32 2.57 2.57 0 0 1-1.38.5 38.53 38.53 0 0 1-21.5-3c-4.52-2-8.92-5.38-10.1-10.2-.68-2.84-.15-5.8.4-8.67 1.75-9.17 3.64-18.43 7.82-26.77 3.4-6.78 9.46-15.08 17-17.55 7.77-2.5 13.4 7.87 13.8 14.27z" class="AM"></path><path d="M101.8 151.5H85.1a1.54 1.54 0 0 1 0-3.08h16.7a1.54 1.54 0 1 1 0 3.08z" fill="#db3347"></path><path d="M102.28 157.9l-2.03-1.3-.38-.33a4.49 4.49 0 0 1-1.4-3.22 13.62 13.62 0 0 1 .75-4.68l.45-1.28.5-1.6 1-3.14c2.56-8.26 5-16.54 8.1-23.9a8.51 8.51 0 0 0 .3-.82A6.65 6.65 0 1 0 96.76 114c-2.54 8.93-3.85 17.5-5.37 26l-.87 4.66c-.1.57-.23 1.22-.3 1.85a21.19 21.19 0 0 0 .33 8.15 12.78 12.78 0 0 0 1.94 4.2 11.64 11.64 0 0 0 3.43 3.14l1 .54.74.36 1.46.7.66.32 2.86-5.82z" class="AR"></path><path d="M126.93 173.3L105 159.64l-2.38-1.5-2.86 5.87 2.24 1 23.47 11q4.64 2.1 9.32 4.14V178l-7.86-4.7z" class="AH"></path><path d="M131.64 67.827l208-.4.22 115.06-208 .4z" fill="#fff"></path><g class="AG"><path d="M131.48 183.26l-.22-115.8L340 67.08l.2 115.8h-.37zM132 68.2l.2 114.32 207.25-.4-.2-114.3zm75.328 100.22l1.466-94.34.37.006-1.466 94.34zm66.766 2.314l1.465-94.33.37.006-1.465 94.33z"></path><use xlink:href="#o"></use><use xlink:href="#o" x="0.203" y="-15.002"></use><use xlink:href="#o" x="0.407" y="-30.002"></use></g><use xlink:href="#o" x="0.59" y="-45.005" class="AM"></use><g class="AG"><use xlink:href="#o" x="0.795" y="-60.006" class="AL"></use><use xlink:href="#o" x="1" y="-75.008" class="AL"></use><use xlink:href="#o" x="11.392" y="0.153" class="AK"></use><use xlink:href="#o" x="11.586" y="-14.849"></use></g><use xlink:href="#o" x="11.79" y="-29.85" class="AM"></use><g class="AG"><use xlink:href="#o" x="11.994" y="-44.852" class="AN"></use><use xlink:href="#o" x="12.198" y="-59.862" class="AL"></use><use xlink:href="#o" x="12.392" y="-74.865" opacity="0"></use><use xlink:href="#o" x="22.978" y="0.306"></use><use xlink:href="#o" x="23.182" y="-14.696" class="AN"></use><use xlink:href="#o" x="23.376" y="-29.697" class="AL"></use><use xlink:href="#o" x="23.59" y="-44.699" class="AN"></use><use xlink:href="#o" x="23.784" y="-59.7" class="AN"></use><use xlink:href="#o" x="23.978" y="-74.702" opacity="0"></use></g><use xlink:href="#o" x="33.763" y="0.448" class="AM"></use><g class="AG"><use xlink:href="#o" x="33.967" y="-14.552"></use><use xlink:href="#o" x="34.17" y="-29.554"></use><use xlink:href="#o" x="34.375" y="-44.556" class="AN"></use><use xlink:href="#o" x="34.57" y="-59.557" class="AN"></use><use xlink:href="#o" x="34.763" y="-74.559" class="AL"></use><g class="AK"><path d="M294 81.9a.36.36 0 0 1 0-.71.36.36 0 1 1 0 .71zm0 1.86a.37.37 0 0 1-.36-.36.36.36 0 1 1 .36.36zm0 1.84a.35.35 0 0 1-.35-.36.34.34 0 0 1 .36-.35.36.36 0 1 1 0 .71zm-.06 1.86a.36.36 0 1 1 0-.71.34.34 0 0 1 .35.36.35.35 0 0 1-.35.35z"></path><use xlink:href="#p"></use><path d="M293.9 91.17a.35.35 0 0 1-.35-.36.34.34 0 0 1 .36-.35.35.35 0 0 1 .35.36.36.36 0 0 1-.36.35zm0 1.83a.36.36 0 1 1 .36-.35.36.36 0 0 1-.36.35z"></path><use xlink:href="#p" x="-0.05" y="5.56"></use><path d="M293.86 96.73a.36.36 0 0 1 0-.72.37.37 0 0 1 .35.37.36.36 0 0 1-.35.35zm-.01 1.85a.36.36 0 1 1 .36-.35.36.36 0 0 1-.36.35zm-.02 1.95a.36.36 0 0 1 0-.72.36.36 0 0 1 .35.36.36.36 0 0 1-.35.36z"></path><use xlink:href="#q"></use><path d="M293.8,104.23a.36.36,0,0,1-.36-.36.36.36,0,0,1,.36-.35.36.36,0,1,1,0,.71Z"></path><use xlink:href="#p" x="-0.15" y="16.78"></use><use xlink:href="#q" x="-0.04" y="5.56"></use><path d="M293.75 109.8a.36.36 0 0 1-.36-.36.36.36 0 0 1 .36-.35.36.36 0 0 1 .36.36.35.35 0 0 1-.36.35zm-.02 1.85a.36.36 0 0 1-.35-.36.36.36 0 0 1 .36-.36.35.35 0 0 1 .35.36.36.36 0 0 1-.36.36zm-.01 1.85a.36.36 0 1 1 0-.72.36.36 0 0 1 0 .72zm-.02 1.85a.34.34 0 0 1-.35-.36.35.35 0 0 1 .36-.35.36.36 0 0 1 .35.36.35.35 0 0 1-.36.35zm-.02 1.85a.37.37 0 0 1-.35-.37.36.36 0 0 1 .36-.35.35.35 0 0 1 .35.36.36.36 0 0 1-.36.36z"></path><use xlink:href="#r"></use><use xlink:href="#r" x="-0.01" y="1.755"></use><path d="M297.258 85.766l.008-.9 6.96.06-.008.9zm-.026 1.75l.008-.9 12.6.1-.008.9z"></path><use xlink:href="#r" x="3.077" y="8.485"></use><use xlink:href="#r" x="3.067" y="10.24"></use><path d="M321.26 92.748l.01-.9 6.96.07-.01.9zm-20.926 1.492l.008-.9 6.96.06-.008.9zm4.8-11.9l.008-.9 17.6.153-.008.9zm-.02 1.745l.008-.9 13.18.115-.008.9zm14.134.1l.008-.9 8.86.077-.008.9zm-14.148 1.64l.008-.9 25.83.225-.008.9zm7.1 1.804l.008-.9 16.77.146-.008.9zm-3.978 3.173l.008-.9 22.6.197-.008.9zm-.018 1.762l.008-.9 11.76.103-.008.9zm-.012 1.737l.008-.9 18.23.16-.008.9zm-3.65 2.193l.01-.9 6.96.07-.01.9zm7.486-.055l.008-.9 18.72.163-.008.9zm-7.896 1.7l.008-.9 28.62.25-.008.9zm-.014 1.74l.008-.9 16.36.143-.008.9zm17.37.143l.008-.9 11.18.098-.008.9zm-20.783 1.674l.01-.9 6.96.07-.01.9zm-.404 1.636l.008-.9 17.8.155-.008.9zm18.837.14l.008-.9 13.56.118-.008.9zm-18.804 1.623l.008-.9 13.1.117-.008.9zm-.063 1.736l.008-.9 15.68.137-.008.9zm4.557 2.005l.01-.9 17.34.173-.01.9zm-.413 1.64l.008-.9 21.77.2-.008.9zm.37 1.875l.01-.9 6.96.07-.01.9zm24.4 1.82l.008-.9 2.77.025-.008.9zm-24.812-.203l.008-.9 23.66.206-.008.9z"></path><use xlink:href="#r" x="8.222" y="33.478"></use><path d="M313.42 115.806l.008-.9 16.86.147-.008.9zm-9.084 1.66l.008-.9 13.22.115-.008.9zm-2.186 1.732l.008-.9 6.96.06-.008.9zM285.288 82.18l.008-.9 5.68.05-.008.9zm-.01 1.755l.008-.9 5.68.05-.008.9zm-2.953 3.468l.008-.9 8.6.075-.008.9zm-.01 3.21l.008-.9 6.72.06-.008.9zm.435-8.357l.01-.9 2.02.02-.01.9zm-.374 1.643l.008-.9 2.02.018-.008.9zm-.108 12.33l.008-.9 2.9.026-.008.9zm-.02 1.75l.008-.9 2.9.025-.008.9zm-.044 5.237l.008-.9 6.68.06-.008.9zm-.03 3.483l.008-.9 6.68.058-.008.9zm-.02 1.873l.008-.9 2.5.022-.008.9zm-.05 5.237l.008-.9 2.5.022-.008.9zm-.03 3.5l.008-.9 2.5.022-.008.9z"></path></g><path d="M282.72 160.667l3.44-.03.08 8.85-3.44.03z"></path><path d="M290.912 157.654l3.44-.03.105 11.8-3.44.03z" class="AL"></path><path d="M299.105 154.64l3.44-.03.13 14.74-3.44.03z" class="AK"></path><path d="M307.317 151.618l3.44-.03.157 17.68-3.44.03z"></path><path d="M315.5 148.605l3.44-.03.184 20.62-3.44.03z" class="AK"></path><path d="M323.713 145.592l3.44-.03.2 23.56-3.44.03z" class="AL"></path></g><path d="M376.84 91.28a1.5 1.5 0 0 1 .48-.82 2.58 2.58 0 0 1 .94-.36c1-.3 2-1.45 1.9-2.1-.1-.44-.62-.6-.68-1.06-.1-.8 1.16-1.9 2.13-2.82s1.87-2.3 1-2.53-2 .8-3 1a1.09 1.09 0 0 1-1.35-1c-.1-.6 0-1.34-.4-1.78s-1.4-.46-2.23.22c-.47.38-.88 1-1.4 1.08a.58.58 0 0 1-.52-.13A3.39 3.39 0 0 0 372 80a3.67 3.67 0 0 0-2.74 1.12c-.9 1-1.08 2.37-2.28 2.83-.34.14-.63.12-1 .25a2.69 2.69 0 0 0-1.46 1.64 6.81 6.81 0 0 1-.51 1.74c-.18.3-.44.6-.6.9a1.2 1.2 0 0 0 .36 1.74 17.36 17.36 0 0 1 1.66.87c1.52 1.3.56 4.3 3.73 4.22 2.2-.03 6.73-1.2 7.7-4.03z" class="AM"></path><g class="AH"><path d="M366.68 110.72c1.2 1 3.77-.1 5.72-2.43s2.57-5 1.37-6-3.77.1-5.72 2.43-2.57 5-1.37 6z"></path><path d="M364.83 94.67s-1.57-5.1 1.1-8.6c8.37 2.47 8.4 5.64 8.4 6.63a2.33 2.33 0 0 1-.12.76v11.1H369V99c-1.87-.34-3.42-2-4.17-4.33z"></path><path d="M375.64 92.54c0 .9-.53 1.6-1.2 1.6s-1.18-.72-1.18-1.6.53-1.6 1.18-1.6 1.2.72 1.2 1.6z"></path></g><path d="M368.47 125.7a91.82 91.82 0 0 0 .07-10.73v-1a6.69 6.69 0 0 1 9.39-5.52 6.61 6.61 0 0 1 3.88 6.69 102.26 102.26 0 0 1-1.81 12.09l-1.54 6.82-10.53-1.37.54-6.98z" class="AG"></path><path d="M367.44 137.23c0-.13 0-.26.05-.4l.42-4.16 10.53 1.33-1.16 4.62z" fill="url(#l)"></path><g class="AH"><path d="M341.58 178.75l6.8-5 4.37-3.6 2.14-1.86 1.95-1.87a33.84 33.84 0 0 0 6.09-8.61A33 33 0 0 0 366 148c.54-3.52 1-7.2 1.43-10.78l9.84 1.43c-1 3.8-2 7.47-3.2 11.26a40.45 40.45 0 0 1-5.48 11.31 39.19 39.19 0 0 1-8.49 8.93c-.8.63-1.65 1.2-2.47 1.77l-2.44 1.57c-1.64 1-3.3 2.05-5 3-2.48 1.42-5 2.8-7.6 4a1 1 0 0 1-1.03-1.74z"></path><path d="M344.6 178.6c-.58-1-3.17-.87-5.8.4s-4.3 3.2-3.7 4.25 3.17.88 5.8-.4 4.3-3.2 3.72-4.25zM301.92 66.82c.17-1.2 2.67-1.93 5.58-1.64s5.13 1.5 5 2.68-2.67 1.93-5.58 1.64-5.17-1.5-5-2.68zm-131.1.58c.05-1.2 2.46-2.18 5.38-2.18s5.26 1 5.2 2.18-2.4 2.18-5.4 2.18-5.23-.97-5.18-2.18zM129.2 176.3c.42-1.13 3-1.3 5.8-.4s4.7 2.56 4.27 3.7-3 1.3-5.8.4-4.7-2.56-4.27-3.7zM626.44 119a24.35 24.35 0 0 0-.93-6.38 23.57 23.57 0 0 0-2.44-5.85 24.71 24.71 0 0 0-8.56-8.77 28.23 28.23 0 0 0-2.65-1.4l-2.5-1.1q-5-2.17-10.1-4a127.76 127.76 0 0 0-14.81-4.5 1.41 1.41 0 0 1-.93.63 125.21 125.21 0 0 1 14.37 6.84q4.65 2.56 9.13 5.42l2.23 1.43a19 19 0 0 1 1.89 1.42 18.06 18.06 0 0 1 5.21 7.33 15.88 15.88 0 0 1 1 4.25 15.64 15.64 0 0 1-.07 4.27 8.13 8.13 0 0 1-.15.86l9.15 2.6a23.62 23.62 0 0 0 .14-3.04z"></path></g><path d="M598.27 282.23c0 1.16-2.73 2-6 2s-6-1-6-2.2 2.73-2 6-2 6.02 1.05 6 2.2zm59.13.17c0 1.16-2.73 2-6 2s-6-1.05-6-2.2 2.73-2 6-2 6.02 1.05 6 2.2z" class="AO"></path><path d="M554.6 200.42c-.17-1.2 2-2.6 4.88-3.15s5.35 0 5.52 1.16-2 2.6-4.88 3.16-5.34.03-5.52-1.17zm23.45-114.67c.16-1.2 2.64-2 5.56-1.7s5.15 1.42 5 2.6-2.64 2-5.56 1.7-5.15-1.42-5-2.6z" class="AH"></path><g class="AP"><path d="M635.84 217.72l-31.5 12.85a11.23 11.23 0 0 0-3.51 1.79 12.13 12.13 0 0 0-4.48 7.44c-.33 1.3-.13 3.93-.13 6.1l.12 6.8.5 29.23a1.25 1.25 0 0 1-2.46.31l-9.1-38.33a31 31 0 0 1-.76-4 25.9 25.9 0 0 1 4.38-17.47 27.64 27.64 0 0 1 6.73-6.88l5.4-4.18L622.2 195c5.64-4.38 13.86-3.94 18.6 1.4a13.41 13.41 0 0 1-1.78 19.51 13.9 13.9 0 0 1-3.16 1.81z"></path><path d="M656.9 201.13l-20.3 39.33a22.19 22.19 0 0 0-1.12 2.15 11.74 11.74 0 0 0-1.1 3.75 5.73 5.73 0 0 0 .78 3.54l3.78 5.65 16.72 25.04a1.35 1.35 0 0 1-2 1.75l-22.5-20.3-5.16-4.6a19.1 19.1 0 0 1-5.09-8.52 24.77 24.77 0 0 1-.62-9.71 35.22 35.22 0 0 1 .8-4.35l.86-3.4 10.1-39.74a13.36 13.36 0 0 1 25.9 6.58 14.24 14.24 0 0 1-1.05 2.84z"></path></g><path d="M602.38 176.52l-.63 2.94-.28 1.27a9.49 9.49 0 0 1-.33 1 10.17 10.17 0 0 1-6.37 6.05c-.32.1-.87.26-1.38.4l-1.53.4-3 .88-5.9 1.83-11.7 3.62c-3.68 1.06-7.38 2-11.13 2.78a7.21 7.21 0 0 1 .36 1.68c3.84-.27 7.66-.75 11.46-1.32 4.08-.63 8.14-1.36 12.18-2.07l6-1 3-.46 1.48-.2c.5-.07.95-.12 1.63-.24a17.46 17.46 0 0 0 12.23-8.72 16.28 16.28 0 0 0 .87-1.78l.37-.93.28-.73L611 179c.43-1.2.82-2.4 1.22-3.58l-9.22-2.27a68.43 68.43 0 0 1-.62 3.37z" class="AH"></path><path d="M657.18 188.83c-2.32-19.42-16.7-37-36-45.67a113.35 113.35 0 0 0 4.61-17.81l.25-1.42.23-1.63a2 2 0 0 1 0-.23l-9.15-2.6-.27 1.2-.32 1c-.1.3-.27.8-.4 1.18a101 101 0 0 1-7 16c-2.66-.65-5.2-.82-6.3.5-1.5 1.8.4 4.93 2.35 7.5a7.45 7.45 0 0 0 0 .82 67.5 67.5 0 0 1-.17 11.24c-.34 3.88-.9 7.82-1.6 11.75l-.48 2.54 9.23 2.23.8-2.38c1-3.07 1.9-6.16 2.72-9.33a53.21 53.21 0 0 1 4.56 22.84c-.13 4.36-.7 9.08 1.9 12.76 2.32 3.28 6.63 4.9 10.8 5.92 7.77 1.9 17.58 1.62 22-4.45 2.6-3.46 2.7-7.87 2.2-11.95z" class="AR"></path><g class="AH"><path d="M603.58 140.9l2.83.1c.4 0 .77-.4.84-.95l1.3-10.03c.07-.53-.2-1-.58-1l-2.84-.1c-.4 0-.76.4-.83 1l-1.32 10c-.06.52.2.97.6.98z"></path><path d="M607.1 121.44a5.68 5.68 0 0 1 1.6 4.17l-.1 4.26c-.07 2.92-2.12 5.25-4.56 5.2a4.34 4.34 0 0 1-4-3.33c-1.2-4.67.5-7.34.65-8.28l.1-.17z"></path></g><path d="M601.62 126.2l-.4 1.46c.22 2.24 2.52 4.85 4.37 5.2 2.46.45 3.3-1 5.46-5.7z" class="AQ"></path><path d="M601.22 126.83c-.75-.06-1.05.6-1.12 1.5s.1 1.7.87 1.75a1.65 1.65 0 0 0 .25-3.25z" class="AH"></path><g class="AQ"><path d="M601.44 126.86a8.46 8.46 0 0 1-.43-5.68s9.1-1.7 10.47 3.15a6.13 6.13 0 0 1-.44 2.83z"></path><path d="M601 121.18l2.53-1.84a3.18 3.18 0 0 1 2.77-.47l7.26 2.16a1.38 1.38 0 0 1 .74 2.08l-5.8 8.6z"></path></g><g class="AG"><path d="M157.48 125.93a12 12 0 0 1 11.83-12V96.5a30.25 30.25 0 0 0-30 30.09h18.28c-.1-.22-.1-.43-.1-.66z" class="AL"></path><path d="M157.5 126.6h-18.28v.15a30.11 30.11 0 0 0 8.88 21.4l13.16-13.5a11.94 11.94 0 0 1-3.76-8.06z" class="AK"></path><path d="M199.72 126.6a30.24 30.24 0 0 0-30.24-30.09h-.2v17.43h.17a12 12 0 1 1-8.21 20.73l-13.16 13.5a30.24 30.24 0 0 0 51.61-21.4z"></path></g><path d="M157.48 125.93v.67a12 12 0 1 0 12-12.67h-.17a12 12 0 0 0-11.83 12z" fill="#fff"></path></svg> 