<svg width="718" height="476" viewBox="0 0 718 476" xmlns="http://www.w3.org/2000/svg"><title>ai-article-5enablers</title><defs><linearGradient x1="-101.423%" y1="349.628%" x2="343.015%" y2="-516.405%" id="a"><stop stop-color="#18176E" offset="0%"/><stop stop-color="#006994" offset="100%"/></linearGradient><linearGradient x1="-67.571%" y1="283.811%" x2="376.869%" y2="-582.48%" id="b"><stop stop-color="#18176E" offset="0%"/><stop stop-color="#006994" offset="100%"/></linearGradient><linearGradient x1="-34.498%" y1="244.61%" x2="299.474%" y2="-553.292%" id="c"><stop stop-color="#18176E" offset="0%"/><stop stop-color="#006994" offset="100%"/></linearGradient><linearGradient x1="-119.101%" y1="810.761%" x2="344.116%" y2="-1250.452%" id="d"><stop stop-color="#18176E" offset="0%"/><stop stop-color="#006994" offset="100%"/></linearGradient><linearGradient x1="38.907%" y1="55.26%" x2="125.571%" y2="22.865%" id="e"><stop stop-color="#D2E4FA" offset="0%"/><stop stop-color="#E7F0FF" offset="100%"/></linearGradient><linearGradient x1="-43.295%" y1="47.371%" x2="220.215%" y2="54.793%" id="f"><stop stop-color="#95B4E4" offset="0%"/><stop stop-color="#C0D9FD" offset="100%"/></linearGradient><linearGradient x1="-38.187%" y1="151.982%" x2="210.887%" y2="-136.079%" id="g"><stop stop-color="#95B4E4" offset="0%"/><stop stop-color="#C0D9FD" offset="100%"/></linearGradient><linearGradient x1=".001%" y1="49.99%" x2="100.01%" y2="49.99%" id="h"><stop stop-color="#18176E" offset="0%"/><stop stop-color="#006994" offset="100%"/></linearGradient><linearGradient x1=".003%" y1="49.995%" x2="100.005%" y2="49.995%" id="i"><stop stop-color="#18176E" offset="0%"/><stop stop-color="#006994" offset="100%"/></linearGradient><linearGradient x1="-.006%" y1="49.955%" x2="100.012%" y2="49.955%" id="j"><stop stop-color="#95B4E4" offset="0%"/><stop stop-color="#C0D9FD" offset="100%"/></linearGradient><linearGradient x1="87.284%" y1="61.188%" x2="25.814%" y2="44.8%" id="k"><stop stop-color="#076391" offset="0%"/><stop stop-color="#0EF" offset="100%"/></linearGradient><linearGradient x1="236.586%" y1="49.086%" x2="-427.76%" y2="52.144%" id="l"><stop stop-color="#18176E" offset="0%"/><stop stop-color="#006994" offset="100%"/></linearGradient><linearGradient x1="50.606%" y1="139.029%" x2="49.687%" y2="4.401%" id="m"><stop stop-color="#00D5D1" offset="0%"/><stop stop-color="#00C9F1" offset="100%"/></linearGradient><linearGradient x1="49.414%" y1="133.318%" x2="50.302%" y2="7.323%" id="n"><stop stop-color="#009CE4" offset="0%"/><stop stop-color="#00C9F1" offset="100%"/></linearGradient><linearGradient x1="50.309%" y1="35.118%" x2="26.659%" y2="-108.598%" id="o"><stop stop-color="#18176E" offset="0%"/><stop stop-color="#006994" offset="100%"/></linearGradient><linearGradient x1="143.281%" y1="47.37%" x2="-120.229%" y2="54.792%" id="p"><stop stop-color="#95B4E4" offset="0%"/><stop stop-color="#C0D9FD" offset="100%"/></linearGradient><linearGradient x1="77.967%" y1="58.818%" x2="-81.398%" y2="16.819%" id="q"><stop stop-color="#18176E" offset="0%"/><stop stop-color="#006994" offset="100%"/></linearGradient><linearGradient x1="85.718%" y1="53.45%" x2="-90.04%" y2="33.801%" id="r"><stop stop-color="#18176E" offset="0%"/><stop stop-color="#006994" offset="100%"/></linearGradient><linearGradient x1="134.706%" y1="46.305%" x2="-104.55%" y2="56.727%" id="s"><stop stop-color="#95B4E4" offset="0%"/><stop stop-color="#C0D9FD" offset="100%"/></linearGradient><linearGradient x1="52.938%" y1="108.065%" x2="47.125%" y2="6.021%" id="t"><stop stop-color="#18176E" offset="0%"/><stop stop-color="#006994" offset="100%"/></linearGradient><linearGradient x1="53.113%" y1="103.32%" x2="48.626%" y2="-5.355%" id="u"><stop stop-color="#18176E" offset="0%"/><stop stop-color="#006994" offset="100%"/></linearGradient><linearGradient x1="99.714%" y1="53.586%" x2="2.341%" y2="45.729%" id="v"><stop stop-color="#076391" offset="0%"/><stop stop-color="#0EF" offset="100%"/></linearGradient><linearGradient x1="-9.546%" y1="87.341%" x2="87.317%" y2="19.122%" id="w"><stop stop-color="#D2E4FA" offset="0%"/><stop stop-color="#E7F0FF" offset="100%"/></linearGradient><linearGradient x1="20.214%" y1="66.317%" x2="73.586%" y2="28.568%" id="x"><stop stop-color="#D2E4FA" offset="0%"/><stop stop-color="#E7F0FF" offset="100%"/></linearGradient><linearGradient x1="-18.365%" y1="49.906%" x2="82.616%" y2="50.078%" id="y"><stop stop-color="#E7F0FF" offset="0%"/><stop stop-color="#C0D9FD" offset="100%"/></linearGradient><linearGradient x1="85.068%" y1="51.174%" x2="31.224%" y2="50.053%" id="z"><stop stop-color="#E7F0FF" offset="0%"/><stop stop-color="#AAC5EE" offset="100%"/></linearGradient><linearGradient x1="-25.93%" y1="51.379%" x2="134.872%" y2="49.171%" id="A"><stop stop-color="#18176E" offset="0%"/><stop stop-color="#00C8D7" offset="100%"/></linearGradient><linearGradient x1="147.274%" y1="50.292%" x2="-23.024%" y2="49.81%" id="B"><stop stop-color="#18176E" offset="0%"/><stop stop-color="#00C8D7" offset="100%"/></linearGradient><linearGradient x1="63.371%" y1="52.025%" x2="3.16%" y2="42.906%" id="C"><stop stop-color="#18176E" offset="0%"/><stop stop-color="#00C8D7" offset="100%"/></linearGradient><linearGradient x1="49.142%" y1="42.641%" x2="43.224%" y2="128.877%" id="D"><stop stop-color="#18176E" offset="0%"/><stop stop-color="#006994" offset="100%"/></linearGradient><linearGradient x1="36.384%" y1="-50.215%" x2="66.036%" y2="138.913%" id="E"><stop stop-color="#18176E" offset="0%"/><stop stop-color="#006994" offset="100%"/></linearGradient><linearGradient x1="73.473%" y1="65.769%" x2="-17.787%" y2="1.21%" id="F"><stop stop-color="#EC91A4" offset="0%"/><stop stop-color="#FFA883" offset="99.88%"/></linearGradient><linearGradient x1="65.407%" y1="68.708%" x2="36.28%" y2="35.141%" id="G"><stop stop-color="#18176E" offset="0%"/><stop stop-color="#006994" offset="100%"/></linearGradient><linearGradient x1="64.175%" y1="60.813%" x2="26.073%" y2="31.994%" id="H"><stop stop-color="#18176E" offset="0%"/><stop stop-color="#006994" offset="100%"/></linearGradient><linearGradient x1="68.34%" y1="60.508%" x2="17.168%" y2="36.946%" id="I"><stop stop-color="#EC91A4" offset="0%"/><stop stop-color="#FFA883" offset="99.88%"/></linearGradient><linearGradient x1="108.636%" y1="60.011%" x2="-124.472%" y2="1.04%" id="J"><stop stop-color="#EC91A4" offset="0%"/><stop stop-color="#FFA883" offset="99.88%"/></linearGradient><linearGradient x1="143.029%" y1="47.693%" x2="-119.714%" y2="54.2%" id="K"><stop stop-color="#95B4E4" offset="0%"/><stop stop-color="#C0D9FD" offset="100%"/></linearGradient><linearGradient x1="130.694%" y1="57.768%" x2="-49.102%" y2="36.034%" id="L"><stop stop-color="#EC91A4" offset="0%"/><stop stop-color="#FFA883" offset="99.88%"/></linearGradient><linearGradient x1="98.204%" y1="47.424%" x2="-81.08%" y2="61.003%" id="M"><stop stop-color="#076391" offset="0%"/><stop stop-color="#0EF" offset="100%"/></linearGradient><linearGradient x1="59.147%" y1="50.109%" x2="40.791%" y2="49.911%" id="N"><stop stop-color="#EC91A4" offset="0%"/><stop stop-color="#FFA883" offset="99.88%"/></linearGradient><linearGradient x1="68.951%" y1="60.557%" x2="-7.538%" y2="20.821%" id="O"><stop stop-color="#EC91A4" offset="0%"/><stop stop-color="#FFA883" offset="99.88%"/></linearGradient><linearGradient x1="153.316%" y1="77.114%" x2="-22.62%" y2="25.926%" id="P"><stop stop-color="#EC91A4" offset="0%"/><stop stop-color="#FFA883" offset="99.88%"/></linearGradient><linearGradient x1="135.912%" y1="46.71%" x2="-106.758%" y2="56.01%" id="Q"><stop stop-color="#95B4E4" offset="0%"/><stop stop-color="#C0D9FD" offset="100%"/></linearGradient><linearGradient x1="30.505%" y1="60.316%" x2="76.994%" y2="41.045%" id="R"><stop stop-color="#D2E4FA" offset="0%"/><stop stop-color="#E7F0FF" offset="100%"/></linearGradient><linearGradient x1="50.306%" y1="35.115%" x2="26.656%" y2="-108.601%" id="S"><stop stop-color="#18176E" offset="0%"/><stop stop-color="#006994" offset="100%"/></linearGradient><linearGradient x1="143.281%" y1="47.379%" x2="-120.205%" y2="54.798%" id="T"><stop stop-color="#95B4E4" offset="0%"/><stop stop-color="#C0D9FD" offset="100%"/></linearGradient><linearGradient x1="64.83%" y1="59.907%" x2="-9.105%" y2="16.367%" id="U"><stop stop-color="#EC91A4" offset="0%"/><stop stop-color="#FFA883" offset="99.88%"/></linearGradient><linearGradient x1="77.975%" y1="58.816%" x2="-81.391%" y2="16.817%" id="V"><stop stop-color="#18176E" offset="0%"/><stop stop-color="#006994" offset="100%"/></linearGradient><linearGradient x1="85.714%" y1="53.45%" x2="-90.043%" y2="33.8%" id="W"><stop stop-color="#18176E" offset="0%"/><stop stop-color="#006994" offset="100%"/></linearGradient><linearGradient x1="100.005%" y1="50.008%" x2="-.002%" y2="50.008%" id="X"><stop stop-color="#EC91A4" offset="0%"/><stop stop-color="#FFA883" offset="99.88%"/></linearGradient><linearGradient x1="58.88%" y1="59.266%" x2="-17.603%" y2="-4.468%" id="Y"><stop stop-color="#EC91A4" offset="0%"/><stop stop-color="#FFA883" offset="99.88%"/></linearGradient><linearGradient x1="136.621%" y1="60.757%" x2="-13.944%" y2="39.18%" id="Z"><stop stop-color="#EC91A4" offset="0%"/><stop stop-color="#FFA883" offset="99.88%"/></linearGradient><linearGradient x1="134.707%" y1="46.318%" x2="-104.573%" y2="56.739%" id="aa"><stop stop-color="#95B4E4" offset="0%"/><stop stop-color="#C0D9FD" offset="100%"/></linearGradient><linearGradient x1="21.828%" y1="60.584%" x2="91.64%" y2="33.055%" id="ab"><stop stop-color="#D2E4FA" offset="0%"/><stop stop-color="#E7F0FF" offset="100%"/></linearGradient><linearGradient x1="69.135%" y1="73.07%" x2="-26.264%" y2="-40.811%" id="ac"><stop stop-color="#076391" offset="0%"/><stop stop-color="#0EF" offset="100%"/></linearGradient><linearGradient x1="34.797%" y1="68.977%" x2="63.561%" y2="34.918%" id="ad"><stop stop-color="#18176E" offset="0%"/><stop stop-color="#006994" offset="100%"/></linearGradient><linearGradient x1="35.965%" y1="60.979%" x2="73.756%" y2="31.744%" id="ae"><stop stop-color="#18176E" offset="0%"/><stop stop-color="#006994" offset="100%"/></linearGradient><linearGradient x1="73.427%" y1="70.987%" x2="10.689%" y2="16.819%" id="af"><stop stop-color="#076391" offset="0%"/><stop stop-color="#0EF" offset="100%"/></linearGradient><linearGradient x1="249.217%" y1="108.974%" x2="-49.19%" y2="21.378%" id="ag"><stop stop-color="#076391" offset="0%"/><stop stop-color="#0EF" offset="100%"/></linearGradient><linearGradient x1="-.016%" y1="50.001%" x2="100.001%" y2="50.001%" id="ah"><stop stop-color="#076391" offset="0%"/><stop stop-color="#0EF" offset="100%"/></linearGradient><linearGradient x1="197.244%" y1="50.004%" x2="-5.321%" y2="50.004%" id="ai"><stop stop-color="#076391" offset="0%"/><stop stop-color="#0EF" offset="100%"/></linearGradient><linearGradient x1="156.798%" y1="49.98%" x2="-50.563%" y2="49.98%" id="aj"><stop stop-color="#076391" offset="0%"/><stop stop-color="#0EF" offset="100%"/></linearGradient></defs><g fill-rule="nonzero" fill="none"><path d="M551.358 31.07c34.968 14.204 37.778 84.116 47.358 146.802 9.457 62.87 25.453 118.264 7.29 170.79-18.356 52.422-70.87 101.975-126.485 108.765-55.614 6.79-113.975-29.119-189.638-58.252-75.663-29.134-168.238-51.281-207.616-109.46-39.22-58.22-25.084-152.51 33.967-190 58.893-37.453 162.788-18.435 248.042-29.692C449.69 58.727 516.426 17.01 551.358 31.07z" fill="#84CEE7"/><path fill="#E7F0FF" d="M0 98.207v11.902l126.557 73.044-.01-11.623z"/><path fill="#D2E4FA" d="M254.133 98.207l.025 11.902-127.601 73.044-.01-11.623z"/><path fill="#F4F8FF" d="M.015 95.5l126.542 73.323L254.148 95.5 50.37 66.745z"/><path fill="#F4F8FF" d="M.015 95.5l126.542 73.323L254.148 95.5 127.601 22.177z"/><path fill="#A3BFEB" d="M126.557 168.823l-.01 2.707 127.586-73.323.015-2.707z"/><path fill="#C0D9FD" d="M126.557 168.823l-.01 2.707L0 98.207.015 95.5z"/><path d="M217.034 165.646c-.994.824-1.849 3.017-1.849 3.017-2.628 2.093-3.672 3.611-5.686 4.55-3.388 1.578-6.91-8.041-10.483-11.198-2.608-2.303-4.531 4.525-3.742 5.48 1.819 2.202 7.475 13.485 13.72 11.996 3.073-.734 8.31-7.771 9.144-8.106.825-.335 1.909-1.523 2.928-2.617 1.094-.764 3.233-2.353 3.098-2.977-.095-.435-.39-.315-.48-.26.15-.085.925-.554.795-.984-.2-.674-.79-.29-.98-.275.16-.11.925-.599.74-1.058-.24-.605-1.714.36-1.714.36s.68-.445.475-.935c-.305-.72-4.197 1.539-5.966 3.007z" fill="#EC91A4"/><path d="M21.61 94.52c1.349.97 6.276 5.355 4.357 6.074-1.599.6-4.852-1.733-6.536-3.121-1.404-1.16-1.878-2.253-.954-3.786.645-1.06 2.124.11 3.133.834z" fill="url(#a)" transform="translate(173.38 146.346)"/><path d="M199.086 189.706c.955 4.9 2.823 23.45 2.454 25.553-1.264 7.207-5.057 20.548-5.507 26.247-.134 1.733-4.476-.244-4.102-1.638.45-1.673-.23-15.843 1.28-23.27 1.064-5.245-5.042-29.265-2.809-32.242 1.095-1.458 8.155 2.628 8.684 5.35z" fill="#EC91A4"/><path d="M10.463 97.023c1.349.97 6.275 5.354 4.357 6.074-1.6.6-4.852-1.733-6.536-3.122-1.404-1.159-1.878-2.253-.954-3.786.644-1.064 2.123.11 3.133.834z" fill="url(#b)" transform="translate(173.38 146.346)"/><path d="M187.944 192.203c.954 4.9 2.823 23.45 2.453 25.553-1.264 7.208-5.056 20.549-5.506 26.248-.135 1.733-4.477-.245-4.102-1.639.45-1.673-.23-15.843 1.28-23.27 1.063-5.245-2.47-29.15-.236-32.126 1.09-1.449 5.581 2.512 6.111 5.234z" fill="#EC91A4"/><path d="M7.7 38.734c-1.604 3.077-1.5 22.362.52 32.291.434 2.133 7.584.77 11.586-.919.94-.4.445-11.313 1.34-11.782.894-.475 3.182 9.495 3.942 8.98 2.003-1.363 3.347-2.817 3.127-4.045-.37-2.043-2.808-25.818-2.808-25.818L7.7 38.734z" fill="url(#c)" transform="translate(173.38 146.346)"/><path d="M185.33 164.183c1.055-1.399 3.928-3.332 5.672-4.446 1.539-.979 2.583-1.968 4.567-1.863.6.03.684-.025 1.549.31 1.134.44 2.593 1.458 3.952 7.277 1.1 4.71-.41 7.752-.854 8.436-1.055 1.619-1.5 7.223-1.085 12.237.305 3.682-18.192 11.783-18.677 5.88-.914-11.134 1.64-23.541 4.877-27.831z" fill="#FFF"/><path d="M179.105 200.015c.255-1.304.065-4.286.065-4.286.74-3.386.055-5 1.909-10.648 1.719-5.24 5.776-8.986 7.365-14.545.77-2.702-3.313-5.834-4.072-4.8-5.217 7.062-7.725 13.75-8.435 16.288-.41 1.473-.374 12.751-.814 13.576-.435.809-.5 1.068-.61 2.597-.374 1.328-1.049 3.99-.55 4.385.35.275.506-.02.545-.12-.06.165-.374 1.05 0 1.299.585.39.805-.305.945-.445-.055.19-.345 1.084.09 1.319.574.31 1.124-1.423 1.124-1.423s-.255.804.22 1.043c.69.34 1.764-1.918 2.218-4.24z" fill="#EC91A4"/><path d="M13.99 4.765c.415 2.572.315 5.394-.62 6.653-.934 1.264-.659 1.973.505 3.531 1.165 1.559.54 2.558-.13 3.132-.674.574-2.753-1.264-2.293-2.882.46-1.623-1.494-1.573-1.424-2.982.065-1.408.295-1.094 1.024-3.072.73-1.978.96-4.01.96-4.01l1.978-.37z" fill="url(#d)" transform="translate(186.37 146.346)"/><path d="M197.378 156.825c-1.27 1.034-1.01 1.798.61 3.701.799.94-7.94 3.537-7.12 1.16 1.198-3.462-4.173 1.563-3.588 1.103 1.089-.85 4.232-3.411 4.412-4.19.18-.78 1.264-6.798 1.264-6.798s6.22 3.56 4.422 5.024z" fill="#EC91A4"/><path d="M192.956 151.806c0 2.587 2.438 5.684 4.626 5.684 2.189 0 3.128-3.192 3.298-5.684.175-2.583-1.774-4.686-3.962-4.686-2.189 0-3.962 2.098-3.962 4.686z" fill="#EC91A4"/><path d="M191.697 150.032c-1.295 2.812.644 5.14-4.462 10.245-1.65 1.648-.355 7.781 2.693 8.466 3.048.684 5.69-.904 5.556-3.591-.04-.845-6.79-.6-1.649-7.662 1.07-1.474.974-4.071 1.549-5.09.575-1.014 1.164 1.508 3.867 1.473 2.703-.035 2.399-1.673 2.129-2.981-.275-1.31-1.354-3.252-3.868-3.991-1.354-.4-4.566.424-5.815 3.131z" fill="#192C78"/><path fill="url(#e)" d="M66.179 129.533l33.911-19.57 36.635 18.566-34.711 21.687 5.141 2.967 24.678-14.24 5.531 3.032 83.937-48.11-58.974-33.34-101.29 66.041z" transform="translate(0 -18)"/><g><path fill="#D2E4FA" d="M67.718 110.644l-1.54.889V65.192l1.54-.89z"/><path d="M84.771 91.864a.628.628 0 0 1-.19-.03l-23.613-8.057a8.137 8.137 0 0 1-5.512-7.707V54.493a.585.585 0 0 1 1.17 0V76.07a6.974 6.974 0 0 0 4.726 6.603l23.364 7.972 10.333-5.964-10.698-13.8a8.89 8.89 0 0 1-1.858-5.43l-.01-8.296c0-.32.26-.584.58-.584.319 0 .584.26.584.579l.01 8.296c0 1.698.574 3.372 1.619 4.715l11.102 14.325a.569.569 0 0 1 .11.47.564.564 0 0 1-.28.39l-11.142 6.428a.499.499 0 0 1-.295.09z" fill="#A3BFEB"/><path fill="#F4F8FF" d="M78.61 67.055l24.188-13.96L78.61 39.133l-24.188 13.96z"/><path fill="#E7F0FF" d="M78.61 69.632l24.188-13.96v-2.578L78.61 67.054z"/><path fill="url(#f)" d="M31.143 62.64L6.955 48.678v-2.577l24.188 13.96z" transform="translate(47.467 6.993)"/><path d="M56.036 53.494a.585.585 0 0 1-.585-.585v-8.55c0-.945-.125-1.884-.364-2.793l-2.873-10.783c-.085-.31.1-.63.414-.715.31-.084.63.1.715.415l2.873 10.784c.27 1.009.405 2.048.405 3.091v8.551c0 .325-.26.585-.585.585zM77.93 41.267a.585.585 0 0 1-.584-.585v-8.55c0-.945-.125-1.884-.365-2.793l-2.873-10.783c-.085-.31.1-.63.415-.715a.58.58 0 0 1 .715.415l2.873 10.783c.27 1.01.404 2.048.404 3.092v8.551a.592.592 0 0 1-.584.585z" fill="#A3BFEB"/><path fill="#F4F8FF" d="M74.088 8.211l-1.628-.929-24.833 14.355 1.629.93z"/><path fill="#E7F0FF" d="M53.098 38l-1.629-.929-3.842-15.434 1.629.93z"/><path fill="url(#g)" d="M30.464 16.653L5.63 31.007 1.794 15.574 26.62 1.219z" transform="translate(47.467 6.993)"/><path d="M22.374 38.22c7.056-2.033 25.143-.904 29.36 0 1.474.315 4.722 3.411 2.958 7.307-3.573 7.887-23.074 20.014-30.539 23.73-1.489.74-6.186-3.97-4.921-5.04 4.057-3.42 6.21-7.172 11.292-10.668 5.411-3.731 7.714-4.77 7.714-4.77s-13.285 3.9-19.401 2.572c-1.899-.415-6.99-6.798-6.99-6.798s7.58-5.484 10.527-6.333z" fill="url(#h)" transform="translate(61.457)"/><path d="M88.773 92.068c3.728 3.517 10.688 7.647 12.616 5.584 1.49-1.593-6.85-8.326-6.85-8.326s-.99 1.414-2.178.804c-1.23-.629-3.128-2.392-3.128-2.392s-2.229 2.662-.46 4.33z" fill="#FFF"/><path d="M81.603 63.428c-1.219 1.339-1.943 1.664-3.652 2.822-.895.605 8.684 8.107 8.684 8.107s-1.48-3.511-1.984-4.24c-.5-.73 1.28-2.738 1.28-2.813.004-.08-3.349-4.954-4.328-3.876z" fill="#A8D0F5"/><path d="M5.611 46.796C10.303 60.66 30.284 61.32 30.29 66.286c.01 5.484-1.46 7.981-3.478 20.902-.28 1.809 5.701 4.021 6.3 2.877.42-.799 10.574-24.364 6.921-30.283-1.399-2.267-14.974-14.644-23.698-18.07-3.233-1.28-11.837 1.792-10.723 5.084z" fill="url(#i)" transform="translate(61.457)"/><path d="M74.053 55.881c6.096 2.398 13.286 4.061 18.483 4.076 5.196.015 8.294-1.324 8.294-1.324s.794.93 1.054 1.998c0 0-5.766 3.497-7.05 4.4-2.738 1.924-3.313 4.806-3.313 4.806s.035-4.895-1.099-5.624c-1.134-.725-8.619-3.801-10.608-4.795-1.983-1-5.76-3.537-5.76-3.537z" fill="#A8D0F5"/><path d="M80.424 64.213s-2.258.604-2.538 1.992c-.285 5.14 7.864 9.16 9.223 9.605 3.373 1.104 2.464-1.463 2.259-1.993-1.41-3.59-1.954-4.485-4.822-7.771-1.204-1.379-4.122-1.833-4.122-1.833z" fill="#FFF"/><path d="M87.114 75.81c.59.195 1.045.27 1.394.265a.42.42 0 0 0 .395-.255c.14-.334.105-.784-.105-1.413-.485-1.454-2.668-2.173-6.13-5.974-3.453-3.79-4.208-3.177-4.777-2.228-.285 5.14 7.864 9.16 9.223 9.605z" fill="#002D87"/><path d="M25.402 76.065c.515.17.925.25 1.254.265.28.015.545-.18.605-.455.07-.314.025-.709-.175-1.208-.564-1.399-2.768-2.103-6.13-5.974-3.358-3.871-4.467-3.292-4.777-2.228-1.21 4.14 7.864 9.156 9.223 9.6z" fill="url(#j)" transform="translate(61.457)"/><path d="M76.617 9.955c4.247 3.226 6.91 5.319 11.187 14.654 4.277 9.335 15.824 14.185 19.042 16.947 3.217 2.762.784 5.58-1.774 5.24-2.558-.34-2.079-4.026-3.962-5.03-1.884-1.009-9.01-2.687-12.906-7.367-3.893-4.68-14.48-16.723-14.48-16.723l2.893-7.721z" fill="#F8BFB4"/><path d="M15.16 9.955c.38.29.749.579 1.099.869 5.436 4.505 6.105 8.156 4.881 14.854-.989 5.404 3.093 12.267 3.093 12.267l-18.622 8.85s-8.294-20.647-4.147-28.784c4.147-8.136 11.537-9.695 13.695-8.056z" fill="url(#k)" transform="translate(61.457)"/><path d="M63.99 21.807c-.264 3.082-.294 9.016 4.932 12.902 2.673 1.987 5.017 6.203 7.185 7.786 0 0 7.934-2.028 6.485-3.081C70.621 30.703 63.99 21.807 63.99 21.807z" fill="#D2E4FA"/><path d="M75.003 9.55c-1.55.84.25 2.867.355 4.146.104 1.318-.505 4.97-2.399 4.045-1.893-.924-5.69-5.599-4.981-5.963 1.319-.68 4.961-7.488 4.961-7.488s4.262 4.071 2.064 5.26z" fill="#F8BFB4"/><path d="M79.51 3.092c1.798 2.402.04 6.703-3.098 7.672-3.143.969-3.363-2.677-3.633-3.981-.674-3.242 2.818-8.916 6.73-3.691z" fill="#F8BFB4"/><path d="M10.203 6.583c.22-1.339.4-3.062.864-3.92 1.23-2.248 5.262-4.301 7.27-.72.845 1.503 2.009 3.741.435 3.441 0 0-1.254-.214-3.138.265-1.884.48-2.028.86-2.828 1.384-.79.524-2.603-.45-2.603-.45z" fill="url(#l)" transform="translate(61.457)"/><path d="M74.333 7.957a.838.838 0 0 1-.794-.88l.06-1.138a.838.838 0 1 1 1.674.085l-.06 1.138a.832.832 0 0 1-.88.795z" fill="#F8BFB4"/><path d="M100.89 98.002c-1.284.34-5.596-1.778-7.265-2.842-1.669-1.064-5.262-3.611-5.521-4.89-.05.62.1 1.264.67 1.798 3.452 3.257 9.687 7.043 12.116 5.934zM92.87 92.623a.252.252 0 0 1-.15-.055.228.228 0 0 1-.025-.32c.745-.864 2.324-2.038 3.518-1.758.125.03.2.15.17.27-.03.12-.15.19-.27.17-1.01-.24-2.428.864-3.078 1.613-.035.05-.1.08-.165.08z" fill="#002D87"/><path d="M93.805 93.307a.252.252 0 0 1-.15-.055.228.228 0 0 1-.025-.32c.744-.859 2.298-2.047 3.517-1.758.125.03.2.15.17.27a.238.238 0 0 1-.27.17c-1.009-.245-2.428.864-3.077 1.613a.203.203 0 0 1-.165.08z" fill="#002D87"/><path d="M94.734 93.996a.252.252 0 0 1-.15-.055.228.228 0 0 1-.025-.32c.81-.938 2.184-1.927 3.353-1.663.125.03.2.15.17.27-.03.12-.15.19-.27.17-.92-.215-2.124.61-2.908 1.518a.206.206 0 0 1-.17.08zM95.668 94.68a.252.252 0 0 1-.15-.054.228.228 0 0 1-.025-.32c.805-.93 2.099-1.818 3.253-1.553.125.03.2.15.17.27-.03.12-.155.184-.27.17-.999-.236-2.093.579-2.808 1.408a.22.22 0 0 1-.17.08zM88.903 72.349a.226.226 0 0 1-.205-.13c-.225-.494-.424-.924-.624-.994-.025-.01-.115-.045-.335.07a.23.23 0 0 1-.305-.1.231.231 0 0 1 .1-.304c.26-.135.485-.165.685-.09.384.134.594.594.884 1.233a.23.23 0 0 1-.11.3.283.283 0 0 1-.09.015z" fill="#002D87"/><path d="M88.274 71.2a.226.226 0 0 1-.205-.13c-.225-.494-.425-.924-.625-.994-.03-.01-.12-.04-.335.07a.226.226 0 0 1-.304-.1.23.23 0 0 1 .1-.304c.264-.13.49-.16.689-.09.385.135.595.594.884 1.234a.23.23 0 0 1-.11.3.34.34 0 0 1-.094.014z" fill="#002D87"/><path d="M87.639 70.046a.231.231 0 0 1-.205-.13c-.225-.494-.425-.923-.624-.993-.03-.01-.115-.04-.335.07a.226.226 0 0 1-.305-.1.23.23 0 0 1 .1-.305c.26-.13.485-.16.684-.09.385.135.595.594.89 1.234a.23.23 0 0 1-.11.3.291.291 0 0 1-.095.014z" fill="#002D87"/><path d="M87.004 68.968a.215.215 0 0 1-.19-.105c-.29-.465-.544-.864-.749-.904-.03-.01-.125-.025-.325.11a.227.227 0 0 1-.255-.375c.24-.165.46-.22.67-.18.4.08.67.515 1.044 1.109a.225.225 0 0 1-.195.345z" fill="#002D87"/><path fill="#FFF" d="M193.01 85.63l-5.14-2.967V36.327l5.14 2.967zM66.179 111.533l-5.142-2.967V62.225l5.142 2.967z"/><path fill="#D2E4FA" d="M67.718 110.644l-1.54.889V65.192l1.54-.89zM194.555 84.741l-1.544.89V39.293l1.544-.894z"/><path fill="#D2E4FA" d="M194.555 84.741l-1.544.89V39.293l1.544-.894z"/><g><path fill="#F4F8FF" d="M107.155 86.864L61.037 60.247l87.4-50.442 46.118 26.617z"/><path fill="#84E6F4" d="M121.056 72.863l-23.114-13.34 43.8-25.279 23.113 13.341z"/><path fill="url(#m)" d="M46.198 79.352L.08 52.735v-1.978l46.118 26.617z" transform="translate(60.958 9.49)"/><path fill="#C0D9FD" d="M107.155 88.842L61.037 62.225v-1.978l46.118 26.617z"/><path fill="url(#n)" d="M46.198 79.352l87.394-50.437v-1.978L46.198 77.374z" transform="translate(60.958 9.49)"/><path fill="#A3BFEB" d="M107.155 88.842l87.395-50.437v-1.978l-87.395 50.437z"/></g><path fill="#FFF" d="M107.155 135.183l-5.141-2.967V85.875l5.141 2.967z"/><g><path d="M137.76 25.533l5.086 14.41c.17.49-.035 1.034-.485 1.294l-17.448 9.984s-.56-.115-.784-.814l-4.702-13.546c-.17-.49.035-1.034.484-1.293l16.754-9.65c.64-.37 1.094-.385 1.094-.385z" fill="#0072A8"/><path d="M138.329 25.853l4.891 14.095c.17.49-.035 1.034-.484 1.294l-17.328 9.98a.496.496 0 0 1-.715-.266l-4.891-14.095c-.17-.49.035-1.034.484-1.293l17.328-9.985a.498.498 0 0 1 .715.27z" fill="#192C78"/><path d="M137.644 27.112l4.397 12.681a.975.975 0 0 1-.435 1.164l-15.594 8.98a.445.445 0 0 1-.644-.24l-4.397-12.68a.975.975 0 0 1 .434-1.165l15.6-8.98c.24-.14.55-.025.64.24z" fill="#FFF"/><path d="M144.19 41.866l12.626 6.948s.26.749-.885 1.408l-16.568 9.545c-.42.24-.934.24-1.354 0l-11.877-6.838c-1.02-.584-.75-1.363-.75-1.363l17.454-9.695c.42-.245.934-.245 1.354-.005z" fill="#0072A8"/><path d="M144.19 41.182l12.381 7.132c.33.19.33.665 0 .854l-17.203 9.91c-.42.24-.934.24-1.354 0l-12.381-7.133a.492.492 0 0 1 0-.854l17.203-9.91c.42-.239.934-.239 1.354 0z" fill="#192C78"/><path d="M145.674 49.033l4.387 2.528a.16.16 0 0 1 0 .28l-5.826 3.356a.433.433 0 0 1-.44 0l-4.387-2.527a.16.16 0 0 1 0-.28l5.826-3.357c.135-.08.3-.08.44 0zM128 51.91l4.323 2.488c.415.24.924.24 1.339 0l14.92-8.576a.357.357 0 0 0 0-.62l-4.322-2.487a1.336 1.336 0 0 0-1.34 0L128 51.291a.357.357 0 0 0 0 .62z" fill="#00B7D8"/></g><path fill="#D2E4FA" d="M108.7 134.294l-1.545.889V88.842l1.544-.89z"/><path fill="#D2E4FA" d="M108.7 134.294l-1.545.889V88.842l1.544-.89z"/><g><path d="M148.362 108.311s.065 2.997-1.15 3.502c-2.483 1.028-5.46-2.038-7.444-5.5-2.324-4.055 1.264-4.33 3.922-1.928 4.092 3.696 4.672 3.926 4.672 3.926z" fill="#EEF5F7"/><path d="M148.362 107.502s.304 2.997-.91 3.501c-2.483 1.03-5.696-2.037-7.68-5.499-2.323-4.056 1.265-4.33 3.923-1.928 4.087 3.701 4.667 3.926 4.667 3.926z" fill="#192C78"/><path d="M30.229 42.695c-.715 4.89.04 14.155-.645 19.7-.274 2.202-4.796.619-5.48-1.859-1.595-5.764-4.822-22.091-.925-26.362 4.082-4.475 18.167 1.783 18.167 1.783s-.76 3.037-.674 5.634c.254 8.012-9.464-5.584-10.443 1.104z" fill="url(#o)" transform="translate(118.917 45.452)"/><path d="M159.204 132.286c-.515 0-.994-.26-1.279-.714l-13.246-16.523c-.2-.25-.16-.62.09-.819.25-.2.615-.16.82.09l13.27 16.553a.65.65 0 0 1 .05.074c.12.21.315.185.395.165a.33.33 0 0 0 .26-.34v-23.984a.585.585 0 0 1 1.17 0v23.985c0 .694-.45 1.283-1.125 1.463-.14.03-.275.05-.405.05z" fill="#A3BFEB"/><path d="M178.69 120.244c-.494 0-.989-.08-1.473-.24l-24.638-8.206-7.2 3.411a.579.579 0 0 1-.775-.275.578.578 0 0 1 .275-.774l7.41-3.511a.57.57 0 0 1 .435-.025l24.857 8.281a3.425 3.425 0 0 0 3.118-.474 3.413 3.413 0 0 0 1.434-2.802v-18.66a.585.585 0 0 1 1.17 0v18.66c0 1.503-.7 2.872-1.92 3.75a4.645 4.645 0 0 1-2.692.865z" fill="#A3BFEB"/><path fill="#FFF" d="M160.148 108.976l-24.188-13.96 24.188-13.961 24.189 13.96z"/><path fill="#E7F0FF" d="M160.148 111.553l-24.188-13.96v-2.578l24.188 13.96z"/><path fill="url(#p)" d="M41.231 66.1L65.42 52.14v-2.577l-24.188 13.96z" transform="translate(118.917 45.452)"/><path d="M182.718 95.415a.585.585 0 0 1-.585-.585v-8.55c0-1.045.135-2.083.405-3.092l2.873-10.784c.085-.31.4-.495.714-.415.31.085.495.4.415.715l-2.873 10.783a10.734 10.734 0 0 0-.365 2.792v8.551c0 .325-.26.585-.584.585z" fill="#A3BFEB"/><path d="M151.415 53.868c4.112 2.113 5.176 2.498 9.413 5.3 4.602 3.047 2.044 12.517 7.105 15.314 2.458 1.358 6.286-1.299 6.516-2.558 1.019-5.699-7.35-15.358-9.659-16.617-1.339-.734-11.472-4.97-12.321-5.35-2.708-1.213-3.078 2.873-1.054 3.911z" fill="#FF9D94"/><path d="M145.029 48.37c-.1-.17-.89-.37-.375-.85.33-.31 1.12.195 1.264.295-.09-.065-.34-.28.005-.56.5-.4 3.228-.1 4.437.565 1.44.444 1.404 1.528 2.069 2.108-1.749.794-3.068 2.432-1.01 3.94 0 0-2.448-1.523-3.657-2.067-2.158-.97-4.617-1.484-4.122-2.078.34-.405 1.29-.25 1.29-.25s-1.79-.654-1.36-1.144c.32-.37 1.284-.06 1.459.04z" fill="#EC91A4"/><path d="M140.087 120.988s.31 2.377-.35 3.007c-1.983 1.883-5.21-.425-9.203-3.272-3.647-2.602-1.849-3.87 2.443-2.602 5.292 1.568 7.11 2.867 7.11 2.867z" fill="#EEF5F7"/><path d="M140.087 120.284s.31 2.377-.35 3.006c-1.983 1.884-5.21-.424-9.203-3.271-3.647-2.602-1.849-3.871 2.443-2.602 5.292 1.568 7.11 2.867 7.11 2.867z" fill="#192C78"/><path d="M51.53 47.1c-2.24 12.053-27.252-.27-29.46 5.48-2.164 5.634.344 17.292-.825 22.7-.444 2.064-5.58-.359-5.896-2.107-.594-3.321-3.212-25.643-1.034-29.284 4.552-7.612 20.746-1.164 25.217-7.952 1.764-2.677 12.582 8.012 11.997 11.164z" fill="url(#q)" transform="translate(118.917 45.452)"/><path d="M53.143 44.838c-.754 7.747-6.46 8.995-13.875 8.236-7.415-.754-13.88-2.187-15.98-1.683-2.098.504-11.146-3.996-8.978-7.502 2.169-3.506 5.531-3.98 10.748-4.206 5.216-.224 11.287-1.218 14.474-3.746 3.183-2.527 13.611 8.9 13.611 8.9z" fill="url(#r)" transform="translate(118.917 45.452)"/><path d="M172.445 63.818c2.593 6.728 9.169 13.77-.065 27.151-1.2 1.739-3.343-.29-4.167-1.318-1.829-2.288 2.613-2.657 1.04-6.249-2.704-6.153-2.244-11.797-2.624-12.636-.605-1.329-4.297-10.71-4.297-10.71s1.529-.089 4.907-2.591c2.243-1.664 4.466 4.435 5.206 6.353z" fill="#FF9D94"/><path d="M167.084 55.961c2.863 1.274 3.712 1.873 5.34 10.514.855 4.52 3.908 8.966 1.055 23.72-.77 3.971-22.054 5.335-20.95-1.318.9-5.405 2.048-6.034 1.564-11.878-.49-5.904-2.793-8.786-1.234-13.476.594-1.798 3.122-4.765 5.166-5.459 2.358-.8 7.36-2.857 9.059-2.103z" fill="#FF9D94"/><path d="M154.048 61.41c3.342 1.284 5.796 2.818 5.141 8.132-.41 3.311 2.164 4.72-.84 9.915-3.007 5.194-5.815 9.42-5.815 9.42s1.714-4.3 1.674-10c-.035-4.21-1.79-10.749-1.79-10.749l1.63-6.718z" fill="#D2E4FA"/><path d="M158.025 55.247s1.514 2.033 0 2.822c4.357.33 6.83-2.138 6.83-2.138-1.164.025-1.948-2.412-4.152-6.108-1.06-1.778-2.678 5.424-2.678 5.424z" fill="#EC91A4"/><path d="M160.818 50.402c.29 2.213-1.444 5.135-3.318 5.384-1.873.245-3.038-2.377-3.462-4.49-.44-2.188.989-4.205 2.863-4.455 1.873-.25 3.627 1.348 3.917 3.561z" fill="#EC91A4"/><path d="M161.862 51.87c-1.384.015-2.513 1.619-2.958 1.629-.44.01-1.788-.52-3.112-1.419-1.325-.899-1.035-1.233-2.644-1.813-1.614-.58-1.564-1.243-1.564-1.243s1.17-.8 1.784-1.344c1.55-1.369 2.478-1.553 4.237-1.773 3.243-.405 4.257 3.346 4.257 5.964z" fill="#192C78"/><path d="M155.916 53.539a.673.673 0 0 1-.504-.804l.205-.894a.673.673 0 0 1 .804-.505c.36.085.59.445.505.804l-.205.894a.672.672 0 0 1-.805.505z" fill="#EC91A4"/><path d="M128.575 60.032c4.732 1.264 4.622 1.918 10.548 2.437 5.496.485 14.19-1.059 16.274-2.502 2.313-1.598 3.258 8.116 2.008 8.411-8.549 2.008-14.89.37-17.497.02-1.514-.2-11.892-4.405-12.802-4.6-2.897-.614-.734-4.355 1.47-3.766z" fill="#FF9D94"/><path d="M120.141 60.456c-.18.075-.909.005-.78.695.086.444 1.02.504 1.195.51-.11 0-.44.024-.325.454.165.614 2.878 1.044 4.247 1.223 1.424.49 1.704.54 2.579.465-.94-1.673-1.035-3.776 1.518-3.776 0 0-2.668-1.354-3.967-1.628-2.313-.495-4.811-.4-4.761.374.035.53.869.615.869.615s-1.809-.18-1.754.47c.045.494.98.574 1.18.598z" fill="#EC91A4"/><path d="M160.148 108.131a.585.585 0 0 1-.584-.584v-8.551c0-1.044.135-2.083.405-3.092l2.873-10.783c.085-.31.4-.495.714-.415.31.085.495.4.415.714l-2.873 10.784a10.734 10.734 0 0 0-.365 2.792v8.551a.588.588 0 0 1-.585.584z" fill="#A3BFEB"/><g><path fill="#FFF" d="M166.664 75.78l-2.308-1.288 24.188-13.96 2.308 1.288z"/><path fill="#E7F0FF" d="M162.457 91.844l-2.309-1.29 4.208-16.062 2.308 1.288z"/><path fill="url(#s)" d="M2.568 31.407l24.188-13.96 4.207-16.063-24.188 13.96z" transform="translate(159.889 60.437)"/></g><path d="M147.582 51.55c-1.868.34-2.813 1.255-1.324 1.42 1.484.164 2.638-.69 4.147-.24l-2.823-1.18z" fill="#EC91A4"/></g><path d="M66.214 20.189c4.767 1.918 3.562 15.139 7.475 18.59 3.912 3.452 12.64 8.207 15.26 8.641 2.617.435 6.45-1.958 6.784 2.118.335 4.076-6.235 3.811-9.183 2.328-2.948-1.479-14.43-4.81-18.352-9.835C64.27 37 62.007 28.365 62.71 24.474c.705-3.89 1.794-4.974 3.503-4.285z" fill="#F8BFB4"/><path d="M92.965 47.125c.195-.024 5.966-2.092 6.041-.978.045.644-.954.874-.954.874s2.153-.5 2.188.29c.025.599-1.089.848-1.324.908.23.06 1.094-.135 1.05.715-.036.604-1.405.814-1.405.814s.595-.15.505.49c-.14 1.028-5.856 2.377-5.856 2.377l-.924-4.53c.005.004.05-.875.68-.96zM89.767 47.47c1.31-.55 3.283-2.682 4.123-3.057.839-.374.984-.15.984-.15l-2.448 3.162-2.659.045z" fill="#F8BFB4"/><g><path d="M216.164 344.403l5.087 14.41c.17.49-.035 1.034-.485 1.294l-17.453 9.98s-.56-.116-.784-.815l-4.702-13.546c-.17-.49.035-1.034.485-1.293l16.753-9.65c.645-.365 1.1-.38 1.1-.38z" fill="#0072A8"/><path d="M216.734 344.723l4.892 14.095c.17.49-.035 1.034-.485 1.294l-17.328 9.98a.496.496 0 0 1-.714-.265l-4.892-14.096c-.17-.49.035-1.034.485-1.293l17.328-9.98a.49.49 0 0 1 .714.265z" fill="#192C78"/><path d="M216.05 345.982l4.396 12.681a.975.975 0 0 1-.434 1.164l-15.594 8.98a.445.445 0 0 1-.645-.24l-4.397-12.68a.975.975 0 0 1 .435-1.165l15.594-8.98a.445.445 0 0 1 .645.24z" fill="#FFF"/><path d="M222.595 360.736l12.626 6.948s.26.749-.884 1.408l-16.569 9.545c-.42.24-.934.24-1.354 0l-11.876-6.838c-1.02-.584-.75-1.363-.75-1.363l17.453-9.695a1.352 1.352 0 0 1 1.354-.005z" fill="#0072A8"/><path d="M222.595 360.052l12.381 7.132c.33.19.33.665 0 .854l-17.203 9.91c-.42.24-.934.24-1.354 0l-12.381-7.133a.492.492 0 0 1 0-.854l17.203-9.91c.415-.239.934-.239 1.354 0z" fill="#192C78"/><path d="M224.074 367.904l4.387 2.527a.16.16 0 0 1 0 .28l-5.826 3.356a.433.433 0 0 1-.44 0l-4.387-2.527a.16.16 0 0 1 0-.28l5.826-3.356a.433.433 0 0 1 .44 0zM206.401 370.776l4.322 2.487c.415.24.925.24 1.34 0l14.919-8.576a.357.357 0 0 0 0-.62l-4.322-2.487a1.336 1.336 0 0 0-1.34 0l-14.919 8.576a.357.357 0 0 0 0 .62z" fill="#00B7D8"/></g></g><g><path fill="#84E6F4" d="M551.086 116.927l45.149-25.778.205-43.749-45.149 25.778z"/><g fill="#192C78"><path d="M591.903 59.952l-.01 2.143-31.863 18.32.01-2.142zM558.096 79.387l-.01 2.142-2.463 1.404.01-2.143zM591.903 71.725l-.01 2.142-10.803 6.169.01-2.143zM579.461 78.852l-.01 2.143L555.623 94.6l.01-2.143zM566.44 97.632l-.01 2.143-10.807 6.169.01-2.143z"/></g><path fill="#84E6F4" d="M559.395 112.182l-8.354 14.86.045-10.115z"/></g><g><path d="M559.569 211.608a.456.456 0 0 1-.24-.065l-9.154-5.284a.47.47 0 0 1-.23-.32.482.482 0 0 1 .09-.385l9.124-11.772a6.393 6.393 0 0 0 1.33-3.876l.01-6.818a.48.48 0 0 1 .96 0l-.011 6.818a7.312 7.312 0 0 1-1.53 4.46l-8.788 11.338 8.494 4.9 19.201-6.553a5.731 5.731 0 0 0 3.883-5.424v-17.732a.48.48 0 0 1 .959 0v17.732a6.689 6.689 0 0 1-4.532 6.333l-19.406 6.623a.624.624 0 0 1-.16.025z" fill="#A3BFEB"/><path fill="#F4F8FF" d="M564.63 191.22l-19.876-11.469 19.876-11.472 19.876 11.472z"/><path fill="#E7F0FF" d="M564.63 193.337l-19.876-11.468v-2.118l19.876 11.468z"/><path fill="#C0D9FD" d="M564.63 193.337l19.876-11.468v-2.118L564.63 191.22z"/><path d="M583.182 180.081a.48.48 0 0 1-.48-.48v-7.022c0-.854.11-1.708.335-2.542l2.364-8.861a.478.478 0 1 1 .924.245l-2.363 8.86c-.2.75-.3 1.524-.3 2.293v7.023a.484.484 0 0 1-.48.484zM565.19 170.027a.48.48 0 0 1-.48-.48v-7.022c0-.86.11-1.714.335-2.543l2.363-8.86a.478.478 0 1 1 .924.245l-2.363 8.86c-.2.75-.3 1.518-.3 2.293v7.022a.478.478 0 0 1-.48.485z" fill="#A3BFEB"/><path fill="#F4F8FF" d="M568.348 142.87l1.339-.764 20.406 11.793-1.345.764z"/><path fill="#C0D9FD" d="M585.596 167.345l1.339-.76 3.158-12.686-1.345.764z"/><path fill="#E7F0FF" d="M565.19 155.552l20.406 11.793 3.152-12.682-20.4-11.793z"/></g><g><path d="M528.222 218.718c-4.996 1.138-13.09 1.173-13.705-1.584-.475-2.127 10.128-3.7 10.128-3.7s.135 1.722 1.469 1.797c1.379.08 3.907-.474 3.907-.474s.57 3.421-1.799 3.96z" fill="#FFF"/><path d="M514.772 217.689c.934.944 5.726 1.308 7.704 1.233 1.979-.075 6.366-.444 7.24-1.418-.27.564-.724 1.039-1.489 1.214-4.637 1.058-11.932 1.158-13.455-1.03zM524.41 217.114c.045.025.1.04.155.025.12-.02.205-.14.18-.264-.205-1.12-.97-2.932-2.139-3.297a.227.227 0 0 0-.285.15c-.035.12.03.24.145.285.99.304 1.654 1.972 1.834 2.946.01.07.055.125.11.155z" fill="#192C78"/><path d="M523.256 217.234c.045.025.1.04.155.025a.227.227 0 0 0 .18-.265c-.205-1.118-.94-2.932-2.14-3.296a.227.227 0 0 0-.284.15c-.035.12.04.244.145.284.994.3 1.654 1.978 1.834 2.952.015.065.055.12.11.15z" fill="#192C78"/><path d="M522.106 217.354c.045.025.1.04.155.025.12-.02.205-.14.18-.265-.22-1.218-.904-2.772-2.043-3.131a.227.227 0 0 0-.285.15.24.24 0 0 0 .145.284c.9.28 1.524 1.598 1.738 2.782.01.07.055.125.11.155zM520.952 217.474c.045.025.1.04.155.025.12-.02.205-.14.18-.265-.22-1.209-.884-2.627-2.014-2.987a.227.227 0 0 0-.284.15c-.035.12.04.24.144.285.985.305 1.51 1.563 1.71 2.637.014.07.054.125.11.155z" fill="#192C78"/><path d="M61.332 47.02C50.255 56.59 28.12 59.748 25.597 64.024c-2.788 4.725-3.787 12.207-8.604 24.37-.674 1.702-6.955.574-6.89-.715.045-.904 4.247-30.953 10.398-34.2 2.358-1.243 24.917-17.746 34.176-16.277 3.428.544 9.283 7.547 6.655 9.82z" fill="url(#t)" transform="translate(514.142 126.375)"/><path d="M558.696 219.142c-3.727 3.516-10.688 7.647-12.616 5.584-1.49-1.593 6.85-8.326 6.85-8.326s.99 1.414 2.178.804c1.23-.63 3.128-2.392 3.128-2.392s2.229 2.662.46 4.33z" fill="#FFF"/><path d="M66.254 47.495C61.562 61.361 41.58 62.02 41.576 66.985c-.01 5.484 1.459 7.981 3.478 20.903.28 1.808-5.701 4.02-6.301 2.877-.42-.8-10.573-24.365-6.92-30.284 1.399-2.267 14.974-14.644 23.698-18.07 3.238-1.28 11.837 1.793 10.723 5.084z" fill="url(#u)" transform="translate(514.142 126.375)"/><path d="M570.852 137.028c-4.247 3.227-6.91 5.32-11.187 14.655-4.277 9.335-15.824 14.185-19.041 16.947-3.218 2.762-.785 5.58 1.773 5.24 2.559-.34 2.079-4.026 3.963-5.03 1.883-1.009 9.008-2.687 12.906-7.367 3.892-4.68 14.48-16.723 14.48-16.723l-2.894-7.722z" fill="#F8BFB4"/><path d="M56.71 10.654c-.384.29-.749.58-1.099.869-5.436 4.505-6.105 8.156-4.881 14.854.989 5.405-3.098 12.267-3.098 12.267l18.622 8.851S74.548 26.847 70.4 18.71c-4.147-8.136-11.537-9.694-13.69-8.056z" fill="url(#v)" transform="translate(514.142 126.375)"/><path d="M572.461 136.624c1.55.839-.25 2.867-.354 4.145-.105 1.32.504 4.97 2.398 4.046 1.894-.924 5.691-5.599 4.981-5.963-1.319-.68-4.961-7.488-4.961-7.488s-4.257 4.071-2.064 5.26z" fill="#F8BFB4"/><path d="M567.954 130.16c-1.798 2.403-.04 6.704 3.098 7.673 3.143.969 3.363-2.678 3.633-3.981.68-3.237-2.818-8.91-6.73-3.691z" fill="#F8BFB4"/><path d="M546.58 225.07c1.283.34 5.595-1.777 7.264-2.841 1.67-1.064 5.262-3.611 5.521-4.89.05.62-.1 1.264-.67 1.798-3.457 3.262-9.692 7.048-12.116 5.934zM554.594 219.692c.05 0 .105-.02.15-.055a.228.228 0 0 0 .025-.32c-.745-.864-2.324-2.038-3.518-1.758-.125.03-.2.15-.17.27.03.12.15.19.27.17 1.01-.24 2.428.863 3.078 1.613.04.055.105.08.165.08z" fill="#192C78"/><path d="M553.664 220.38c.05 0 .105-.02.15-.054a.228.228 0 0 0 .025-.32c-.744-.859-2.298-2.048-3.517-1.758-.125.03-.2.15-.17.27.03.12.155.19.27.17 1.009-.245 2.428.864 3.078 1.613.035.055.1.08.164.08z" fill="#192C78"/><path d="M552.73 221.07c.05 0 .105-.02.15-.055a.228.228 0 0 0 .025-.32c-.81-.938-2.184-1.927-3.353-1.663-.125.03-.2.15-.17.27.03.12.15.19.27.17.92-.215 2.124.61 2.908 1.518.045.05.11.08.17.08zM551.8 221.754c.05 0 .106-.02.15-.055a.228.228 0 0 0 .026-.32c-.805-.928-2.099-1.817-3.253-1.553-.125.03-.2.15-.17.27.03.12.155.185.27.17 1-.235 2.093.58 2.808 1.409.04.054.105.08.17.08z" fill="#192C78"/><path d="M539.48 169.934c-.06.185-3.143 5.484-2.064 5.759.624.16 1.034-.78 1.034-.78s-.884 2.028-.11 2.203c.585.135 1.034-.919 1.134-1.134.02.24-.334 1.054.515 1.16.6.08 1.054-1.23 1.054-1.23s-.255.555.39.59c1.04.05 3.403-5.32 3.403-5.32l-4.287-1.733c.005-.005-.87-.12-1.07.485z" fill="#F8BFB4"/><path d="M545.565 169.574c-.02 2.917.92 2.907.3 3.716-.615.814-1.879-1.858-1.879-1.858l1.58-1.858z" fill="#F8BFB4"/><path d="M567.405 133.777c2.923-1.064 3.722-.744 4.427-.744.704 0 1.114 1.668 1.908 1.668.795 0 1.964-.47 1.964-1.199 0-.73-1.529-4.265-1.964-5.454-.434-1.194-3.017-1.653-4.222-1.219-1.204.44-3.567 5.025-5.4 5.3 0-.005 2.218 2.037 3.287 1.648z" fill="#192C78"/><path d="M572.331 134.436a.838.838 0 0 0 .795-.879l-.06-1.139a.838.838 0 0 0-1.674.085l.06 1.139c.02.464.415.82.88.794z" fill="#F8BFB4"/><path d="M543.821 165.703l-12.626 6.948s-.26.75.884 1.409l16.569 9.544c.42.24.934.24 1.354 0l11.877-6.837c1.019-.585.75-1.364.75-1.364l-17.454-9.695a1.352 1.352 0 0 0-1.354-.005z" fill="#0072A8"/><path d="M543.821 165.019l-12.381 7.133a.492.492 0 0 0 0 .854l17.203 9.91c.42.239.934.239 1.354 0l12.381-7.133a.492.492 0 0 0 0-.854l-17.203-9.91c-.42-.24-.934-.24-1.354 0z" fill="#192C78"/><path d="M542.337 172.87l-4.387 2.528a.16.16 0 0 0 0 .28l5.826 3.356c.135.08.305.08.44 0l4.387-2.527a.16.16 0 0 0 0-.28l-5.826-3.356a.433.433 0 0 0-.44 0zM560.01 175.743l-4.322 2.487c-.415.24-.924.24-1.339 0l-14.92-8.576a.357.357 0 0 1 0-.62l4.322-2.487c.415-.24.925-.24 1.34 0l14.919 8.576c.24.14.24.485 0 .62z" fill="#00B7D8"/><path d="M560.355 175.773c-.195.015-6.276-.79-6.111.32.095.639 1.12.654 1.12.654s-2.214-.035-2.08.744c.1.594 1.245.6 1.485.61-.215.11-1.1.1-.875.918.16.585 1.544.5 1.544.5s-.61-.02-.39.584c.35.98 6.226 1.089 6.226 1.089l-.05-4.62c-.005 0-.235-.85-.87-.8zM563.558 175.438c-1.394-.26-3.773-1.928-4.677-2.118-.9-.19-.995.065-.995.065l3.058 2.573 2.614-.52z" fill="#F8BFB4"/><path d="M580.82 143.801c-4.252 2.882-.29 15.549-3.382 19.745-3.098 4.195-10.628 10.683-13.091 11.662-2.463.98-6.72-.554-6.186 3.502.535 4.05 6.9 2.407 9.469.34 2.568-2.069 13.09-7.743 15.864-13.487 2.773-5.744 3.167-14.66 1.659-18.315-1.51-3.651-2.804-4.48-4.332-3.447zM544.41 164.455c-.094.17-3.322 4.665-2.308 5.13.585.269 1.16-.58 1.16-.58s-1.234 1.838-.505 2.148c.555.234 1.18-.72 1.32-.914-.026.24-.516.974.299 1.233.58.185 1.259-1.024 1.259-1.024s-.35.5.28.65c1.014.234 4.297-4.63 4.297-4.63l-2.713-2.318c-.005-.005-2.783-.255-3.088.305z" fill="#F8BFB4"/><path d="M524.85 158.361l5.71 13.945c.315.77.87 1.519 1.32 1.778l16.868 9.715c.425.245.96.035.774-.424l-5.88-13.85c-.315-.77-.87-1.52-1.32-1.779l-17.058-9.825c-.275-.16-.604-.025-.414.44z" fill="#0072A8"/><path d="M524.615 158.496l5.71 13.945c.315.774.87 1.519 1.32 1.778l16.868 9.715c.425.245.96.035.774-.424l-5.88-13.85c-.315-.77-.87-1.52-1.32-1.779l-17.058-9.825c-.274-.155-.604-.02-.414.44z" fill="#192C78"/></g><g><path fill="url(#w)" d="M67.768 127.276h13.515l128.371-74.092-68.677-39.748-92.171 53.199z" transform="translate(508.146 286.699)"/><path fill="#E7F0FF" d="M508.47 363.039v11.902l67.444 39.034-.015-11.618z"/><path fill="#D2E4FA" d="M703.49 329.03l.025 11.902-127.601 73.043-.015-11.618z"/><path fill="#F4F8FF" d="M508.48 360.332l67.434 39.318L703.5 326.322l-144.66 5.255z"/><path fill="#F4F8FF" d="M508.48 360.332l67.434 39.318L703.5 326.322l-67.433-39.318z"/><path fill="#A3BFEB" d="M575.914 399.65l-.015 2.707L703.49 329.03l.01-2.707z"/><path fill="#C0D9FD" d="M575.914 399.65l-.015 2.707-67.428-39.318.01-2.707z"/></g><path fill="url(#x)" d="M242.381 493.745h13.516l64.78-37.39-127.791-73.753-28.58 16.493z" transform="translate(0 -18)"/><path fill="#E7F0FF" d="M115.82 390.8v11.902l126.561 73.043-.015-11.623z"/><path fill="#D2E4FA" d="M306.147 427.471l.025 11.902-63.79 36.372-.016-11.623z"/><g><path fill="#F4F8FF" d="M115.834 388.092l126.547 73.323 63.78-36.651-176.881-44.588z"/><path fill="#F4F8FF" d="M115.834 388.092l126.547 73.323 63.78-36.651-126.546-73.328z"/><path fill="#A3BFEB" d="M242.381 461.415l-.015 2.707 63.78-36.651.016-2.707z"/><path fill="#C0D9FD" d="M242.381 461.415l-.015 2.707L115.82 390.8l.015-2.707z"/></g><g><path fill="#84E6F4" d="M148.317 293.617l-44.904-26.193.205-43.749 44.904 26.193z"/><g fill="#192C78"><path d="M108.285 237.84l-.01 2.143 31.643 18.33.01-2.142zM141.861 257.3l-.01 2.142 2.449 1.429.01-2.143zM108.235 248.284l-.01 2.143 10.747 6.273.01-2.142zM120.611 255.532l-.01 2.142L144.3 271.5l.01-2.143zM108.235 259.308l-.01 2.142 10.747 6.274.01-2.143z"/></g><path fill="#84E6F4" d="M140.057 288.802l8.215 14.934.045-10.12z"/></g><g><path d="M359.675 194.181c-82.173 0-148.787 35.683-148.787 79.696v24.05c0 44.014 66.614 79.696 148.787 79.696 17.992 0 35.24-1.713 51.204-4.845 0-3.231-.745-6.278-2.054-8.99l.01.005-.04-.07a21.254 21.254 0 0 0-1.723-2.912l-7.18-12.117a20.515 20.515 0 0 0-2.154-3.631l-.015-.025h-.005c-4.102-5.53-10.882-8.916-18.312-8.272-6.426.56-13.016.85-19.731.85-60.019 0-109.944-23.151-120.362-53.69 10.418-30.537 60.343-53.688 120.362-53.688 60.387 0 110.553 23.43 120.546 54.248-2.149 6.628-6.156 12.917-11.727 18.706a47.284 47.284 0 0 0-13.211 32.79v.704l20.65 10.969c20.356-13.636 32.528-30.923 32.528-49.738v-24.045c0-44.008-66.614-79.691-148.786-79.691z" fill="#F4F8FF"/><path d="M475.934 346.511v1.154c20.355-13.636 32.527-30.923 32.527-49.738v-22.591c0 14.11-6.845 27.366-18.857 38.859-8.799 8.421-13.67 20.139-13.67 32.316z" fill="#A3BFEB"/><path d="M.035.255v23.96c0 44.013 66.614 79.696 148.786 79.696 17.993 0 35.24-1.713 51.205-4.845 0-12.227-10.568-21.832-22.734-20.568a276.677 276.677 0 0 1-28.47 1.458C66.648 79.956.034 44.273.034.255z" fill="url(#y)" transform="translate(210.853 273.712)"/><path d="M148.821 106.069c-67.578 0-122.36 29.344-122.36 65.54v.076c0 4.045.69 8.011 2 11.852C38.877 153 88.802 129.85 148.82 129.85c60.388 0 110.553 23.43 120.546 54.248 1.19-3.667 1.814-7.443 1.814-11.294v-1.198c0-36.192-54.782-65.536-122.36-65.536z" fill="url(#z)" transform="translate(210.853 100.395)"/><path d="M148.821.13C74.098.13 13.526 32.576 13.526 72.604v94.785c0-40.028 60.572-72.474 135.295-72.474 74.723 0 135.296 32.446 135.296 72.474V72.604C284.122 32.58 223.544.13 148.821.13z" fill="url(#A)" transform="translate(210.853 100.395)"/><path d="M168.163 144.418a252.9 252.9 0 0 1-19.337.74c-74.723 0-135.295-32.446-135.295-72.474v94.705c0 40.028 60.572 72.474 135.295 72.474a252.9 252.9 0 0 0 19.337-.74v-94.705z" fill="url(#B)" opacity=".9" transform="translate(210.853 100.395)"/><path d="M262.847 112.951v93.462c13.466-11.263 21.275-24.654 21.275-39.024V73.927c0 14.37-7.81 27.761-21.275 39.024z" fill="url(#C)" opacity=".9" transform="translate(210.853 100.395)"/><path d="M298.457 123.66c-.295.465-.58.7-1.044.854-7.81 2.637-10.648 9.28-11.507 12.013-1.989 6.333-.79 11.787 3.203 14.59.3.209.43.524.42 1.008 10.417 5.06 24.852-9.385 21.16-21.173-.63-2.017-3.378-8.506-12.232-7.292m-10.148 30.123c-2.613.69-9.858-9.57-2.448-22.376 4.772-8.246 11.662-9.675 11.727-9.675 2.898-.13 11.717-.534 14.555 8.481 4.107 13.032-11.902 28.985-23.469 23.386-.185.115-.235.145-.365.184m30.469-39.493c-14.6 2.472-28.135 6.263-40.137 11.113v38.42c12.002-4.85 25.537-8.641 40.137-11.113v-38.42M373.9 111.443c-4.947-.3-9.973-.455-15.065-.455-.395 0-.794 0-1.19.005v8.467c.396 0 .795-.005 1.19-.005 5.092 0 10.118.154 15.065.454v-8.466" fill="#0EF" opacity=".2"/><path d="M366.64 125.608a252.469 252.469 0 0 0-12.497-.075v2.842a252.469 252.469 0 0 1 12.496.075v-2.842" fill="#0EF"/><path d="M416.65 192.373a.806.806 0 0 1-.545-.744v-4.88c.025-.55.57-.605.895-.225.184.22.194.445.2.515v4.88c-.026.434-.34.509-.55.454m8.514 2.462c-.32-.135-.495-.384-.525-.759V180.42c.055-.604.56-.519.815-.244.2.215.22.464.23.574v13.65c-.05.525-.41.465-.52.435m-17.353-4.595c-.355-.11-.54-.34-.575-.72V172.78c.065-.665.705-.55.97-.215.14.18.15.32.165.46v16.742c-.05.524-.44.494-.56.474m25.487 7.367c-.305-.15-.47-.41-.5-.784v-18.236c.05-.589.545-.529.815-.164.17.23.18.454.18.529v18.24c-.05.575-.48.425-.495.415m-34.65-9.16c-.36-.1-.55-.33-.585-.7v-19.204c.065-.67.73-.58 1-.25a.7.7 0 0 1 .169.455v19.205c-.055.554-.5.509-.585.494m-19.156-2.502c-.38-.075-.58-.285-.62-.655V163.06c.065-.635.735-.67 1.054-.33.155.16.17.305.18.44v22.236c-.06.575-.56.545-.614.54m9.713 1.064c-.24-.05-.56-.18-.61-.675V161.91c.12-.78.88-.55 1.105-.19.06.095.085.245.105.35v24.42c-.075.469-.365.544-.6.519m49.655-14.405c-22.374-9.01-50.055-14.34-80.024-14.34-.89 0-1.779.005-2.668.015v30.263c.89-.01 1.774-.015 2.668-.015 29.97 0 57.655 5.33 80.024 14.34v-30.263" fill="#0EF" opacity=".2"/><path d="M295.699 194.24099999999999c.015-.005.035-.005.05-.01a.178.178 0 0 1-.05.01m-.185.03c.025-.005.05-.005.07-.01-.025.005-.05.01-.07.01m-.19.03l.115-.015-.115.015m-1.354-1.454h.105-.105m-5.291.49c2.029.994 4.017 1.284 6.64.964-2.603.315-4.586.025-6.64-.964m9.833-31.482c.185.325.33.754-.025 1.488 13.086-1.308 16.429 12.607 8.644 22.332-2.693 3.361-7.525 7.013-13.03 7.167 1.663-.045 3.132-1.068 4.82-.979.765.04.67.855.326 1.244-.065.07-.165.15-.245.205 15.909-6.558 17.812-26.422 6.245-30.923-2.793-1.088-5.26-.739-6.735-.534" fill="#0EF"/><path d="M289.533 191.863c-.03.33-.175.954-.814 1.444.53.33 2.528 1.383 6.14 1.049.825-.075 4.937-.535 4.642-2.043-.02-.11-.16-.63-.864-.37-2.313.854-5.77 1.539-9.104-.08" fill="#EC91A4"/><path d="M297.418 161.505c-15.834 5.36-18.682 26.842-9.918 31.952.95.554 2.308-.844 1.993-2.053-.09-.35-.135-.385-.869-.894-2.553-1.788-3.777-5.664-3.667-8.566.244-6.418 3.067-10.734 5.39-13.221 2.854-3.052 5.387-3.906 7.06-4.47 1.05-.355 1.29-1.35 1.29-1.669.005-.899-.66-1.258-1.28-1.079" fill="#FFF"/><path d="M295.699 154.50799999999998c.015-.005.035-.005.05-.01-.015.005-.035.005-.05.01m-.185.03c.025-.005.05-.005.07-.01a.295.295 0 0 0-.07.01m-.19.025l.115-.015-.115.015m-1.354-1.454h.105-.105m-5.291.49c2.029.994 4.017 1.283 6.64.964-2.603.314-4.586.025-6.64-.964m9.833-31.482c.185.324.33.754-.025 1.488 13.086-1.308 16.429 12.607 8.644 22.332-2.693 3.361-7.525 7.012-13.03 7.167 1.663-.045 3.127-1.089 4.82-.979.83.055.615.964.27 1.304-.084.085-.224.16-.33.22 16.225-6.818 18.128-26.428 6.391-30.993-2.798-1.089-5.266-.744-6.74-.54" fill="#0EF"/><path d="M289.533 152.125c-.03.33-.175.954-.814 1.444.53.33 2.528 1.383 6.14 1.049.825-.075 4.937-.535 4.642-2.043-.02-.11-.16-.63-.864-.37-2.318.854-5.776 1.539-9.104-.08" fill="#FFF"/><path d="M297.418 121.767c-15.84 5.36-18.687 26.847-9.918 31.952.95.554 2.308-.845 1.993-2.053-.09-.35-.135-.385-.869-.894-2.553-1.788-3.777-5.664-3.667-8.566.244-6.419 3.067-10.734 5.39-13.221 2.854-3.052 5.387-3.906 7.06-4.47 1.05-.355 1.29-1.35 1.29-1.669.005-.9-.66-1.259-1.28-1.079" fill="#EC91A4"/><path d="M253.094 148.484c-.01.03-.025.06-.035.09.015-.035.025-.06.035-.09m-.885-.13c-5.041 14.16-1.239 24.954 7.4 21.003 2.154-.984 5.426-3.251 8.774-8.451-.315.03-.654-.025-.8-.67-7.994 11.279-15.069 10.14-16.413 2.059-.644-3.881-.03-8.447 1.829-13.571-.29.694-.7.794-.845.414-.025-.07-.095-.324.055-.784m3.258-4.465c-.94 1.453-1.619 2.762-2.343 4.515.894-2.183 1.764-3.621 2.343-4.515m.085-.12c-.025.04-.05.08-.08.12.025-.04.05-.08.08-.12m.09-.14c-.02.025-.035.055-.055.08.02-.025.04-.05.055-.08m2.838-4.85c-1.074.944-1.899 1.853-2.853 3.152.954-1.294 1.779-2.208 2.853-3.152" fill="#0EF"/><path d="M258.97 138.375c-4.317 3.441-7.715 10.798-6.596 10.978.035.005.365.04.645-.67.78-1.982 1.729-3.78 2.828-5.344 1.07-1.498 2.008-2.522 3.248-3.526-.33-.394-.25-.999-.125-1.438" fill="#FFF"/><path d="M260.484 136.721c-2.559 1.509-1.504 3.177-1.11 3.247.235.04.42-.08.6-.2 2.528-1.648 4.527-1.593 5.76-1.249 2.66.73 3.918 3.082 4.433 4.42.954 2.478 1.919 7.838-2.294 15.92-.674 1.288-.13 2.117.41 2.057 2.613-.29 7.745-15.074 2.693-22.232-2.493-3.531-6.415-4.26-10.492-1.963" fill="#EC91A4"/><path d="M259.57 184.102c-7.03 5.719-8.65 20.453-2.344 21.312 2.013.275 5.476-1.194 8.609-6.218-.3.025-.455-.11-.53-.475-4.127 6.628-9.678 7.587-10.997 1.893-.785-3.391.155-9.315 3.453-13.61a16.647 16.647 0 0 0-2.164 3.736c-.52 1.243-.724.42-.724.41-.04-.5 1.194-2.763 1.204-2.783a16.255 16.255 0 0 1 1.783-2.587c.515-.62 1.44-.814 1.71-1.678" fill="#0EF"/><path d="M259.57 184.107c-3.079 2.507-5.377 7.297-4.503 7.322.235.005.365-.3.525-.69.57-1.358 1.849-3.9 4.057-5.668-.215-.265-.165-.67-.08-.964" fill="#FFF"/><path d="M260.594 182.998c-1.724 1.014-1.015 2.133-.75 2.177.16.025.285-.054.405-.134 1.704-1.104 3.028-1.074 3.842-.854 1.749.474 2.573 2.037 2.908 2.931.625 1.659 1.26 5.25-1.504 10.71-.42.828-.125 1.428.29 1.378 1.714-.205 5.061-10.165 1.739-14.955-1.61-2.322-4.202-2.792-6.93-1.253M433.298 178.173c-.414-.1-.49.22-.5.42v18.235c.056.665.585.954.85.74.06-.05.14-.155.145-.37v-18.241c-.05-.604-.45-.77-.495-.784M425.149 179.98c-.315-.059-.48.086-.515.44v13.656c.065.76.74.934.955.63.07-.095.08-.21.09-.305v-13.65c-.05-.62-.48-.755-.53-.77M416.65 186.294c-.315-.065-.53.115-.545.455v4.88c.03.624.665.959.965.639.114-.12.12-.275.124-.345v-4.88c-.02-.454-.334-.694-.544-.749M407.801 172.299c-.34-.035-.525.12-.56.48v16.742c.07.76.805.879 1.04.554.075-.1.085-.22.095-.314v-16.743c-.06-.61-.525-.709-.575-.719M398.637 168.038c-.354-.024-.544.14-.58.5v19.205c.076.749.83.844 1.07.52.08-.106.09-.226.1-.315v-19.205c-.055-.61-.535-.695-.59-.705M389.189 161.39c-.14.005-.57.015-.595.52v24.424c.12.81.885.774 1.105.475.06-.08.085-.22.1-.32v-24.42c-.08-.569-.45-.664-.61-.679M379.48 162.514c-.524.01-.584.37-.609.545v22.231c.075.74.875.78 1.13.435.06-.08.09-.225.104-.325v-22.236a.677.677 0 0 0-.624-.65" fill="#EC91A4"/><path d="M337.585 144.883c-4.642 2.542-7.55 3.546-12.456 4.295v.79c2.783-.42 5.276-.965 8.394-2.238 2.858-1.164 2.858-1.164 4.062-2.847m17.108-5.66c-10.153.37-15.324 4.551-16.464 6.134 3.108-1.059 5.716-3.171 8.85-4.19 1.238-.4 3.872-1.084 7.614-1.154 4.412-.08 6.935.684 7.89.969 2.838.854 5.19 2.712 7.914 3.796-.185-.235-4.672-5.749-15.804-5.554m73.879-2.068c-.215.105-.355.175-.575.295 3.333 4.1 6.38 6.438 10.862 8.34v-.788c-4.272-1.813-7.16-4.011-10.287-7.847m-17.738-20.109c-6.635-.999-10.323 3.511-16.614 13.326-5.81 9.066-11.297 17.627-22.974 13.84.715 2.268 8.614 2.448 13.896-1.168 1.719-1.179 1.719-1.179 13.296-17.452 5.88-8.271 9.883-8.846 14.434-7.097 1.8.689 3.923 2.377 5.542 4.405 3.452 4.325 5.736 9.415 9.033 13.84.17-.095.395-.214.57-.3-3.568-4.79-5.891-10.408-9.883-14.914-2.783-3.141-5.766-4.155-7.3-4.48" fill="#0EF"/><path d="M438.86 136.761c-1.78-.674-3.328-1.203-5.687-1.368-.65-.045-1.718-.03-3.107.29-4.407 1.008-6.846 5.259-11.003 6.682-5.766 1.973-11.602-1.728-17.368.235-3.907 1.334-6.155 5.035-9.733 6.838-2.213 1.119-13.745 5.939-23.394-8.846-3.018-4.625-7.15-10.958-15.214-9.7-14.15 2.208-14.285 21.158-28.225 23.62v.79c13.915-2.512 14.145-21.418 28.315-23.625 7.525-1.174 11.287 4.58 14.035 8.775 10.947 16.738 23.334 10.67 25.702 9.28 3.398-1.987 5.861-5.344 9.733-6.637 5.746-1.923 11.582 2.202 17.323-.265 3.598-1.548 5.806-5.27 9.779-6.223.32-.075.744-.175 1.059-.245.265-.06 1.334-.2 2.413-.125 2.343.16 4.097.829 5.371 1.314v-.79" fill="#EC91A4"/><path d="M297.418 171.1c-7.555 2.533-9.204 12.807-3.972 15.034 5.856 2.498 13.45-6.133 10.687-12.152-1.159-2.522-3.857-3.68-6.715-2.882" fill="#0EF"/><path d="M353.284 111.053a241.75 241.75 0 0 0-28.155 2.253v3.077a241.75 241.75 0 0 1 28.155-2.253v-3.077M353.284 116.622a241.75 241.75 0 0 0-28.155 2.253v3.077a241.75 241.75 0 0 1 28.155-2.253v-3.077M340.028 122.836c-5.061.385-10.033.924-14.9 1.603v3.077a234.841 234.841 0 0 1 14.9-1.603v-3.077" fill="#0EF" opacity=".2"/><path d="M224.719 234.484a40.563 40.563 0 0 0-.565 6.753v3.076c0-2.277.19-4.53.565-6.753v-3.076M224.719 240.053a40.563 40.563 0 0 0-.565 6.753v3.077c.15-2.028.245-4.745.565-6.753v-3.077" fill="#0EF"/><path d="M456.692 133.934a132.388 132.388 0 0 0-7.5-3.995v9.969a132.388 132.388 0 0 1 7.5 3.996v-9.97M466.735 140.427a105.88 105.88 0 0 0-6.615-4.44v9.97a109.68 109.68 0 0 1 6.615 4.44v-9.97M475.364 147.53a86.308 86.308 0 0 0-5.651-4.845v9.97a87.639 87.639 0 0 1 5.651 4.845v-9.97M482.459 155.172a69.21 69.21 0 0 0-4.607-5.21v9.97a70.34 70.34 0 0 1 4.607 5.21v-9.97M487.905 163.298a55.858 55.858 0 0 0-3.477-5.524v9.97a54.946 54.946 0 0 1 3.477 5.524v-9.97M456.692 151.276a132.388 132.388 0 0 0-7.5-3.996v9.97a132.388 132.388 0 0 1 7.5 3.996v-9.97M466.735 157.764a105.88 105.88 0 0 0-6.615-4.44v9.97a109.68 109.68 0 0 1 6.615 4.44v-9.97" fill="#0EF" opacity=".2"/><path d="M475.364 164.867a86.308 86.308 0 0 0-5.651-4.845v9.97a87.639 87.639 0 0 1 5.651 4.844v-9.97" fill="#0EF"/><path d="M482.459 172.509a69.21 69.21 0 0 0-4.607-5.21v9.97a70.34 70.34 0 0 1 4.607 5.21v-9.97M487.905 180.635a55.858 55.858 0 0 0-3.477-5.524v9.97a54.946 54.946 0 0 1 3.477 5.524v-9.97M456.692 168.613a132.388 132.388 0 0 0-7.5-3.996v9.97a132.388 132.388 0 0 1 7.5 3.995v-9.97" fill="#0EF" opacity=".2"/><path d="M466.735 175.101a105.88 105.88 0 0 0-6.615-4.44v9.97a109.68 109.68 0 0 1 6.615 4.44v-9.97" fill="#0EF"/><path d="M475.364 182.204a86.308 86.308 0 0 0-5.651-4.845v9.97a87.639 87.639 0 0 1 5.651 4.844v-9.97" fill="#0EF" opacity=".2"/><path d="M482.459 189.846a69.21 69.21 0 0 0-4.607-5.21v9.97a70.34 70.34 0 0 1 4.607 5.21v-9.97" fill="#0EF"/><path d="M487.905 197.972a55.858 55.858 0 0 0-3.477-5.524v9.97a54.946 54.946 0 0 1 3.477 5.524v-9.97" fill="#0EF" opacity=".2"/><path d="M456.692 185.95a132.388 132.388 0 0 0-7.5-3.996v9.97a132.388 132.388 0 0 1 7.5 3.995v-9.97" fill="#0EF"/><path d="M466.735 192.438a105.879 105.879 0 0 0-6.615-4.44v9.97a109.68 109.68 0 0 1 6.615 4.44v-9.97M475.364 199.54a86.308 86.308 0 0 0-5.651-4.845v9.97a87.639 87.639 0 0 1 5.651 4.845v-9.97M482.459 207.182a69.21 69.21 0 0 0-4.607-5.21v9.97a70.34 70.34 0 0 1 4.607 5.21v-9.97M487.905 215.309a55.858 55.858 0 0 0-3.477-5.524v9.97a54.946 54.946 0 0 1 3.477 5.523v-9.97M456.692 203.286a132.388 132.388 0 0 0-7.5-3.995v9.964a132.387 132.387 0 0 1 7.5 3.996v-9.965M466.735 209.78a105.88 105.88 0 0 0-6.615-4.44v9.964a109.68 109.68 0 0 1 6.615 4.44v-9.964" fill="#0EF" opacity=".2"/><g><path d="M339.464 260.646c-1.624.455-2.848.98-4.232 1.803 1.349-.809 2.613-1.348 4.232-1.803m.174-.045c-.03.01-.064.015-.094.025.03-.01.065-.015.094-.025m7.645-.414c17.628 3.086 20.706 21.028 8.744 28.804-3.752 2.443-7.015 2.658-9.169 2.797.22-.364.385-.824-.03-1.483 15.075-1.518 18.937-16.802 9.504-24.64-3.578-2.97-7.495-3.67-9.169-3.97.94-.03 1.065-.899.56-1.319-.17-.134-.34-.164-.44-.19" fill="#0EF"/><path d="M345.56 260.022c1.768.1 1.953.22 2.103.315.38.25.515.789.135 1.148-.28.265-.615.22-.795.195-3.887-.51-7.504.18-10.752 2.058-.1-.744-.61-1.114-1.02-1.289 3.028-1.803 6.501-2.617 10.328-2.427" fill="#EC91A4"/><path d="M334.782 262.34c.9.134 1.249.699 1.379 1.023.06.15.315.92-.41 1.474-6.815 5.23-5.241 12.866-3.233 16.552 1.814 3.337 5.552 7.473 13.051 8.242 1.55.16 1.969 1.753.98 2.467-3.153 2.283-21.07-5.464-18.462-20.413 1.004-5.734 5.49-9.455 6.695-9.346" fill="#FFF"/><path d="M339.464 300.384c-1.624.46-2.853.98-4.237 1.804 1.354-.81 2.618-1.349 4.237-1.804m.174-.044c-.03.01-.064.015-.094.024.03-.01.065-.02.094-.024m7.645-.415c17.628 3.087 20.706 21.028 8.744 28.805-3.752 2.442-7.015 2.657-9.169 2.797.22-.365.385-.824-.03-1.484 15.08-1.518 18.937-16.802 9.504-24.639-3.578-2.972-7.495-3.67-9.169-3.97.94-.03 1.065-.9.56-1.32a.97.97 0 0 0-.44-.189" fill="#0EF"/><path d="M345.56 299.76c1.768.1 1.963.225 2.103.315.38.25.515.789.135 1.149-.285.264-.615.22-.795.194-3.887-.514-7.504.18-10.752 2.058-.1-.749-.61-1.114-1.024-1.288 3.027-1.804 6.505-2.618 10.332-2.428" fill="#FFF"/><path d="M334.782 302.083c.904.135 1.249.699 1.379 1.019.06.15.315.919-.41 1.473-6.815 5.23-5.236 12.867-3.233 16.553 1.814 3.336 5.552 7.472 13.051 8.241 1.544.16 1.964 1.753.98 2.462-3.153 2.278-21.07-5.469-18.462-20.413 1.004-5.73 5.49-9.445 6.695-9.335" fill="#EC91A4"/><path d="M345.574 267.614c8.444.819 10.978 8.886 5.986 13.196-5.6 4.83-15.07.205-14.27-6.968.42-3.776 3.982-6.458 8.284-6.228M224.254 192.927c.37 5.275 1.769 10.41 4.082 15.34v3.076c-2.313-4.93-3.707-10.064-4.082-15.339v-3.077" fill="#0EF"/><path d="M224.254 198.496c.37 5.275 1.769 10.41 4.082 15.34v3.071c-2.313-4.93-3.707-10.064-4.082-15.339v-3.072" fill="#0EF"/><path d="M224.254 204.066c.37 5.274 1.769 10.409 4.082 15.339v3.071c-2.313-4.93-3.707-10.064-4.082-15.339v-3.071M224.254 215.963c.37 5.275 1.769 10.41 4.082 15.339v3.077c-2.313-4.93-3.707-10.065-4.082-15.34v-3.076" fill="#0EF"/><path d="M224.254 221.532c.37 5.275 1.769 10.41 4.082 15.34v3.076c-2.313-4.93-3.707-10.064-4.082-15.339v-3.077M224.748 231.187c.665 3.846 1.874 7.602 3.583 11.253v3.077c-1.714-3.651-2.923-7.407-3.583-11.253v-3.077M224.154 241.237c0 6.283 1.449 12.382 4.182 18.2v3.077c-2.728-5.819-4.182-11.917-4.182-18.2v-3.077" fill="#0EF"/><path d="M224.154 246.806c0 6.283 1.449 12.382 4.182 18.2v3.077c-2.658-6.792-4.122-10.534-4.182-18.2v-3.077M224.748 259.323c.665 3.846 1.874 7.602 3.583 11.253v3.077c-1.714-3.652-2.923-7.408-3.583-11.254v-3.076M478.532 223.72c7.85-8.261 12.9-17.442 14.47-27.161v3.076c-1.564 9.725-6.616 18.9-14.47 27.162v-3.077" fill="#0EF"/><path d="M478.532 229.284c7.85-8.261 12.9-17.442 14.47-27.161v3.071c-1.564 9.725-6.616 18.9-14.47 27.162v-3.072" fill="#0EF"/><path d="M478.532 234.853c7.85-8.261 12.9-17.441 14.47-27.161v3.072c-1.564 9.724-6.616 18.9-14.47 27.161v-3.072M478.532 246.756c7.85-8.262 12.9-17.442 14.47-27.162v3.077c-1.564 9.725-6.616 18.9-14.47 27.162v-3.077" fill="#0EF"/><path d="M478.532 252.32c7.85-8.261 12.9-17.442 14.47-27.162v3.077c-1.564 9.725-6.616 18.9-14.47 27.162v-3.077" fill="#0EF"/><path d="M484.078 251.266c4.697-6.448 7.764-13.34 8.919-20.538v3.076c-1.16 7.193-4.222 14.09-8.92 20.539v-3.077M478.532 274.886c7.85-8.261 12.9-17.441 14.47-27.161v3.077c-1.564 9.724-6.616 18.9-14.47 27.161v-3.077" fill="#0EF"/><path d="M478.532 280.455c7.85-8.26 12.9-17.441 14.47-27.161v3.077c-1.564 9.724-6.616 18.9-14.47 27.161v-3.077" fill="#0EF"/><path d="M484.078 279.397c4.697-6.449 7.764-13.341 8.919-20.539v3.077c-1.16 7.192-4.222 14.09-8.92 20.538v-3.076" fill="#0EF"/><path d="M273.96 291.739c.124.054.244.11.369.164v.585c.115 2.772 1.634 5.244 3.877 6.298a163.3 163.3 0 0 0 6.72 2.567c2.644 1.094 4.437 3.717 4.572 6.673v.6l-.41-.135v-.6c-.12-2.702-1.753-5.09-4.161-6.088a170.84 170.84 0 0 1-6.72-2.567c-2.459-1.154-4.128-3.866-4.253-6.913v-.584m-10.787-5.32l.335.185c-.15 2.857-1.61 4-3.723 2.907-4.057-2.398-7.824-4.94-11.272-7.617-1.619-1.124-2.673-.19-2.753 2.432v1.274c-.09-.075-.175-.145-.26-.22v-1.273c.085-2.922 1.214-3.921 3.013-2.668 3.448 2.678 7.215 5.22 11.272 7.617 1.924.99 3.253-.045 3.388-2.637M289.398 277.678l.41.135v1.024c-.125 2.632-1.739 3.881-4.117 3.182a163.84 163.84 0 0 1-7.79-2.967c-2.018-.71-3.332.315-3.432 2.672v1.214a26.85 26.85 0 0 1-.37-.165v-1.214c.11-2.612 1.569-3.746 3.802-2.962a163.84 163.84 0 0 0 7.79 2.967c2.139.63 3.593-.494 3.702-2.862l.005-1.024m-36.46-34.708l.296.205v8.31c.08 2.473 1.164 4.81 2.758 5.96 1.314.844 2.663 1.673 4.047 2.487 1.934 1.269 3.243 3.811 3.343 6.473v11.103l-.335-.184V266.22c-.09-2.407-1.27-4.7-3.008-5.839a121.022 121.022 0 0 1-4.047-2.487c-1.764-1.274-2.963-3.866-3.053-6.613v-8.311" fill="#FFF"/><path d="M234.602 274.112c3.038 3.94 6.695 7.707 10.897 11.263.085.075.175.145.26.22 4.227 3.546 8.999 6.883 14.255 9.975v9.025c-10.623-6.243-19.272-13.49-25.417-21.457v-9.026" fill="#EC91A4"/><path d="M269.138 300.45c6.165 3.001 12.846 5.693 19.95 8.041l.41.135c6.206 2.033 12.742 3.8 19.547 5.274v9.026c-14.77-3.202-28.25-7.782-39.907-13.456v-9.02M249.861 268.878c4.002 2.996 8.414 5.818 13.186 8.446.11.06.225.125.335.184a141.584 141.584 0 0 0 10.717 5.27l.37.165a158.804 158.804 0 0 0 8.964 3.606v9.026a160.746 160.746 0 0 1-9.474-3.831 141.223 141.223 0 0 1-10.453-5.14l-.334-.185c-4.822-2.647-9.269-5.494-13.311-8.516v-9.025" fill="#0EF"/><path d="M269.138 260.511c11.656 5.67 25.142 10.255 39.907 13.456v9.026a197.068 197.068 0 0 1-19.237-5.175l-.41-.135c-7.225-2.372-14.005-5.1-20.26-8.141v-9.03" fill="#EC91A4"/><path d="M240.173 223.345c7.47 7.552 17.308 14.315 28.965 19.984v9.026c-5.771-2.807-11.093-5.879-15.904-9.185-.1-.07-.2-.135-.295-.205-4.792-3.312-9.069-6.858-12.766-10.6v-9.02" fill="#F4F8FF"/></g><g><path d="M414.966 251.406s-.065 2.997 1.15 3.501c2.482 1.03 5.46-2.038 7.444-5.499 2.323-4.056-1.264-4.33-3.922-1.928-4.097 3.701-4.672 3.926-4.672 3.926z" fill="#EEF5F7"/><path d="M414.966 250.602s-.305 2.997.91 3.501c2.483 1.029 5.695-2.038 7.679-5.5 2.323-4.055-1.264-4.33-3.922-1.927-4.092 3.696-4.667 3.926-4.667 3.926z" fill="#192C78"/><path d="M5.401 71.025c.715 4.89-.98 23.53-.29 29.08.275 2.203 3.083 1.408 3.768-1.064 1.594-5.764 9.818-45.937 5.926-50.207-4.082-4.476-4.887-6.518-4.887-6.518s-7.77-3.981-7.854-1.384c-.26 8.012 2.358 23.405 3.337 30.093z" fill="url(#D)" transform="translate(409.715 150.842)"/><path d="M444.27 162.604c.195.005.85-.324.98.365.085.444-.765.839-.924.909.1-.04.42-.135.464.305.07.634-2.303 2.017-3.517 2.677-1.15.974-1.394 1.124-2.234 1.368.27-1.898-.4-3.896-2.783-2.972 0 0 2.174-3.371 3.288-4.1 1.979-1.299 4.227-1.239 4.462-.505.16.505-1.03.82-1.03.82s1.994-.48 2.179.144c.135.475-.71.894-.884.99z" fill="#EC91A4"/><path d="M436.366 164.852c-5.356 2.707-13.75 3.98-16.358-1.184-1.265-2.507-7.405.1-7.69 5.005-.51 8.766 22.55 3.336 26.327-.585 2.058-2.127-.245-4.26-2.279-3.236z" fill="#FFF"/><path d="M458.151 164.058s-7.68 4.905-9.868 10.509c-2.189 5.604-2.408 9.415-2.408 9.415l-10.593-9.47s1.799-6.923 4.052-10.115c2.253-3.191 8.729-6.603 8.729-6.603l10.088 6.264z" fill="#FFF"/><path d="M453.264 170.99c.185-.075.655-.629 1.045-.045.25.375-.375 1.07-.495 1.2.075-.08.33-.29.55.1.31.553-1.334 2.756-2.189 3.84-.674 1.344-.844 1.578-1.524 2.133-.494-1.853-1.894-3.427-3.722-1.648 0 0 .964-2.832 1.704-3.936 1.314-1.968 3.167-3.642 3.667-3.052.345.404-.195 1.049-.195 1.049s1.17-1.394 1.584-.884c.315.374-.3 1.089-.425 1.243z" fill="#EC91A4"/><path d="M426.513 258.134s-.31 2.377.35 3.007c1.983 1.883 5.211-.425 9.203-3.272 3.648-2.602 1.849-3.87-2.443-2.602-5.291 1.563-7.11 2.867-7.11 2.867z" fill="#EEF5F7"/><path d="M427.252 256.995a1.51 1.51 0 0 0-.804 1.274c-.03.749.015 1.783.415 2.167 1.983 1.883 5.211-.424 9.203-3.271 3.648-2.602 1.849-3.871-2.443-2.602-3.438 1.014-5.411 1.923-6.37 2.432z" fill="#192C78"/><path d="M2.084 44.084c2.238 12.052 11.422 26.382 13.63 32.13 2.164 5.635.235 24.315 1.404 29.725.445 2.063 4.177 1.089 4.492-.66.595-3.321 4.847-24.13 2.343-34.478-2.083-8.621-3.412-23.406-5.496-31.887-.76-3.112-16.958 2.013-16.373 5.17z" fill="url(#E)" transform="translate(409.715 150.842)"/><path d="M415.745 161.485c-2.863 1.274-4.461 3.467-5.156 8.611-1.214 8.986-1.004 14.985.18 25.718.445 4.016 14.035 1.778 18.097-3.391 1.744-2.218-.614-4.056-.13-9.9.49-5.904 2.793-8.785 1.235-13.476-.595-1.798-3.123-4.765-5.167-5.459-2.353-.804-7.36-2.857-9.059-2.103z" fill="#FFF"/><path d="M428.786 166.935c-3.342 1.283-5.796 2.817-5.141 8.131.41 3.312-2.164 4.72.84 9.915 3.007 5.194 1.393 6.253 1.393 6.253s2.709-1.134 2.754-6.833c.034-4.21 1.788-10.748 1.788-10.748l-1.634-6.718z" fill="#D2E4FA"/><path d="M424.81 160.766s-1.515 2.033 0 2.822c-4.358.33-6.831-2.138-6.831-2.138 1.164.025 1.949-2.412 4.152-6.108 1.054-1.773 2.678 5.424 2.678 5.424z" fill="#EC91A4"/><path d="M422.011 155.921c-.29 2.213 1.444 5.135 3.318 5.385 1.874.244 3.038-2.378 3.462-4.49.44-2.188-.989-4.206-2.863-4.456-1.868-.245-3.622 1.349-3.917 3.561z" fill="#EC91A4"/><path d="M420.967 157.39c1.384.015 2.513 1.618 2.958 1.628.44.01 1.789-.52 3.113-1.419s1.034-1.233 2.643-1.813c1.614-.579-.23-5.21-4.872-4.7-3.253.355-3.842 3.691-3.842 6.304z" fill="#EEF5F7"/><path d="M426.913 159.058a.673.673 0 0 0 .504-.804l-.205-.894a.673.673 0 0 0-.804-.505.673.673 0 0 0-.505.804l.205.894c.085.36.445.59.805.505z" fill="#EC91A4"/><path d="M446.874 176.155c-3.868 4.585-5.536 10.849-9.564 5.145-3.182-4.506-4.456-11.084-8.873-14.815-2.149-1.813-6.776 2.992-5.122 7.612 2.963 8.266 10.633 15.534 13.995 17.442 7.475 4.235 11.203-8.002 13.141-13.086 1.06-2.768-2.108-4.041-3.577-2.298z" fill="#FFF"/><path d="M449.357 171.645c-1.629 1.183-1.574-1.284-2.428-1.199-1.674.17.195 3.641.295 5.3l2.133-4.101zM441.453 162.18c-.79.954.53 1.064 2.043 1.064 1.514 0 1.709 1.003-.494 1.108-2.209.105-3.228 1.579-4.163.81-.934-.77.37-2.428.475-2.463.105-.03 2.139-.52 2.139-.52z" fill="#EC91A4"/></g></g><g><path d="M184.771 319.924c.525-1.753 2.489-3.676 3.518-4.705 1.03-1.029 2.078-3.941 2.508-4.186.43-.244 1.144-.674.715 1.703-.425 2.373-.135 1.859.404 4.121.54 2.263-.54 2.348-1.883 3.122-1.34.774-2.279 1.114-2.279 1.114l-2.983-1.17z" fill="#EB557B"/><path d="M153.018 398.082s-.084 3.182 1.205 3.726c2.633 1.104 5.806-2.138 7.93-5.799 2.487-4.295-1.32-4.605-4.153-2.068-4.372 3.901-4.982 4.14-4.982 4.14z" fill="#EEF5F7"/><path d="M153.023 397.228s-.34 3.181.95 3.72c2.633 1.105 6.06-2.132 8.184-5.798 2.488-4.296-1.319-4.605-4.152-2.068-4.372 3.906-4.982 4.146-4.982 4.146z" fill="#192C78"/><path d="M5.791 20.808C.26 27.941-3.742 30.463 7.065 50.976c1.044 1.983 3.553-.29 4.427-1.378 1.954-2.418-3.228-11.273-3.857-13.73-1.165-4.526 10.253-17.662 10.253-17.662s-1.624-.1-5.197-2.777c-2.378-1.778-5.561 3.656-6.9 5.38z" fill="url(#F)" transform="translate(141.402 300.684)"/><path d="M10.877 75.985c.735 5.195-.114 15.03.59 20.923.28 2.338 5.091.68 5.831-1.943 1.724-6.113.77-19.914.87-30.178.074-7.432-.425-14.56-.425-14.56S7.135 44.788 7.03 47.545c-.315 8.506 2.843 21.338 3.847 28.44z" fill="url(#G)" transform="translate(141.402 300.684)"/><path d="M168.807 399.695s-.34 2.527.355 3.192c2.099 2.013 5.536-.425 9.788-3.427 3.888-2.742 1.979-4.1-2.578-2.772-5.626 1.634-7.565 3.007-7.565 3.007z" fill="#EEF5F7"/><path d="M168.812 398.946s-.34 2.527.355 3.192c2.099 2.012 5.536-.425 9.788-3.427 3.888-2.742 1.979-4.1-2.578-2.772-5.626 1.633-7.565 3.007-7.565 3.007z" fill="#192C78"/><path d="M14.72 41.96c2.318 12.812 11.022 25.234 11.727 31.343.734 6.368-.33 19.69.889 25.438.465 2.193 5.93-.354 6.27-2.207.645-3.522 1.65-22.217.985-28.47-.645-6.064-6.795-16.044-8.27-25.12-.554-3.36-12.21-4.335-11.601-.983z" fill="url(#H)" transform="translate(141.402 300.684)"/><path d="M6.865.355C3.822 1.693 2.918 2.328 1.14 11.493c-.93 4.795-1.814 23.97 1.939 51.011.405 2.922 29.51 4.121 28.515-.354C28.81 49.648 20.016 28.965 20.556 22.76c.55-6.268 3.008-9.31 1.379-14.3-.625-1.913-3.293-5.075-5.461-5.819-2.499-.874-7.8-3.082-9.609-2.287z" fill="url(#I)" transform="translate(147.397 314.17)"/><path d="M166.924 319.989c-3.558 1.343-5.007 3.346-4.342 8.99.414 3.522-2.324 5 .844 10.534 3.168 5.535 6.13 10.035 6.13 10.035s-.244-9.465 0-11.153c.246-1.689 1.96-6.189 1.96-6.189l-4.592-12.217z" fill="#D2E4FA"/><path d="M22.944 21.742c-.64 1.394-.854 2.677 1.104 6.363 2.484 4.676 6.366 8.776 12.077 8.801 1.539.005 4.916-.614 7.045-4.925 1.01-2.042 2.703-7.642 3.867-11.572.23-.78-2.903-2.513-3.662-1.434-1.3 1.838-2.384 9.78-6.566 10.904-3.617.974-8.948-8.886-10.048-9.99-1.748-1.753-3.382.904-3.817 1.853z" fill="url(#J)" transform="translate(141.402 300.684)"/><path d="M163.886 313.805s-1.619 2.153-.015 2.997c-4.627.33-7.245-2.302-7.245-2.302 1.234.035 2.083-2.553 4.442-6.464 1.134-1.883 2.818 5.77 2.818 5.77z" fill="#EB557B"/><path d="M160.943 308.646c-.32 2.347 1.509 5.46 3.497 5.729 1.984.27 3.233-2.513 3.698-4.75.48-2.323-1.03-4.476-3.018-4.745-1.984-.265-3.857 1.418-4.177 3.766zM184.771 319.824c.265-2.762.365-2.263.545-3.356.35-2.178.205-3.417.744-3.352.82.1.105 3.821 2.234 2.103 1.12-.914-3.523 4.605-3.523 4.605z" fill="#EB557B"/><path d="M169.612 306.813c.57-.32.964-.924.964-1.624 0-1.028-.84-1.868-1.868-1.868a.386.386 0 0 0-.075.01 1.83 1.83 0 0 0 .075-.5c0-1.028-.84-1.867-1.87-1.867-.589 0-1.108.28-1.448.704a1.869 1.869 0 0 0-1.45-.704c-.929 0-1.698.69-1.838 1.578a1.785 1.785 0 0 0-.59-.105c-1.029 0-1.868.844-1.868 1.868 0 .35.105.68.275.96a1.88 1.88 0 0 0-1.52 1.832c0 .34.1.66.26.934a1.86 1.86 0 0 0-.26.934c0 1.03.84 1.868 1.87 1.868.02 0 .034-.005.05-.005.19.83.934 1.454 1.818 1.454.025 0 .045-.005.07-.005.32.26.725.425 1.174.425.94 0 1.714-.705 1.844-1.609.345-.185.7-.4 1.054-.64.995-.668 1.29-.234 1.869-.324.11.02.225.035.345.035 1.029 0 1.868-.839 1.868-1.868a1.887 1.887 0 0 0-.75-1.483z" fill="#192C78"/><path d="M166.134 312.002a.715.715 0 0 0 .54-.854l-.215-.949a.715.715 0 0 0-1.394.315l.215.949c.085.384.47.624.854.54z" fill="#EB557B"/></g><g><path d="M225.148 397.847s.045 2.692-1.044 3.137c-2.234.914-4.892-1.853-6.655-4.965-2.069-3.646 1.149-3.88 3.527-1.718 3.658 3.341 4.172 3.546 4.172 3.546z" fill="#4DA7C4"/><path d="M225.153 397.128s.26 2.692-.83 3.137c-2.233.914-5.106-1.853-6.87-4.965-2.068-3.646 1.15-3.881 3.528-1.718 3.658 3.336 4.172 3.546 4.172 3.546z" fill="#FFF"/><path d="M225.943 379.756c-.66 4.385-.02 12.702-.665 17.677-.255 1.972-3.078 1.248-3.682-.974-1.41-5.18-5.462-20.564-1.949-24.38 3.682-4 16.294 1.678 16.294 1.678s-.695 2.723-.63 5.05c.2 7.198-8.464-5.045-9.368.95z" fill="#EC91A4"/><path d="M234.782 419.41c-.46 0-.89-.24-1.145-.65l-11.821-14.88a.524.524 0 0 1 .819-.649l11.842 14.91.045.065c.11.19.284.165.354.15.07-.02.235-.085.235-.305l.1-21.523c0-.29.235-.519.525-.519.29 0 .52.235.52.524l-.1 21.523a1.347 1.347 0 0 1-1.015 1.308 1.51 1.51 0 0 1-.36.045z" fill="#A3BFEB"/><path d="M252.32 408.686c-.44 0-.89-.075-1.325-.225l-22.074-7.467-6.476 3.032a.525.525 0 0 1-.694-.25.52.52 0 0 1 .25-.694l6.665-3.122a.503.503 0 0 1 .39-.02l22.274 7.532c.96.325 1.979.175 2.798-.415a3.076 3.076 0 0 0 1.3-2.512l.074-16.747c0-.29.235-.52.525-.52.29 0 .52.235.52.525l-.076 16.747a4.1 4.1 0 0 1-1.738 3.357c-.72.519-1.56.784-2.414.779z" fill="#A3BFEB"/><path fill="#F4F8FF" d="M235.726 398.496l-21.65-12.631 21.765-12.427 21.65 12.631z"/><path fill="#E7F0FF" d="M235.71 400.809l-21.644-12.632.01-2.312 21.65 12.631z"/><path fill="url(#K)" d="M38.348 63.164l21.765-12.427.01-2.313-21.76 12.427z" transform="translate(197.363 337.645)"/><path d="M256.037 386.424a.52.52 0 0 1-.52-.524l.035-7.672c.005-.934.13-1.868.375-2.772l2.623-9.665a.523.523 0 0 1 1.01.27l-2.624 9.664a9.84 9.84 0 0 0-.34 2.503l-.035 7.672c0 .29-.235.524-.524.524z" fill="#A3BFEB"/><path d="M216.644 351.636c-.175 0-.76-.295-.86.28-.064.369.695.724.84.789-.09-.04-.375-.125-.41.244-.05.53 2.084 1.753 3.173 2.343 1.04.849 1.26.979 2.014 1.209-.275-1.604.285-3.257 2.418-2.418 0 0-1.998-2.887-2.998-3.526-1.784-1.144-3.777-1.154-3.972-.545-.135.42.93.715.93.715s-1.784-.46-1.934.065c-.11.384.644.759.8.844z" fill="#EC91A4"/><path d="M26.292 12.747c4.791 2.452 12.321 3.63 14.684-.994 1.15-2.248 6.646.12 6.88 4.525.42 7.867-20.25 2.897-23.623-.634-1.839-1.923.235-3.826 2.059-2.897z" fill="url(#L)" transform="translate(197.363 341.142)"/><path d="M217.673 409.195s.27 2.138-.324 2.697c-1.79 1.684-4.677-.404-8.245-2.972-3.262-2.347-1.643-3.48 2.204-2.322 4.737 1.418 6.365 2.597 6.365 2.597z" fill="#4DA7C4"/><path d="M217.673 408.56s.27 2.139-.324 2.698c-1.79 1.683-4.677-.405-8.245-2.972-3.262-2.347-1.643-3.481 2.204-2.322 4.742 1.423 6.365 2.597 6.365 2.597z" fill="#FFF"/><path d="M245.034 383.802c-2.063 10.808-24.453-.355-26.456 4.795-1.969 5.05.235 15.519-.835 20.368-.41 1.848-3.492.59-3.767-.984-.52-2.981-4.292-23.96-2.323-27.221 4.117-6.813 18.622-.959 22.664-7.033 1.594-2.392 11.257 7.248 10.717 10.075z" fill="#EC91A4"/><path d="M49.13 40.637c-.709 6.948-5.835 8.047-12.486 7.333-6.65-.71-12.446-2.023-14.335-1.579-1.883.445-9.988-3.63-8.024-6.773 1.964-3.136 8.974-9.53 13.656-9.704 4.681-.18 8.838 1.918 11.706-.34 2.873-2.253 9.484 11.063 9.484 11.063z" fill="url(#M)" transform="translate(197.363 341.142)"/><path d="M216.164 344.403l5.087 14.41c.17.49-.035 1.034-.485 1.294l-17.453 9.98s-.56-.116-.784-.815l-4.702-13.546c-.17-.49.035-1.034.485-1.293l16.753-9.65c.645-.365 1.1-.38 1.1-.38z" fill="#0072A8"/><path d="M216.734 344.723l4.892 14.095c.17.49-.035 1.034-.485 1.294l-17.328 9.98a.496.496 0 0 1-.714-.265l-4.892-14.096c-.17-.49.035-1.034.485-1.293l17.328-9.98a.49.49 0 0 1 .714.265z" fill="#192C78"/><path d="M216.05 345.982l4.396 12.681a.975.975 0 0 1-.434 1.164l-15.594 8.98a.445.445 0 0 1-.645-.24l-4.397-12.68a.975.975 0 0 1 .435-1.165l15.594-8.98a.445.445 0 0 1 .645.24z" fill="#FFF"/><path d="M222.595 360.736l12.626 6.948s.26.749-.884 1.408l-16.569 9.545c-.42.24-.934.24-1.354 0l-11.876-6.838c-1.02-.584-.75-1.363-.75-1.363l17.453-9.695a1.352 1.352 0 0 1 1.354-.005z" fill="#0072A8"/><path d="M222.595 360.052l12.381 7.132c.33.19.33.665 0 .854l-17.203 9.91c-.42.24-.934.24-1.354 0l-12.381-7.133a.492.492 0 0 1 0-.854l17.203-9.91c.415-.239.934-.239 1.354 0z" fill="#192C78"/><path d="M224.074 367.904l4.387 2.527a.16.16 0 0 1 0 .28l-5.826 3.356a.433.433 0 0 1-.44 0l-4.387-2.527a.16.16 0 0 1 0-.28l5.826-3.356a.433.433 0 0 1 .44 0zM206.401 370.776l4.322 2.487c.415.24.925.24 1.34 0l14.919-8.576a.357.357 0 0 0 0-.62l-4.322-2.487a1.336 1.336 0 0 0-1.34 0l-14.919 8.576a.357.357 0 0 0 0 .62z" fill="#00B7D8"/><path d="M49.585 16.877c2.299 6.049 8.17 12.397-.17 24.365-1.084 1.553-2.997-.27-3.732-1.2-1.629-2.062 2.359-2.372.955-5.603-2.399-5.53-1.964-10.594-2.304-11.348-.535-1.194-3.812-9.63-3.812-9.63s1.374-.075 4.417-2.308c2.023-1.478 3.992 4.001 4.646 5.724z" fill="url(#N)" transform="translate(197.363 341.142)"/><path d="M208.46 359.323c-.165-.065-.585-.565-.935-.045-.224.334.335.964.44 1.078-.07-.07-.295-.26-.494.085-.28.5 1.184 2.483 1.948 3.457.6 1.208.75 1.418 1.354 1.923.45-1.664 1.714-3.067 3.348-1.464 0 0-.855-2.542-1.514-3.541-1.17-1.773-2.828-3.282-3.283-2.757-.31.36.17.939.17.939s-1.044-1.254-1.419-.804c-.27.35.275.989.385 1.129z" fill="#EC91A4"/><path d="M44.809 9.81c2.563 1.153 3.322 1.698 4.751 9.46.75 4.06 3.468 8.066.845 21.287-.705 3.557-19.816 4.695-18.797-1.268.83-4.845 1.864-5.405 1.454-10.654-.415-5.3-2.468-7.892-1.054-12.097.544-1.614 2.823-4.26 4.661-4.875 2.119-.715 6.616-2.538 8.14-1.853z" fill="url(#O)" transform="translate(197.363 341.142)"/><path d="M230.445 355.786c2.997 1.164 5.19 2.553 4.581 7.318-.38 2.971 1.924 4.245-.794 8.895-2.718 4.65-5.261 8.431-5.261 8.431s1.558-3.85 1.543-8.965c-.01-3.781-1.558-9.655-1.558-9.655l1.489-6.024z" fill="#D2E4FA"/><path d="M234.042 350.267s1.354 1.833-.01 2.532c3.907.315 6.14-1.893 6.14-1.893-1.044.02-1.738-2.172-3.702-5.499-.944-1.593-2.428 4.86-2.428 4.86z" fill="#EC91A4"/><path d="M236.57 345.932c.255 1.988-1.319 4.605-2.998 4.815-1.678.214-2.713-2.148-3.088-4.046-.384-1.968.905-3.771 2.589-3.986 1.679-.21 3.247 1.229 3.497 3.217z" fill="#EC91A4"/><path d="M237.505 347.255c-1.245.01-2.264 1.439-2.659 1.449-.394.01-1.603-.475-2.788-1.289-1.184-.814-.919-1.114-2.363-1.638-1.444-.525.225-4.675 4.392-4.2 2.913.334 3.428 3.33 3.418 5.678z" fill="#192C78"/><path d="M232.158 348.729a.602.602 0 0 1-.45-.725l.19-.799a.602.602 0 1 1 1.174.275l-.19.8a.603.603 0 0 1-.724.449z" fill="#EC91A4"/><path d="M16.813 22.846c3.453 4.13 4.927 9.76 8.56 4.66 2.872-4.03 4.042-9.924 8.024-13.256 1.933-1.618 6.07 2.712 4.562 6.853-2.694 7.402-9.609 13.895-12.632 15.593C18.602 40.467 15.31 29.47 13.586 24.9c-.93-2.493 1.918-3.621 3.227-2.053z" fill="url(#P)" transform="translate(197.363 341.142)"/><path d="M211.967 359.927c1.46 1.069 1.42-1.144 2.184-1.064 1.499.16-.19 3.267-.29 4.755l-1.894-3.691zM219.097 351.466c.705.859-.48.954-1.838.949-1.36-.005-1.54.894.44.999 1.978.105 2.887 1.428 3.727.744.84-.684-.325-2.178-.415-2.208-.09-.035-1.914-.484-1.914-.484z" fill="#EC91A4"/><path d="M235.726 397.737a.52.52 0 0 1-.52-.524l.035-7.672c.005-.934.13-1.868.375-2.772l2.623-9.665a.523.523 0 0 1 1.01.27l-2.624 9.664a9.84 9.84 0 0 0-.34 2.503l-.035 7.672c0 .294-.234.53-.524.524z" fill="#A3BFEB"/><g><path fill="#F4F8FF" d="M241.712 368.733l-2.069-1.164 21.765-12.427 2.069 1.164z"/><path fill="#E7F0FF" d="M237.87 383.128l-2.07-1.164 3.843-14.395 2.069 1.164z"/><path fill="url(#Q)" d="M2.533 28l21.765-12.426L28.14 1.179 6.376 13.606z" transform="translate(235.336 355.127)"/></g><path d="M238.03 341.062a2.966 2.966 0 0 0-2.949-2.977 2.966 2.966 0 0 0-2.978 2.947 2.962 2.962 0 1 0 5.926.03z" fill="#192C78"/></g><g><path fill="#E7F0FF" d="M659.94 314.74L554.98 374.635v-48.179l104.961-59.892z"/><path fill="#F4F8FF" d="M634.813 252.065l-104.957 59.892 25.123 14.5 104.961-59.892z"/><path fill="#D2E4FA" d="M554.979 374.636l-25.123-14.5v-48.179l25.123 14.5z"/><g fill="#A3BFEB"><path d="M558.716 308.041l-1.849-1.083-10.807 6.173 1.853 1.079zM545.97 315.319l-1.854-1.08-2.463 1.404 1.854 1.08zM551.436 318.475l-1.849-1.078-2.463 1.403 1.849 1.079zM556.902 321.632l-1.849-1.084-2.463 1.409 1.854 1.079zM555.743 315.988l-1.849-1.079-2.463 1.404 1.849 1.084zM561.21 319.145l-1.85-1.08-2.463 1.404 1.854 1.08zM560.05 313.5l-1.849-1.078-2.463 1.408 1.849 1.08zM565.516 316.657l-1.849-1.078-2.463 1.403 1.854 1.084zM564.357 311.018l-1.849-1.084-2.463 1.409 1.849 1.079zM569.828 314.17l-1.854-1.079-2.463 1.409 1.854 1.079zM568.664 308.53l-1.849-1.078-2.463 1.404 1.849 1.078zM574.135 311.688l-1.854-1.08-2.463 1.404 1.854 1.08zM548.798 307.247l-1.849-1.079-10.807 6.169 1.853 1.079zM556.088 305.14l-4.827-2.818-.85 3.122c.086-.04 5.677-.305 5.677-.305zM559.22 303.351l-4.826-2.817 5.056-.244c.085-.04-.23 3.061-.23 3.061zM576.913 300.78l-11.702-6.829-2.053 7.567c.205-.095 13.755-.739 13.755-.739zM584.513 296.439l-11.702-6.828 12.262-.59c.2-.094-.56 7.418-.56 7.418z"/></g><g fill="#A3BFEB"><path d="M634.903 264.073l-1.854-1.084-10.802 6.173 1.848 1.08zM622.152 271.35l-1.849-1.079-2.463 1.404 1.848 1.078zM627.618 274.507l-1.849-1.084-2.463 1.408 1.854 1.08zM633.09 277.663l-1.855-1.084-2.463 1.409 1.854 1.079zM631.925 272.02l-1.849-1.08-2.463 1.404 1.854 1.079zM637.396 275.176l-1.854-1.079-2.463 1.404 1.854 1.078zM636.237 269.532l-1.854-1.079-2.463 1.409 1.854 1.078zM641.703 272.689l-1.854-1.08-2.463 1.404 1.854 1.084zM640.544 267.05l-1.854-1.084-2.463 1.408 1.854 1.079zM646.01 270.201l-1.854-1.079-2.458 1.409 1.849 1.079zM644.85 264.562l-1.853-1.079-2.463 1.404 1.854 1.079zM650.317 267.719l-1.854-1.084-2.458 1.408 1.849 1.08zM624.985 263.278l-1.854-1.078-10.802 6.168 1.848 1.079zM632.27 261.17l-4.827-2.816-.85 3.121c.086-.04 5.677-.304 5.677-.304zM635.403 259.383l-4.827-2.818 5.056-.244c.085-.04-.23 3.062-.23 3.062z"/></g></g><g><path fill="url(#R)" d="M23.309 60.736l37.768-23.675 24.693 13.94-30.424 19.205-6.19 4.76-12.337-6.363-17.712 9.46-8.35-5.634z" transform="translate(614.572 265.72)"/><path d="M644.356 328.745s.065 2.997-1.149 3.501c-2.483 1.029-5.461-2.038-7.445-5.5-2.323-4.055 1.264-4.33 3.923-1.927 4.097 3.7 4.671 3.926 4.671 3.926z" fill="#EEF5F7"/><path d="M644.356 327.94s.305 2.997-.91 3.502c-2.482 1.029-5.695-2.038-7.679-5.5-2.323-4.055 1.264-4.33 3.923-1.927 4.092 3.7 4.666 3.926 4.666 3.926z" fill="#192C78"/><path d="M30.574 42.865c-.715 4.89.04 14.155-.645 19.7-.275 2.202-4.797.619-5.481-1.859-1.594-5.764-4.822-22.092-.924-26.362 4.082-4.475 18.167 1.783 18.167 1.783s-.76 3.037-.675 5.634c.255 8.012-9.463-5.584-10.442 1.104z" fill="url(#S)" transform="translate(614.572 265.72)"/><path d="M655.553 349.703c-.47 0-.909-.24-1.169-.655l-12.131-15.129a.528.528 0 0 1 .085-.749.532.532 0 0 1 .75.08l12.156 15.159.045.065c.11.19.29.165.36.15.07-.02.24-.09.24-.31v-21.967a.535.535 0 0 1 1.069 0v21.967c0 .634-.415 1.174-1.03 1.339-.13.035-.25.05-.375.05z" fill="#A3BFEB"/><path d="M673.406 338.68c-.45 0-.904-.076-1.354-.22l-22.564-7.513-6.59 3.122a.531.531 0 0 1-.71-.255.53.53 0 0 1 .255-.709l6.785-3.217a.552.552 0 0 1 .4-.024l22.764 7.582c.98.324 2.018.164 2.853-.435a3.137 3.137 0 0 0 1.314-2.567v-17.087a.535.535 0 0 1 1.07 0v17.087c0 1.378-.64 2.627-1.76 3.431-.74.53-1.594.804-2.463.804z" fill="#A3BFEB"/><path fill="#F4F8FF" d="M656.418 328.355l-22.15-12.786 22.15-12.787 22.154 12.787z"/><path fill="#E7F0FF" d="M656.418 330.713l-22.15-12.782v-2.362l22.15 12.786z"/><path fill="url(#T)" d="M41.846 64.992L64 52.21v-2.362L41.846 62.634z" transform="translate(614.572 265.72)"/><path d="M677.093 315.938a.535.535 0 0 1-.534-.534v-7.832c0-.954.125-1.908.37-2.832l2.633-9.875a.534.534 0 1 1 1.034.275l-2.633 9.875a9.818 9.818 0 0 0-.335 2.557v7.832a.538.538 0 0 1-.535.534z" fill="#A3BFEB"/><path d="M32.842 8.586c4.112 2.113 5.177 2.497 9.414 5.3 4.601 3.046 2.043 12.516 7.105 15.313 2.458 1.359 6.285-1.298 6.515-2.557 1.02-5.699-7.35-15.359-9.658-16.618-1.344-.734-11.472-4.97-12.322-5.349-2.713-1.214-3.077 2.872-1.054 3.911z" fill="url(#U)" transform="translate(614.572 265.72)"/><path d="M641.024 268.808c-.1-.17-.89-.37-.375-.85.33-.31 1.12.195 1.264.295-.09-.065-.34-.28.005-.56.5-.399 3.228-.1 4.437.565 1.439.445 1.404 1.529 2.068 2.108-1.748.794-3.067 2.432-1.009 3.94 0 0-2.448-1.523-3.657-2.067-2.159-.969-4.617-1.483-4.122-2.078.34-.404 1.289-.25 1.289-.25s-1.79-.654-1.36-1.143c.325-.37 1.29-.06 1.46.04z" fill="#EC91A4"/><path d="M636.087 341.426s.31 2.378-.35 3.007c-1.983 1.883-5.211-.424-9.203-3.271-3.648-2.603-1.849-3.871 2.443-2.603 5.291 1.569 7.11 2.867 7.11 2.867z" fill="#EEF5F7"/><path d="M636.087 340.722s.31 2.378-.35 3.007c-1.983 1.883-5.211-.425-9.203-3.272-3.648-2.602-1.849-3.87 2.443-2.602 5.291 1.563 7.11 2.867 7.11 2.867z" fill="#192C78"/><path d="M51.869 47.27c-2.239 12.053-27.251-.27-29.46 5.48-2.163 5.634.345 17.291-.824 22.7-.445 2.064-5.581-.359-5.896-2.107-.595-3.322-3.213-25.643-1.034-29.284 4.552-7.612 20.745-1.17 25.217-7.952C41.636 33.43 52.458 44.12 51.87 47.27z" fill="url(#V)" transform="translate(614.572 265.72)"/><path d="M53.488 45.008c-.755 7.747-6.46 8.995-13.876 8.236-7.414-.754-13.88-2.188-15.978-1.683-2.099.504-11.148-3.996-8.98-7.502 2.17-3.507 5.532-3.981 10.748-4.206 5.217-.225 11.287-1.219 14.475-3.746 3.183-2.532 13.61 8.9 13.61 8.9z" fill="url(#W)" transform="translate(614.572 265.72)"/><path d="M53.867 18.53c2.594 6.728 9.17 13.771-.064 27.152-1.2 1.738-3.343-.29-4.168-1.319-1.828-2.287 2.614-2.657 1.04-6.248-2.703-6.154-2.244-11.798-2.623-12.637-.605-1.328-4.297-10.709-4.297-10.709s1.528-.09 4.906-2.592c2.249-1.663 4.472 4.44 5.206 6.354z" fill="url(#X)" transform="translate(614.572 265.72)"/><path d="M48.511 10.679c2.863 1.273 3.713 1.873 5.341 10.514.855 4.52 3.908 8.965 1.055 23.72-.77 3.97-22.055 5.334-20.95-1.319.899-5.404 2.048-6.033 1.563-11.877-.49-5.904-2.793-8.786-1.234-13.476.595-1.798 3.123-4.765 5.167-5.46 2.353-.799 7.36-2.856 9.058-2.102z" fill="url(#Y)" transform="translate(614.572 265.72)"/><path d="M650.042 281.849c3.343 1.284 5.796 2.817 5.142 8.131-.41 3.312 2.163 4.72-.84 9.915a201.258 201.258 0 0 1-5.816 9.42s1.714-4.3 1.674-10c-.035-4.21-1.789-10.748-1.789-10.748l1.63-6.718z" fill="#D2E4FA"/><path d="M654.02 275.685s1.514 2.033 0 2.822c4.357.33 6.83-2.137 6.83-2.137-1.164.025-1.949-2.413-4.152-6.109-1.055-1.778-2.678 5.424-2.678 5.424z" fill="#EC91A4"/><path d="M656.818 270.84c.29 2.213-1.444 5.135-3.318 5.385-1.874.245-3.033-2.378-3.463-4.49-.44-2.188.99-4.206 2.863-4.456 1.869-.25 3.623 1.344 3.918 3.562z" fill="#EC91A4"/><path d="M663.233 277.903c-5.796 5.49-9.833 1.608-9.833-2.467 0-1.489-.29-2.023-1.614-2.922-1.324-.9-1.034.434-2.643-.145-1.614-.58-.725-3.247-.725-3.247s1.275-1.938 1.894-2.487c1.55-1.369 5.092-1.054 6.53-.02 4.418 3.157 8.29 9.49 6.391 11.288z" fill="#AD236C"/><path d="M651.916 273.972a.673.673 0 0 1-.505-.804l.205-.894a.673.673 0 0 1 .805-.504c.36.084.59.444.504.804l-.205.894a.67.67 0 0 1-.804.504z" fill="#EC91A4"/><path d="M9.998 14.75c4.732 1.263 4.622 1.917 10.548 2.437 5.496.484 11.282-.17 16.273-1.039 2.768-.48 3.258 6.653 2.009 6.948-8.55 2.008-14.89.37-17.498.02-1.514-.2-11.892-4.406-12.8-4.6C5.63 17.9 7.8 14.16 9.997 14.75z" fill="url(#Z)" transform="translate(614.572 265.72)"/><path d="M616.14 280.895c-.179.075-.908.005-.779.694.085.445 1.02.505 1.195.51-.11 0-.44.025-.325.454.165.615 2.878 1.044 4.247 1.224 1.424.49 1.704.54 2.578.464-.94-1.673-1.034-3.776 1.52-3.776 0 0-2.67-1.353-3.968-1.628-2.314-.494-4.812-.4-4.762.375.035.53.87.614.87.614s-1.81-.18-1.754.47c.045.49.98.574 1.179.599z" fill="#EC91A4"/><path d="M656.418 327.58a.535.535 0 0 1-.535-.534v-7.831c0-.954.125-1.908.37-2.832l2.633-9.875a.534.534 0 1 1 1.034.275l-2.633 9.874a9.818 9.818 0 0 0-.334 2.558v7.831c0 .3-.24.535-.535.535z" fill="#A3BFEB"/><g><path fill="#F4F8FF" d="M662.389 297.952l-2.114-1.179 22.15-12.786 2.118 1.178z"/><path fill="#E7F0FF" d="M658.536 312.662l-2.118-1.18 3.857-14.709 2.114 1.179z"/><path fill="url(#aa)" d="M2.493 28.96l22.15-12.782L28.5 1.463 6.346 14.25z" transform="translate(656.043 283.702)"/></g><path d="M643.577 271.99c-1.869.339-2.813 1.253-1.324 1.418 1.484.165 2.638-.69 4.147-.24l-2.823-1.179z" fill="#EC91A4"/></g><g><path fill="url(#ab)" d="M83.182 84.92l-37.329 23.446-11.062 8.411 10.183 8.267 49.99-31.952z" transform="translate(541.123 257.23)"/><path d="M597.19 371.84s.11 3.546-1.325 4.155c-2.928 1.244-6.48-2.357-8.859-6.428-2.788-4.775 1.45-5.14 4.622-2.323 4.877 4.33 5.561 4.595 5.561 4.595z" fill="#EEF5F7"/><path d="M597.184 370.885s.39 3.547-1.044 4.151c-2.928 1.244-6.76-2.352-9.144-6.428-2.788-4.775 1.45-5.14 4.622-2.323 4.882 4.336 5.566 4.6 5.566 4.6z" fill="#192C78"/><path d="M60.748 30.743c3.133 7.931 10.982 16.198.195 32.126-1.4 2.068-3.958-.31-4.942-1.513-2.183-2.688 2.139-4.011 3.143-8.546 1.609-7.253.694-9.65.235-10.64-.73-1.568-10.633-15.768-10.633-15.768s1.809-.12 5.781-3.116c2.638-1.998 5.326 5.194 6.22 7.457z" fill="url(#ac)" transform="translate(541.123 257.23)"/><path d="M56.8 90.75c-.794 5.789.19 16.742-.57 23.315-.299 2.607-5.67.78-6.505-2.143-1.943-6.802-.939-22.186-1.094-33.624-.115-8.282.415-16.223.415-16.223s11.797-6.104 11.922-3.032c.39 9.475-3.078 23.785-4.168 31.707z" fill="url(#ad)" transform="translate(541.123 257.23)"/><path d="M586.881 377.888s.39 2.812-.384 3.561c-2.329 2.248-6.171-.45-10.918-3.78-4.342-3.043-2.223-4.56 2.863-3.102 6.276 1.798 8.44 3.321 8.44 3.321z" fill="#EEF5F7"/><path d="M586.871 377.054s.39 2.812-.384 3.561c-2.329 2.248-6.171-.45-10.918-3.78-4.342-3.043-2.223-4.561 2.863-3.103 6.276 1.799 8.44 3.322 8.44 3.322z" fill="#192C78"/><path d="M59.658 57.03c-2.533 14.285-12.176 28.166-12.936 34.973-.794 7.098.45 21.937-.884 28.35-.505 2.443-6.61-.369-6.995-2.437-.735-3.92-1.929-24.749-1.214-31.717.694-6.757 7.505-17.9 9.113-28.025.595-3.741 13.581-4.88 12.916-1.144z" fill="url(#ae)" transform="translate(541.123 257.23)"/><path d="M54.332 21.502c3.398 1.479 4.407 2.183 6.426 12.387 1.054 5.34 2.713 25.239-1.544 50.672-1.154 6.913-24.423 7.872-24.423 2.762 0-12.721 5.006-33.89 4.377-40.797-.64-6.983-3.393-10.364-1.6-15.933.69-2.138 3.648-5.664 6.062-6.508 2.783-.974 8.684-3.457 10.702-2.583z" fill="url(#af)" transform="translate(541.123 257.23)"/><path d="M584.723 277.973s1.814 2.392.03 3.337c5.156.35 8.064-2.598 8.064-2.598-1.374.04-2.333-2.837-4.976-7.187-1.27-2.083-3.118 6.448-3.118 6.448z" fill="#EC91A4"/><path d="M589.524 273.428c-.62 2.567-3.777 5.06-5.95 4.535-2.174-.524-2.344-3.916-1.914-6.428.445-2.602 2.878-4.226 5.051-3.706 2.174.524 3.433 3.031 2.813 5.599z" fill="#EC91A4"/><path d="M590.054 275.49c-1.539-.569-3.462.72-3.957.54-.495-.175-1.759-1.334-2.833-2.892-1.08-1.553-.615-1.803-2.149-3.127-1.534-1.323-.76-3.341-.76-3.341s1.19.919 2.104.58c2.289-.855 3.398-.665 5.432-.16 3.752.938 3.272 5.514 2.163 8.4z" fill="#192C78"/><path d="M550.512 264.972c-2.833-3.167-6.66-6.249-8.045-7.133-1.389-.884-1.274.405-.66 1.024.615.614 2.244 1.933 1.964 2.298-.28.364-2.408 3.391-.31 4.51 2.104 1.119 3.588 1.708 3.588 1.708l3.463-2.407zM582.78 274.806a.795.795 0 0 1-.216-1.104l.605-.899a.795.795 0 1 1 1.32.89l-.606.899a.796.796 0 0 1-1.104.214z" fill="#EC91A4"/><path d="M39.957 26.852c4.757-2.053-.195 12.986-2.298 12.022-2.104-.959-18.922-11.867-21.5-14.764C13.58 21.213 7.08 12.667 5.396 10.774 3.712 8.88 6.516 5.634 8.79 7.257c2.273 1.624 12.516 12.183 14.465 13.281 4.012 2.278 12.226 8.242 16.703 6.314z" fill="url(#ag)" transform="translate(541.123 257.23)"/></g><g><path fill="#FFF" d="M367.614 368.448l10.608 5.954 12.116-15.809-10.607-5.953z"/><path fill="#192C78" d="M345.79 384.002l-10.848 6.308.01 11.493 10.842-6.313z"/><path d="M336.82 375.37c1.534 7.608 1.085 9.745.27 11.124-.814 1.379-.494 2.652-.624 2.932l2.103-1.254s.06 2.018.365 2.233c.305.215 1.054.105 1.094-1.673.035-1.729.57-3.182.57-3.182l.43-11.123-4.208.944z" fill="#EC91A4"/><path d="M7.904 14.255C4.157 19.569.82 28.445 1.19 30.913c.365 2.467 1.254 11.637 1.44 12.661.184 1.024 4.201.105 3.782-1.943-.42-2.048 1.493-27.376 1.493-27.376z" fill="url(#ah)" transform="translate(334.767 339.643)"/><path d="M344.415 432.051s-.31 3.082.935 3.601c2.538 1.06 4.681-1.188 6.705-4.75 2.373-4.17-.365-4.8-3.083-2.327-4.187 3.8-4.557 3.476-4.557 3.476z" fill="#192C78"/><path d="M343.596 412.152c.734 5.025.11 14.2.82 19.9.279 2.262 3.707 1.488 3.946-1.14.545-5.928 2.144-19.704 2.189-29.644.035-7.197-.485-14.095-.485-14.095s-8.924-5.973-9.009-3.301c-.26 8.236 1.534 21.407 2.539 28.28z" fill="#EC91A4"/><path d="M359.43 433.31c-.315.929-.495 2.882.18 3.526 2.028 1.938 5.32-.44 9.398-3.371 3.722-2.678 1.884-3.981-2.498-2.673-5.401 1.609-6.446.65-7.08 2.518z" fill="#192C78"/><path d="M347.118 379.182c2.299 12.392 11.402 23.99 12.112 29.898.74 6.164-.475 20.16.285 24.83.344 2.142 4.032.624 4.352-1.175.604-3.411 3.172-22.326 2.498-28.38-.655-5.869-6.62-15.498-8.084-24.28-.545-3.25-11.767-4.135-11.163-.893z" fill="#EC91A4"/><path d="M10.418 12.317C7.495 13.626 7.64 13.9 5.67 22.721 2.763 35.752 4.342 49.313 6.765 64.567c.65 4.07 26.177 8.511 24.828.145-1.784-11.053-8.38-24.764-7.89-30.778.495-6.068 1.8-9.64.205-14.464-.61-1.849-2.148-4.286-4.237-5-2.403-.82-7.514-2.927-9.253-2.153z" fill="url(#ai)" transform="translate(334.767 339.643)"/><path d="M381.86 372.968c.224-.384-.09-.5-.196-.524.17.04 1.094.225 1.29-.185.304-.634-.42-.754-.575-.88.2.03 1.124.19 1.299-.274.225-.614-1.58-.914-1.58-.914s.835.135 1.005-.37c.25-.734-.51-1.323-2.883-1.443-1.334-.07-3.417.495-3.417.495-.365-.025-.705-.04-1.035-.04 1.944 1.308 1.884 3.965.545 4.56.4 0 .68.02.79.06.869.32.909.344 2.448.234 1.369.185 1.988-.164 2.308-.719z" fill="#EC91A4"/><path d="M41.87 29.314c-3.282-1.149-7.12-.514-12.126-1.693-3.277-.77-4.102-2.397-7.04-9.585-1.634-3.996-7.415.13-6.33 2.812 3.977 9.82 7.374 11.143 11.107 12.112 3.253.844 11.522.495 13.48.854 1.96.35 3.293-3.945.91-4.5z" fill="url(#aj)" transform="translate(334.767 339.643)"/><path d="M353.599 350.442c.02.844-1.04 2.847.73 3.526-4.737.94-7.785-1.503-7.785-1.503 1.279-.125 3.187-.525 3.762-6.164.235-2.312 3.258 2.767 3.293 4.14z" fill="#EC91A4"/><path d="M350.241 345.757c-.025 2.517 2.269 5.559 4.357 5.594 2.089.03 3.013-3.057 3.203-5.48.195-2.507-1.644-4.58-3.733-4.614-2.088-.03-3.802 1.982-3.827 4.5z" fill="#EC91A4"/><path d="M350.201 347.19c1.764 3.247 3.573.63 3.827.12.255-.51.025-.869 1.74-.52 1.713.35 2.438-1.892 1.713-3.496-.72-1.603-1.829-4.205-6.475-.839 0 0-1.165-2.952-3.543-2.242-4.327 1.283-4.152 7.267-.24 7.692 1.844.194 2.978-.715 2.978-.715z" fill="#192C78"/><path d="M355.038 348.579c.41 0 .74-.34.734-.76l-.01-1.033a.756.756 0 0 0-.75-.754c-.409 0-.739.34-.734.759l.01 1.034c.005.42.34.759.75.754z" fill="#EC91A4"/></g></g></svg>