<svg xmlns="http://www.w3.org/2000/svg" viewBox="0 0 985.25 601.08"><defs><style>.cls-1,.cls-3{fill:#fff}.cls-11,.cls-2{fill:#afbdc4}.cls-16,.cls-3{stroke:#eee;stroke-miterlimit:10}.cls-4{fill:#e8f0fe}.cls-13,.cls-5,.cls-6{font-size:12px;fill:#3c4043}.cls-5,.cls-8,.cls-9{font-family:GoogleSans-Regular,Google Sans}.cls-6{font-family:GoogleSans-Bold,Google Sans;font-weight:700}.cls-13,.cls-14,.cls-7{font-family:GoogleSans-Medium,Google Sans;font-weight:500}.cls-7,.cls-9{letter-spacing:0}.cls-8,.cls-9{font-weight:400}.cls-10{fill:#4285f4}.cls-11{fill-rule:evenodd}.cls-12{opacity:.07;isolation:isolate}.cls-15,.cls-16{fill:none}</style></defs><title>Artboard 14 copy</title><g id="Layer_6" data-name="Layer 6"><path class="cls-1" d="M-.29-.15h985.25v601.08H-.29z"/><rect class="cls-1" x="195.91" y="102.82" width="587.44" height="405.16" rx="50"/><path class="cls-2" d="M733.35 508.47H245.91a50.55 50.55 0 0 1-50.5-50.5V152.82a50.55 50.55 0 0 1 50.5-50.5h487.44a50.56 50.56 0 0 1 50.5 50.5V458a50.56 50.56 0 0 1-50.5 50.47zM245.91 103.32a49.55 49.55 0 0 0-49.5 49.5V458a49.55 49.55 0 0 0 49.5 49.5h487.44a49.56 49.56 0 0 0 49.5-49.5V152.82a49.56 49.56 0 0 0-49.5-49.5z"/><rect class="cls-3" x="141.06" y="239.73" width="110" height="131.08" rx="7.81"/><rect class="cls-4" x="406.42" y="122.82" width="172.86" height="365.5" rx="7.81"/><rect class="cls-3" x="428.1" y="412.43" width="131.5" height="55.88" rx="7.81"/><text class="cls-5" transform="translate(447.29 437)">Hyperparameter <tspan x="29.32" y="14">tuning</tspan></text><rect class="cls-3" x="428.1" y="336.86" width="131.5" height="55.88" rx="7.81"/><text class="cls-6" transform="translate(477.74 222.67)">Train<tspan class="cls-7" x="29.41" y="0"> </tspan><tspan class="cls-8"><tspan x="-14.65" y="14.4">your model</tspan></tspan></text><text class="cls-6" transform="translate(175.35 307.18)">Define <tspan class="cls-8"><tspan x="-5.46" y="14.4">your data</tspan><tspan x="-.91" y="28.8">schema</tspan><tspan x="-3.86" y="43.2">and label</tspan></tspan></text><text class="cls-6" transform="translate(303.62 307.18)">Analyze<tspan class="cls-9" x="45.82" y="0"> </tspan><tspan class="cls-8"><tspan x="-4.64" y="14.4">your input </tspan><tspan x="1.43" y="28.8">features</tspan></tspan></text><text class="cls-5" transform="translate(475.43 361.43)">Model <tspan x="-6.21" y="14">selection</tspan></text><rect class="cls-3" x="428.1" y="261.3" width="131.5" height="55.88" rx="7.81"/><text class="cls-5" transform="translate(471.52 285.87)">Feature <tspan x="-10.03" y="14">engineering</tspan></text><path class="cls-10" d="M325.42 272.1a5 5 0 1 1 5-5 5 5 0 0 1-5 5zm6.67 0h-.89l-.33-.27a7 7 0 1 0-.72.77l.28.34v.83l5.55 5.56 1.67-1.67z"/><path class="cls-11" d="M272.83 304.46l-6.46 5.77v-11.44l6.46 5.67z"/><path class="cls-2" d="M253.84 303.46h18v2h-18z"/><path class="cls-11" d="M403.92 304.46l-6.47 5.77v-11.44l6.47 5.67z"/><path class="cls-2" d="M384.92 303.46h18v2h-18z"/><path class="cls-10" d="M521 165.26l-11.42-19.89a5 5 0 0 0-4.29-2.55h-22.87a5 5 0 0 0-4.29 2.55l-11.44 19.85a5 5 0 0 0 0 5l11.44 19.95a5.11 5.11 0 0 0 4.29 2.64h22.87a5.1 5.1 0 0 0 4.29-2.63L521 170.29a5.12 5.12 0 0 0 0-5.03z"/><path class="cls-12" d="M501.49 157.16l-2.55.55-2.12.3-9.67-2.36-3.74 14-.63 1.43 4.73 5.88.73 3.5 12.05 12.38h5a5.14 5.14 0 0 0 4.29-2.64l9.19-16z"/><path class="cls-1" d="M494.4 159.48h5.82l1.35-2.32-1.35-2.33h-13.5l-6.5 11.74 2.61 4.53 6.44-11.62h5.13zm11.2 4.69l-6.42 11.61h-10.97l-1.34 2.33 1.34 2.32h13.51l6.5-11.72-2.62-4.54z"/><path class="cls-1" d="M490.86 165.1l.28 4.77 3.47 2.13v-4.6l-3.75-2.3z"/><path class="cls-1" d="M493.17 164.28l3.56 1.82-.11 4.28-1.61-.8.09-2.48-1.93-1.04v-1.78z"/><path class="cls-11" d="M139.29 304.46l-6.47 5.77v-11.44l6.47 5.67z"/><path class="cls-2" d="M120.29 303.46h18v2h-18z"/><text class="cls-13" transform="translate(59.84 324.04)">Table input</text><path class="cls-10" d="M100.62 283.21H81.5a.56.56 0 0 0-.56.56v4a.56.56 0 0 0 .56.56h19.12a.56.56 0 0 0 .56-.56v-4a.56.56 0 0 0-.56-.56m-3 3.68a1.15 1.15 0 1 1 1.14-1.15 1.15 1.15 0 0 1-1.14 1.15m3 3.92H81.5a.56.56 0 0 0-.56.56v3.95a.56.56 0 0 0 .56.56h19.12a.56.56 0 0 0 .56-.56v-3.95a.56.56 0 0 0-.56-.56m-3 3.68a1.15 1.15 0 1 1 1.14-1.15 1.15 1.15 0 0 1-1.14 1.15m3 3.97H81.5a.56.56 0 0 0-.56.56v4a.57.57 0 0 0 .56.56h19.12a.57.57 0 0 0 .56-.56v-4a.57.57 0 0 0-.56-.56m-3 3.68A1.14 1.14 0 1 1 98.8 301a1.14 1.14 0 0 1-1.14 1.14"/><rect class="cls-3" x="728.18" y="239.73" width="110" height="131.08" rx="7.81"/><text class="cls-6" transform="translate(760.97 307.18)">Deploy <tspan class="cls-8"><tspan x="-17.48" y="14.4">your model to </tspan><tspan x="-19.51" y="28.8">get predictions</tspan></tspan></text><path class="cls-10" d="M792.12 267.22a9.11 9.11 0 0 0-17-2.43 7.3 7.3 0 0 0 .79 14.55h15.79a6.07 6.07 0 0 0 .42-12.12zm-6.5 3.6v4.87h-4.87v-4.87h-3.65l6.08-6.08 6.08 6.08z"/><rect class="cls-3" x="597.2" y="239.73" width="110" height="131.08" rx="7.81"/><text class="cls-6" transform="translate(625.86 307.18)">Evaluate<tspan class="cls-14" x="49.88" y="0"> </tspan><tspan class="cls-8"><tspan x="-5.81" y="14.4">your model </tspan><tspan x="2.52" y="28.8">behavior</tspan></tspan></text><path class="cls-10" d="M657.17 264.83L650 272l-3.88-3.87-1.53 1.53L650 275l8.65-8.65zm-5-6A10.82 10.82 0 1 0 663 269.61a10.82 10.82 0 0 0-10.8-10.82zm0 19.47a8.65 8.65 0 1 1 8.65-8.65 8.65 8.65 0 0 1-8.62 8.61z"/><path class="cls-11" d="M596.19 304.46l-6.47 5.77v-11.44l6.47 5.67z"/><path class="cls-2" d="M581.19 303.46h14v2h-14z"/><path class="cls-11" d="M727.07 304.46l-6.46 5.77v-11.44l6.46 5.67z"/><path class="cls-2" d="M708.07 303.46h18v2h-18z"/><path class="cls-11" d="M857.12 304.46l-6.47 5.77v-11.44l6.47 5.67z"/><path class="cls-2" d="M838.12 303.46h18v2h-18z"/><text class="cls-13" transform="translate(861.71 327.04)">Prediction <tspan x="8.52" y="14.4">outputs</tspan></text><path class="cls-15" d="M866.83 264.93h58v53.86h-58z"/><path class="cls-10" d="M881.46 296.73l-1.66-1 7.3-12.18 7.02 11.84-1.68 1-5.35-9.04-5.63 9.38z"/><path class="cls-10" d="M893.21 292.84a2.93 2.93 0 1 1-2.93 2.92 2.92 2.92 0 0 1 2.93-2.92m-12.5.34a2.93 2.93 0 1 1-2.93 2.93 2.93 2.93 0 0 1 2.93-2.93m16.08-.82l-1.67-1 1.29-2.2 1.68 1zm2.36-4l-1.67-1 1.29-2.2 1.68 1zm2.36-4l-1.68-1 1.3-2.21 1.68 1z"/><path class="cls-10" d="M904.54 283.22l.05-6.01-5.23 2.96 5.18 3.05z"/><rect class="cls-16" x="273.88" y="239.73" width="110" height="131.08" rx="7.81"/><path class="cls-11" d="M195.85 370.8l5.78 6.47h-11.45l5.67-6.47zM783.4 239.73l-5.78-6.47h11.45l-5.67 6.47z"/><path class="cls-10" d="M184.4 269.19l9-9a2 2 0 0 1 1.41-.58h7a2 2 0 0 1 2 2v7a2 2 0 0 1-.58 1.42l-9 9a2 2 0 0 1-2.81 0l-7-7a2 2 0 0 1-.59-1.41 2 2 0 0 1 .57-1.43zm15.88-4.57a1.5 1.5 0 1 0-1.5-1.5 1.5 1.5 0 0 0 1.5 1.5z"/></g></svg>