<?xml version="1.0" encoding="UTF-8" ?>
<!DOCTYPE svg PUBLIC "-//W3C//DTD SVG 1.1//EN" "http://www.w3.org/Graphics/SVG/1.1/DTD/svg11.dtd">
<svg width="258pt" height="218pt" viewBox="0 0 418 352" version="1.1" xmlns="http://www.w3.org/2000/svg">
<g id="#ffffffff">
</g>
<g id="#34a853ff">
<path fill="#34a853" opacity="1.00" d=" M 202.46 1.65 C 218.57 -1.81 236.08 8.07 241.53 23.59 C 247.52 38.81 240.82 57.55 226.58 65.55 C 212.70 74.04 193.15 70.79 182.79 58.25 C 171.98 46.17 171.65 26.45 182.02 14.00 C 187.10 7.65 194.47 3.17 202.46 1.65 Z" />
</g>
<g id="#4285f4ff">
<path fill="#4285f4" opacity="1.00" d=" M 121.52 66.70 C 138.28 63.95 155.73 75.49 159.82 91.95 C 164.58 108.10 155.48 126.66 139.89 132.90 C 125.15 139.47 106.40 133.88 97.65 120.34 C 88.47 107.23 90.25 87.92 101.68 76.72 C 106.96 71.32 114.04 67.74 121.52 66.70 Z" />
<path fill="#4285f4" opacity="1.00" d=" M 9.23 105.22 C 15.92 99.40 26.06 98.08 34.04 101.93 C 38.66 104.05 42.05 107.96 45.60 111.46 C 75.91 141.77 106.27 172.03 136.57 202.36 C 149.01 214.68 156.93 231.51 158.12 249.01 C 158.68 255.76 158.09 262.54 158.59 269.29 C 158.49 294.75 158.60 320.21 158.53 345.67 C 141.04 340.64 124.40 332.77 109.25 322.71 C 101.54 317.60 94.53 311.40 88.78 304.14 C 79.59 292.33 73.83 277.93 72.17 263.07 C 71.42 256.75 71.76 250.35 71.06 244.03 C 69.40 227.89 63.41 212.22 53.87 199.09 C 39.41 179.95 24.59 161.06 9.99 142.02 C 6.67 137.72 2.91 133.42 1.74 127.95 C -0.33 119.76 2.70 110.58 9.23 105.22 Z" />
</g>
<g id="#fbbc04ff">
<path fill="#fbbc04" opacity="1.00" d=" M 287.49 66.61 C 304.07 64.22 321.13 75.72 325.16 91.97 C 329.67 107.44 321.60 125.20 307.06 132.07 C 292.93 139.35 274.19 135.14 264.55 122.50 C 254.48 110.24 254.67 91.04 264.98 78.98 C 270.54 72.18 278.76 67.65 287.49 66.61 Z" />
<path fill="#fbbc04" opacity="1.00" d=" M 377.01 106.98 C 382.35 101.45 390.41 98.64 398.02 100.11 C 406.85 101.57 414.41 108.66 416.39 117.40 C 418.06 124.18 416.26 131.55 411.96 137.00 C 399.09 153.77 386.14 170.48 373.24 187.23 C 368.32 193.68 363.10 199.95 359.07 207.02 C 352.51 218.32 348.38 231.03 347.04 244.04 C 346.42 249.66 346.62 255.33 346.15 260.96 C 345.25 271.30 342.39 281.47 337.74 290.74 C 331.54 303.44 321.61 314.07 309.94 321.95 C 294.53 332.35 277.52 340.41 259.66 345.61 C 259.56 320.78 259.69 295.95 259.59 271.12 C 259.97 263.07 259.36 254.99 260.16 246.96 C 261.36 234.99 265.62 223.35 272.38 213.40 C 276.20 207.69 281.03 202.76 285.91 197.97 C 316.29 167.65 346.61 137.28 377.01 106.98 Z" />
</g>
<g id="#ea4335ff">
<path fill="#ea4335" opacity="1.00" d=" M 201.33 132.56 C 218.01 128.35 236.57 138.72 241.81 155.07 C 247.46 170.48 240.21 189.13 225.67 196.73 C 211.51 204.84 192.01 200.93 182.04 188.02 C 171.67 175.59 171.98 155.88 182.75 143.79 C 187.53 138.19 194.14 134.18 201.33 132.56 Z" />
<path fill="#ea4335" opacity="1.00" d=" M 195.61 224.51 C 209.50 220.64 225.00 223.04 237.00 231.06 C 250.35 239.79 259.16 255.13 259.59 271.12 C 259.69 295.95 259.56 320.78 259.66 345.61 C 249.12 348.70 238.31 350.84 227.40 352.00 L 190.59 352.00 C 179.74 350.84 169.02 348.68 158.53 345.67 C 158.60 320.21 158.49 294.75 158.59 269.29 C 159.91 248.52 175.50 229.76 195.61 224.51 Z" />
</g>
</svg>
