<?xml version="1.0" standalone="yes"?>
<svg xmlns="http://www.w3.org/2000/svg" width="192" height="192">
<path style="fill:#ffffff; stroke:none;" d="M0 0L0 192L192 192L192 0L0 0z"/>
<path style="fill:#669df6; stroke:none;" d="M76 13.439C65.363 15.1004 55.0527 18.8391 46 24.6991C1.04234 53.8008 2.94035 121.982 47 150.655C54.2522 155.375 62.4939 158.756 71 160.388C79.4644 162.012 88.4171 162.801 97 161.572C108.382 159.941 118.518 156.57 128 150.024C139.335 142.198 149.796 131.743 155.558 119C175.38 75.1606 149.093 23.5302 102 14.0039C93.9037 12.3661 84.1773 12.1619 76 13.439z"/>
<path style="fill:#ffffff; stroke:none;" d="M82 55.4645C76.9244 56.3796 72.091 58.3676 68.0008 61.5293C46.81 77.9099 53.2966 111.236 79 118.571C83.289 119.795 87.5771 120.331 92 119.535C97.3355 118.576 102.603 116.396 106.996 113.211C133.943 93.6818 114.305 49.6399 82 55.4645z"/>
<path style="fill:#1a73e8; stroke:none;" d="M152 124C144.225 136.395 134.412 144.228 123 153C127.454 159.322 133.54 164.54 139 170C142.713 173.712 146.331 178.043 151 180.583C167.416 189.509 183.986 175.222 181.815 158C180.541 147.901 170.72 140.719 164 134C160.258 130.259 156.832 126.253 152 124z"/>
</svg>
