<svg width="505" height="326" xmlns="http://www.w3.org/2000/svg" xmlns:xlink="http://www.w3.org/1999/xlink"><defs><path id="a" d="M152.41 68.335V.358H0v67.977z"/><path id="c" d="M152.41 68.432V.455H0v67.977h152.41z"/><path id="e" d="M152.41 68.335V.358H0v67.977z"/><path d="M96.262 0v178.878h-.293c.194.144.293.29.293.438 0 2.18-21.549 3.946-48.13 3.946h-.797C21.12 183.226 0 181.472 0 179.315c0-.148.1-.294.293-.438H0V0h96.262z" id="i"/><path d="M96.262 0v178.208h-.293c.194.143.293.289.293.436 0 2.171-21.549 3.931-48.13 3.931-26.583 0-48.132-1.76-48.132-3.93 0-.148.1-.294.293-.437H0V0h96.262z" id="k"/><path id="m" d="M0 0h96.262v6.605H0z"/><path id="o" d="M0 0h96.262v6.605H0z"/><path id="q" d="M0 0h96.262v6.605H0z"/><path id="s" d="M0 0h96.262v6.605H0z"/><path id="u" d="M0 0h96.262v6.605H0z"/><path id="w" d="M0 0h96.262v6.605H0z"/><path id="y" d="M0 0h96.262v6.605H0z"/><path id="A" d="M0 0h96.262v6.605H0z"/><ellipse id="g" cx="48.131" cy="7.156" rx="48.131" ry="7.156"/></defs><g fill="none" fill-rule="evenodd"><path fill-opacity=".01" fill="#FFF" d="M.77.055h504v325H.77z"/><g transform="translate(260.825 127.065)"><mask id="b" fill="#fff"><use xlink:href="#a"/></mask><path d="M152.41 63.72c0 2.55-1.377 4.615-3.078 4.615H3.082C1.378 68.335 0 66.27 0 63.72V4.97C0 2.42 1.377.36 3.083.36h146.25c1.7 0 3.077 2.06 3.077 4.61v58.75z" fill="#424242" mask="url(#b)"/></g><path d="M403.633 161.41c0 5.932-4.731 10.742-10.57 10.742-5.837 0-10.57-4.81-10.57-10.743 0-5.933 4.733-10.742 10.57-10.742 5.839 0 10.57 4.809 10.57 10.742" fill="#FFF"/><path d="M374.075 161.41c0 3.278-2.616 5.938-5.843 5.938-3.221 0-5.838-2.66-5.838-5.939s2.617-5.938 5.838-5.938c3.227 0 5.843 2.66 5.843 5.938M358.774 161.41c0 3.278-2.617 5.938-5.848 5.938-3.222 0-5.838-2.66-5.838-5.939s2.616-5.938 5.838-5.938c3.231 0 5.848 2.66 5.848 5.938" fill="#5F9BF7"/><path fill="#212121" d="M266.913 146.316h6.642v-5.97h-6.642zM277.745 146.321h6.646v-5.975h-6.646zM288.58 146.316h6.643v-5.97h-6.643zM299.416 146.316h6.642v-5.97h-6.642zM310.258 146.316h6.637v-5.97h-6.637zM321.088 146.316h6.642v-5.97h-6.642zM331.925 146.316h6.636v-5.97h-6.636zM266.913 182.472h6.642v-5.97h-6.642zM277.745 182.472h6.646v-5.97h-6.646zM288.58 182.472h6.643v-5.97h-6.643zM299.416 182.472h6.642v-5.97h-6.642zM310.258 182.472h6.637v-5.97h-6.637zM321.088 182.472h6.642v-5.97h-6.642zM331.925 182.472h6.636v-5.97h-6.636zM266.913 169.903h6.642v-5.98h-6.642zM277.745 169.903h6.646v-5.98h-6.646zM288.58 169.903h6.643v-5.98h-6.643zM299.416 169.903h6.642v-5.98h-6.642zM310.258 169.903h6.637v-5.98h-6.637zM321.088 169.903h6.642v-5.975h-6.642zM331.925 169.903h6.636v-5.98h-6.636zM266.913 158.198h6.642v-5.975h-6.642zM277.745 158.198h6.646v-5.975h-6.646zM288.58 158.198h6.643v-5.975h-6.643zM299.416 158.198h6.642v-5.975h-6.642zM310.258 158.198h6.637v-5.975h-6.637zM321.088 158.198h6.642v-5.975h-6.642zM331.925 158.198h6.636v-5.975h-6.636z"/><path d="M408.605 127.781v53.98c0 2.55-1.46 5.068-3.055 5.068H268.514c-1.598 0-2.979-2.517-2.979-5.067v-53.98h-1.627c-1.706 0-2.73 1.702-2.73 4.252v58.75c0 2.55 1.024 4.903 2.73 4.903h146.25c1.7 0 2.805-2.353 2.805-4.903v-58.75c0-2.55-1.105-4.253-2.806-4.253h-1.552z" fill="#424242"/><g><g transform="translate(260.825 56.945)"><mask id="d" fill="#fff"><use xlink:href="#c"/></mask><path d="M152.41 63.816c0 2.55-1.377 4.616-3.078 4.616H3.082C1.378 68.432 0 66.366 0 63.816V5.067C0 2.517 1.377.455 3.083.455h146.25c1.7 0 3.077 2.062 3.077 4.612v58.75z" fill="#424242" mask="url(#d)"/></g><path d="M403.633 91.387c0 5.934-4.731 10.742-10.57 10.742-5.837 0-10.57-4.808-10.57-10.742 0-5.934 4.733-10.742 10.57-10.742 5.839 0 10.57 4.808 10.57 10.742" fill="#FFF"/><path d="M374.075 91.387c0 3.279-2.616 5.938-5.843 5.938-3.221 0-5.838-2.66-5.838-5.938 0-3.279 2.617-5.939 5.838-5.939 3.227 0 5.843 2.66 5.843 5.939M358.774 91.387c0 3.279-2.617 5.938-5.848 5.938-3.222 0-5.838-2.66-5.838-5.938 0-3.279 2.616-5.939 5.838-5.939 3.231 0 5.848 2.66 5.848 5.939" fill="#5F9BF7"/><path fill="#212121" d="M266.913 76.294h6.642v-5.97h-6.642zM277.745 76.299h6.646v-5.975h-6.646zM288.58 76.294h6.643v-5.97h-6.643zM299.416 76.294h6.642v-5.97h-6.642zM310.258 76.294h6.637v-5.97h-6.637zM321.088 76.294h6.642v-5.97h-6.642zM331.925 76.294h6.636v-5.97h-6.636zM266.913 112.45h6.642v-5.97h-6.642zM277.745 112.45h6.646v-5.97h-6.646zM288.58 112.45h6.643v-5.97h-6.643zM299.416 112.45h6.642v-5.97h-6.642zM310.258 112.45h6.637v-5.97h-6.637zM321.088 112.45h6.642v-5.97h-6.642zM331.925 112.45h6.636v-5.97h-6.636zM266.913 99.875h6.642V93.9h-6.642zM277.745 99.875h6.646V93.9h-6.646zM288.58 99.875h6.643V93.9h-6.643zM299.416 99.875h6.642V93.9h-6.642zM310.258 99.875h6.637V93.9h-6.637zM321.088 99.875h6.642V93.9h-6.642zM331.925 99.875h6.636V93.9h-6.636zM266.913 88.17h6.642V82.2h-6.642zM277.745 88.17h6.646V82.2h-6.646zM288.58 88.17h6.643V82.2h-6.643zM299.416 88.17h6.642V82.2h-6.642zM310.258 88.17h6.637V82.2h-6.637zM321.088 88.17h6.642V82.2h-6.642zM331.925 88.17h6.636V82.2h-6.636z"/><path d="M408.605 57.662v54.077c0 2.55-1.46 4.97-3.055 4.97H268.514c-1.598 0-2.979-2.42-2.979-4.97V57.662h-1.627c-1.706 0-2.73 1.8-2.73 4.35v58.75c0 2.55 1.024 4.805 2.73 4.805h146.25c1.7 0 2.805-2.256 2.805-4.806V62.013c0-2.551-1.105-4.351-2.806-4.351h-1.552z" fill="#424242"/></g><g><g transform="translate(260.825 197.332)"><mask id="f" fill="#fff"><use xlink:href="#e"/></mask><path d="M152.41 63.72c0 2.55-1.377 4.615-3.078 4.615H3.082C1.378 68.335 0 66.27 0 63.72V4.97C0 2.42 1.377.36 3.083.36h146.25c1.7 0 3.077 2.06 3.077 4.61v58.75z" fill="#424242" mask="url(#f)"/></g><path d="M403.633 231.676c0 5.933-4.731 10.743-10.57 10.743-5.837 0-10.57-4.81-10.57-10.743 0-5.933 4.733-10.742 10.57-10.742 5.839 0 10.57 4.809 10.57 10.742" fill="#FFF"/><path d="M374.075 231.676c0 3.279-2.616 5.938-5.843 5.938-3.221 0-5.838-2.66-5.838-5.938 0-3.28 2.617-5.938 5.838-5.938 3.227 0 5.843 2.659 5.843 5.938M358.774 231.676c0 3.279-2.617 5.938-5.848 5.938-3.222 0-5.838-2.66-5.838-5.938 0-3.28 2.616-5.938 5.838-5.938 3.231 0 5.848 2.659 5.848 5.938" fill="#5F9BF7"/><path fill="#212121" d="M266.913 216.583h6.642v-5.97h-6.642zM277.745 216.588h6.646v-5.975h-6.646zM288.58 216.583h6.643v-5.97h-6.643zM299.416 216.583h6.642v-5.97h-6.642zM310.258 216.583h6.637v-5.97h-6.637zM321.088 216.583h6.642v-5.97h-6.642zM331.925 216.583h6.636v-5.97h-6.636zM266.913 252.739h6.642v-5.97h-6.642zM277.745 252.739h6.646v-5.97h-6.646zM288.58 252.739h6.643v-5.97h-6.643zM299.416 252.739h6.642v-5.97h-6.642zM310.258 252.739h6.637v-5.97h-6.637zM321.088 252.739h6.642v-5.97h-6.642zM331.925 252.739h6.636v-5.97h-6.636zM266.913 240.17h6.642v-5.98h-6.642zM277.745 240.17h6.646v-5.98h-6.646zM288.58 240.17h6.643v-5.98h-6.643zM299.416 240.17h6.642v-5.98h-6.642zM310.258 240.17h6.637v-5.98h-6.637zM321.088 240.17h6.642v-5.975h-6.642zM331.925 240.17h6.636v-5.98h-6.636zM266.913 228.465h6.642v-5.975h-6.642zM277.745 228.465h6.646v-5.975h-6.646zM288.58 228.465h6.643v-5.975h-6.643zM299.416 228.465h6.642v-5.975h-6.642zM310.258 228.465h6.637v-5.975h-6.637zM321.088 228.465h6.642v-5.975h-6.642zM331.925 228.465h6.636v-5.975h-6.636z"/><path d="M408.605 198.048v53.98c0 2.55-1.46 5.068-3.055 5.068H268.514c-1.598 0-2.979-2.517-2.979-5.068v-53.98h-1.627c-1.706 0-2.73 1.703-2.73 4.253v58.75c0 2.55 1.024 4.902 2.73 4.902h146.25c1.7 0 2.805-2.352 2.805-4.902v-58.75c0-2.55-1.105-4.253-2.806-4.253h-1.552z" fill="#424242"/></g><path d="M307.481 310.096c-4.213-18.861-20.704-32.936-40.448-32.936-1.399 0-2.78.08-4.144.204-12.381-39.735-48.79-68.528-91.826-68.528-39.469 0-73.36 24.26-88.258 58.934-8.169-4.98-17.665-7.908-27.86-7.908-28.312 0-51.534 22.047-54.175 50.234h306.711z" fill="#F5F5F5"/><g><g transform="translate(406.962 122.534)"><g transform="translate(.277 176.038)"><mask id="h" fill="#fff"><use xlink:href="#g"/></mask><ellipse stroke="#CFD8DC" stroke-width="12" mask="url(#h)" cx="47.73" cy="9.358" rx="51.741" ry="6.055"/></g><path fill="#FFF" d="M.277 6.43h96.262v174.919H.277z"/><ellipse fill="#FFF" cx="48.408" cy="181.899" rx="48.131" ry="4.954"/><g transform="translate(.277 3.591)"><mask id="j" fill="#fff"><use xlink:href="#i"/></mask><path fill="#F2F2F2" opacity=".8" mask="url(#j)" d="M75.405-58.936h34.494v244.4H75.405z"/></g><g transform="translate(.277 3.591)"><mask id="l" fill="#fff"><use xlink:href="#k"/></mask><path fill="#E5E9EC" mask="url(#l)" d="M-27.274-58.936H7.22v244.4h-34.494z"/></g><g transform="translate(.277 139.514)"><mask id="n" fill="#fff"><use xlink:href="#m"/></mask><ellipse stroke="#FFF" stroke-width="5" mask="url(#n)" cx="48.131" rx="48.131" ry="3.303"/></g><g transform="translate(.277 137.313)"><mask id="p" fill="#fff"><use xlink:href="#o"/></mask><ellipse stroke="#ECEFF1" stroke-width="4" mask="url(#p)" cx="48.131" rx="48.131" ry="3.303"/></g><g transform="translate(.277 93.277)"><mask id="r" fill="#fff"><use xlink:href="#q"/></mask><ellipse stroke="#FFF" stroke-width="5" mask="url(#r)" cx="48.131" rx="48.131" ry="3.303"/></g><g transform="translate(.277 91.075)"><mask id="t" fill="#fff"><use xlink:href="#s"/></mask><ellipse stroke="#ECEFF1" stroke-width="4" mask="url(#t)" cx="48.131" rx="48.131" ry="3.303"/></g><g transform="translate(.277 47.039)"><mask id="v" fill="#fff"><use xlink:href="#u"/></mask><ellipse stroke="#FFF" stroke-width="5" mask="url(#v)" cx="48.131" rx="48.131" ry="3.303"/></g><g transform="translate(.277 44.837)"><mask id="x" fill="#fff"><use xlink:href="#w"/></mask><ellipse stroke="#ECEFF1" stroke-width="4" mask="url(#x)" cx="48.131" rx="48.131" ry="3.303"/></g><g transform="translate(.277 3.003)"><mask id="z" fill="#fff"><use xlink:href="#y"/></mask><ellipse stroke="#FFF" stroke-width="5" mask="url(#z)" cx="48.131" rx="48.131" ry="3.303"/></g><ellipse fill="#E5E9EC" cx="48.408" cy="3.897" rx="48.131" ry="3.303"/></g></g><g><path d="M123.806 170.44a6.486 6.486 0 016.487-6.481H336.07a6.487 6.487 0 016.487 6.481v141.684a3.239 3.239 0 01-3.24 3.232h-212.27c-1.79 0-3.241-1.45-3.241-3.232V170.44z" fill="#414141"/><path d="M129.362 170.537h207.586v135.39H129.362z" fill="#FFF"/><path fill="#ECEFF1" d="M129.362 170.537h207.37v9.653h-207.37zM129.362 180.19h48.865v125.692h-48.865z"/><path fill="#CFD8DC" d="M136.198 234.59h22.28v8.303h-22.28zM136.198 217.697h27.344V226h-27.344zM136.198 200.805h32.408v8.303h-32.408z"/><path fill="#90A4AE" d="M136.198 183.912h35.446v8.303h-35.446z"/><g><g fill="#ECEFF1"><path d="M291.16 204.348h17.976v75.19H291.16zM263.057 204.348h17.976v75.19h-17.976zM234.953 204.348h17.976v75.19h-17.976zM206.85 204.348h17.976v75.19H206.85z"/></g><g fill="#4285F4"><path d="M291.16 232.544h17.976v47.248H291.16zM263.057 204.602h17.976v74.936h-17.976zM234.953 239.15h17.976v40.388h-17.976zM206.85 219.59h17.976v59.948H206.85z"/></g></g><g fill="#9D9D9D"><path d="M89.373 311.15h288.63v6.367a6.37 6.37 0 01-6.365 6.366h-275.9a6.37 6.37 0 01-6.365-6.366v-6.366z"/></g></g><path d="M439.705 325.055c-3.16-14.146-15.529-24.702-30.337-24.702-1.049 0-2.084.06-3.108.153-9.286-29.801-36.592-51.396-68.87-51.396-29.6 0-55.02 18.195-66.193 44.2-6.126-3.734-13.248-5.93-20.894-5.93-21.235 0-38.651 16.535-40.632 37.675h230.034z" fill="#F5F5F5"/></g></svg>