<svg height="512" viewBox="0 0 512 512" width="512" xmlns="http://www.w3.org/2000/svg"><path d="M441 140.5v338c0 18.2-14.7 32.9-32.9 32.9H103.9c-18.2 0-32.9-14.7-32.9-32.9v-445C71 15.3 85.7.6 103.9.6h197.2z" fill="#23a566"/><path d="M336.9 254.9H175.1c-5.8 0-10.5 4.7-10.5 10.5v140.9c0 5.8 4.7 10.5 10.5 10.5H337c5.8 0 10.5-4.7 10.5-10.5V265.5c-.1-5.8-4.8-10.6-10.6-10.6zm-151.3 67.6h59.9v26.7h-59.9zm80.9 0h59.9v26.7h-59.9zm59.9-21h-59.9V276h59.9zM245.5 276v25.5h-59.9V276zm-59.9 94.3h59.9v25.5h-59.9zm80.9 25.5v-25.5h59.9v25.5z" fill="#fff"/><path d="M319.9 135.4L441 233.5v-92.1l-68.7-39.9z" opacity=".19"/><path d="M441 140.5H334c-18.2 0-32.9-14.7-32.9-32.9V.6z" fill="#8ed1b1"/></svg>