<?xml version="1.0" encoding="utf-8"?>
<!-- Generator: Adobe Illustrator 24.3.0, SVG Export Plug-In . SVG Version: 6.00 Build 0)  -->
<svg version="1.1" id="Layer_1" xmlns="http://www.w3.org/2000/svg" xmlns:xlink="http://www.w3.org/1999/xlink" x="0px" y="0px"
	 viewBox="0 0 636 300" style="enable-background:new 0 0 636 300;" xml:space="preserve">
<style type="text/css">
	.st0{fill:#C5D43B;}
	.st1{fill:#8B9B23;}
	.st2{fill:#78881B;}
	.st3{fill:#FFFFFF;}
	.st4{fill:#95A258;}
	.st5{fill:#819041;}
	.st6{fill:#2ECCEF;}
	.st7{fill:#0B7891;}
	.st8{fill:#1595B2;}
	.st9{fill:#B3AFAB;}
	.st10{fill:#797672;}
	.st11{fill:#908D89;}
	.st12{fill:#DDDBDA;}
	.st13{fill:#BBB8B4;}
	.st14{fill:#CC5444;}
	.st15{fill:#BBACEF;}
	.st16{fill:#3E8EED;}
	.st17{fill:#7354DD;}
	.st18{fill:#A3C9F6;}
	.st19{fill:#0064DA;}
	.st20{fill:#FCCF84;}
	.st21{fill:#F7B548;}
	.st22{fill:#E29E3B;}
	.st23{fill:#BDD8F9;}
	.st24{fill:#8DBCF4;}
	.st25{fill:#549BEF;}
	.st26{fill:#F4AC99;}
	.st27{fill:#E86E58;}
	.st28{fill:#A08BE8;}
	.st29{fill:#70D6E0;}
	.st30{fill:#28C2D1;}
	.st31{fill:#CFF1F5;}
	.st32{fill:#FDC9B5;}
	.st33{fill:#EA7F6B;}
	.st34{fill:#98C2F5;}
	.st35{fill:#D8E8FB;}
	.st36{fill:#FEDEA7;}
	.st37{fill:#A7A4A0;}
	.st38{fill:#6D6A66;}
	.st39{fill:#56534F;}
	.st40{fill:#8A6FE8;}
	.st41{fill:url(#SVGID_1_);}
	.st42{fill:url(#SVGID_2_);}
	.st43{fill:url(#SVGID_3_);}
	.st44{fill:#522CD5;}
	.st45{fill:url(#SVGID_4_);}
	.st46{fill:url(#SVGID_5_);}
	.st47{fill:url(#SVGID_6_);}
	.st48{fill:url(#SVGID_7_);}
	.st49{fill:url(#SVGID_8_);}
	.st50{fill:url(#SVGID_9_);}
	.st51{fill:url(#SVGID_10_);}
	.st52{fill:url(#SVGID_11_);}
	.st53{fill:#512BD4;}
	.st54{fill:#D8CFF7;}
	.st55{fill:url(#SVGID_12_);}
	.st56{fill:#8065E0;}
	.st57{fill:url(#SVGID_13_);}
	.st58{fill:url(#SVGID_14_);}
	.st59{fill:url(#SVGID_15_);}
	.st60{fill:#E6E4E3;}
	.st61{fill:#4995EE;}
	.st62{fill:#76AFF2;}
	.st63{fill:#FAF9F8;}
	.st64{fill:#60DEFA;}
	.st65{fill:#19A0BF;}
	.st66{fill:#ED9583;}
	.st67{fill:#BF453C;}
	.st68{fill:#33D5F9;}
	.st69{fill:url(#SVGID_16_);}
	.st70{fill:#57AA9A;}
	.st71{fill:url(#SVGID_17_);}
	.st72{fill:url(#SVGID_18_);}
	.st73{fill:#C4832D;}
	.st74{fill:url(#SVGID_19_);}
	.st75{fill:#1DACCC;}
	.st76{fill:#BBF1FD;}
	.st77{fill:url(#SVGID_20_);}
	.st78{fill:url(#SVGID_21_);}
	.st79{fill:url(#SVGID_22_);}
	.st80{fill:url(#SVGID_23_);}
	.st81{fill:url(#SVGID_24_);}
	.st82{fill:url(#SVGID_25_);}
	.st83{fill:url(#SVGID_26_);}
	.st84{fill:url(#SVGID_27_);}
	.st85{fill:url(#SVGID_28_);}
	.st86{fill:url(#SVGID_29_);}
	.st87{fill:url(#SVGID_30_);}
	.st88{fill:url(#SVGID_31_);}
	.st89{fill:url(#SVGID_32_);}
	.st90{fill:url(#SVGID_33_);}
	.st91{fill:#A36623;}
	.st92{fill:#FFE5B9;}
	.st93{fill:#92D5CD;}
	.st94{fill:#45897C;}
	.st95{fill:#D5D3D0;}
	.st96{fill:url(#SVGID_34_);}
	.st97{fill:#9C9894;}
	.st98{fill:#4A4844;}
	.st99{fill:url(#SVGID_35_);}
	.st100{fill:url(#SVGID_36_);}
	.st101{fill:url(#SVGID_37_);}
	.st102{fill:url(#SVGID_38_);}
	.st103{fill:url(#SVGID_39_);}
	.st104{fill:url(#SVGID_40_);}
	.st105{fill:url(#SVGID_41_);}
	.st106{fill:url(#SVGID_42_);}
	.st107{fill:url(#SVGID_43_);}
	.st108{fill:url(#SVGID_44_);}
	.st109{fill:url(#SVGID_45_);}
	.st110{fill:#8577E5;}
	.st111{fill:url(#SVGID_46_);}
	.st112{fill:url(#SVGID_47_);}
	.st113{fill:#605D5A;}
	.st114{fill:url(#SVGID_48_);}
	.st115{fill:#CCCAC7;}
	.st116{fill:#625F5B;}
</style>
<g>
	<path class="st0" d="M396.32,49.34h24.86c17.57,0,31.81,14.24,31.81,31.81v17.34c0,17.39-19.9,31.51-37.22,31.8l-12.59,18.22
		l-1.41-18.21h-5.45c-17.57,0-31.81-14.24-31.81-31.81V81.15C364.51,63.58,378.75,49.34,396.32,49.34z"/>
	<g>
		<path class="st1" d="M380.92,113.97c-2.74-0.01-4.78-2.49-4.32-5.19c2.86-16.96,15.87-27.51,32.48-27.51
			c16.25,0,29.77,11.62,32.51,26.93c0.54,2.99-1.74,5.76-4.78,5.76C425.98,113.99,400.65,114.03,380.92,113.97z"/>
		<g>
			<path class="st0" d="M401.84,93.62c-2.27,0-4.11,1.85-4.11,4.12v2.45c0,2.27,1.85,4.11,4.11,4.11h15.38
				c2.27,0,4.11-1.85,4.11-4.11v-2.45c0-2.27-1.85-4.12-4.11-4.12H401.84z"/>
		</g>
		<path class="st2" d="M430.23,88.92c0-0.19,0.01-0.37,0.01-0.56c0-11.57-9.48-20.95-21.17-20.95c-11.69,0-21.17,9.38-21.17,20.95
			c0,0.19,0.01,0.37,0.01,0.56H430.23z"/>
		<circle class="st3" cx="402.27" cy="80.32" r="4.25"/>
		<circle class="st4" cx="403.41" cy="80.37" r="3.02"/>
		<circle class="st3" cx="416.63" cy="80.32" r="4.25"/>
		<circle class="st4" cx="418.06" cy="80.37" r="3.02"/>
	</g>
	<circle class="st5" cx="443.65" cy="53.88" r="21.41"/>
	<path class="st6" d="M332.76,37.14L213.9,29.82c-2.38-0.05-4.31,1.91-4.22,4.29l2.95,82.58c0.08,2.23,1.91,3.99,4.14,3.99
		l72.31,0.59l25.11,29.45l-0.04-29.45l17.94-0.08c2.27,0,4.12-1.84,4.14-4.11l0.59-75.77C336.84,39.05,335.03,37.19,332.76,37.14z"
		/>
	<g>
		
			<rect x="267.36" y="87.04" transform="matrix(-1 -4.338098e-11 4.338098e-11 -1 543.8352 198.5049)" class="st7" width="9.12" height="24.43"/>
		<path class="st8" d="M234.71,114.86l0.69-7.84c0.18-2.01,1.86-3.56,3.88-3.56h66.13c1.91,0,3.5,1.46,3.66,3.36l0.71,8.04H234.71z"
			/>
		<path class="st8" d="M236.03,85.8l1.54-17.49c0.64-7.25,6.71-12.81,13.99-12.81h41.38c7.28,0,13.35,5.56,13.99,12.81l1.54,17.49
			c0.17,1.92-1.34,3.57-3.27,3.57h-23.73c-1.04,4.5-5.06,7.85-9.87,7.85c-4.81,0-8.83-3.36-9.87-7.85H239.3
			C237.37,89.37,235.86,87.72,236.03,85.8z"/>
		<path class="st7" d="M251.72,69.83l40.39,0c3.24,0,5.86,2.62,5.86,5.86v0c0,3.24-2.62,5.86-5.86,5.86h-40.39
			c-3.24,0-5.86-2.62-5.86-5.86v0C245.86,72.46,248.49,69.83,251.72,69.83z"/>
		<circle class="st3" cx="289.43" cy="75.26" r="4.45"/>
		<circle class="st3" cx="275.1" cy="75.26" r="4.45"/>
		<circle class="st6" cx="300.44" cy="109.16" r="2.12"/>
		<circle class="st6" cx="292.62" cy="109.16" r="2.12"/>
		<circle class="st6" cx="284.8" cy="109.16" r="2.12"/>
	</g>
	<circle class="st8" cx="214.39" cy="40" r="25.16"/>
	<g>
		<path class="st3" d="M207.42,33.73c-1.58,0-2.83,0.56-3.74,1.68c-0.91,1.12-1.36,2.67-1.36,4.65c0,2.07,0.44,3.63,1.31,4.69
			c0.87,1.06,2.13,1.59,3.79,1.59c0.71,0,1.41-0.07,2.08-0.21c0.67-0.14,1.36-0.32,2.09-0.55v2.36c-1.32,0.5-2.82,0.75-4.5,0.75
			c-2.47,0-4.36-0.75-5.68-2.24c-1.32-1.49-1.98-3.63-1.98-6.42c0-1.75,0.32-3.29,0.96-4.6c0.64-1.31,1.57-2.32,2.78-3.02
			c1.21-0.7,2.64-1.05,4.28-1.05c1.72,0,3.31,0.36,4.77,1.08l-0.99,2.29c-0.57-0.27-1.17-0.51-1.8-0.71
			C208.78,33.83,208.12,33.73,207.42,33.73z"/>
		<path class="st3" d="M224.39,38.44l-0.63,3.27h3.11v1.94h-3.49l-0.92,4.82h-2.05l0.92-4.82h-2.86l-0.92,4.82h-2.01l0.88-4.82
			h-2.88v-1.94h3.26l0.66-3.27h-3.04V36.5h3.38l0.92-4.86h2.08l-0.92,4.86h2.91l0.92-4.86h2.01l-0.92,4.86h2.9v1.94H224.39z
			 M218.82,41.71h2.88l0.66-3.27h-2.88L218.82,41.71z"/>
	</g>
	<g>
		<path class="st9" d="M525.49,240.53l-286.01,39.7c-2.68,0.37-5.81-1.09-7-3.27l-54.03-99.2c-1.19-2.18,1.23-8.43,4.01-8.62
			l295.39-16.08c1.86-0.13,4.14,1.21,5.11,2.98l46.8,77.03C530.72,234.85,527.28,240.28,525.49,240.53z"/>
		<path class="st10" d="M527.69,235.92l-286.01,39.7c-2.68,0.37-5.81-1.09-7-3.27l-54.03-99.2c-1.19-2.18,0.11-4.1,2.88-4.29
			l296.51-20.41c1.86-0.13,4.14,1.21,5.11,2.98l44.02,80.83C530.15,234.03,529.48,235.67,527.69,235.92z"/>
		<path class="st0" d="M507.92,209.41c0.35,0.65,0.1,1.23-0.56,1.31l-37.66,4.43c-0.7,0.08-1.56-0.39-1.93-1.06l-8.19-15.04
			c-0.36-0.67-0.08-1.26,0.62-1.34l37.92-3.94c0.67-0.07,1.49,0.4,1.84,1.04L507.92,209.41z"/>
		<g>
			<path class="st9" d="M230.56,191.93l-22.63,1.93c-0.98,0.08-2.12-0.48-2.55-1.26l-9.62-17.66c-0.43-0.78,0.03-1.47,1.02-1.54
				l22.79-1.65c0.96-0.07,2.08,0.5,2.49,1.27l9.46,17.37C231.94,191.16,231.51,191.85,230.56,191.93z"/>
			<path class="st9" d="M261.21,187.89c0.41,0.75,0,1.43-0.92,1.51l-21.79,1.86c-0.94,0.08-2.05-0.47-2.47-1.24l-9.44-17.32
				c-0.42-0.77,0.02-1.44,0.97-1.51l21.94-1.58c0.92-0.07,2,0.49,2.42,1.24L261.21,187.89z"/>
			<path class="st9" d="M289.82,185.47c0.4,0.74,0.01,1.4-0.87,1.48l-21,1.79c-0.91,0.08-1.98-0.47-2.39-1.22l-9.26-17
				c-0.41-0.75,0-1.41,0.92-1.48l21.14-1.53c0.89-0.06,1.94,0.48,2.34,1.22L289.82,185.47z"/>
			<path class="st9" d="M317.4,183.14c0.4,0.73,0.03,1.37-0.83,1.45l-20.24,1.73c-0.88,0.07-1.91-0.46-2.32-1.2l-9.09-16.69
				c-0.4-0.74-0.01-1.39,0.87-1.45l20.38-1.47c0.86-0.06,1.87,0.48,2.27,1.2L317.4,183.14z"/>
			<path class="st9" d="M344,180.9c0.39,0.71,0.04,1.35-0.79,1.42l-19.53,1.67c-0.85,0.07-1.85-0.46-2.25-1.18l-8.93-16.39
				c-0.39-0.72-0.02-1.36,0.83-1.42l19.66-1.42c0.83-0.06,1.81,0.47,2.2,1.18L344,180.9z"/>
			<path class="st9" d="M369.68,178.73c0.38,0.7,0.05,1.33-0.75,1.39l-18.85,1.61c-0.82,0.07-1.79-0.45-2.18-1.16l-8.77-16.1
				c-0.39-0.71-0.04-1.34,0.79-1.4l18.98-1.37c0.8-0.06,1.76,0.46,2.14,1.17L369.68,178.73z"/>
			<path class="st9" d="M394.49,176.63c0.38,0.69,0.06,1.3-0.71,1.37l-18.21,1.55c-0.79,0.07-1.74-0.45-2.12-1.15l-8.62-15.83
				c-0.38-0.7-0.05-1.31,0.75-1.37l18.34-1.32c0.77-0.06,1.7,0.46,2.08,1.15L394.49,176.63z"/>
			<path class="st9" d="M418.46,174.61c0.37,0.68,0.07,1.28-0.67,1.34l-17.6,1.5c-0.76,0.07-1.68-0.44-2.06-1.13l-8.47-15.56
				c-0.37-0.69-0.06-1.29,0.71-1.35l17.72-1.28c0.75-0.05,1.65,0.45,2.02,1.13L418.46,174.61z"/>
			<path class="st9" d="M441.65,172.65c0.36,0.67,0.08,1.26-0.64,1.32l-17.02,1.45c-0.74,0.06-1.63-0.43-2-1.11l-8.33-15.3
				c-0.37-0.68-0.07-1.27,0.68-1.32l17.14-1.24c0.72-0.05,1.6,0.45,1.97,1.11L441.65,172.65z"/>
			<path class="st9" d="M464.08,170.76c0.36,0.66,0.08,1.24-0.61,1.3L447,173.46c-0.71,0.06-1.58-0.43-1.95-1.09l-8.19-15.04
				c-0.36-0.67-0.07-1.25,0.64-1.3l16.58-1.2c0.7-0.05,1.56,0.44,1.91,1.1L464.08,170.76z"/>
			<path class="st9" d="M286.97,235.18c0.41,0.75,0.01,1.45-0.89,1.56l-21.43,2.52c-0.93,0.11-2.02-0.42-2.44-1.19l-9.44-17.32
				c-0.42-0.77,0-1.47,0.94-1.56l21.58-2.24c0.91-0.09,1.98,0.44,2.39,1.19L286.97,235.18z"/>
			<path class="st9" d="M315.11,231.9c0.4,0.74,0.03,1.42-0.84,1.53l-20.65,2.43c-0.89,0.11-1.95-0.42-2.36-1.17l-9.26-17
				c-0.41-0.75-0.01-1.44,0.89-1.53l20.79-2.16c0.88-0.09,1.91,0.44,2.31,1.18L315.11,231.9z"/>
			<path class="st9" d="M342.23,228.73c0.4,0.73,0.04,1.4-0.8,1.49l-19.91,2.34c-0.86,0.1-1.89-0.41-2.29-1.15l-9.09-16.69
				c-0.4-0.74-0.02-1.41,0.85-1.5l20.05-2.08c0.84-0.09,1.85,0.43,2.25,1.16L342.23,228.73z"/>
			<path class="st9" d="M368.4,225.68c0.39,0.71,0.05,1.37-0.76,1.46l-19.21,2.26c-0.83,0.1-1.83-0.41-2.22-1.14l-8.93-16.39
				c-0.39-0.72-0.04-1.38,0.8-1.47l19.34-2.01c0.81-0.08,1.79,0.43,2.18,1.14L368.4,225.68z"/>
			<path class="st9" d="M393.65,222.74c0.38,0.7,0.06,1.34-0.72,1.44l-18.54,2.18c-0.8,0.09-1.77-0.41-2.16-1.12l-8.77-16.1
				c-0.39-0.71-0.05-1.36,0.76-1.44l18.67-1.94c0.79-0.08,1.73,0.42,2.12,1.12L393.65,222.74z"/>
			<path class="st9" d="M418.05,219.89c0.38,0.69,0.07,1.32-0.69,1.41l-17.91,2.11c-0.78,0.09-1.71-0.4-2.09-1.1l-8.62-15.83
				c-0.38-0.7-0.06-1.33,0.72-1.41l18.04-1.87c0.76-0.08,1.68,0.42,2.06,1.11L418.05,219.89z"/>
			<path class="st9" d="M441.63,217.14c0.37,0.68,0.08,1.3-0.65,1.38l-17.31,2.03c-0.75,0.09-1.66-0.4-2.04-1.09l-8.47-15.56
				c-0.37-0.69-0.07-1.31,0.69-1.39l17.43-1.81c0.73-0.08,1.63,0.41,2,1.09L441.63,217.14z"/>
			<path class="st9" d="M464.43,214.48c0.36,0.67,0.09,1.27-0.62,1.36l-16.74,1.97c-0.72,0.09-1.61-0.39-1.98-1.07l-8.33-15.3
				c-0.37-0.68-0.08-1.29,0.65-1.36l16.86-1.75c0.71-0.07,1.58,0.41,1.94,1.07L464.43,214.48z"/>
			<path class="st9" d="M453.28,238.4c0.37,0.68,0.08,1.31-0.64,1.4l-146.2,19.6c-0.89,0.12-1.94-0.39-2.35-1.15l-9.26-17
				c-0.41-0.75-0.02-1.45,0.88-1.56L442.94,222c0.73-0.09,1.62,0.39,1.99,1.07L453.28,238.4z"/>
			<path class="st9" d="M257.57,214.33l-36.9,3.73c-0.97,0.1-2.11-0.45-2.53-1.24l-9.62-17.66c-0.43-0.78,0.03-1.48,1.01-1.57
				l37.15-3.26c0.93-0.08,2.03,0.47,2.44,1.23l9.38,17.22C258.91,213.54,258.49,214.24,257.57,214.33z"/>
			<path class="st9" d="M287.43,209.88c0.41,0.75,0.01,1.43-0.88,1.52l-21.24,2.15c-0.92,0.09-2-0.45-2.42-1.21l-9.35-17.17
				c-0.41-0.76,0-1.44,0.93-1.52l21.39-1.88c0.9-0.08,1.96,0.46,2.37,1.21L287.43,209.88z"/>
			<path class="st9" d="M315.32,207.09c0.4,0.73,0.03,1.4-0.84,1.49l-20.47,2.07c-0.89,0.09-1.94-0.44-2.34-1.19l-9.18-16.85
				c-0.41-0.75-0.01-1.41,0.88-1.49l20.61-1.81c0.87-0.08,1.9,0.46,2.29,1.19L315.32,207.09z"/>
			<path class="st9" d="M342.21,204.4c0.39,0.72,0.04,1.37-0.79,1.46l-19.74,2c-0.85,0.09-1.87-0.44-2.27-1.17l-9.01-16.55
				c-0.4-0.73-0.02-1.39,0.84-1.46l19.88-1.74c0.84-0.07,1.83,0.45,2.23,1.17L342.21,204.4z"/>
			<path class="st9" d="M368.16,201.8c0.39,0.71,0.05,1.35-0.75,1.43l-19.05,1.93c-0.82,0.08-1.81-0.43-2.2-1.15l-8.85-16.26
				c-0.39-0.72-0.03-1.36,0.8-1.43l19.18-1.68c0.81-0.07,1.78,0.45,2.16,1.15L368.16,201.8z"/>
			<path class="st9" d="M393.22,199.29c0.38,0.7,0.06,1.32-0.72,1.4l-18.39,1.86c-0.8,0.08-1.75-0.43-2.14-1.13l-8.7-15.97
				c-0.38-0.71-0.05-1.34,0.76-1.41l18.52-1.63c0.78-0.07,1.72,0.44,2.1,1.14L393.22,199.29z"/>
			<path class="st9" d="M417.43,196.86c0.37,0.68,0.07,1.3-0.68,1.38l-17.77,1.8c-0.77,0.08-1.7-0.42-2.08-1.12l-8.55-15.7
				c-0.38-0.69-0.06-1.31,0.72-1.38l17.9-1.57c0.75-0.07,1.67,0.43,2.04,1.12L417.43,196.86z"/>
			<path class="st9" d="M440.83,194.52c0.37,0.67,0.08,1.28-0.65,1.35L423,197.6c-0.74,0.08-1.65-0.42-2.02-1.1l-8.41-15.43
				c-0.37-0.68-0.07-1.29,0.68-1.35l17.3-1.52c0.73-0.06,1.62,0.43,1.98,1.1L440.83,194.52z"/>
		</g>
		<g>
			<path class="st11" d="M485.21,170.2l-15.94,1.36c-0.69,0.06-1.54-0.42-1.89-1.08l-8.06-14.8c-0.36-0.65-0.08-1.23,0.61-1.28
				l16.05-1.16c0.68-0.05,1.51,0.43,1.86,1.08l7.95,14.6C486.15,169.57,485.89,170.14,485.21,170.2z"/>
			<path class="st6" d="M256.83,240.17l-22.26,2.62c-0.96,0.11-2.09-0.43-2.52-1.21l-9.62-17.66c-0.43-0.78,0.02-1.5,0.99-1.6
				l22.42-2.33c0.94-0.1,2.05,0.45,2.47,1.21l9.46,17.37C258.19,239.35,257.77,240.06,256.83,240.17z"/>
			<path class="st11" d="M269.97,264.29l-22.08,2.96c-0.96,0.13-2.08-0.4-2.5-1.18l-9.62-17.66c-0.43-0.78,0.01-1.51,0.98-1.62
				l22.23-2.67c0.94-0.11,2.03,0.42,2.45,1.19l9.46,17.37C271.31,263.44,270.9,264.17,269.97,264.29z"/>
			<path class="st11" d="M299.85,258.82c0.41,0.75,0.02,1.46-0.88,1.58l-21.25,2.85c-0.92,0.12-2.01-0.4-2.42-1.16l-9.44-17.32
				c-0.42-0.77,0-1.48,0.92-1.59l21.4-2.57c0.9-0.11,1.96,0.42,2.37,1.17L299.85,258.82z"/>
			<path class="st11" d="M475.82,235.4c0.36,0.67,0.09,1.28-0.61,1.38l-16.6,2.23c-0.72,0.1-1.6-0.37-1.97-1.05l-8.33-15.3
				c-0.37-0.68-0.08-1.3,0.64-1.38l16.72-2.01c0.71-0.08,1.57,0.39,1.93,1.05L475.82,235.4z"/>
			<path class="st11" d="M497.7,232.49c0.36,0.66,0.1,1.26-0.58,1.35l-16.06,2.15c-0.69,0.09-1.55-0.37-1.91-1.04l-8.19-15.04
				c-0.36-0.67-0.09-1.27,0.61-1.36l16.18-1.94c0.68-0.08,1.52,0.38,1.88,1.04L497.7,232.49z"/>
			<path class="st11" d="M518.33,231l-15.55,2.08c-0.67,0.09-1.51-0.37-1.86-1.02l-8.06-14.8c-0.36-0.65-0.1-1.25,0.58-1.33
				l15.66-1.88c0.66-0.08,1.48,0.38,1.83,1.03l7.95,14.6C519.23,230.31,518.99,230.91,518.33,231z"/>
			<path class="st11" d="M496.03,190.22l-49.51,5.01c-0.72,0.07-1.6-0.41-1.96-1.08l-8.26-15.17c-0.37-0.67-0.07-1.27,0.65-1.33
				l49.86-4.37c0.67-0.06,1.5,0.42,1.85,1.06l7.95,14.6C496.95,189.57,496.7,190.15,496.03,190.22z"/>
		</g>
	</g>
	<g>
		<path class="st3" d="M440.42,56.15c0,1.75-0.43,3.12-1.3,4.09s-2.02,1.46-3.46,1.46c-0.67,0-1.23-0.08-1.66-0.24v-2.31
			c0.39,0.27,0.9,0.4,1.52,0.4c1.64,0,2.45-1.26,2.45-3.79v-9.09h2.45V56.15z"/>
		<path class="st3" d="M443.25,60.86v-2.53c0.23,0.21,0.5,0.39,0.81,0.56c0.31,0.16,0.64,0.3,1,0.42c0.35,0.11,0.7,0.2,1.05,0.26
			c0.35,0.06,0.67,0.09,0.97,0.09c1.03,0,1.8-0.17,2.3-0.52s0.76-0.84,0.76-1.5c0-0.35-0.08-0.65-0.25-0.91s-0.4-0.49-0.71-0.71
			c-0.3-0.21-0.66-0.42-1.07-0.61s-0.85-0.4-1.31-0.61c-0.5-0.27-0.97-0.54-1.4-0.81s-0.81-0.58-1.13-0.91
			c-0.32-0.33-0.57-0.71-0.75-1.13c-0.18-0.42-0.27-0.91-0.27-1.47c0-0.69,0.16-1.3,0.47-1.81c0.31-0.51,0.73-0.93,1.24-1.27
			c0.51-0.33,1.09-0.58,1.75-0.74s1.32-0.24,2-0.24c1.55,0,2.67,0.18,3.38,0.53v2.42c-0.84-0.6-1.92-0.91-3.24-0.91
			c-0.36,0-0.73,0.03-1.09,0.1s-0.68,0.18-0.97,0.34c-0.29,0.16-0.52,0.36-0.7,0.61c-0.18,0.25-0.27,0.55-0.27,0.9
			c0,0.33,0.07,0.62,0.21,0.86c0.14,0.24,0.34,0.46,0.6,0.66c0.26,0.2,0.59,0.39,0.97,0.58c0.38,0.19,0.82,0.39,1.33,0.61
			c0.52,0.27,1,0.55,1.46,0.85c0.46,0.3,0.86,0.62,1.21,0.98c0.35,0.36,0.62,0.75,0.82,1.19s0.3,0.93,0.3,1.49
			c0,0.75-0.15,1.38-0.45,1.9c-0.3,0.52-0.71,0.93-1.22,1.26s-1.1,0.56-1.77,0.7c-0.67,0.14-1.37,0.22-2.11,0.22
			c-0.25,0-0.55-0.02-0.91-0.06c-0.36-0.04-0.73-0.09-1.11-0.16c-0.38-0.07-0.74-0.16-1.07-0.26
			C443.73,61.11,443.46,60.99,443.25,60.86z"/>
	</g>
</g>
</svg>
