<?xml version="1.0" encoding="utf-8"?>
<!-- Generator: Adobe Illustrator 24.3.0, SVG Export Plug-In . SVG Version: 6.00 Build 0)  -->
<svg version="1.1" id="Layer_1" xmlns="http://www.w3.org/2000/svg" xmlns:xlink="http://www.w3.org/1999/xlink" x="0px" y="0px"
	 viewBox="0 0 636 300" style="enable-background:new 0 0 636 300;" xml:space="preserve">
<style type="text/css">
	.st0{fill:#FBC977;}
	.st1{fill:#57AA9A;}
	.st2{fill:#F7B548;}
	.st3{fill:#6BA8F1;}
	.st4{fill:#BDD8F9;}
	.st5{fill:#8065E0;}
	.st6{fill:#FFFFFF;}
	.st7{fill:#1572E0;}
	.st8{fill:#B0D1F7;}
	.st9{fill:#FFD590;}
	.st10{fill:#7FD5CA;}
	.st11{fill:#D8E8FB;}
	.st12{fill:#C2E8E3;}
	.st13{fill:#FFECCD;}
	.st14{fill:#FEDEA7;}
	.st15{fill:#D1C5F4;}
	.st16{fill:#70D6E0;}
	.st17{fill:#25BACA;}
	.st18{fill:#1BA1B5;}
	.st19{fill:#8A6FE8;}
	.st20{fill:url(#SVGID_1_);}
	.st21{fill:#522CD5;}
	.st22{fill:url(#SVGID_2_);}
	.st23{fill:url(#SVGID_3_);}
	.st24{fill:url(#SVGID_4_);}
	.st25{fill:url(#SVGID_5_);}
	.st26{fill:#D8CFF7;}
	.st27{fill:#512BD4;}
	.st28{fill:url(#SVGID_6_);}
	.st29{fill:#A08BE8;}
	.st30{fill:url(#SVGID_7_);}
	.st31{fill:url(#SVGID_8_);}
	.st32{fill:url(#SVGID_9_);}
	.st33{fill:url(#SVGID_10_);}
	.st34{fill:url(#SVGID_11_);}
	.st35{fill:url(#SVGID_12_);}
	.st36{fill:#98C2F5;}
	.st37{fill:#0064DA;}
	.st38{fill:#3E8EED;}
	.st39{fill:#C7E0F4;}
	.st40{fill:#B3AFAB;}
	.st41{fill:#A7A4A0;}
	.st42{fill:#957EE6;}
	.st43{fill:#E5F0FC;}
	.st44{fill:#1DACCC;}
	.st45{fill:#76AFF2;}
	.st46{fill:#FCCF84;}
	.st47{fill:#8DBCF4;}
	.st48{fill:#E1DFDD;}
	.st49{fill:url(#SVGID_13_);}
	.st50{fill:url(#SVGID_14_);}
	.st51{fill:url(#SVGID_15_);}
	.st52{fill:url(#SVGID_16_);}
	.st53{fill:url(#SVGID_17_);}
	.st54{fill:url(#SVGID_18_);}
	.st55{fill:url(#SVGID_19_);}
	.st56{fill:url(#SVGID_20_);}
	.st57{fill:#C8C6C4;}
	.st58{fill:#605D5A;}
	.st59{fill:#797673;}
	.st60{fill:#64BFAF;}
	.st61{fill:#2CC7EA;}
	.st62{fill:url(#SVGID_21_);}
	.st63{fill:url(#SVGID_22_);}
	.st64{fill:url(#SVGID_23_);}
	.st65{fill:url(#SVGID_24_);}
	.st66{fill:url(#SVGID_25_);}
	.st67{fill:url(#SVGID_26_);}
	.st68{fill:#B6E3DE;}
	.st69{fill:#6FCFCE;}
	.st70{fill:#1FB1D1;}
	.st71{fill:url(#SVGID_27_);}
	.st72{fill:#FAC369;}
	.st73{fill:#E29E3B;}
	.st74{fill:#33D5F9;}
	.st75{fill:url(#SVGID_28_);}
	.st76{fill:url(#SVGID_29_);}
	.st77{fill:url(#SVGID_30_);}
	.st78{fill:url(#SVGID_31_);}
	.st79{fill:url(#SVGID_32_);}
	.st80{fill:url(#SVGID_33_);}
	.st81{fill:url(#SVGID_34_);}
	.st82{fill:url(#SVGID_35_);}
	.st83{fill:url(#SVGID_36_);}
	.st84{fill:url(#SVGID_37_);}
	.st85{fill:url(#SVGID_38_);}
	.st86{fill:#D0C5F3;}
	.st87{fill:url(#SVGID_39_);}
	.st88{fill:url(#SVGID_40_);}
	.st89{fill:url(#SVGID_41_);}
	.st90{fill:url(#SVGID_42_);}
	.st91{fill:#EEAB42;}
	.st92{fill:#E8A53F;}
	.st93{fill:#A3C9F6;}
	.st94{fill:url(#SVGID_43_);}
	.st95{fill:url(#SVGID_44_);}
	.st96{fill:url(#SVGID_45_);}
	.st97{fill:url(#SVGID_46_);}
	.st98{fill:url(#SVGID_47_);}
	.st99{fill:url(#SVGID_48_);}
	.st100{fill:url(#SVGID_49_);}
	.st101{fill:url(#SVGID_50_);}
	.st102{fill:#84817D;}
	.st103{fill:url(#SVGID_51_);}
	.st104{fill:url(#SVGID_52_);}
	.st105{fill:url(#SVGID_53_);}
	.st106{fill:url(#SVGID_54_);}
	.st107{fill:url(#SVGID_55_);}
	.st108{fill:url(#SVGID_56_);}
	.st109{fill:url(#SVGID_57_);}
	.st110{fill:url(#SVGID_58_);}
	.st111{fill:#BBACEF;}
	.st112{fill:url(#SVGID_59_);}
	.st113{fill:url(#SVGID_60_);}
	.st114{fill:url(#SVGID_61_);}
	.st115{fill:url(#SVGID_62_);}
	.st116{fill:url(#SVGID_63_);}
	.st117{fill:url(#SVGID_64_);}
	.st118{fill:url(#SVGID_65_);}
	.st119{fill:url(#SVGID_66_);}
	.st120{fill:url(#SVGID_67_);}
	.st121{fill:url(#SVGID_68_);}
	.st122{fill:url(#SVGID_69_);}
	.st123{fill:url(#SVGID_70_);}
	.st124{fill:url(#SVGID_71_);}
	.st125{fill:#CEDB59;}
	.st126{fill:#CCCAC7;}
	.st127{fill:#78881B;}
	.st128{fill:#9C9894;}
	.st129{fill:#EEF3C4;}
	.st130{fill:#B2C133;}
	.st131{fill:#D5E06D;}
	.st132{fill:#A4ECFC;}
	.st133{fill:#0B7891;}
	.st134{fill:#908D89;}
	.st135{fill:#DDDBDA;}
	.st136{fill:url(#SVGID_72_);}
	.st137{fill:url(#SVGID_73_);}
	.st138{fill:#56534F;}
	.st139{fill:#CAE0FA;}
	.st140{fill:#4995EE;}
	.st141{fill:#A7CBF6;}
	.st142{fill:#E86E58;}
	.st143{fill:#FAE969;}
	.st144{fill:#56A84F;}
	.st145{fill:none;stroke:#3085E9;stroke-width:2;stroke-miterlimit:10;}
	.st146{fill:#B2D5F8;}
	.st147{fill:#B2B2B2;}
	.st148{fill:url(#SVGID_74_);}
	.st149{fill:url(#SVGID_75_);}
	.st150{fill:url(#SVGID_76_);}
	.st151{fill:url(#SVGID_77_);}
	.st152{fill:url(#SVGID_78_);}
	.st153{fill:url(#SVGID_79_);}
	.st154{fill:url(#SVGID_80_);}
	.st155{fill:url(#SVGID_81_);}
	.st156{fill:url(#SVGID_82_);}
	.st157{fill:url(#SVGID_83_);}
	.st158{fill:url(#SVGID_84_);}
	.st159{fill:url(#SVGID_85_);}
	.st160{fill:url(#SVGID_86_);}
	.st161{fill:url(#SVGID_87_);}
	.st162{fill:url(#SVGID_88_);}
	.st163{fill:url(#SVGID_89_);}
	.st164{fill:#FFB900;}
	.st165{fill:#D5D3D0;}
	.st166{fill:none;stroke:#FF00FF;stroke-width:1.0976;stroke-miterlimit:10;}
	.st167{fill:url(#SVGID_90_);}
	.st168{fill:#EA7F6B;}
	.st169{fill:#22B2C3;}
	.st170{fill:#DF6551;}
	.st171{fill:#F8BB55;}
	.st172{fill:#F8B84F;}
	.st173{fill:#40C9D6;}
	.st174{fill:#CC5444;}
	.st175{fill:#CFEFEB;}
	.st176{fill:#D3E7F8;}
	.st177{fill:#81B5F3;}
	.st178{fill:#4D4D4D;}
	.st179{fill:url(#SVGID_91_);}
	.st180{fill:#2980E7;}
	.st181{fill:#CFF1F5;}
	.st182{fill:#58D0DB;}
	.st183{fill:#28C2D1;}
	.st184{fill:#9FE4EB;}
	.st185{fill:#3097D8;}
	.st186{fill:url(#SVGID_92_);}
	.st187{fill:#939393;}
	.st188{fill:url(#SVGID_93_);}
	.st189{fill:#FEDBA1;}
	.st190{fill:#FAC670;}
	.st191{fill:#625F5B;}
	.st192{fill:#D69521;}
	.st193{fill:#7F7F7F;}
	.st194{fill:#505050;}
	.st195{fill:#D2D2D2;}
	.st196{fill:#848484;}
	.st197{fill:url(#SVGID_94_);}
	.st198{fill:#444444;}
	.st199{fill:#737373;}
	.st200{fill:url(#SVGID_95_);}
	.st201{fill:#549BEF;}
	.st202{fill:#6D6A66;}
	.st203{fill:#38776B;}
	.st204{fill:#9FE0D7;}
	.st205{fill:#45897C;}
	.st206{fill:#CFECE9;}
	.st207{fill:url(#SVGID_96_);}
	.st208{fill:url(#SVGID_97_);}
	.st209{fill:url(#SVGID_98_);}
	.st210{fill:url(#SVGID_99_);}
	.st211{fill:url(#SVGID_100_);}
	.st212{fill:url(#SVGID_101_);}
	.st213{fill:url(#SVGID_102_);}
	.st214{fill:url(#SVGID_103_);}
	.st215{fill:url(#SVGID_104_);}
	.st216{fill:url(#SVGID_105_);}
	.st217{fill:url(#SVGID_106_);}
	.st218{fill:url(#SVGID_107_);}
	.st219{fill:#29C3E5;}
	.st220{fill:#60DEFA;}
	.st221{fill:#0F849E;}
	.st222{fill:#D2F6FE;}
	.st223{fill:#179BB8;}
	.st224{fill:#AFE5DE;}
	.st225{fill:#AE9CEB;}
	.st226{fill:url(#SVGID_108_);}
	.st227{fill:#D6CDF5;}
	.st228{fill:none;stroke:#D6CDF5;stroke-width:2;stroke-miterlimit:10;}
	.st229{fill:#7354DD;}
	.st230{fill:#A8B82F;}
	.st231{fill:#C9BDF2;}
	.st232{fill:#8970E2;}
	.st233{fill:url(#SVGID_109_);}
	.st234{fill:#72ACF1;}
	.st235{fill:#57CACF;}
	.st236{fill:#FAF9F8;}
	.st237{fill:#4A4844;}
	.st238{fill:#797672;}
	.st239{fill:none;stroke:#72ACF1;stroke-width:2;stroke-miterlimit:10;}
	.st240{fill:url(#SVGID_110_);}
	.st241{fill:url(#SVGID_111_);}
	.st242{fill:url(#SVGID_112_);}
	.st243{fill:#C5D43B;}
	.st244{fill:#3085E9;}
	.st245{fill:none;stroke:#FFFFFF;stroke-width:2;stroke-miterlimit:10;}
	.st246{fill:url(#SVGID_113_);}
	.st247{fill:#42403C;}
	.st248{fill:url(#SVGID_114_);stroke:#625F5B;stroke-width:3;stroke-miterlimit:10;}
	.st249{fill:#E6E4E3;}
	.st250{fill:url(#SVGID_115_);}
	.st251{fill:url(#SVGID_116_);}
	.st252{fill:#8EE8FC;}
	.st253{fill:#927BE5;}
	.st254{fill:url(#SVGID_117_);}
	.st255{fill:url(#SVGID_118_);}
	.st256{fill:url(#SVGID_119_);}
	.st257{fill:url(#SVGID_120_);}
	.st258{fill:url(#SVGID_121_);}
	.st259{fill:url(#SVGID_122_);}
	.st260{fill:url(#SVGID_123_);}
	.st261{fill:url(#SVGID_124_);}
	.st262{fill:url(#SVGID_125_);}
	.st263{fill:url(#SVGID_126_);}
	.st264{fill:url(#SVGID_127_);}
	.st265{fill:#22B5D6;}
	.st266{fill-rule:evenodd;clip-rule:evenodd;fill:#848484;}
	.st267{fill-rule:evenodd;clip-rule:evenodd;fill:#29C3E5;}
	.st268{fill-rule:evenodd;clip-rule:evenodd;fill:#0078D7;}
	.st269{fill:#BBB8B4;}
	.st270{fill:none;}
	.st271{fill:#FDC9B5;}
	.st272{fill:#EB8875;}
	.st273{fill:url(#SVGID_128_);}
	.st274{fill:url(#SVGID_129_);}
	.st275{fill:url(#SVGID_130_);}
	.st276{fill:url(#SVGID_131_);}
	.st277{fill:url(#SVGID_132_);}
	.st278{fill:url(#SVGID_133_);}
	.st279{fill:url(#SVGID_134_);}
	.st280{fill:url(#SVGID_135_);}
	.st281{fill:url(#SVGID_136_);}
	.st282{fill:url(#SVGID_137_);}
	.st283{fill:url(#SVGID_138_);}
	.st284{fill:url(#SVGID_139_);}
	.st285{fill:url(#SVGID_140_);}
	.st286{fill:url(#SVGID_141_);}
	.st287{fill:url(#SVGID_142_);}
	.st288{fill:none;stroke:#FFFFFF;stroke-width:2.2678;stroke-miterlimit:10;}
	.st289{fill:#FFEED0;}
	.st290{fill:#27BEE0;}
	.st291{fill:#BBF1FD;}
	.st292{fill:#24BADB;}
	.st293{fill:#77E3FB;}
	.st294{fill:#666666;}
	.st295{fill:#AACDF6;}
	.st296{fill:#E6E6E6;}
	.st297{fill:#7E62DF;}
	.st298{fill:url(#SVGID_143_);}
	.st299{fill:url(#SVGID_144_);}
	.st300{fill:#FCD18A;}
	.st301{fill:#D8E377;}
	.st302{fill:#DBE581;}
	.st303{fill:#81921F;}
	.st304{fill:#95A527;}
	.st305{fill-rule:evenodd;clip-rule:evenodd;fill:#A7A4A0;}
	.st306{fill:url(#SVGID_145_);}
	.st307{fill:url(#SVGID_146_);}
	.st308{fill:url(#SVGID_147_);}
	.st309{fill:#FDD490;}
	.st310{fill:#B3B3B3;}
	.st311{fill:#F09250;}
	.st312{fill:url(#SVGID_148_);}
	.st313{fill:url(#SVGID_149_);}
	.st314{fill:url(#SVGID_150_);}
	.st315{fill:url(#SVGID_151_);}
	.st316{fill:url(#SVGID_152_);}
	.st317{fill:#F2A694;}
	.st318{fill:#DC624F;}
	.st319{fill:#FDFDFD;}
	.st320{fill:#D0EDFD;}
	.st321{fill:none;stroke:#8065E0;stroke-width:3.5361;stroke-miterlimit:10;}
	.st322{fill:url(#SVGID_153_);}
	.st323{fill:url(#SVGID_154_);}
	.st324{fill:url(#SVGID_155_);}
	.st325{fill:url(#SVGID_156_);}
	.st326{fill:url(#SVGID_157_);}
	.st327{fill:url(#SVGID_158_);}
	.st328{fill:url(#SVGID_159_);}
	.st329{fill:url(#SVGID_160_);}
	.st330{fill:none;stroke:#C8C6C4;stroke-width:0.1949;stroke-miterlimit:10;}
	.st331{fill:url(#SVGID_161_);}
	.st332{fill:url(#SVGID_162_);}
	.st333{fill:url(#SVGID_163_);}
	.st334{fill:url(#SVGID_164_);}
	.st335{fill:url(#SVGID_165_);}
	.st336{fill:url(#SVGID_166_);}
	.st337{fill:url(#SVGID_167_);}
	.st338{fill:url(#SVGID_168_);}
	.st339{fill:url(#SVGID_169_);}
	.st340{fill:url(#SVGID_170_);}
	.st341{fill:url(#SVGID_171_);}
	.st342{fill:url(#SVGID_172_);}
	.st343{fill:url(#SVGID_173_);}
	.st344{fill:#0769DC;}
	.st345{fill:#60A2F0;}
	.st346{fill:#B5D5EA;}
	.st347{fill:#FFE5B9;}
	.st348{fill:#88DDE5;}
	.st349{fill:#1189A5;}
	.st350{fill:#222222;}
	.st351{fill:#00D8FF;}
	.st352{fill:url(#SVGID_174_);}
	.st353{fill:#F2F7FE;}
	.st354{fill:#DD0031;}
	.st355{fill:#C3002F;}
	.st356{fill:#EBA841;}
	.st357{fill:#ED9583;}
	.st358{fill:url(#SVGID_175_);}
	.st359{fill:#106EBE;}
	.st360{fill:url(#SVGID_176_);}
	.st361{fill:url(#SVGID_177_);}
	.st362{fill:#2B579A;}
	.st363{fill:url(#SVGID_178_);}
	.st364{fill:url(#SVGID_179_);}
	.st365{fill:url(#SVGID_180_);}
	.st366{fill:url(#SVGID_181_);}
	.st367{fill:url(#SVGID_182_);}
	.st368{fill:url(#SVGID_183_);}
	.st369{fill:url(#SVGID_184_);}
	.st370{fill:url(#SVGID_185_);}
	.st371{fill:url(#SVGID_186_);}
	.st372{fill:url(#SVGID_187_);}
	.st373{fill:url(#SVGID_188_);}
	.st374{fill:url(#SVGID_189_);}
	.st375{fill:url(#SVGID_190_);}
	.st376{fill:url(#SVGID_191_);}
	.st377{fill:#52A898;}
	.st378{fill:#BADBF9;}
	.st379{fill:#E1EFF9;}
	.st380{fill:#6FD0C3;}
	.st381{fill:#EFFAF8;}
	.st382{fill:url(#SVGID_192_);}
	.st383{fill:url(#SVGID_193_);}
	.st384{fill:url(#SVGID_194_);}
	.st385{fill:url(#SVGID_195_);}
	.st386{fill:url(#SVGID_196_);}
	.st387{fill:url(#SVGID_197_);}
	.st388{fill:url(#SVGID_198_);}
	.st389{fill:url(#SVGID_199_);}
	.st390{fill:url(#SVGID_200_);}
	.st391{fill:url(#SVGID_201_);}
	.st392{fill:url(#SVGID_202_);}
	.st393{fill:url(#SVGID_203_);}
	.st394{fill:url(#SVGID_204_);}
	.st395{fill:#C4C1BE;}
	.st396{fill:#9B86E7;}
	.st397{fill:#DF9B39;}
	.st398{fill:none;stroke:#FFFFFF;stroke-width:4;stroke-miterlimit:10;}
	.st399{fill:none;stroke:#FFFFFF;stroke-width:4;stroke-miterlimit:10;stroke-dasharray:4.2217,6.3326;}
	.st400{fill:none;stroke:#FFFFFF;stroke-width:4;stroke-miterlimit:10;stroke-dasharray:4.1698,6.2547;}
	.st401{fill:none;stroke:#FFFFFF;stroke-width:4;stroke-miterlimit:10;stroke-dasharray:4.2266,6.3399;}
	.st402{fill:none;stroke:#FFFFFF;stroke-width:4;stroke-miterlimit:10;stroke-dasharray:4.459,6.6886;}
	.st403{fill:#4ADAFA;}
	.st404{fill:#EA7B66;}
	.st405{fill:#D8604D;}
	.st406{fill:#F6B29F;}
	.st407{fill:url(#SVGID_205_);}
	.st408{fill:#FFFFFF;stroke:#C5D43B;stroke-width:2;stroke-miterlimit:10;}
	.st409{fill-rule:evenodd;clip-rule:evenodd;fill:#BDD8F9;}
	.st410{fill-rule:evenodd;clip-rule:evenodd;fill:#76AFF2;}
	.st411{fill:url(#SVGID_206_);}
	.st412{fill:url(#SVGID_207_);}
	.st413{fill:url(#SVGID_208_);}
	.st414{fill:url(#SVGID_209_);}
	.st415{fill:url(#SVGID_210_);}
	.st416{fill:url(#SVGID_211_);}
	.st417{fill:url(#SVGID_212_);}
	.st418{fill:url(#SVGID_213_);}
	.st419{fill:url(#SVGID_214_);}
	.st420{fill:url(#SVGID_215_);}
	.st421{fill:url(#SVGID_216_);}
	.st422{fill:url(#SVGID_217_);}
	.st423{fill:url(#SVGID_218_);}
	.st424{fill:url(#SVGID_219_);}
	.st425{fill:url(#SVGID_220_);}
	.st426{fill:url(#SVGID_221_);}
	.st427{fill:#EC917E;}
	.st428{fill:#B53C33;}
	.st429{fill:url(#SVGID_222_);}
	.st430{fill:#F1A18E;}
	.st431{fill:url(#SVGID_223_);}
	.st432{fill:url(#SVGID_224_);}
	.st433{fill:url(#SVGID_225_);}
	.st434{fill:url(#SVGID_226_);}
	.st435{fill:url(#SVGID_227_);}
	.st436{fill:url(#SVGID_228_);}
	.st437{fill:url(#SVGID_229_);}
	.st438{fill:url(#SVGID_230_);}
	.st439{fill:url(#SVGID_231_);}
	.st440{fill:url(#SVGID_232_);}
	.st441{fill:url(#SVGID_233_);}
	.st442{fill:url(#SVGID_234_);}
	.st443{fill:url(#SVGID_235_);}
	.st444{fill:url(#SVGID_236_);}
	.st445{fill:url(#SVGID_237_);}
	.st446{fill:url(#SVGID_238_);}
	.st447{fill:url(#SVGID_239_);}
	.st448{fill:url(#SVGID_240_);}
	.st449{fill:url(#SVGID_241_);}
	.st450{fill:url(#SVGID_242_);}
	.st451{fill:url(#SVGID_243_);}
	.st452{fill:url(#SVGID_244_);}
	.st453{fill:url(#SVGID_245_);}
	.st454{fill:url(#SVGID_246_);}
	.st455{fill:url(#SVGID_247_);}
	.st456{fill:url(#SVGID_248_);}
	.st457{fill:url(#SVGID_249_);}
	.st458{fill:url(#SVGID_250_);}
	.st459{fill:url(#SVGID_251_);}
	.st460{fill:url(#SVGID_252_);}
	.st461{fill:#1BA6C5;}
	.st462{fill:url(#SVGID_253_);}
	.st463{fill-rule:evenodd;clip-rule:evenodd;fill:#BBF1FD;}
	.st464{fill:url(#SVGID_254_);}
	.st465{fill-rule:evenodd;clip-rule:evenodd;fill:#FFFFFF;}
	.st466{fill-rule:evenodd;clip-rule:evenodd;fill:#B2B2B2;}
	.st467{fill-rule:evenodd;clip-rule:evenodd;fill:#1DACCC;}
	.st468{fill:url(#SVGID_255_);}
	.st469{fill:url(#SVGID_256_);}
	.st470{fill:url(#SVGID_257_);}
	.st471{fill:url(#SVGID_258_);}
	.st472{fill:url(#SVGID_259_);}
	.st473{fill:url(#SVGID_260_);}
	.st474{fill:url(#SVGID_261_);}
	.st475{fill:url(#SVGID_262_);}
	.st476{fill:url(#SVGID_263_);}
	.st477{fill:url(#SVGID_264_);}
	.st478{fill:url(#SVGID_265_);}
	.st479{fill:url(#SVGID_266_);}
	.st480{fill:url(#SVGID_267_);}
	.st481{fill:url(#SVGID_268_);}
	.st482{fill:url(#SVGID_269_);}
	.st483{fill:#D55D4B;}
	.st484{fill:#FDD696;}
	.st485{fill:url(#SVGID_270_);}
	.st486{fill:url(#SVGID_271_);}
	.st487{fill:url(#SVGID_272_);}
	.st488{fill:url(#SVGID_273_);}
	.st489{fill:#5F5F5F;}
	.st490{fill:#F2F6D0;}
	.st491{fill:#227BE5;}
	.st492{fill:#E8FAFE;}
	.st493{fill:url(#SVGID_274_);}
	.st494{fill:url(#SVGID_275_);}
	.st495{fill:url(#SVGID_276_);}
	.st496{fill:url(#SVGID_277_);}
	.st497{fill:url(#SVGID_278_);}
	.st498{fill:url(#SVGID_279_);}
	.st499{fill:url(#SVGID_280_);}
	.st500{fill:url(#SVGID_281_);}
	.st501{fill:url(#SVGID_282_);}
	.st502{fill:url(#SVGID_283_);}
	.st503{fill:url(#SVGID_284_);}
	.st504{fill:url(#SVGID_285_);}
	.st505{fill:url(#SVGID_286_);}
	.st506{fill:url(#SVGID_287_);}
	.st507{fill:url(#SVGID_288_);}
	.st508{fill:url(#SVGID_289_);}
	.st509{fill:#0D7E98;}
	.st510{fill:#E56B56;}
	.st511{fill:#F9BE5C;}
	.st512{fill:#CB8930;}
	.st513{fill:none;stroke:#FFFFFF;stroke-width:2.8606;stroke-miterlimit:10;}
	.st514{fill:none;stroke:#B3AFAB;stroke-width:1.4303;stroke-linecap:round;stroke-linejoin:round;stroke-miterlimit:10;}
	.st515{fill-rule:evenodd;clip-rule:evenodd;fill:#F7B548;}
	.st516{fill:url(#SVGID_290_);}
	.st517{fill:url(#SVGID_291_);}
	.st518{fill:url(#SVGID_292_);}
	.st519{fill:url(#SVGID_293_);}
	.st520{fill:url(#SVGID_294_);}
	.st521{fill:url(#SVGID_295_);}
	.st522{fill:url(#SVGID_296_);}
	.st523{fill:url(#SVGID_297_);}
	.st524{fill:url(#SVGID_298_);}
	.st525{fill:url(#SVGID_299_);}
	.st526{fill:url(#SVGID_300_);}
	.st527{fill:url(#SVGID_301_);}
	.st528{fill:url(#SVGID_302_);}
	.st529{fill:url(#SVGID_303_);}
	.st530{fill:url(#SVGID_304_);}
	.st531{fill:url(#SVGID_305_);}
	.st532{fill:url(#SVGID_306_);}
	.st533{fill:url(#SVGID_307_);}
	.st534{fill:url(#SVGID_308_);}
	.st535{fill:url(#SVGID_309_);}
	.st536{fill:url(#SVGID_310_);}
	.st537{fill:url(#SVGID_311_);}
	.st538{fill:url(#SVGID_312_);}
	.st539{fill:url(#SVGID_313_);}
	.st540{fill:url(#SVGID_314_);}
	.st541{fill:url(#SVGID_315_);}
	.st542{fill:#138FAB;}
	.st543{fill:#B1E9EE;}
	.st544{fill:none;stroke:#FF00FF;stroke-width:37.7526;stroke-miterlimit:10;}
	.st545{clip-path:url(#SVGID_317_);fill:#8065E0;}
	.st546{clip-path:url(#SVGID_317_);fill:#7F64E0;}
	.st547{clip-path:url(#SVGID_317_);fill:#7F63E0;}
	.st548{clip-path:url(#SVGID_317_);fill:#7E63DF;}
	.st549{clip-path:url(#SVGID_317_);fill:#7D62DF;}
	.st550{clip-path:url(#SVGID_317_);fill:#7D61DF;}
	.st551{clip-path:url(#SVGID_317_);fill:#7C60DF;}
	.st552{clip-path:url(#SVGID_317_);fill:#7B5FDF;}
	.st553{clip-path:url(#SVGID_317_);fill:#7B5EDF;}
	.st554{clip-path:url(#SVGID_317_);fill:#7A5DDE;}
	.st555{clip-path:url(#SVGID_317_);fill:#795CDE;}
	.st556{clip-path:url(#SVGID_317_);fill:#785BDE;}
	.st557{clip-path:url(#SVGID_317_);fill:#775ADE;}
	.st558{clip-path:url(#SVGID_317_);fill:#7659DD;}
	.st559{clip-path:url(#SVGID_317_);fill:#7658DD;}
	.st560{clip-path:url(#SVGID_317_);fill:#7557DD;}
	.st561{clip-path:url(#SVGID_317_);fill:#7456DD;}
	.st562{clip-path:url(#SVGID_317_);fill:#7355DC;}
	.st563{clip-path:url(#SVGID_317_);fill:#7254DC;}
	.st564{clip-path:url(#SVGID_317_);fill:#7153DC;}
	.st565{clip-path:url(#SVGID_317_);fill:#7051DC;}
	.st566{clip-path:url(#SVGID_317_);fill:#6F50DB;}
	.st567{clip-path:url(#SVGID_317_);fill:#6E4FDB;}
	.st568{clip-path:url(#SVGID_317_);fill:#6D4EDB;}
	.st569{clip-path:url(#SVGID_317_);fill:#6C4DDB;}
	.st570{clip-path:url(#SVGID_317_);fill:#6B4BDA;}
	.st571{clip-path:url(#SVGID_317_);fill:#6A4ADA;}
	.st572{clip-path:url(#SVGID_317_);fill:#6949DA;}
	.st573{clip-path:url(#SVGID_317_);fill:#6848DA;}
	.st574{clip-path:url(#SVGID_317_);fill:#6746D9;}
	.st575{clip-path:url(#SVGID_317_);fill:#6645D9;}
	.st576{clip-path:url(#SVGID_317_);fill:#6544D9;}
	.st577{clip-path:url(#SVGID_317_);fill:#6443D9;}
	.st578{clip-path:url(#SVGID_317_);fill:#6442D8;}
	.st579{clip-path:url(#SVGID_317_);fill:#6341D8;}
	.st580{clip-path:url(#SVGID_317_);fill:#6240D8;}
	.st581{clip-path:url(#SVGID_317_);fill:#613FD8;}
	.st582{clip-path:url(#SVGID_317_);fill:#603ED8;}
	.st583{clip-path:url(#SVGID_317_);fill:#603DD7;}
	.st584{clip-path:url(#SVGID_317_);fill:#5F3CD7;}
	.st585{clip-path:url(#SVGID_317_);fill:#5E3BD7;}
	.st586{clip-path:url(#SVGID_317_);fill:#5D3AD7;}
	.st587{clip-path:url(#SVGID_317_);fill:#5C39D7;}
	.st588{clip-path:url(#SVGID_317_);fill:#5B38D6;}
	.st589{clip-path:url(#SVGID_317_);fill:#5A37D6;}
	.st590{clip-path:url(#SVGID_317_);fill:#5A36D6;}
	.st591{clip-path:url(#SVGID_317_);fill:#5935D6;}
	.st592{clip-path:url(#SVGID_317_);fill:#5834D6;}
	.st593{clip-path:url(#SVGID_317_);fill:#5732D5;}
	.st594{clip-path:url(#SVGID_317_);fill:#5631D5;}
	.st595{clip-path:url(#SVGID_317_);fill:#5530D5;}
	.st596{clip-path:url(#SVGID_317_);fill:#542FD5;}
	.st597{clip-path:url(#SVGID_317_);fill:#542ED5;}
	.st598{clip-path:url(#SVGID_317_);fill:#532DD4;}
	.st599{clip-path:url(#SVGID_317_);fill:#522CD4;}
	.st600{clip-path:url(#SVGID_317_);fill:#512BD4;}
	.st601{fill:#63D3DE;}
	.st602{fill:url(#SVGID_318_);}
	.st603{fill:url(#SVGID_319_);}
	.st604{fill:url(#SVGID_320_);}
	.st605{fill:none;stroke:#FF00FF;stroke-width:39.6641;stroke-miterlimit:10;}
	.st606{fill:url(#SVGID_321_);}
	.st607{fill:url(#SVGID_322_);}
	.st608{fill:url(#SVGID_323_);}
	.st609{fill:url(#SVGID_324_);}
	.st610{fill:url(#SVGID_325_);}
	.st611{fill:url(#SVGID_326_);}
	.st612{fill:url(#SVGID_327_);}
	.st613{fill:url(#SVGID_328_);}
	.st614{fill:url(#SVGID_329_);}
	.st615{fill:url(#SVGID_330_);}
	.st616{fill:url(#SVGID_331_);}
	.st617{fill:#9EAE2B;}
	.st618{fill:url(#SVGID_332_);}
	.st619{fill:url(#SVGID_333_);}
	.st620{fill:url(#SVGID_334_);}
	.st621{fill:url(#SVGID_335_);}
	.st622{fill:url(#SVGID_336_);}
	.st623{fill:url(#SVGID_337_);}
	.st624{fill:url(#SVGID_338_);}
	.st625{fill:url(#SVGID_339_);}
	.st626{fill:url(#SVGID_340_);}
	.st627{fill:url(#SVGID_341_);}
	.st628{fill:url(#SVGID_342_);}
	.st629{fill:url(#SVGID_343_);}
	.st630{fill:url(#SVGID_344_);}
	.st631{fill:url(#SVGID_345_);}
	.st632{fill:url(#SVGID_346_);}
	.st633{fill:url(#SVGID_347_);}
	.st634{fill:#D8F3FE;}
	.st635{fill:#085A7E;}
	.st636{fill:#E1EA95;}
	.st637{fill:#FEE0AD;}
	.st638{fill:#8E7A6F;}
	.st639{fill:#191717;}
	.st640{fill:#F0DB4F;}
	.st641{fill:#323330;}
	.st642{fill:url(#SVGID_348_);}
	.st643{fill:url(#SVGID_349_);}
	.st644{fill:url(#SVGID_350_);}
	.st645{fill:url(#SVGID_351_);}
	.st646{fill:url(#SVGID_352_);}
	.st647{fill:url(#SVGID_353_);}
	.st648{fill:url(#SVGID_354_);}
	.st649{fill:url(#SVGID_355_);}
	.st650{fill:url(#SVGID_356_);}
	.st651{fill:url(#SVGID_357_);}
	.st652{fill:url(#SVGID_358_);}
	.st653{fill:url(#SVGID_359_);}
	.st654{fill:#8577E5;}
	.st655{fill:url(#SVGID_360_);}
	.st656{fill:#263619;}
	.st657{fill:#6E7F17;}
	.st658{fill:#EEEDEC;}
	.st659{fill:#DEE88B;}
	.st660{fill:url(#SVGID_361_);}
	.st661{fill:none;stroke:#FFFFFF;stroke-width:3.0081;stroke-linecap:round;stroke-linejoin:round;stroke-miterlimit:10;}
	.st662{fill:none;stroke:#FFFFFF;stroke-width:3.567;stroke-linecap:round;stroke-linejoin:round;stroke-miterlimit:10;}
	.st663{fill:#F7F6F6;}
	.st664{fill:#CBD94F;}
	.st665{fill:#CF5746;}
	.st666{fill:#ED8422;}
	.st667{fill-rule:evenodd;clip-rule:evenodd;fill:#A3C9F6;}
	.st668{fill:url(#SVGID_362_);}
	.st669{fill-rule:evenodd;clip-rule:evenodd;fill:#549BEF;}
	.st670{fill:#FDD99C;}
	.st671{fill:#C4832D;}
	.st672{fill:#FFF2DC;}
	.st673{fill:#1595B2;}
	.st674{fill:url(#SVGID_363_);}
	.st675{fill:url(#SVGID_364_);}
	.st676{fill:url(#SVGID_365_);}
	.st677{fill:url(#SVGID_366_);}
	.st678{fill:url(#SVGID_367_);}
	.st679{fill:url(#SVGID_368_);}
	.st680{fill:url(#SVGID_369_);}
	.st681{fill:url(#SVGID_370_);}
	.st682{fill:url(#SVGID_371_);}
	.st683{fill:url(#SVGID_372_);}
	.st684{fill:url(#SVGID_373_);}
	.st685{fill:url(#SVGID_374_);}
	.st686{fill:url(#SVGID_375_);}
	.st687{fill:#EDF7F6;}
	.st688{fill:url(#SVGID_376_);}
	.st689{fill:url(#SVGID_377_);}
	.st690{fill:#E97762;}
	.st691{fill:url(#SVGID_378_);}
	.st692{fill:url(#SVGID_379_);}
	.st693{fill:url(#SVGID_380_);}
	.st694{fill:url(#SVGID_381_);}
	.st695{fill:url(#SVGID_382_);}
	.st696{fill:url(#SVGID_383_);}
	.st697{fill:url(#SVGID_384_);}
	.st698{fill:url(#SVGID_385_);}
	.st699{fill:url(#SVGID_386_);}
	.st700{fill:url(#SVGID_387_);}
	.st701{fill:url(#SVGID_388_);}
	.st702{fill:#A2AD6D;}
	.st703{fill:#E3646A;}
	.st704{fill:#889643;}
	.st705{fill:#EE8F94;}
	.st706{fill:url(#SVGID_389_);}
	.st707{fill:url(#SVGID_390_);}
	.st708{fill:#1C77E2;}
	.st709{fill:#D18F33;}
	.st710{fill:none;stroke:#C740B6;stroke-width:2.0654;stroke-miterlimit:10;}
	.st711{fill:#E26854;}
	.st712{fill:#F9BDAA;}
	.st713{fill:url(#SVGID_391_);}
	.st714{fill:url(#SVGID_392_);}
	.st715{fill:#519F90;}
	.st716{fill:#4E9A8B;}
	.st717{fill:none;stroke:#C2E8E3;stroke-width:1.5759;stroke-miterlimit:10;}
	.st718{fill:url(#SVGID_393_);}
	.st719{fill:url(#SVGID_394_);}
	.st720{fill:url(#SVGID_395_);}
	.st721{fill:url(#SVGID_396_);}
	.st722{fill:url(#SVGID_397_);}
	.st723{fill:none;stroke:#FF00FF;stroke-width:29.9084;stroke-miterlimit:10;}
	.st724{fill:url(#SVGID_398_);}
	.st725{fill:url(#SVGID_399_);}
	.st726{fill:url(#SVGID_400_);}
	.st727{fill:url(#SVGID_401_);}
	.st728{fill:url(#SVGID_402_);}
	.st729{fill:url(#SVGID_403_);}
	.st730{fill:url(#SVGID_404_);}
	.st731{fill:url(#SVGID_405_);}
	.st732{fill:url(#SVGID_406_);}
	.st733{fill:#2B88D8;}
	.st734{fill:url(#SVGID_407_);}
	.st735{fill:url(#SVGID_408_);}
	.st736{fill:url(#SVGID_409_);}
	.st737{fill:url(#SVGID_410_);}
	.st738{fill:url(#SVGID_411_);}
	.st739{fill:url(#SVGID_412_);}
	.st740{fill:url(#SVGID_413_);}
	.st741{fill:url(#SVGID_414_);}
	.st742{fill:url(#SVGID_415_);}
	.st743{fill:url(#SVGID_416_);}
	.st744{fill:url(#SVGID_417_);}
	.st745{fill:url(#SVGID_418_);}
	.st746{fill:url(#SVGID_419_);}
	.st747{fill:url(#SVGID_420_);}
	.st748{fill:url(#SVGID_421_);}
	.st749{fill:url(#SVGID_422_);}
	.st750{fill:url(#SVGID_423_);}
	.st751{fill:#F0AE00;}
	.st752{fill:#3F3C38;}
	.st753{fill:#BBCB37;}
	.st754{fill:url(#SVGID_424_);}
	.st755{fill:url(#SVGID_425_);}
	.st756{fill:url(#SVGID_426_);}
	.st757{fill:url(#SVGID_427_);}
	.st758{fill:url(#SVGID_428_);}
	.st759{fill:url(#SVGID_429_);}
	.st760{fill:url(#SVGID_430_);}
	.st761{fill:url(#SVGID_431_);}
	.st762{fill:url(#SVGID_432_);}
	.st763{fill:url(#SVGID_433_);}
	.st764{fill:url(#SVGID_434_);}
	.st765{fill:url(#SVGID_435_);}
	.st766{fill:url(#SVGID_436_);}
	.st767{fill:url(#SVGID_437_);}
	.st768{fill:url(#SVGID_438_);}
	.st769{fill:url(#SVGID_439_);}
	.st770{fill:#F4AC99;}
	.st771{fill:url(#SVGID_440_);}
	.st772{fill:url(#SVGID_441_);}
	.st773{fill:url(#SVGID_442_);}
	.st774{fill:url(#SVGID_443_);}
	.st775{fill:url(#SVGID_444_);}
	.st776{fill:url(#SVGID_445_);}
	.st777{clip-path:url(#SVGID_447_);fill:#8065E0;}
	.st778{clip-path:url(#SVGID_447_);fill:#7F64E0;}
	.st779{clip-path:url(#SVGID_447_);fill:#7F63E0;}
	.st780{clip-path:url(#SVGID_447_);fill:#7E63DF;}
	.st781{clip-path:url(#SVGID_447_);fill:#7D62DF;}
	.st782{clip-path:url(#SVGID_447_);fill:#7D61DF;}
	.st783{clip-path:url(#SVGID_447_);fill:#7C60DF;}
	.st784{clip-path:url(#SVGID_447_);fill:#7B5FDF;}
	.st785{clip-path:url(#SVGID_447_);fill:#7B5EDF;}
	.st786{clip-path:url(#SVGID_447_);fill:#7A5DDE;}
	.st787{clip-path:url(#SVGID_447_);fill:#795CDE;}
	.st788{clip-path:url(#SVGID_447_);fill:#785BDE;}
	.st789{clip-path:url(#SVGID_447_);fill:#775ADE;}
	.st790{clip-path:url(#SVGID_447_);fill:#7659DD;}
	.st791{clip-path:url(#SVGID_447_);fill:#7658DD;}
	.st792{clip-path:url(#SVGID_447_);fill:#7557DD;}
	.st793{clip-path:url(#SVGID_447_);fill:#7456DD;}
	.st794{clip-path:url(#SVGID_447_);fill:#7355DC;}
	.st795{clip-path:url(#SVGID_447_);fill:#7254DC;}
	.st796{clip-path:url(#SVGID_447_);fill:#7153DC;}
	.st797{clip-path:url(#SVGID_447_);fill:#7051DC;}
	.st798{clip-path:url(#SVGID_447_);fill:#6F50DB;}
	.st799{clip-path:url(#SVGID_447_);fill:#6E4FDB;}
	.st800{clip-path:url(#SVGID_447_);fill:#6D4EDB;}
	.st801{clip-path:url(#SVGID_447_);fill:#6C4DDB;}
	.st802{clip-path:url(#SVGID_447_);fill:#6B4BDA;}
	.st803{clip-path:url(#SVGID_447_);fill:#6A4ADA;}
	.st804{clip-path:url(#SVGID_447_);fill:#6949DA;}
	.st805{clip-path:url(#SVGID_447_);fill:#6848DA;}
	.st806{clip-path:url(#SVGID_447_);fill:#6746D9;}
	.st807{clip-path:url(#SVGID_447_);fill:#6645D9;}
	.st808{clip-path:url(#SVGID_447_);fill:#6544D9;}
	.st809{clip-path:url(#SVGID_447_);fill:#6443D9;}
	.st810{clip-path:url(#SVGID_447_);fill:#6442D8;}
	.st811{clip-path:url(#SVGID_447_);fill:#6341D8;}
	.st812{clip-path:url(#SVGID_447_);fill:#6240D8;}
	.st813{clip-path:url(#SVGID_447_);fill:#613FD8;}
	.st814{clip-path:url(#SVGID_447_);fill:#603ED8;}
	.st815{clip-path:url(#SVGID_447_);fill:#603DD7;}
	.st816{clip-path:url(#SVGID_447_);fill:#5F3CD7;}
	.st817{clip-path:url(#SVGID_447_);fill:#5E3BD7;}
	.st818{clip-path:url(#SVGID_447_);fill:#5D3AD7;}
	.st819{clip-path:url(#SVGID_447_);fill:#5C39D7;}
	.st820{clip-path:url(#SVGID_447_);fill:#5B38D6;}
	.st821{clip-path:url(#SVGID_447_);fill:#5A37D6;}
	.st822{clip-path:url(#SVGID_447_);fill:#5A36D6;}
	.st823{clip-path:url(#SVGID_447_);fill:#5935D6;}
	.st824{clip-path:url(#SVGID_447_);fill:#5834D6;}
	.st825{clip-path:url(#SVGID_447_);fill:#5732D5;}
	.st826{clip-path:url(#SVGID_447_);fill:#5631D5;}
	.st827{clip-path:url(#SVGID_447_);fill:#5530D5;}
	.st828{clip-path:url(#SVGID_447_);fill:#542FD5;}
	.st829{clip-path:url(#SVGID_447_);fill:#542ED5;}
	.st830{clip-path:url(#SVGID_447_);fill:#532DD4;}
	.st831{clip-path:url(#SVGID_447_);fill:#522CD4;}
	.st832{clip-path:url(#SVGID_447_);fill:#512BD4;}
	.st833{fill:url(#SVGID_448_);}
	.st834{clip-path:url(#SVGID_450_);fill:#8065E0;}
	.st835{clip-path:url(#SVGID_450_);fill:#7F64E0;}
	.st836{clip-path:url(#SVGID_450_);fill:#7F63E0;}
	.st837{clip-path:url(#SVGID_450_);fill:#7E63DF;}
	.st838{clip-path:url(#SVGID_450_);fill:#7D62DF;}
	.st839{clip-path:url(#SVGID_450_);fill:#7D61DF;}
	.st840{clip-path:url(#SVGID_450_);fill:#7C60DF;}
	.st841{clip-path:url(#SVGID_450_);fill:#7B5FDF;}
	.st842{clip-path:url(#SVGID_450_);fill:#7B5EDF;}
	.st843{clip-path:url(#SVGID_450_);fill:#7A5DDE;}
	.st844{clip-path:url(#SVGID_450_);fill:#795CDE;}
	.st845{clip-path:url(#SVGID_450_);fill:#785BDE;}
	.st846{clip-path:url(#SVGID_450_);fill:#775ADE;}
	.st847{clip-path:url(#SVGID_450_);fill:#7659DD;}
	.st848{clip-path:url(#SVGID_450_);fill:#7658DD;}
	.st849{clip-path:url(#SVGID_450_);fill:#7557DD;}
	.st850{clip-path:url(#SVGID_450_);fill:#7456DD;}
	.st851{clip-path:url(#SVGID_450_);fill:#7355DC;}
	.st852{clip-path:url(#SVGID_450_);fill:#7254DC;}
	.st853{clip-path:url(#SVGID_450_);fill:#7153DC;}
	.st854{clip-path:url(#SVGID_450_);fill:#7051DC;}
	.st855{clip-path:url(#SVGID_450_);fill:#6F50DB;}
	.st856{clip-path:url(#SVGID_450_);fill:#6E4FDB;}
	.st857{clip-path:url(#SVGID_450_);fill:#6D4EDB;}
	.st858{clip-path:url(#SVGID_450_);fill:#6C4DDB;}
	.st859{clip-path:url(#SVGID_450_);fill:#6B4BDA;}
	.st860{clip-path:url(#SVGID_450_);fill:#6A4ADA;}
	.st861{clip-path:url(#SVGID_450_);fill:#6949DA;}
	.st862{clip-path:url(#SVGID_450_);fill:#6848DA;}
	.st863{clip-path:url(#SVGID_450_);fill:#6746D9;}
	.st864{clip-path:url(#SVGID_450_);fill:#6645D9;}
	.st865{clip-path:url(#SVGID_450_);fill:#6544D9;}
	.st866{clip-path:url(#SVGID_450_);fill:#6443D9;}
	.st867{clip-path:url(#SVGID_450_);fill:#6442D8;}
	.st868{clip-path:url(#SVGID_450_);fill:#6341D8;}
	.st869{clip-path:url(#SVGID_450_);fill:#6240D8;}
	.st870{clip-path:url(#SVGID_450_);fill:#613FD8;}
	.st871{clip-path:url(#SVGID_450_);fill:#603ED8;}
	.st872{clip-path:url(#SVGID_450_);fill:#603DD7;}
	.st873{clip-path:url(#SVGID_450_);fill:#5F3CD7;}
	.st874{clip-path:url(#SVGID_450_);fill:#5E3BD7;}
	.st875{clip-path:url(#SVGID_450_);fill:#5D3AD7;}
	.st876{clip-path:url(#SVGID_450_);fill:#5C39D7;}
	.st877{clip-path:url(#SVGID_450_);fill:#5B38D6;}
	.st878{clip-path:url(#SVGID_450_);fill:#5A37D6;}
	.st879{clip-path:url(#SVGID_450_);fill:#5A36D6;}
	.st880{clip-path:url(#SVGID_450_);fill:#5935D6;}
	.st881{clip-path:url(#SVGID_450_);fill:#5834D6;}
	.st882{clip-path:url(#SVGID_450_);fill:#5732D5;}
	.st883{clip-path:url(#SVGID_450_);fill:#5631D5;}
	.st884{clip-path:url(#SVGID_450_);fill:#5530D5;}
	.st885{clip-path:url(#SVGID_450_);fill:#542FD5;}
	.st886{clip-path:url(#SVGID_450_);fill:#542ED5;}
	.st887{clip-path:url(#SVGID_450_);fill:#532DD4;}
	.st888{clip-path:url(#SVGID_450_);fill:#522CD4;}
	.st889{clip-path:url(#SVGID_450_);fill:#512BD4;}
	.st890{fill:url(#SVGID_451_);}
	.st891{fill:url(#SVGID_452_);}
	.st892{fill:url(#SVGID_453_);}
	.st893{fill:url(#SVGID_454_);}
	.st894{fill:url(#SVGID_455_);}
	.st895{fill:url(#SVGID_456_);}
	.st896{fill:url(#SVGID_457_);}
	.st897{fill:url(#SVGID_458_);}
	.st898{fill:url(#SVGID_459_);}
	.st899{fill:url(#SVGID_460_);}
	.st900{fill:url(#SVGID_461_);}
	.st901{fill:url(#SVGID_462_);}
	.st902{fill:url(#SVGID_463_);}
	.st903{fill:url(#SVGID_464_);}
	.st904{fill:url(#SVGID_465_);}
	.st905{fill:url(#SVGID_466_);}
	.st906{fill:url(#SVGID_467_);}
	.st907{fill:url(#SVGID_468_);}
	.st908{fill:url(#SVGID_469_);}
	.st909{fill:#EB8470;}
	.st910{fill:url(#SVGID_470_);}
	.st911{fill:url(#SVGID_471_);}
	.st912{fill:url(#SVGID_472_);}
	.st913{fill:url(#SVGID_473_);}
	.st914{fill:url(#SVGID_474_);}
	.st915{fill:url(#SVGID_475_);}
	.st916{fill:url(#SVGID_476_);}
	.st917{fill:url(#SVGID_477_);}
	.st918{fill:url(#SVGID_478_);}
	.st919{fill:url(#SVGID_479_);}
	.st920{fill:url(#SVGID_480_);}
	.st921{fill:url(#SVGID_481_);}
	.st922{fill:url(#SVGID_482_);}
	.st923{fill:url(#SVGID_483_);}
	.st924{fill:url(#SVGID_484_);}
	.st925{fill:url(#SVGID_485_);}
	.st926{fill:url(#SVGID_486_);}
	.st927{fill:url(#SVGID_487_);}
	.st928{fill:url(#SVGID_488_);}
	.st929{fill:url(#SVGID_489_);}
	.st930{fill:url(#SVGID_490_);}
	.st931{fill:url(#SVGID_491_);}
	.st932{fill:url(#SVGID_492_);}
	.st933{fill:url(#SVGID_493_);}
	.st934{fill:url(#SVGID_494_);}
	.st935{fill:url(#SVGID_495_);}
	.st936{fill:url(#SVGID_496_);}
	.st937{fill:url(#SVGID_497_);}
	.st938{fill:url(#SVGID_498_);}
	.st939{fill:url(#SVGID_499_);}
	.st940{fill:url(#SVGID_500_);}
	.st941{fill:url(#SVGID_501_);}
	.st942{fill:url(#SVGID_502_);}
	.st943{fill:url(#SVGID_503_);}
	.st944{fill:url(#SVGID_504_);}
	.st945{fill:url(#SVGID_505_);}
	.st946{fill:url(#SVGID_506_);}
	.st947{fill:url(#SVGID_507_);}
	.st948{fill:url(#SVGID_508_);}
	.st949{fill:url(#SVGID_509_);}
	.st950{fill:url(#SVGID_510_);}
	.st951{fill:url(#SVGID_511_);}
	.st952{fill:url(#SVGID_512_);}
	.st953{fill:url(#SVGID_513_);}
	.st954{fill:url(#SVGID_514_);}
	.st955{fill:url(#SVGID_515_);}
	.st956{fill:url(#SVGID_516_);}
	.st957{fill:url(#SVGID_517_);}
	.st958{fill:url(#SVGID_518_);}
	.st959{fill:url(#SVGID_519_);}
	.st960{fill:url(#SVGID_520_);}
	.st961{fill:url(#SVGID_521_);}
	.st962{fill:url(#SVGID_522_);}
	.st963{fill:url(#SVGID_523_);}
	.st964{fill:url(#SVGID_524_);}
	.st965{fill:url(#SVGID_525_);}
	.st966{fill:url(#SVGID_526_);}
	.st967{fill:url(#SVGID_527_);}
	.st968{fill:url(#SVGID_528_);}
	.st969{fill:url(#SVGID_529_);}
	.st970{fill:url(#SVGID_530_);}
	.st971{fill:url(#SVGID_531_);}
	.st972{fill:url(#SVGID_532_);}
	.st973{fill:url(#SVGID_533_);}
	.st974{fill:url(#SVGID_534_);}
	.st975{fill:url(#SVGID_535_);}
	.st976{fill:url(#SVGID_536_);}
	.st977{fill:url(#SVGID_537_);}
	.st978{fill:url(#SVGID_538_);}
	.st979{fill:url(#SVGID_539_);}
	.st980{fill:url(#SVGID_540_);}
	.st981{fill:url(#SVGID_541_);}
	.st982{fill:url(#SVGID_542_);}
	.st983{fill:#F9C163;}
	.st984{fill:url(#SVGID_543_);}
	.st985{fill:#E6F2FC;}
	.st986{fill:url(#SVGID_544_);}
	.st987{fill:url(#SVGID_545_);}
	.st988{fill:url(#SVGID_546_);}
	.st989{fill:url(#SVGID_547_);}
	.st990{fill:url(#SVGID_548_);}
	.st991{fill:url(#SVGID_549_);}
	.st992{fill:none;stroke:#908D89;stroke-width:2;stroke-miterlimit:10;}
	.st993{fill:url(#SVGID_550_);}
	.st994{fill:url(#SVGID_551_);}
	.st995{fill:url(#SVGID_552_);}
	.st996{fill:url(#SVGID_553_);}
	.st997{fill:url(#SVGID_554_);}
	.st998{fill:url(#SVGID_555_);}
	.st999{fill:url(#SVGID_556_);}
	.st1000{fill:url(#SVGID_557_);}
	.st1001{fill:url(#SVGID_558_);}
	.st1002{fill:url(#SVGID_559_);}
	.st1003{fill:url(#SVGID_560_);}
	.st1004{fill:url(#SVGID_561_);}
	.st1005{fill:url(#SVGID_562_);}
	.st1006{fill:url(#SVGID_563_);}
	.st1007{fill:url(#SVGID_564_);}
	.st1008{fill:url(#SVGID_565_);}
	.st1009{fill:#2ECCEF;}
	.st1010{fill:url(#SVGID_566_);}
	.st1011{fill:#DDF3FF;}
	.st1012{fill:#DF972B;}
	.st1013{fill:#F2F1F0;}
	.st1014{fill:#F4F3F2;}
	.st1015{fill:#6BAFE9;}
	.st1016{fill:#E96F5F;}
	.st1017{fill:#F2D850;}
	.st1018{fill:#8DE265;}
	.st1019{fill:url(#SVGID_567_);}
	.st1020{fill:url(#SVGID_570_);}
	.st1021{fill:url(#SVGID_573_);}
</style>
<g>
	<polygon class="st309" points="387.63,211.85 163.97,215.37 166.35,51.16 388.95,69.81 	"/>
	<path class="st2" d="M388.3,188.65c0.07-0.05,0.16-0.09,0.22-0.16c0.12-0.13,0.22-0.29,0.28-0.47c0.07-0.17,0.1-0.36,0.1-0.55
		c0-0.18-0.03-0.36-0.09-0.53c-0.06-0.17-0.16-0.32-0.27-0.45c-0.12-0.12-0.26-0.22-0.41-0.28c-0.15-0.06-0.32-0.09-0.48-0.08
		l-0.21,0c-1.53-1.13-2.54-4.03-2.5-7.47l-0.9-0.01c-0.03,3.45-1.1,6.34-2.65,7.46l-0.21,0c-0.16-0.01-0.33,0.02-0.49,0.08
		c-0.16,0.06-0.3,0.16-0.42,0.28c-0.12,0.13-0.22,0.28-0.29,0.45c-0.07,0.17-0.1,0.35-0.11,0.53c0,0.19,0.03,0.38,0.09,0.55
		c0.06,0.18,0.16,0.33,0.27,0.47c0.06,0.07,0.15,0.11,0.22,0.16l-3.36,0c-0.03-3-0.55-5.96-1.57-8.74
		c-1.08-2.94-2.67-5.62-4.69-7.89c-1.89-2.12-4.12-3.81-6.58-5.06l0.09,0c0.01-1.13-0.39-2.21-1.11-3.02
		c-0.6-0.67-1.37-1.09-2.21-1.23c-0.07-0.49-0.17-0.98-0.34-1.44c-0.29-0.79-0.72-1.52-1.26-2.13c-0.55-0.61-1.2-1.11-1.92-1.45
		c-0.36-0.17-0.72-0.3-1.1-0.39l0.17-16.84c0-0.16-0.03-0.33-0.08-0.48c-0.06-0.15-0.14-0.29-0.25-0.41
		c-0.11-0.12-0.24-0.21-0.38-0.27c-0.14-0.06-0.29-0.09-0.44-0.08c-0.15-0.01-0.29,0.01-0.43,0.07c-0.14,0.05-0.26,0.14-0.36,0.25
		c-0.1,0.11-0.19,0.24-0.24,0.38s-0.08,0.3-0.08,0.46l-0.17,16.86c0.04-0.01,0.08,0,0.12-0.01c-0.82,0.14-1.61,0.46-2.32,0.95
		c-0.98,0.69-1.75,1.69-2.21,2.86c-0.18,0.46-0.3,0.95-0.37,1.44c-0.85,0.11-1.65,0.51-2.27,1.16c-0.75,0.79-1.18,1.88-1.2,3.02
		l0.08,0c-1.19,0.55-2.35,1.21-3.45,1.98c-3.8,2.68-6.79,6.52-8.58,11.06c-1.12,2.84-1.74,5.86-1.84,8.91l-14.58-0.01l-0.1,8.96
		l24.48-0.13c0.4-0.5,0.82-0.97,1.26-1.41c6.31-0.1,14.3-0.91,20.93-2.09c1.31,0.94,2.5,2.05,3.51,3.36l22.88-0.12l0.08-8.52
		L388.3,188.65z"/>
	<path class="st2" d="M249.37,188.58c0.09-0.06,0.19-0.1,0.27-0.18c0.14-0.15,0.26-0.32,0.34-0.51c0.08-0.19,0.12-0.39,0.12-0.6
		c0-0.2-0.04-0.4-0.11-0.58c-0.08-0.18-0.19-0.35-0.33-0.49c-0.14-0.14-0.31-0.24-0.49-0.31c-0.18-0.07-0.38-0.1-0.58-0.09l-0.26,0
		c-1.84-1.24-3.04-4.42-3-8.2l-1.09-0.01c-0.05,3.78-1.34,6.95-3.22,8.19l-0.26,0c-0.2-0.01-0.4,0.02-0.59,0.09
		c-0.19,0.07-0.36,0.17-0.51,0.31c-0.15,0.14-0.27,0.31-0.35,0.49c-0.08,0.18-0.13,0.38-0.13,0.59c0,0.21,0.03,0.41,0.1,0.6
		c0.08,0.19,0.19,0.37,0.33,0.51c0.08,0.08,0.18,0.12,0.27,0.18l-4.05,0c-0.03-3.29-0.65-6.55-1.87-9.6
		c-1.29-3.23-3.21-6.18-5.64-8.67c-2.27-2.33-4.97-4.2-7.93-5.57l0.1,0c0.01-1.24-0.46-2.43-1.33-3.33
		c-0.72-0.74-1.66-1.2-2.67-1.36c-0.08-0.54-0.2-1.07-0.41-1.58c-0.35-0.87-0.86-1.67-1.52-2.34c-0.66-0.67-1.44-1.22-2.31-1.59
		c-0.43-0.19-0.88-0.33-1.33-0.43l0.25-18.52c0-0.18-0.03-0.36-0.1-0.53c-0.07-0.17-0.17-0.32-0.31-0.45
		c-0.13-0.13-0.29-0.23-0.46-0.29c-0.17-0.07-0.36-0.1-0.54-0.09c-0.18-0.01-0.35,0.01-0.52,0.07c-0.16,0.06-0.31,0.15-0.44,0.27
		c-0.13,0.12-0.23,0.26-0.29,0.42c-0.07,0.16-0.1,0.33-0.1,0.51l-0.25,18.54c0.05-0.01,0.1,0,0.15-0.01c-1,0.15-1.95,0.5-2.81,1.04
		c-1.19,0.76-2.12,1.85-2.68,3.14c-0.22,0.51-0.36,1.05-0.46,1.59c-1.03,0.12-2,0.55-2.75,1.27c-0.91,0.87-1.44,2.07-1.46,3.32
		l0.1,0c-1.45,0.61-2.85,1.32-4.19,2.18c-4.61,2.94-8.24,7.17-10.43,12.16c-1.37,3.13-2.13,6.46-2.25,9.82l-17.71-0.01l-0.14,9.88
		l29.72-0.16c0.48-0.55,1-1.06,1.53-1.56c7.64-0.11,17.31-1.01,25.33-2.31c1.58,1.03,3.01,2.26,4.23,3.69l27.58-0.15l0.12-9.35
		L249.37,188.58z"/>
	<polygon class="st709" points="384.52,182.54 164.01,181.49 163.58,211.44 384.28,208.5 	"/>
	<path class="st191" d="M208.9,245.1l17.97,0.83l100.67,4.67l-0.03,2.42c0.01,0.58-0.36,1.18-1.04,1.21l-85.93,3.74
		c-0.13,0.01-0.25-0.01-0.37-0.05l-30.49-9.05c-0.6-0.18-0.83-0.68-0.8-1.17l-0.02,0L208.9,245.1z"/>
	<path class="st102" d="M240.56,255.37l85.92-3.6c1.18-0.05,1.47-1.83,0.35-2.19l-27.21-8.69c-0.11-0.04-0.23-0.05-0.34-0.05
		l-89.16,3.02c-1.38,0.05-1.72,1.97-0.42,2.36l30.49,9.1C240.31,255.36,240.44,255.37,240.56,255.37z"/>
	<polygon class="st191" points="264.5,206.18 252.23,248.35 247.16,247.06 259.05,206.24 	"/>
	<polygon class="st238" points="252.15,248.36 289.31,246.95 300.76,205.79 264.19,206.18 	"/>
	<path class="st40" d="M163.1,212.77L163.1,212.77l2.43-167.62l-4.9-0.43c-2.71-0.24-4.95,1.68-4.99,4.28l-2.44,165.84
		c-0.04,2.63,2.15,4.71,4.88,4.66l4.93-0.09L163.1,212.77z"/>
	<g>
		<path class="st2" d="M326.02,79.51l-3.37-0.25l-0.22,20.22l3.37,0.2L326.02,79.51z"/>
		<path class="st73" d="M339.64,137.79l-31.88-1.11l-0.51,45.45l31.92,0.15L339.64,137.79z"/>
		<path class="st2" d="M324.18,93.39c4.21,0.29,8.19,2.15,11.11,5.15c2.9,2.99,4.51,6.89,4.49,10.86l-0.3,28.62l-31.73-1.1
			l0.33-29.23c0.03-4.04,1.75-7.82,4.79-10.5C315.89,94.51,319.96,93.15,324.18,93.39z"/>
		<path class="st73" d="M320.08,132.52l7.35,0.28l0.14-13.33c0.01-0.51-0.07-1.03-0.25-1.51c-0.18-0.49-0.44-0.93-0.78-1.31
			c-0.34-0.38-0.74-0.69-1.18-0.91c-0.45-0.22-0.92-0.34-1.41-0.36l0,0c-0.97-0.03-1.91,0.34-2.6,1.04c-0.7,0.7-1.1,1.67-1.13,2.71
			L320.08,132.52z"/>
		<path class="st73" d="M307.68,132.05l7.46,0.28l0.15-13.44c0-1.04-0.39-2.05-1.07-2.82c-0.69-0.77-1.62-1.24-2.61-1.3l0,0
			c-0.99-0.03-1.93,0.34-2.64,1.05c-0.71,0.71-1.12,1.68-1.14,2.73L307.68,132.05z"/>
		<path class="st73" d="M332.29,132.99l7.22,0.27l0.14-13.22c0.01-0.51-0.07-1.02-0.25-1.5c-0.17-0.48-0.43-0.92-0.76-1.3
			c-0.33-0.38-0.73-0.68-1.16-0.9c-0.44-0.22-0.91-0.34-1.38-0.35l0,0c-0.95-0.03-1.87,0.34-2.56,1.03
			c-0.68,0.69-1.08,1.66-1.1,2.68L332.29,132.99z"/>
		<path class="st73" d="M339.77,109.4l-31.7-1.72l-0.03,2.96l31.7,1.66L339.77,109.4z"/>
	</g>
	<g>
		<path class="st6" d="M241.86,163.4l-80.97-1.34l0.14-9.37l80.94,1.8c3.96,0.09,7.21-3.09,7.26-7.09l0.18-14.69
			c0.11-8.88,7.28-15.77,15.9-15.36l122.63,5.7l-0.07,8.08l-122.66-5.01c-3.86-0.16-7.06,2.94-7.11,6.91l-0.18,14.61
			C257.81,156.47,250.65,163.54,241.86,163.4z"/>
	</g>
	<g>
		<path class="st2" d="M239.87,160.02l-2.21-0.04l0.03-2.23l2.21,0.04L239.87,160.02z M233.21,159.89l-2.23-0.04l0.03-2.24
			l2.23,0.04L233.21,159.89z M226.5,159.77l-2.25-0.04l0.03-2.25l2.25,0.05L226.5,159.77z M219.72,159.64l-2.27-0.04l0.03-2.26
			l2.27,0.05L219.72,159.64z M212.89,159.52l-2.29-0.04l0.03-2.27l2.29,0.05L212.89,159.52z M206,159.39l-2.31-0.04l0.03-2.28
			l2.31,0.05L206,159.39z M199.05,159.26l-2.33-0.04l0.03-2.29l2.33,0.05L199.05,159.26z M192.04,159.13l-2.35-0.04l0.03-2.3
			l2.35,0.05L192.04,159.13z M184.97,158.99l-2.37-0.04l0.03-2.31l2.37,0.05L184.97,158.99z M177.84,158.86l-2.39-0.04l0.03-2.32
			l2.39,0.05L177.84,158.86z M170.64,158.73l-2.41-0.04l0.03-2.33l2.41,0.05L170.64,158.73z M163.38,158.59l-2.43-0.05l0.03-2.34
			l2.43,0.05L163.38,158.59z M244.49,159.84l-0.42-2.19c0.65-0.12,1.29-0.31,1.9-0.55l0.82,2.07
			C246.06,159.46,245.28,159.69,244.49,159.84z M250.79,156.58l-1.51-1.62c0.48-0.46,0.91-0.96,1.29-1.5l1.77,1.31
			C251.89,155.41,251.37,156.02,250.79,156.58z M254.32,150.4l-2.11-0.55c0.15-0.64,0.25-1.31,0.28-1.97l2.17,0.14
			C254.62,148.82,254.51,149.63,254.32,150.4z M254.72,143.56l-2.17-0.06l0.03-2.21l2.17,0.07L254.72,143.56z M254.81,136.93
			l-2.17-0.07l0.03-2.21l2.17,0.08L254.81,136.93z M255.14,130.58l-2.11-0.57c0.18-0.78,0.44-1.54,0.77-2.27l1.97,0.96
			C255.5,129.31,255.29,129.94,255.14,130.58z M258.02,125.54l-1.5-1.63c0.57-0.54,1.19-1.03,1.85-1.44l1.18,1.88
			C259,124.69,258.49,125.09,258.02,125.54z M263.13,122.96l-0.42-2.17c0.76-0.13,1.55-0.19,2.33-0.17l0.01,2.19
			C264.41,122.8,263.76,122.85,263.13,122.96z M387.9,128.09l-0.67-0.03l0.02-2.02l0.67,0.03L387.9,128.09z M383.59,127.9
			l-1.83-0.08l0.02-2.03l1.83,0.08L383.59,127.9z M378.1,127.67l-1.84-0.08l0.02-2.04l1.84,0.08L378.1,127.67z M372.56,127.43
			l-1.86-0.08l0.02-2.04l1.86,0.08L372.56,127.43z M366.98,127.19l-1.87-0.08l0.02-2.05l1.87,0.08L366.98,127.19z M361.35,126.95
			l-1.88-0.08l0.02-2.06l1.88,0.08L361.35,126.95z M355.68,126.7l-1.9-0.08l0.02-2.07l1.9,0.08L355.68,126.7z M349.97,126.46
			l-1.91-0.08l0.02-2.08l1.91,0.08L349.97,126.46z M344.21,126.21l-1.93-0.08l0.02-2.08l1.93,0.09L344.21,126.21z M338.41,125.96
			l-1.94-0.08l0.02-2.09l1.94,0.09L338.41,125.96z M332.56,125.71l-1.96-0.08l0.02-2.1l1.96,0.09L332.56,125.71z M326.67,125.46
			l-1.98-0.08l0.02-2.11l1.98,0.09L326.67,125.46z M320.73,125.2l-1.99-0.09l0.02-2.12l1.99,0.09L320.73,125.2z M314.74,124.95
			l-2.01-0.09l0.02-2.13l2.01,0.09L314.74,124.95z M308.7,124.69l-2.02-0.09l0.02-2.13l2.02,0.09L308.7,124.69z M302.61,124.43
			l-2.04-0.09l0.02-2.14l2.04,0.09L302.61,124.43z M296.48,124.16l-2.06-0.09l0.02-2.15l2.06,0.09L296.48,124.16z M290.29,123.9
			l-2.07-0.09l0.03-2.16l2.07,0.09L290.29,123.9z M284.05,123.63l-2.09-0.09l0.03-2.17l2.09,0.09L284.05,123.63z M277.77,123.36
			l-2.11-0.09l0.03-2.18l2.11,0.09L277.77,123.36z M271.43,123.09L269.3,123l0.03-2.19l2.12,0.09L271.43,123.09z"/>
	</g>
	<g>
		<path class="st710" d="M241.97,160.67l14.72,0.27"/>
		<path class="st710" d="M241.92,164.36l14.72,0.23"/>
		<path class="st710" d="M241.87,168.05l14.72,0.2"/>
		<path class="st710" d="M241.83,171.73l14.72,0.17"/>
		<path class="st710" d="M241.78,175.42l14.72,0.13"/>
		<path class="st710" d="M241.73,179.11l14.73,0.1"/>
		<path class="st709" d="M300.44,160.23c-0.05,5.03-1.52,9.93-4.23,14.09c-2.72,4.18-6.58,7.44-11.1,9.37
			c-4.55,1.94-9.57,2.45-14.43,1.45c-4.89-1.01-9.39-3.5-12.92-7.17c-3.55-3.68-5.95-8.38-6.89-13.48
			c-0.94-5.11-0.37-10.38,1.63-15.12c2-4.74,5.33-8.73,9.55-11.46c4.2-2.72,9.1-4.08,14.05-3.91c3.27,0.11,6.5,0.88,9.48,2.27
			c2.98,1.38,5.66,3.35,7.91,5.79c2.24,2.43,4.01,5.29,5.2,8.41C299.88,153.58,300.47,156.89,300.44,160.23z"/>
		<path class="st73" d="M235.67,211.11c0,0-5.31-3.13-4.26-12.52c1.13-9.3,1.64-13.23-1.08-17.45c5.52,1.26,5.76,10.82,5.52,15.25
			c-0.24,4.43,2.05,12.6,7.69,14.62L235.67,211.11z"/>
		<path class="st73" d="M218.51,181.82c0,0,6.1,5.63,6.18,13.41c0,7.78,3.99,15.13,8.12,17.31l8.27-0.12c0,0-7.58-2.59-9.52-10.09
			C229.53,194.74,224.46,184.11,218.51,181.82z"/>
		<path class="st73" d="M312.73,210.05c0,0,4.84-3.09,4.11-11.96c-0.81-8.8-1.19-12.52,1.34-16.5c-4.99,1.14-5.42,10.24-5.3,14.45
			c0.12,4.21-2.14,12.04-7.35,14.11L312.73,210.05z"/>
		<path class="st73" d="M328.57,182.34c0,0-5.45,5.23-5.69,12.53c-0.16,7.3-3.86,14.29-7.6,16.47l-7.5,0.11c0,0,6.94-2.67,8.85-9.81
			C318.6,194.44,323.31,184.43,328.57,182.34z"/>
		<path class="st709" d="M308.66,162.06l-67.15-1.22l-0.6,47.33l67.24-0.8L308.66,162.06z"/>
		<path class="st2" d="M289.87,190.9l-29.18,0.03l-0.21,17.01l29.2-0.35L289.87,190.9z"/>
		<path class="st709" d="M280.27,194.81l-8.85,0.03l-0.16,13.13l8.86-0.11L280.27,194.81z"/>
		<path class="st73" d="M245.45,165.7l-8.03-0.12l-0.59,45.89l8.04-0.11L245.45,165.7z"/>
		<path class="st73" d="M312.28,166.71l-7.36-0.11l-0.49,43.93l7.37-0.1L312.28,166.71z"/>
		<path class="st73" d="M312.25,168.91l-7.36-0.1l-0.06,5.49l7.36,0.07L312.25,168.91z"/>
		<path class="st73" d="M245.42,168l-8.03-0.11l-0.07,5.73l8.03,0.08L245.42,168z"/>
		<path class="st73" d="M264.33,199.08c0.16-12.92,11.09-14.79,11.96-30.02l-0.35,0c-1.66,7.2-13.3,15.02-18.25,25.68
			c-1.59,3.08-2.21,6.58-1.77,10.01c0.44,3.42,1.92,6.59,4.22,9.06l8.69-0.14C268.83,213.66,264.17,212.36,264.33,199.08z"/>
		<path class="st73" d="M264.52,168.53c1.48,16.54-8.44,20.35-8.59,32.06c-0.14,11.62,6.62,13.16,6.62,13.16l-8.49,0.13
			c0,0-9.78-5.19-4.45-19.12C254.92,180.84,259.27,183.78,264.52,168.53z"/>
		<path class="st270" d="M241.05,213.22l-1.12-1.56c0.07-0.05,7.31-5.51,7.39-11.73c0.08-6.48-1.73-8.96-8.11-11.03l0.61-1.86
			c7.14,2.33,9.5,5.58,9.41,12.88C249.15,207.11,241.38,212.97,241.05,213.22z"/>
		<path class="st270" d="M238.32,213.33c-0.11-0.26-2.69-6.36,2.98-12.55c2.89-3.15,5.86-8.46,4.78-13.1
			c-0.73-3.12-3.22-5.48-7.44-7.02l0.67-1.84c4.86,1.78,7.75,4.6,8.63,8.39c1.25,5.38-2.04,11.36-5.25,14.87
			c-4.75,5.2-2.7,10.21-2.61,10.42L238.32,213.33z"/>
		<path class="st270" d="M238.97,180.56c0,0-3.7,2.95-6.76-3.19c5.46-2.54,7.45-0.13,7.42,1.91
			C239.8,180.57,238.97,180.56,238.97,180.56z"/>
		<path class="st270" d="M239.88,188.15c0,0,0.07-5.55-6.68-2.51C235.09,190.46,237.93,189.99,239.88,188.15z"/>
		<path class="st73" d="M287.55,168.84c-1.82,16.29,7.64,20.06,7.51,31.46c-0.13,11.32-6.65,13.04-6.65,13.04l8.11-0.13
			c0,0,9.27-5.28,4.62-18.64C296.47,181.06,292.26,183.9,287.55,168.84z"/>
		<path class="st270" d="M308.67,212.19c-0.3-0.23-7.36-5.67-7.28-12.63c0.08-7.06,2.35-10.2,8.98-12.42l0.52,1.77
			c-5.91,1.99-7.64,4.38-7.71,10.64c-0.07,6.01,6.49,11.07,6.55,11.12L308.67,212.19z"/>
		<path class="st270" d="M311.16,212.22l-1.6-0.75l0.8,0.37l-0.8-0.37c0.09-0.2,2.07-5.03-2.16-9.92
			c-2.88-3.33-5.81-9.08-4.53-14.27c0.9-3.65,3.65-6.34,8.14-7.99l0.57,1.76c-3.89,1.43-6.24,3.68-6.98,6.68
			c-1.1,4.47,1.54,9.56,4.12,12.54C313.74,206.09,311.26,211.97,311.16,212.22z"/>
		<path class="st270" d="M311.29,180.97c0,0,3.29,2.84,6.18-2.95c-4.87-2.5-6.73-0.23-6.75,1.72
			C310.53,180.96,311.29,180.97,311.29,180.97z"/>
		<path class="st270" d="M310.28,188.2c0,0,0.06-5.3,6.1-2.37C314.59,190.4,312.02,189.96,310.28,188.2z"/>
		<path class="st73" d="M293.51,194.61c-4.5-10.45-15.74-18.34-17.22-25.56l-0.35,0c0.52,15.25,11.24,17.16,11.09,29.89
			c-0.15,13.08-4.75,14.51-4.75,14.51l8.44-0.13c2.26-2.48,3.75-5.61,4.24-8.96C295.46,201.01,294.95,197.61,293.51,194.61z"/>
		<path class="st73" d="M267.12,150.61c-0.02,1.44-0.6,2.81-1.6,3.81c-1.01,1-2.37,1.55-3.78,1.52c-0.7-0.02-1.38-0.18-2.02-0.47
			c-0.64-0.29-1.22-0.71-1.7-1.23c-0.48-0.52-0.86-1.13-1.12-1.8c-0.25-0.67-0.37-1.38-0.36-2.09c0.04-2.92,5.35-7.51,5.35-7.51
			S267.16,147.71,267.12,150.61z"/>
		<path class="st73" d="M294.86,151.3c-0.01,0.7-0.15,1.38-0.41,2.02c-0.26,0.64-0.64,1.21-1.12,1.69
			c-0.48,0.48-1.04,0.86-1.66,1.11c-0.62,0.25-1.28,0.38-1.95,0.36c-0.67-0.01-1.33-0.17-1.95-0.45c-0.62-0.28-1.18-0.69-1.65-1.19
			c-0.47-0.51-0.84-1.1-1.09-1.75c-0.25-0.65-0.37-1.35-0.37-2.05c0.03-2.87,5.24-7.37,5.24-7.37S294.89,148.45,294.86,151.3z"/>
		<path class="st2" d="M242.04,147.58l-1-0.03c-0.05,3.96-1.56,7.25-3.49,8.32l7.76,0.16C243.4,154.9,241.99,151.55,242.04,147.58z"
			/>
		<path class="st2" d="M309.13,149.37l-1-0.03c-0.04,3.79-1.33,6.95-3.19,7.97l7.19,0.15C310.3,156.36,309.09,153.16,309.13,149.37z
			"/>
		<path class="st73" d="M282.7,133.15c-0.02,1.33-12.8,2.14-13.05,0.81c-0.24-1.33-0.1-2.69,0.42-3.92
			c0.51-1.22,1.37-2.26,2.46-2.96c1.09-0.71,2.36-1.06,3.66-1.02c0.87,0.03,1.73,0.24,2.53,0.62c0.8,0.37,1.52,0.91,2.12,1.57
			c0.6,0.66,1.08,1.43,1.4,2.27C282.56,131.36,282.72,132.25,282.7,133.15z"/>
		<path class="st2" d="M286.29,136.59l-20.49-0.71c0.02-1.2,0.5-2.34,1.33-3.16c0.84-0.82,1.96-1.25,3.13-1.21l11.77,0.44
			c1.15,0.04,2.24,0.56,3.04,1.43C285.86,134.25,286.3,135.41,286.29,136.59z"/>
		<path class="st73" d="M281.16,147.37c-0.02,1.42-0.58,2.76-1.56,3.74c-0.98,0.98-2.3,1.51-3.68,1.48
			c-1.38-0.03-2.7-0.63-3.66-1.66c-0.97-1.03-1.5-2.42-1.48-3.84c0.03-2.89,5.26-7.42,5.26-7.42S281.19,144.5,281.16,147.37z"/>
		<path class="st73" d="M276.19,126.07c0.44,0.02,0.88,0.08,1.3,0.19l0.21-17.73c0-0.17-0.03-0.35-0.09-0.51
			c-0.06-0.16-0.16-0.31-0.28-0.44c-0.12-0.12-0.26-0.22-0.42-0.29c-0.16-0.07-0.33-0.1-0.49-0.09c-0.16-0.01-0.32,0.01-0.47,0.06
			c-0.15,0.05-0.29,0.14-0.4,0.25c-0.12,0.11-0.21,0.25-0.27,0.4c-0.06,0.15-0.09,0.32-0.09,0.48l-0.21,17.75
			C275.37,126.07,275.78,126.05,276.19,126.07L276.19,126.07z"/>
		<path class="st2" d="M296.29,159.62c-5.55-5.23-12.77-8.23-20.35-8.42c-7.66-0.19-15.16,2.5-21.1,7.61l-20.63-0.4l-0.12,9.45
			l27.24,0.37c1.83-2.12,4.07-3.8,6.58-4.93c2.5-1.13,5.2-1.69,7.91-1.64c2.71,0.05,5.36,0.7,7.79,1.9c2.42,1.2,4.56,2.93,6.27,5.06
			l25.36,0.35l0.1-8.96L296.29,159.62z"/>
		<path class="st709" d="M245.36,158.58l-7.94-0.16c-0.41-0.02-0.8-0.2-1.08-0.5c-0.29-0.3-0.45-0.7-0.45-1.11l0,0
			c0.02-0.4,0.2-0.78,0.49-1.05c0.29-0.27,0.68-0.41,1.08-0.4l7.94,0.17c0.19,0,0.38,0.04,0.56,0.12c0.18,0.08,0.34,0.19,0.47,0.33
			c0.13,0.14,0.24,0.31,0.31,0.49c0.07,0.18,0.1,0.37,0.1,0.57l0,0c0,0.4-0.15,0.79-0.42,1.08
			C246.13,158.41,245.76,158.58,245.36,158.58L245.36,158.58z"/>
		<path class="st709" d="M312.1,159.89l-7.19-0.14c-0.19,0-0.37-0.04-0.55-0.12c-0.17-0.08-0.33-0.19-0.46-0.34
			c-0.13-0.14-0.23-0.31-0.3-0.5c-0.07-0.18-0.1-0.38-0.1-0.58l0,0c0-0.19,0.04-0.38,0.12-0.56c0.07-0.18,0.18-0.33,0.32-0.46
			c0.13-0.13,0.29-0.23,0.47-0.29c0.17-0.06,0.36-0.09,0.54-0.07l7.19,0.15c0.18-0.01,0.36,0.02,0.53,0.09
			c0.17,0.07,0.32,0.17,0.45,0.31c0.13,0.13,0.23,0.3,0.3,0.47c0.07,0.18,0.11,0.37,0.1,0.56l0,0c0,0.2-0.04,0.39-0.11,0.57
			c-0.07,0.18-0.18,0.35-0.31,0.48c-0.13,0.14-0.29,0.24-0.46,0.32C312.47,159.86,312.29,159.9,312.1,159.89z"/>
	</g>
	<path class="st191" d="M389.37,64.71L164.5,45.06c-2.7-0.24-4.93,1.68-4.97,4.28l-2.42,165.45c-0.04,2.62,2.14,4.7,4.85,4.65
		l226.01-4.1c2.02-0.04,3.67-1.89,3.69-4.14l1.3-142.13C392.98,66.84,391.38,64.89,389.37,64.71z M383.16,202.93
		c-0.01,1.56-1.16,2.83-2.57,2.85l-208.55,2.38c-1.85,0.02-3.32-1.41-3.3-3.2l2.08-145.07c0.03-1.78,1.54-3.1,3.37-2.95
		l207.63,16.75c1.4,0.11,2.52,1.46,2.5,3.01L383.16,202.93z"/>
	<g>
		<polygon class="st220" points="173.58,137.27 87.85,134.55 88.71,81.63 174.3,86.97 		"/>
		<path class="st128" d="M188.15,85.42l-14.04-0.9l-0.79,55.45l14.06,0.42c3.39,0.1,6.16-2.49,6.21-5.79l0.59-42.83
			C194.22,88.49,191.53,85.64,188.15,85.42z"/>
		<path class="st128" d="M87.02,78.97l-14.96-0.96c-3.9-0.25-7.12,2.43-7.18,5.99l-0.78,46.24c-0.06,3.56,3.07,6.55,6.98,6.67
			l14.99,0.45L87.02,78.97z"/>
		<path class="st191" d="M80.17,97.08c-0.04,2.57-2.35,4.53-5.17,4.39c-2.83-0.14-5.09-2.35-5.05-4.93c0.04-2.58,2.38-4.55,5.2-4.39
			C77.97,92.3,80.21,94.51,80.17,97.08z"/>
		<path class="st191" d="M77.45,108.1c-0.02,1.19-1.09,2.1-2.39,2.05c-1.31-0.06-2.35-1.07-2.33-2.27c0.02-1.19,1.1-2.11,2.4-2.05
			C76.43,105.9,77.47,106.91,77.45,108.1z"/>
		<path class="st191" d="M77.3,116.95c-0.02,1.19-1.09,2.11-2.4,2.06c-1.31-0.05-2.35-1.06-2.33-2.26c0.02-1.19,1.1-2.11,2.4-2.06
			C76.28,114.75,77.32,115.76,77.3,116.95z"/>
		<g>
			<path class="st191" d="M79.9,110.49c1.3,0.06,2.33,1.07,2.31,2.25c-0.02,1.19-1.08,2.1-2.38,2.05c-1.3-0.06-2.34-1.07-2.32-2.25
				C77.53,111.34,78.6,110.43,79.9,110.49z"/>
			<path class="st191" d="M70.11,114.37c-1.31-0.06-2.36-1.07-2.34-2.27c0.02-1.2,1.1-2.12,2.41-2.06c1.31,0.06,2.36,1.07,2.34,2.27
				C72.5,113.5,71.42,114.43,70.11,114.37z"/>
		</g>
		<path class="st191" d="M180.57,117.86c0.03-2.42,2.08-4.29,4.56-4.17c2.47,0.11,4.44,2.16,4.41,4.57
			c-0.03,2.41-2.06,4.28-4.53,4.18C182.52,122.33,180.53,120.28,180.57,117.86z"/>
		<path class="st191" d="M182.96,107.48c0.02-1.12,0.96-1.97,2.1-1.92c1.14,0.06,2.06,1.01,2.04,2.12c-0.02,1.11-0.95,1.97-2.1,1.92
			C183.86,109.54,182.94,108.59,182.96,107.48z"/>
		<path class="st191" d="M183.07,99.17c0.02-1.12,0.96-1.97,2.1-1.9c1.14,0.06,2.06,1.02,2.04,2.13c-0.02,1.11-0.95,1.97-2.1,1.9
			C183.98,101.24,183.06,100.28,183.07,99.17z"/>
		<g>
			<path class="st191" d="M180.79,105.23c-1.15-0.06-2.07-1.01-2.06-2.13c0.02-1.12,0.96-1.98,2.11-1.91
				c1.15,0.06,2.07,1.02,2.05,2.13C182.88,104.43,181.94,105.29,180.79,105.23z"/>
			<path class="st191" d="M189.37,101.64c1.14,0.06,2.05,1.01,2.03,2.12c-0.02,1.11-0.95,1.96-2.09,1.91
				c-1.14-0.06-2.05-1.01-2.04-2.12C187.29,102.43,188.23,101.58,189.37,101.64z"/>
		</g>
		<polygon class="st44" points="128.71,97.27 163.28,99.16 159.88,103.9 132.04,102.42 		"/>
		<polygon class="st291" points="132.51,90.28 132.46,93.73 136.23,93.95 136.28,90.5 140.41,90.74 140.35,94.18 144.09,94.39 
			144.14,90.96 148.23,91.2 148.18,94.62 151.88,94.83 151.93,91.42 155.97,91.66 155.92,95.06 159.59,95.27 159.64,91.88 
			163.38,92.1 163.28,99.16 128.71,97.27 128.82,90.06 		"/>
		<polygon class="st219" points="131.52,136.71 159.43,137.48 159.92,103.86 132.04,102.42 		"/>
		<path class="st44" d="M140.8,136.23l0.19-12.72c0.03-1.79,1.56-3.4,3.76-3.61c2.84-0.28,5.27,1.56,5.24,3.76l-0.19,13.07
			L140.8,136.23z"/>
		<path class="st44" d="M123.64,102.02l-2.66-0.14l-3.42-17.33l-6.4-0.4l-4,17.01l-3.81-0.2c-0.63-0.03-1.14,0.34-1.15,0.83
			l-0.53,33.43l23.33,0.74l0.5-32.38C125.5,102.78,124.67,102.07,123.64,102.02z"/>
		<polygon class="st219" points="111.07,116.46 116.1,116.67 116.23,108.25 111.21,108.01 		"/>
		<g>
			<path class="st6" d="M111.01,133.31l-23.62-0.78l0.16-9.78l23.61,0.91c0.75,0.03,1.37-0.52,1.38-1.21l0.09-6.03
				c0.09-6.01,5.39-10.64,11.77-10.32l49.15,2.42l-0.13,9.29l-49.16-2.14c-0.74-0.03-1.35,0.51-1.36,1.2l-0.09,5.99
				C122.7,128.83,117.43,133.52,111.01,133.31z"/>
		</g>
		<g>
			<g>
				<path class="st2" d="M106.72,129.54l-2.6-0.09l0.04-2.42l2.6,0.09L106.72,129.54z M98.89,129.27l-2.63-0.09l0.04-2.43l2.63,0.1
					L98.89,129.27z M90.99,128.99l-2.65-0.09l0.04-2.44l2.65,0.1L90.99,128.99z M112.07,129.67l-0.29-2.4
					c0.69-0.06,1.35-0.24,1.95-0.54l1.26,2.13C114.09,129.31,113.1,129.58,112.07,129.67z M118.69,124.52l-2.47-0.7
					c0.12-0.39,0.18-0.8,0.18-1.22l0.01-0.86l2.57,0.1l-0.01,0.86C118.95,123.32,118.86,123.94,118.69,124.52z M119.05,117.05
					l-2.57-0.11l0.01-0.35c0.01-0.83,0.17-1.63,0.48-2.39l2.41,0.9c-0.2,0.51-0.31,1.05-0.32,1.6L119.05,117.05z M122.09,112.44
					l-1.06-2.22c0.93-0.37,1.93-0.55,2.96-0.55l0.08,2.39C123.38,112.07,122.72,112.19,122.09,112.44z M175.84,114.43l-2.4-0.11
					l0.03-2.32l2.4,0.11L175.84,114.43z M168.63,114.1l-2.42-0.11l0.03-2.33l2.42,0.11L168.63,114.1z M161.36,113.77l-2.44-0.11
					l0.03-2.34l2.44,0.11L161.36,113.77z M154.02,113.44l-2.46-0.11l0.03-2.35l2.46,0.12L154.02,113.44z M146.62,113.1l-2.48-0.11
					l0.04-2.36l2.48,0.12L146.62,113.1z M139.15,112.76l-2.5-0.11l0.04-2.37l2.5,0.12L139.15,112.76z M131.62,112.41l-2.53-0.12
					l0.04-2.38l2.53,0.12L131.62,112.41z"/>
			</g>
		</g>
		<path class="st191" d="M85.74,78.89l-0.95,58.43l90.7,2.73l0.79-55.37L85.74,78.89z M170.9,135.35l-80.88-2.66l0.8-49.21
			l80.76,4.96L170.9,135.35z"/>
	</g>
	<g>
		<polygon class="st357" points="496.83,232.6 371.5,236.71 372.45,138.18 497.43,142.61 		"/>
		<g>
			<path class="st711" d="M445.52,198.65l-43.36,0.29l-0.14,16.22l43.38-0.79L445.52,198.65z"/>
			<path class="st174" d="M410.51,198.89c-2.85,0.37-5.71,0.65-8.35,0.82l-0.05,5.24c14.68,1.52,29.26,1.34,43.37-0.48l0.04-5.08
				c-2.44-0.13-5.04-0.36-7.65-0.68L410.51,198.89z"/>
			<path class="st711" d="M453.48,211.63l-60.12,0.98l-0.22,23.87l60.16-1.99L453.48,211.63z"/>
			<path class="st174" d="M417.2,216.24l-2.14,0.04l-0.17,19.47l2.15-0.07L417.2,216.24z"/>
			<path class="st174" d="M432.9,215.94l-2.1,0.04l-0.16,19.25l2.1-0.07L432.9,215.94z"/>
			<path class="st174" d="M453.47,212.8l-2.03,0.03l-0.17,21.72l2.04-0.07L453.47,212.8z"/>
			<path class="st174" d="M395.56,213.8l-2.21,0.04l-0.21,22.64l2.21-0.07L395.56,213.8z"/>
			<path class="st690" d="M430.76,220.96l-13.6,0.31l-0.12,14.41l13.61-0.45L430.76,220.96z"/>
			<path class="st174" d="M427.05,221.05l-6.13,0.14l-0.12,14.37l6.14-0.2L427.05,221.05z"/>
			<path class="st690" d="M406.38,221.52l-10.89,0.25l-0.13,14.63l10.9-0.36L406.38,221.52z"/>
			<path class="st174" d="M403.4,221.59l-4.9,0.11l-0.13,14.6l4.9-0.16L403.4,221.59z"/>
			<path class="st690" d="M451.38,220.49l-10.2,0.23l-0.11,14.16l10.21-0.34L451.38,220.49z"/>
			<path class="st174" d="M448.59,220.56l-4.59,0.1l-0.11,14.13l4.59-0.15L448.59,220.56z"/>
			<path class="st690" d="M443.05,197.23l-1.46-6.76c-5.24,0.4-11.07,0.6-17.34,0.61c-6.32,0.01-12.31-0.19-17.76-0.58l-1.67,7
				c-5.69,0.43-11.44,0.57-17.22,0.41l-0.01,1.59c4.83,2.73,19.52,4.62,36.56,4.45c16.63-0.17,30.38-2.28,34.81-4.95l0.01-1.51
				C453.69,197.7,448.38,197.62,443.05,197.23L443.05,197.23z"/>
			<path class="st174" d="M393.33,216.39c7.05,1.5,18.25,2.38,30.68,2.12c12.21-0.26,22.88-1.56,29.44-3.26l0.02-2.99
				c-2.33,0.03-4.67-0.14-6.97-0.52l-45.78,0.75c-2.43,0.4-4.89,0.63-7.36,0.68L393.33,216.39z"/>
			<path class="st174" d="M453.42,219.42l-60.13,1.32l-0.01,1.07l60.13-1.37L453.42,219.42z"/>
			<g>
				<polygon class="st174" points="411.53,235.87 409.86,235.92 409.99,220.93 411.66,220.89 				"/>
			</g>
			<g>
				<polygon class="st174" points="437.83,235 436.22,235.05 436.34,220.34 437.95,220.31 				"/>
			</g>
			<path class="st690" d="M445.44,209.59l-43.38,0.64c-8.98,1.62-14.59,0.52-14.59,0.52l-0.01,1.59c4.83,2.74,19.53,4.5,36.57,4.17
				c16.63-0.32,30.39-2.55,34.83-5.32l0.01-1.51C458.87,209.68,454.07,211.13,445.44,209.59z"/>
			<path class="st711" d="M405.96,191.52l-1.13,4.77l-0.29,0l-0.05,5.68c0.46,0.05,0.91,0.08,1.37,0.09L405.96,191.52z"/>
			<path class="st711" d="M411.43,191c-0.45,0-0.91-0.05-1.36-0.05l-0.1,11.42c0.45,0.05,0.9,0.08,1.36,0.09L411.43,191z"/>
			<path class="st711" d="M414.15,191.1c-0.45,0.01-0.91-0.01-1.36-0.05l-0.1,11.5c0.45,0,0.91,0.04,1.36,0.04L414.15,191.1z"/>
			<path class="st711" d="M422.24,191.29l-1.34,0l-0.1,11.48l1.35-0.01L422.24,191.29z"/>
			<path class="st711" d="M419.55,191.24l-1.35,0l-0.1,11.46c0.45,0.04,0.9,0.05,1.35,0.04L419.55,191.24z"/>
			<path class="st711" d="M416.86,191.2c-0.45,0.01-0.91-0.01-1.35-0.05l-0.1,11.48c0.45,0.05,0.91,0.04,1.35,0.09L416.86,191.2z"/>
			<path class="st711" d="M397.62,197.7l-1.39,0.01l-0.03,3.11c0.41,0.1,0.87,0.15,1.39,0.24L397.62,197.7z"/>
			<path class="st711" d="M424.82,202.74l0.1-11.45l-1.34,0l-0.1,11.46L424.82,202.74L424.82,202.74z"/>
			<path class="st711" d="M387.77,198.37c0.45,0.27,0.94,0.49,1.46,0.66l0.01-1.28c-0.7-0.05-1.17-0.04-1.46-0.04L387.77,198.37z"/>
			<path class="st711" d="M392.04,197.78c-0.52,0-0.99-0.05-1.4-0.04l-0.02,1.74c0.41,0.15,0.87,0.3,1.39,0.45L392.04,197.78z"/>
			<path class="st711" d="M403.16,197.41c-0.46,0-0.92,0.06-1.38,0.06l-0.04,4.17c0.46,0.05,0.92,0.15,1.38,0.19L403.16,197.41z"/>
			<path class="st711" d="M393.42,200.28c0.41,0.1,0.87,0.2,1.39,0.3l0.03-2.81l-1.39,0.01L393.42,200.28z"/>
			<path class="st711" d="M400.4,197.58c-0.46,0-0.93,0.06-1.39,0.06l-0.03,3.67c0.4,0.05,0.87,0.09,1.39,0.19L400.4,197.58z"/>
			<path class="st711" d="M407.24,202.2c0.45,0.05,0.91,0.08,1.37,0.09l0.1-11.43c-0.46,0-0.91-0.05-1.37-0.05L407.24,202.2z"/>
			<path class="st711" d="M451.08,197.58l-1.28,0.01l-0.02,3.05c0.48-0.1,0.91-0.16,1.29-0.26L451.08,197.58z"/>
			<path class="st711" d="M442.06,191.46l-0.08,10.27c0.44-0.01,0.87-0.05,1.3-0.11l0.04-5.53c-0.08-0.04-0.18-0.06-0.27-0.05
				L442.06,191.46z"/>
			<path class="st711" d="M448.5,197.55c-0.43-0.04-0.86-0.05-1.29-0.04l-0.03,3.59c0.48-0.1,0.92-0.15,1.29-0.21L448.5,197.55z"/>
			<path class="st711" d="M453.64,197.62l-1.29,0.01l-0.02,2.5c0.49-0.1,0.91-0.2,1.29-0.31L453.64,197.62z"/>
			<path class="st711" d="M454.91,199.47c0.48-0.15,0.91-0.3,1.28-0.45l0.01-1.46c-0.37,0-0.8,0.05-1.28,0.06L454.91,199.47z"/>
			<path class="st711" d="M432.88,191.13c-0.44,0.04-0.88,0.06-1.32,0.05l-0.09,11.4c0.44-0.05,0.88-0.06,1.32-0.11L432.88,191.13z"
				/>
			<path class="st711" d="M435.52,191.02c-0.44,0.04-0.88,0.06-1.32,0.05l-0.09,11.32c0.44,0,0.88-0.06,1.32-0.06L435.52,191.02z"/>
			<path class="st711" d="M427.58,191.29l-1.33,0l-0.1,11.44l1.33-0.01L427.58,191.29z"/>
			<path class="st711" d="M430.24,191.23l-1.32,0l-0.09,11.42c0.44,0,0.88-0.02,1.32-0.06L430.24,191.23z"/>
			<path class="st711" d="M445.91,197.42c-0.43,0-0.86-0.04-1.3-0.04l-0.03,4.09c0.43-0.05,0.86-0.16,1.3-0.21L445.91,197.42z"/>
			<path class="st711" d="M438.15,190.93c-0.44,0-0.88,0.05-1.31,0.05l-0.09,11.25c0.44-0.01,0.88-0.05,1.32-0.11L438.15,190.93z"/>
			<path class="st711" d="M440.77,190.77c-0.44,0-0.87,0.05-1.31,0.05L439.37,202c0.44-0.01,0.88-0.05,1.31-0.11L440.77,190.77z"/>
			<path class="st711" d="M405.79,210.43l-1.09-0.13l-0.29,0l-0.04,4.47l1.37,0.13L405.79,210.43z"/>
			<path class="st711" d="M411.26,210.34c-0.45-0.02-0.91-0.01-1.36,0.02l-0.04,4.81c0.45-0.01,0.91,0.03,1.36,0.03L411.26,210.34z"
				/>
			<path class="st711" d="M413.98,210.3c-0.45-0.02-0.91-0.01-1.36,0.02l-0.04,4.95c0.45,0.03,0.9,0.04,1.36,0.02L413.98,210.3z"/>
			<path class="st711" d="M422.08,210.18l-1.35,0.02l-0.04,5.22l1.35-0.03L422.08,210.18z"/>
			<path class="st711" d="M419.39,210.22l-1.35,0.02l-0.04,5.18l1.35-0.03L419.39,210.22z"/>
			<path class="st711" d="M416.69,210.26l-1.36,0.02l-0.04,5.09c0.45-0.02,0.91-0.01,1.36,0.03L416.69,210.26z"/>
			<path class="st711" d="M397.5,210.75l-1.39,0.02l-0.03,2.91c0.45,0.11,0.92,0.19,1.39,0.23L397.5,210.75z"/>
			<path class="st711" d="M424.71,215.35l0.04-5.21l-1.34,0.02l-0.04,5.21L424.71,215.35z"/>
			<path class="st711" d="M387.65,211.31c0.45,0.27,0.94,0.49,1.46,0.65l0.01-1.08c-0.7,0.01-1.17-0.03-1.46-0.03L387.65,211.31z"/>
			<path class="st711" d="M391.92,210.89l-1.4,0.02l-0.01,1.54c0.41,0.1,0.87,0.24,1.39,0.39L391.92,210.89z"/>
			<path class="st711" d="M403.04,210.42c-0.46,0.06-0.92,0.06-1.38,0.12l-0.03,3.92c0.46,0.08,0.92,0.14,1.38,0.18L403.04,210.42z"
				/>
			<path class="st711" d="M393.3,213.17c0.41,0.1,0.87,0.19,1.39,0.28l0.02-2.61l-1.39,0.02L393.3,213.17z"/>
			<path class="st711" d="M400.28,210.61c-0.46,0.01-0.93,0.07-1.39,0.07l-0.03,3.46c0.4,0.04,0.87,0.09,1.39,0.18L400.28,210.61z"
				/>
			<path class="st711" d="M407.12,214.97c0.45,0.05,0.91,0.08,1.37,0.08l0.04-4.66c-0.45-0.02-0.91-0.01-1.37,0.02L407.12,214.97z"
				/>
			<path class="st711" d="M450.98,209.95l-1.28,0.02l-0.02,3.05c0.44-0.06,0.87-0.14,1.29-0.27L450.98,209.95z"/>
			<path class="st711" d="M441.92,209.89l-0.03,4.35l1.3-0.17l0.03-4.35c-0.09,0-0.19-0.01-0.27-0.05L441.92,209.89z"/>
			<path class="st711" d="M448.4,209.94c-0.43,0.01-0.86-0.04-1.29-0.03l-0.03,3.6c0.48-0.11,0.92-0.17,1.29-0.22L448.4,209.94z"/>
			<path class="st711" d="M453.55,209.96l-1.29,0.02l-0.02,2.5c0.49-0.11,0.91-0.21,1.29-0.32L453.55,209.96z"/>
			<path class="st711" d="M454.81,211.8c0.48-0.15,0.91-0.31,1.28-0.41l0.01-1.47l-1.28,0.02L454.81,211.8z"/>
			<path class="st711" d="M432.73,210.02l-1.32,0.02l-0.04,5.08c0.44-0.05,0.88-0.07,1.32-0.07L432.73,210.02z"/>
			<path class="st711" d="M435.37,209.98c-0.44-0.02-0.88-0.01-1.32,0.02l-0.04,4.92c0.44,0,0.88-0.02,1.32-0.07L435.37,209.98z"/>
			<path class="st711" d="M427.42,210.1l-1.33,0.02l-0.04,5.2l1.33-0.02L427.42,210.1z"/>
			<path class="st711" d="M430.08,210.06l-1.32,0.02l-0.04,5.14l1.32-0.02L430.08,210.06z"/>
			<path class="st711" d="M445.82,209.83c-0.43,0.01-0.86-0.04-1.3-0.03l-0.03,4.1c0.44-0.05,0.87-0.12,1.3-0.22L445.82,209.83z"/>
			<path class="st711" d="M438,209.95c-0.44-0.02-0.88-0.01-1.32,0.02l-0.04,4.76c0.44-0.01,0.88-0.07,1.32-0.07L438,209.95z"/>
			<path class="st711" d="M440.61,209.91c-0.44-0.02-0.87-0.01-1.31,0.02l-0.04,4.56c0.44-0.02,0.88-0.06,1.31-0.12L440.61,209.91z"
				/>
			<path class="st712" d="M458.97,196.7l-0.05,0c-5,0.22-10.04,0.14-15.1-0.21l-1.52-6.85l-0.76,0.1
				c-5.4,0.35-11.18,0.55-17.28,0.55c-6.16,0-12.08-0.19-17.7-0.54l-0.8-0.1l-1.72,7.1c-5.4,0.4-10.87,0.51-16.36,0.34l-0.06,0
				l-0.02,1.64c5.8,0.16,11.57,0.02,17.28-0.42l0.69-0.05l1.66-6.85c5.4,0.35,11.15,0.48,17.02,0.47
				c5.83-0.01,11.44-0.17,16.63-0.52l1.46,6.62l0.65,0.05c5.35,0.38,10.68,0.46,15.97,0.24L458.97,196.7z"/>
			<path class="st712" d="M407.82,187.67l-2.23,0l-0.03,2.84l2.23,0L407.82,187.67z"/>
			<path class="st712" d="M442.53,187.71l-2.12,0l-0.02,2.77l2.12,0L442.53,187.71z"/>
			<path class="st174" d="M407.36,207.01l-3.38,0.04l-0.02,2.44l3.38-0.05L407.36,207.01z"/>
			<path class="st174" d="M412.03,206.95l-3.41,0.04l-0.02,2.43l3.41-0.05L412.03,206.95z"/>
			<path class="st174" d="M416.61,206.89l-3.33,0.04l-0.02,2.42l3.33-0.05L416.61,206.89z"/>
			<path class="st174" d="M421.21,206.84l-3.31,0.04l-0.02,2.41l3.31-0.05L421.21,206.84z"/>
			<path class="st174" d="M425.79,206.78l-3.34,0.04l-0.02,2.41l3.34-0.05L425.79,206.78z"/>
			<path class="st174" d="M430.27,206.72l-3.27,0.04l-0.02,2.4l3.27-0.05L430.27,206.72z"/>
			<path class="st174" d="M434.79,206.67l-3.25,0.04l-0.02,2.39l3.25-0.05L434.79,206.67z"/>
			<path class="st174" d="M439.28,206.61l-3.28,0.04l-0.02,2.38l3.28-0.05L439.28,206.61z"/>
			<path class="st174" d="M443.68,206.56l-3.2,0.04l-0.02,2.38l3.2-0.05L443.68,206.56z"/>
			<path class="st712" d="M458.88,209l-0.05,0l-0.16,0.05c-1.6,0.46-6.4,1.07-13.06-0.11l-0.05-0.05l-43.6,0.62l-0.06,0.05
				c-8.63,1.55-14.18,0.51-14.24,0.46l-0.17,0l-0.01,1.44c1.05,0.19,6.48,0.98,14.64-0.53l43.26-0.66
				c7.73,1.35,12.47,0.4,13.49,0.14L458.88,209z"/>
		</g>
		<path class="st40" d="M374.29,134.29l-2.51-0.1c-2.66-0.1-4.85,2.19-4.88,5.13l-0.98,100.4c-0.03,2.95,2.12,5.26,4.79,5.15
			l2.51-0.1L374.29,134.29z"/>
		<path class="st128" d="M533.76,254.91c0.01-1.22,0.01-2,0.01-2.41c0-0.33-34.41-10.53-34.41-10.53l-130.16,2.18l-0.02,1.63
			c0,0,0.02,1.43,1.38,1.93c1.36,0.5,37.82,13.73,37.82,13.73c1.88,0.68,3.86,0.98,5.85,0.87l118.59-6.17
			C533.59,256.1,533.77,255.67,533.76,254.91z"/>
		<path class="st126" d="M533.09,253.55l-118.83,5.94c-1.99,0.1-3.97-0.2-5.85-0.88l-39.28-14.33l130.25-4.94l33.94,12.55
			C534.05,252.15,533.86,253.51,533.09,253.55z"/>
		<g>
			<path class="st6" d="M497.33,201.6l-54.74,0.51c-6.98,0.06-12.66-6.5-12.6-14.62l0.15-17.85c0.03-3.79-2.63-6.92-5.95-6.99
				l-52.05-1l0.08-8.18l52.03,1.29c7.09,0.18,12.76,6.89,12.69,14.97l-0.14,17.76c-0.03,3.78,2.6,6.84,5.85,6.83l54.73-0.2
				L497.33,201.6z"/>
		</g>
		<g>
			<path class="st2" d="M495.14,198.81l-1.56,0.01l0.01-1.88l1.56-0.01L495.14,198.81z M490.46,198.85l-1.57,0.01l0.01-1.88
				l1.57-0.01L490.46,198.85z M485.75,198.88l-1.58,0.01l0.01-1.89l1.58-0.01L485.75,198.88z M481.01,198.92l-1.59,0.01l0.01-1.9
				l1.59-0.01L481.01,198.92z M476.24,197.05l-0.01,1.9l-1.6,0.01l0.01-1.9 M471.42,198.98L469.8,199l0.01-1.91l1.61-0.01
				L471.42,198.98z M466.57,199.02l-1.62,0.01l0.01-1.92l1.62-0.01L466.57,199.02z M461.69,199.05l-1.64,0.01l0.01-1.92l1.64-0.01
				L461.69,199.05z M456.77,199.09l-1.65,0.01l0.01-1.93l1.65-0.01L456.77,199.09z M451.81,199.12l-1.66,0.01l0.02-1.94l1.66-0.01
				L451.81,199.12z M446.82,199.16l-1.67,0.01l0.02-1.94l1.67-0.01L446.82,199.16z M441.73,199.15c-0.61-0.06-1.22-0.18-1.8-0.36
				l0.46-1.88c0.49,0.15,0.99,0.26,1.5,0.3L441.73,199.15z M436.64,196.96c-0.49-0.42-0.95-0.89-1.37-1.41l1.24-1.35
				c0.35,0.43,0.73,0.82,1.14,1.17L436.64,196.96z M433.29,192c-0.23-0.66-0.41-1.35-0.53-2.04l1.67-0.41
				c0.1,0.58,0.25,1.15,0.44,1.7L433.29,192z M434.27,185.85l-1.7,0l0.02-1.96l1.7,0.01L434.27,185.85z M434.31,179.98l-1.7-0.01
				l0.02-1.96l1.7,0.01L434.31,179.98z M434.36,174.11l-1.7-0.02l0.02-1.96l1.7,0.02L434.36,174.11z M432.63,168.34
				c-0.06-0.58-0.17-1.17-0.33-1.74l1.62-0.58c0.19,0.68,0.32,1.38,0.4,2.09L432.63,168.34z M430.84,163.47
				c-0.32-0.47-0.68-0.9-1.07-1.3l1.12-1.47c0.47,0.47,0.9,1,1.28,1.56L430.84,163.47z M427.11,160.33
				c-0.49-0.21-0.99-0.37-1.5-0.48l0.29-1.94c0.61,0.13,1.22,0.32,1.81,0.58L427.11,160.33z M422.3,159.65l-1.73-0.04l0.02-1.98
				l1.73,0.04L422.3,159.65z M417.1,159.54l-1.74-0.04l0.02-1.98l1.74,0.04L417.1,159.54z M411.86,159.43l-1.76-0.04l0.02-1.99
				l1.76,0.04L411.86,159.43z M406.57,159.32l-1.77-0.04l0.02-2l1.77,0.04L406.57,159.32z M401.25,159.21l-1.78-0.04l0.02-2.01
				l1.78,0.04L401.25,159.21z M395.89,159.09l-1.8-0.04l0.02-2.01l1.8,0.04L395.89,159.09z M390.48,158.98l-1.81-0.04l0.02-2.02
				l1.81,0.04L390.48,158.98z M385.04,158.86l-1.82-0.04l0.02-2.03l1.82,0.04L385.04,158.86z M379.55,158.74l-1.84-0.04l0.02-2.04
				l1.84,0.04L379.55,158.74z M374.02,158.62l-1.85-0.04l0.02-2.04l1.85,0.04L374.02,158.62z"/>
		</g>
		<g>
			<polygon class="st174" points="473.88,147.77 472.72,147.74 472.2,160.7 474.28,160.75 			"/>
			<polygon class="st174" points="465.95,164.92 471.59,159.56 474.89,159.63 480.45,165.04 			"/>
			<polygon class="st174" points="479.94,219.67 465.79,219.99 466.19,165.57 480.32,165.81 			"/>
			<g>
				<polygon class="st142" points="471.99,171.56 469.48,171.53 469.52,165.77 472.04,165.81 				"/>
				<polygon class="st142" points="477.24,171.63 474.75,171.6 474.79,165.86 477.29,165.9 				"/>
				<polygon class="st271" points="483.95,164.34 462.92,163.94 462.91,164.69 464.78,166.25 481.87,166.54 483.95,164.88 				"/>
			</g>
			<g>
				<polygon class="st142" points="471.93,180.72 469.41,180.7 469.45,174.94 471.97,174.97 				"/>
				<polygon class="st142" points="477.18,180.75 474.68,180.74 474.72,175 477.22,175.02 				"/>
				<polygon class="st271" points="483.89,173.41 462.85,173.16 462.84,173.91 464.71,175.45 481.8,175.63 483.88,173.96 				"/>
			</g>
			<g>
				<polygon class="st142" points="471.86,189.88 469.34,189.88 469.38,184.12 471.9,184.13 				"/>
				<polygon class="st142" points="477.11,189.88 474.61,189.88 474.66,184.14 477.15,184.15 				"/>
				<polygon class="st271" points="483.82,182.49 462.78,182.38 462.77,183.14 464.64,184.66 481.74,184.72 483.82,183.04 				"/>
			</g>
			<g>
				<polygon class="st142" points="471.79,199.05 469.27,199.07 469.32,193.3 471.84,193.29 				"/>
				<polygon class="st142" points="477.05,199.01 474.55,199.03 474.59,193.28 477.09,193.28 				"/>
				<polygon class="st271" points="483.76,191.58 462.71,191.61 462.7,192.36 464.58,193.88 481.67,193.82 483.76,192.12 				"/>
			</g>
			<g>
				<polygon class="st142" points="471.73,208.22 469.21,208.25 469.25,202.48 471.77,202.46 				"/>
				<polygon class="st142" points="476.98,208.15 474.48,208.18 474.52,202.43 477.02,202.41 				"/>
				<polygon class="st271" points="483.7,200.66 462.64,200.84 462.64,201.59 464.51,203.09 481.61,202.92 483.69,201.2 				"/>
			</g>
			<g>
				<polygon class="st142" points="471.66,217.39 469.14,217.45 469.18,211.67 471.7,211.63 				"/>
				<polygon class="st142" points="476.92,217.28 474.42,217.34 474.46,211.59 476.96,211.55 				"/>
				<polygon class="st271" points="483.63,209.75 462.57,210.07 462.57,210.83 464.44,212.32 481.55,212.03 483.63,210.3 				"/>
			</g>
			<polygon class="st711" points="486.79,239.25 458.73,240.3 464.25,218.55 481.76,218.17 			"/>
		</g>
		<path class="st191" d="M496.93,138.98l-123.3-4.71c-2.65-0.1-4.84,2.19-4.86,5.12l-0.97,100.27c-0.03,2.94,2.11,5.25,4.78,5.15
			l123.69-4.75c2.22-0.09,4.02-2.32,4.04-5l0.6-91.11C500.92,141.29,499.14,139.07,496.93,138.98z M494.53,229.12
			c0,0.74-0.51,1.35-1.12,1.37l-117.29,3.64c-0.73,0.02-1.31-0.61-1.3-1.42l0.86-90.44c0.01-0.8,0.6-1.43,1.33-1.41L494,144.81
			c0.61,0.02,1.1,0.63,1.1,1.37L494.53,229.12z"/>
	</g>
</g>
</svg>
